<?xml version="1.0" encoding="UTF-8" standalone="no"?>
<!DOCTYPE svg PUBLIC "-//W3C//DTD SVG 1.1//EN"
 "http://www.w3.org/Graphics/SVG/1.1/DTD/svg11.dtd">
<!-- Generated by graphviz version 2.43.0 (0)
 -->
<!-- Title: main Pages: 1 -->
<svg width="798pt" height="188pt"
 viewBox="0.00 0.00 798.00 188.00" xmlns="http://www.w3.org/2000/svg" xmlns:xlink="http://www.w3.org/1999/xlink">
<g id="graph0" class="graph" transform="scale(1 1) rotate(0) translate(4 184)">
<title>main</title>
<!-- Node1 -->
<g id="node1" class="node">
<title>Node1</title>
<g id="a_node1"><a xlink:title=" ">
<polygon fill="#999999" stroke="#666666" points="41,-150.5 0,-150.5 0,-131.5 41,-131.5 41,-150.5"/>
<text text-anchor="middle" x="20.5" y="-138.5" font-family="Helvetica,sans-Serif" font-size="10.00">main</text>
</a>
</g>
</g>
<!-- Node2 -->
<g id="node2" class="node">
<title>Node2</title>
<g id="a_node2"><a xlink:href="classhqp_1_1SmartContainer.html#a535f6fa2534bccb4d47b52962e82a4ab" target="_top" xlink:title=" ">
<polygon fill="white" stroke="#666666" points="194,-180 77,-180 77,-150 194,-150 194,-180"/>
<text text-anchor="start" x="85" y="-168" font-family="Helvetica,sans-Serif" font-size="10.00">hqp::SmartContainer</text>
<text text-anchor="middle" x="135.5" y="-157" font-family="Helvetica,sans-Serif" font-size="10.00">::emplace_back</text>
</a>
</g>
</g>
<!-- Node1&#45;&gt;Node2 -->
<g id="edge1" class="edge">
<title>Node1&#45;&gt;Node2</title>
<path fill="none" stroke="#63b8ff" d="M41.18,-145.18C48.6,-146.76 57.51,-148.65 66.85,-150.63"/>
<polygon fill="#63b8ff" stroke="#63b8ff" points="66.18,-154.07 76.69,-152.72 67.63,-147.22 66.18,-154.07"/>
</g>
<!-- Node3 -->
<g id="node3" class="node">
<title>Node3</title>
<g id="a_node3"><a xlink:href="classhqp_1_1HierarchicalQP.html#afd188fe690d31e139bdb9ed95b8acf01" target="_top" xlink:title="Computes and retrieves the primal solution.">
<polygon fill="white" stroke="#666666" points="192,-132 79,-132 79,-102 192,-102 192,-132"/>
<text text-anchor="start" x="87" y="-120" font-family="Helvetica,sans-Serif" font-size="10.00">hqp::HierarchicalQP</text>
<text text-anchor="middle" x="135.5" y="-109" font-family="Helvetica,sans-Serif" font-size="10.00">::get_primal</text>
</a>
</g>
</g>
<!-- Node1&#45;&gt;Node3 -->
<g id="edge2" class="edge">
<title>Node1&#45;&gt;Node3</title>
<path fill="none" stroke="#63b8ff" d="M41.18,-136.82C49.06,-135.15 58.62,-133.12 68.58,-131"/>
<polygon fill="#63b8ff" stroke="#63b8ff" points="69.58,-134.37 78.63,-128.87 68.12,-127.52 69.58,-134.37"/>
</g>
<!-- Node4 -->
<g id="node4" class="node">
<title>Node4</title>
<g id="a_node4"><a xlink:href="classhqp_1_1HierarchicalQP.html#adac78a9cc96e9d4f311b9ef72acd7ebd" target="_top" xlink:title="Solves the overall HQP by combining tasks.">
<polygon fill="white" stroke="#666666" points="343,-132 230,-132 230,-102 343,-102 343,-132"/>
<text text-anchor="start" x="238" y="-120" font-family="Helvetica,sans-Serif" font-size="10.00">hqp::HierarchicalQP</text>
<text text-anchor="middle" x="286.5" y="-109" font-family="Helvetica,sans-Serif" font-size="10.00">::solve</text>
</a>
</g>
</g>
<!-- Node3&#45;&gt;Node4 -->
<g id="edge3" class="edge">
<title>Node3&#45;&gt;Node4</title>
<path fill="none" stroke="#63b8ff" d="M192.41,-117C201.29,-117 210.54,-117 219.62,-117"/>
<polygon fill="#63b8ff" stroke="#63b8ff" points="219.78,-120.5 229.78,-117 219.78,-113.5 219.78,-120.5"/>
</g>
<!-- Node5 -->
<g id="node5" class="node">
<title>Node5</title>
<g id="a_node5"><a xlink:href="classhqp_1_1HierarchicalQP.html#add4448ad1c21585e607457463016a027" target="_top" xlink:title="Handles equality constraint resolution.">
<polygon fill="white" stroke="#666666" points="641,-154 528,-154 528,-124 641,-124 641,-154"/>
<text text-anchor="start" x="536" y="-142" font-family="Helvetica,sans-Serif" font-size="10.00">hqp::HierarchicalQP</text>
<text text-anchor="middle" x="584.5" y="-131" font-family="Helvetica,sans-Serif" font-size="10.00">::equality_hqp</text>
</a>
</g>
</g>
<!-- Node4&#45;&gt;Node5 -->
<g id="edge4" class="edge">
<title>Node4&#45;&gt;Node5</title>
<path fill="none" stroke="#63b8ff" d="M343.18,-121.14C392.71,-124.82 465.22,-130.21 517.62,-134.1"/>
<polygon fill="#63b8ff" stroke="#63b8ff" points="517.59,-137.61 527.82,-134.86 518.11,-130.63 517.59,-137.61"/>
</g>
<!-- Node8 -->
<g id="node8" class="node">
<title>Node8</title>
<g id="a_node8"><a xlink:href="classhqp_1_1HierarchicalQP.html#aaf6df9e4aa247e25e1ff253bd6501028" target="_top" xlink:title="Handles inequality constrained tasks.">
<polygon fill="white" stroke="#666666" points="492,-111 379,-111 379,-81 492,-81 492,-111"/>
<text text-anchor="start" x="387" y="-99" font-family="Helvetica,sans-Serif" font-size="10.00">hqp::HierarchicalQP</text>
<text text-anchor="middle" x="435.5" y="-88" font-family="Helvetica,sans-Serif" font-size="10.00">::inequality_hqp</text>
</a>
</g>
</g>
<!-- Node4&#45;&gt;Node8 -->
<g id="edge7" class="edge">
<title>Node4&#45;&gt;Node8</title>
<path fill="none" stroke="#63b8ff" d="M343.07,-109.06C351.49,-107.86 360.24,-106.61 368.84,-105.38"/>
<polygon fill="#63b8ff" stroke="#63b8ff" points="369.44,-108.83 378.85,-103.95 368.45,-101.9 369.44,-108.83"/>
</g>
<!-- Node6 -->
<g id="node6" class="node">
<title>Node6</title>
<g id="a_node6"><a xlink:href="namespacehqp.html#ab85e1340e7fee0a8d13730c50a970ceb" target="_top" xlink:title=" ">
<polygon fill="white" stroke="#666666" points="763,-67.5 704,-67.5 704,-48.5 763,-48.5 763,-67.5"/>
<text text-anchor="middle" x="733.5" y="-55.5" font-family="Helvetica,sans-Serif" font-size="10.00">hqp::find</text>
</a>
</g>
</g>
<!-- Node5&#45;&gt;Node6 -->
<g id="edge5" class="edge">
<title>Node5&#45;&gt;Node6</title>
<path fill="none" stroke="#63b8ff" d="M612.81,-123.95C639.43,-109.29 679.64,-87.12 705.99,-72.61"/>
<polygon fill="#63b8ff" stroke="#63b8ff" points="707.95,-75.52 715.02,-67.63 704.57,-69.39 707.95,-75.52"/>
</g>
<!-- Node7 -->
<g id="node7" class="node">
<title>Node7</title>
<g id="a_node7"><a xlink:href="classhqp_1_1HierarchicalQP.html#a69f7398b0f10bcc38452b0acf12f9997" target="_top" xlink:title="Retrieves task data.">
<polygon fill="white" stroke="#666666" points="790,-135 677,-135 677,-105 790,-105 790,-135"/>
<text text-anchor="start" x="685" y="-123" font-family="Helvetica,sans-Serif" font-size="10.00">hqp::HierarchicalQP</text>
<text text-anchor="middle" x="733.5" y="-112" font-family="Helvetica,sans-Serif" font-size="10.00">::get_task</text>
</a>
</g>
</g>
<!-- Node5&#45;&gt;Node7 -->
<g id="edge6" class="edge">
<title>Node5&#45;&gt;Node7</title>
<path fill="none" stroke="#63b8ff" d="M641.07,-131.82C649.49,-130.73 658.24,-129.6 666.84,-128.49"/>
<polygon fill="#63b8ff" stroke="#63b8ff" points="667.38,-131.95 676.85,-127.19 666.48,-125 667.38,-131.95"/>
</g>
<!-- Node8&#45;&gt;Node5 -->
<g id="edge10" class="edge">
<title>Node8&#45;&gt;Node5</title>
<path fill="none" stroke="#63b8ff" d="M487.91,-111.04C498.93,-114.26 510.67,-117.7 522.02,-121.02"/>
<polygon fill="#63b8ff" stroke="#63b8ff" points="521.29,-124.45 531.87,-123.9 523.25,-117.73 521.29,-124.45"/>
</g>
<!-- Node8&#45;&gt;Node6 -->
<g id="edge11" class="edge">
<title>Node8&#45;&gt;Node6</title>
<path fill="none" stroke="#63b8ff" d="M492.18,-88.85C551.09,-81.29 642.49,-69.56 693.93,-62.95"/>
<polygon fill="#63b8ff" stroke="#63b8ff" points="694.49,-66.41 703.97,-61.66 693.6,-59.46 694.49,-66.41"/>
</g>
<!-- Node8&#45;&gt;Node7 -->
<g id="edge12" class="edge">
<title>Node8&#45;&gt;Node7</title>
<path fill="none" stroke="#63b8ff" d="M492.18,-100.51C541.71,-104.53 614.22,-110.41 666.62,-114.66"/>
<polygon fill="#63b8ff" stroke="#63b8ff" points="666.57,-118.17 676.82,-115.49 667.14,-111.19 666.57,-118.17"/>
</g>
<!-- Node9 -->
<g id="node9" class="node">
<title>Node9</title>
<g id="a_node9"><a xlink:href="classhqp_1_1HierarchicalQP.html#a7234e6ffbcaa28f908a0d728e4506ca3" target="_top" xlink:title="Updates dual variables.">
<polygon fill="white" stroke="#666666" points="641,-30 528,-30 528,0 641,0 641,-30"/>
<text text-anchor="start" x="536" y="-18" font-family="Helvetica,sans-Serif" font-size="10.00">hqp::HierarchicalQP</text>
<text text-anchor="middle" x="584.5" y="-7" font-family="Helvetica,sans-Serif" font-size="10.00">::dual_update</text>
</a>
</g>
</g>
<!-- Node8&#45;&gt;Node9 -->
<g id="edge8" class="edge">
<title>Node8&#45;&gt;Node9</title>
<path fill="none" stroke="#63b8ff" d="M462.39,-80.96C480.64,-70.44 505.7,-56.16 528,-44 533.57,-40.96 539.49,-37.8 545.31,-34.73"/>
<polygon fill="#63b8ff" stroke="#63b8ff" points="547.08,-37.75 554.31,-30.01 543.82,-31.56 547.08,-37.75"/>
</g>
<!-- Node9&#45;&gt;Node6 -->
<g id="edge9" class="edge">
<title>Node9&#45;&gt;Node6</title>
<path fill="none" stroke="#63b8ff" d="M636.91,-30.04C655.6,-35.51 676.39,-41.59 693.79,-46.68"/>
<polygon fill="#63b8ff" stroke="#63b8ff" points="693.03,-50.1 703.61,-49.55 694.99,-43.38 693.03,-50.1"/>
</g>
</g>
</svg>
