<?xml version="1.0" encoding="UTF-8" standalone="no"?>
<!DOCTYPE svg PUBLIC "-//W3C//DTD SVG 1.1//EN"
 "http://www.w3.org/Graphics/SVG/1.1/DTD/svg11.dtd">
<!-- Generated by graphviz version 2.43.0 (0)
 -->
<!-- Title: tests/00_basic_select.cpp Pages: 1 -->
<svg width="642pt" height="247pt"
 viewBox="0.00 0.00 641.50 247.00" xmlns="http://www.w3.org/2000/svg" xmlns:xlink="http://www.w3.org/1999/xlink">
<g id="graph0" class="graph" transform="scale(1 1) rotate(0) translate(4 243)">
<title>tests/00_basic_select.cpp</title>
<!-- Node1 -->
<g id="node1" class="node">
<title>Node1</title>
<g id="a_node1"><a xlink:title=" ">
<polygon fill="#999999" stroke="#666666" points="189.5,-239 48.5,-239 48.5,-220 189.5,-220 189.5,-239"/>
<text text-anchor="middle" x="119" y="-227" font-family="Helvetica,sans-Serif" font-size="10.00">tests/00_basic_select.cpp</text>
</a>
</g>
</g>
<!-- Node2 -->
<g id="node2" class="node">
<title>Node2</title>
<g id="a_node2"><a xlink:title=" ">
<polygon fill="#e0e0e0" stroke="#999999" points="60,-184 0,-184 0,-165 60,-165 60,-184"/>
<text text-anchor="middle" x="30" y="-172" font-family="Helvetica,sans-Serif" font-size="10.00">iostream</text>
</a>
</g>
</g>
<!-- Node1&#45;&gt;Node2 -->
<g id="edge1" class="edge">
<title>Node1&#45;&gt;Node2</title>
<path fill="none" stroke="#63b8ff" d="M104.7,-219.98C90.9,-211.77 69.76,-199.18 53.49,-189.49"/>
<polygon fill="#63b8ff" stroke="#63b8ff" points="54.94,-186.28 44.56,-184.17 51.36,-192.29 54.94,-186.28"/>
</g>
<!-- Node3 -->
<g id="node3" class="node">
<title>Node3</title>
<g id="a_node3"><a xlink:title=" ">
<polygon fill="#e0e0e0" stroke="#999999" points="202.5,-19 125.5,-19 125.5,0 202.5,0 202.5,-19"/>
<text text-anchor="middle" x="164" y="-7" font-family="Helvetica,sans-Serif" font-size="10.00">Eigen/Dense</text>
</a>
</g>
</g>
<!-- Node1&#45;&gt;Node3 -->
<g id="edge2" class="edge">
<title>Node1&#45;&gt;Node3</title>
<path fill="none" stroke="#63b8ff" d="M115.44,-219.9C110.84,-207.71 103.77,-184.71 107,-165 115.47,-113.23 141.08,-56.31 154.91,-28.21"/>
<polygon fill="#63b8ff" stroke="#63b8ff" points="158.06,-29.73 159.41,-19.23 151.8,-26.6 158.06,-29.73"/>
</g>
<!-- Node4 -->
<g id="node4" class="node">
<title>Node4</title>
<g id="a_node4"><a xlink:href="hqp_8hpp.html" target="_top" xlink:title="Main interface for the Weighted&#45;Hierarchical&#45;QP solver.">
<polygon fill="white" stroke="#666666" points="454,-184 398,-184 398,-165 454,-165 454,-184"/>
<text text-anchor="middle" x="426" y="-172" font-family="Helvetica,sans-Serif" font-size="10.00">hqp.hpp</text>
</a>
</g>
</g>
<!-- Node1&#45;&gt;Node4 -->
<g id="edge3" class="edge">
<title>Node1&#45;&gt;Node4</title>
<path fill="none" stroke="#63b8ff" d="M168.32,-219.98C229.47,-209.43 332.37,-191.66 387.83,-182.09"/>
<polygon fill="#63b8ff" stroke="#63b8ff" points="388.68,-185.49 397.94,-180.34 387.49,-178.6 388.68,-185.49"/>
</g>
<!-- Node14 -->
<g id="node14" class="node">
<title>Node14</title>
<g id="a_node14"><a xlink:href="library_8hpp.html" target="_top" xlink:title="Defines test task classes for the Weighted&#45;Hierarchical&#45;QP solver.">
<polygon fill="white" stroke="#666666" points="184,-184 116,-184 116,-165 184,-165 184,-184"/>
<text text-anchor="middle" x="150" y="-172" font-family="Helvetica,sans-Serif" font-size="10.00">library.hpp</text>
</a>
</g>
</g>
<!-- Node1&#45;&gt;Node14 -->
<g id="edge20" class="edge">
<title>Node1&#45;&gt;Node14</title>
<path fill="none" stroke="#63b8ff" d="M124.12,-219.75C128.36,-212.49 134.53,-201.95 139.78,-192.98"/>
<polygon fill="#63b8ff" stroke="#63b8ff" points="142.95,-194.49 144.98,-184.09 136.91,-190.95 142.95,-194.49"/>
</g>
<!-- Node4&#45;&gt;Node3 -->
<g id="edge6" class="edge">
<title>Node4&#45;&gt;Node3</title>
<path fill="none" stroke="#63b8ff" d="M397.96,-168.08C350.63,-157.61 254.25,-130.5 195,-74 182.11,-61.71 173.87,-42.93 169.15,-28.98"/>
<polygon fill="#63b8ff" stroke="#63b8ff" points="172.38,-27.58 166.1,-19.05 165.69,-29.63 172.38,-27.58"/>
</g>
<!-- Node5 -->
<g id="node5" class="node">
<title>Node5</title>
<g id="a_node5"><a xlink:title=" ">
<polygon fill="#e0e0e0" stroke="#999999" points="568.5,-129 521.5,-129 521.5,-110 568.5,-110 568.5,-129"/>
<text text-anchor="middle" x="545" y="-117" font-family="Helvetica,sans-Serif" font-size="10.00">vector</text>
</a>
</g>
</g>
<!-- Node4&#45;&gt;Node5 -->
<g id="edge4" class="edge">
<title>Node4&#45;&gt;Node5</title>
<path fill="none" stroke="#63b8ff" d="M445.12,-164.98C464.35,-156.42 494.23,-143.11 516.31,-133.28"/>
<polygon fill="#63b8ff" stroke="#63b8ff" points="517.82,-136.44 525.53,-129.17 514.97,-130.04 517.82,-136.44"/>
</g>
<!-- Node6 -->
<g id="node6" class="node">
<title>Node6</title>
<g id="a_node6"><a xlink:title=" ">
<polygon fill="#e0e0e0" stroke="#999999" points="633.5,-74 592.5,-74 592.5,-55 633.5,-55 633.5,-74"/>
<text text-anchor="middle" x="613" y="-62" font-family="Helvetica,sans-Serif" font-size="10.00">tuple</text>
</a>
</g>
</g>
<!-- Node4&#45;&gt;Node6 -->
<g id="edge5" class="edge">
<title>Node4&#45;&gt;Node6</title>
<path fill="none" stroke="#63b8ff" d="M436.22,-164.92C452,-151.95 483.54,-127.05 513,-110 535.61,-96.91 562.79,-85.05 583.09,-76.87"/>
<polygon fill="#63b8ff" stroke="#63b8ff" points="584.45,-80.09 592.46,-73.16 581.87,-73.58 584.45,-80.09"/>
</g>
<!-- Node7 -->
<g id="node7" class="node">
<title>Node7</title>
<g id="a_node7"><a xlink:href="task_8hpp.html" target="_top" xlink:title="Declares the abstract Task interface and its derivatives used in the HQP solver.">
<polygon fill="white" stroke="#666666" points="426.5,-129 367.5,-129 367.5,-110 426.5,-110 426.5,-129"/>
<text text-anchor="middle" x="397" y="-117" font-family="Helvetica,sans-Serif" font-size="10.00">task.hpp</text>
</a>
</g>
</g>
<!-- Node4&#45;&gt;Node7 -->
<g id="edge7" class="edge">
<title>Node4&#45;&gt;Node7</title>
<path fill="none" stroke="#63b8ff" d="M421.21,-164.75C417.24,-157.49 411.47,-146.95 406.57,-137.98"/>
<polygon fill="#63b8ff" stroke="#63b8ff" points="409.57,-136.18 401.7,-129.09 403.43,-139.54 409.57,-136.18"/>
</g>
<!-- Node13 -->
<g id="node13" class="node">
<title>Node13</title>
<g id="a_node13"><a xlink:href="utils_8hpp.html" target="_top" xlink:title="Declares common utility functions used throughout the HQP solver.">
<polygon fill="white" stroke="#666666" points="535.5,-74 476.5,-74 476.5,-55 535.5,-55 535.5,-74"/>
<text text-anchor="middle" x="506" y="-62" font-family="Helvetica,sans-Serif" font-size="10.00">utils.hpp</text>
</a>
</g>
</g>
<!-- Node4&#45;&gt;Node13 -->
<g id="edge19" class="edge">
<title>Node4&#45;&gt;Node13</title>
<path fill="none" stroke="#63b8ff" d="M432.55,-164.66C445.86,-146.69 476.27,-105.64 493.49,-82.38"/>
<polygon fill="#63b8ff" stroke="#63b8ff" points="496.45,-84.28 499.59,-74.16 490.82,-80.11 496.45,-84.28"/>
</g>
<!-- Node7&#45;&gt;Node3 -->
<g id="edge14" class="edge">
<title>Node7&#45;&gt;Node3</title>
<path fill="none" stroke="#63b8ff" d="M367.25,-116.29C330.53,-112.42 267.26,-101.95 221,-74 201.86,-62.44 185.48,-42.43 175.25,-27.96"/>
<polygon fill="#63b8ff" stroke="#63b8ff" points="177.96,-25.72 169.45,-19.4 172.16,-29.64 177.96,-25.72"/>
</g>
<!-- Node7&#45;&gt;Node6 -->
<g id="edge8" class="edge">
<title>Node7&#45;&gt;Node6</title>
<path fill="none" stroke="#63b8ff" d="M426.58,-111.24C467.59,-101.18 541.32,-83.09 582.71,-72.93"/>
<polygon fill="#63b8ff" stroke="#63b8ff" points="583.61,-76.31 592.49,-70.53 581.95,-69.52 583.61,-76.31"/>
</g>
<!-- Node8 -->
<g id="node8" class="node">
<title>Node8</title>
<g id="a_node8"><a xlink:title=" ">
<polygon fill="#e0e0e0" stroke="#999999" points="485,-19 427,-19 427,0 485,0 485,-19"/>
<text text-anchor="middle" x="456" y="-7" font-family="Helvetica,sans-Serif" font-size="10.00">memory</text>
</a>
</g>
</g>
<!-- Node7&#45;&gt;Node8 -->
<g id="edge9" class="edge">
<title>Node7&#45;&gt;Node8</title>
<path fill="none" stroke="#63b8ff" d="M404.24,-109.69C411.16,-100.98 421.62,-87.1 429,-74 437.17,-59.48 444.43,-42 449.36,-29.06"/>
<polygon fill="#63b8ff" stroke="#63b8ff" points="452.74,-30.01 452.92,-19.42 446.17,-27.59 452.74,-30.01"/>
</g>
<!-- Node9 -->
<g id="node9" class="node">
<title>Node9</title>
<g id="a_node9"><a xlink:title=" ">
<polygon fill="#e0e0e0" stroke="#999999" points="419.5,-74 374.5,-74 374.5,-55 419.5,-55 419.5,-74"/>
<text text-anchor="middle" x="397" y="-62" font-family="Helvetica,sans-Serif" font-size="10.00">utility</text>
</a>
</g>
</g>
<!-- Node7&#45;&gt;Node9 -->
<g id="edge10" class="edge">
<title>Node7&#45;&gt;Node9</title>
<path fill="none" stroke="#63b8ff" d="M397,-109.75C397,-102.8 397,-92.85 397,-84.13"/>
<polygon fill="#63b8ff" stroke="#63b8ff" points="400.5,-84.09 397,-74.09 393.5,-84.09 400.5,-84.09"/>
</g>
<!-- Node10 -->
<g id="node10" class="node">
<title>Node10</title>
<g id="a_node10"><a xlink:title=" ">
<polygon fill="#e0e0e0" stroke="#999999" points="589.5,-19 520.5,-19 520.5,0 589.5,0 589.5,-19"/>
<text text-anchor="middle" x="555" y="-7" font-family="Helvetica,sans-Serif" font-size="10.00">type_traits</text>
</a>
</g>
</g>
<!-- Node7&#45;&gt;Node10 -->
<g id="edge11" class="edge">
<title>Node7&#45;&gt;Node10</title>
<path fill="none" stroke="#63b8ff" d="M426.78,-113.39C465.34,-106.15 529.48,-91.79 545,-74 555.55,-61.91 557.4,-43.38 557,-29.45"/>
<polygon fill="#63b8ff" stroke="#63b8ff" points="560.47,-28.8 556.28,-19.07 553.48,-29.29 560.47,-28.8"/>
</g>
<!-- Node11 -->
<g id="node11" class="node">
<title>Node11</title>
<g id="a_node11"><a xlink:title=" ">
<polygon fill="#e0e0e0" stroke="#999999" points="282,-74 230,-74 230,-55 282,-55 282,-74"/>
<text text-anchor="middle" x="256" y="-62" font-family="Helvetica,sans-Serif" font-size="10.00">cassert</text>
</a>
</g>
</g>
<!-- Node7&#45;&gt;Node11 -->
<g id="edge12" class="edge">
<title>Node7&#45;&gt;Node11</title>
<path fill="none" stroke="#63b8ff" d="M374.35,-109.98C351.15,-101.27 314.88,-87.63 288.6,-77.75"/>
<polygon fill="#63b8ff" stroke="#63b8ff" points="289.66,-74.41 279.07,-74.17 287.2,-80.97 289.66,-74.41"/>
</g>
<!-- Node12 -->
<g id="node12" class="node">
<title>Node12</title>
<g id="a_node12"><a xlink:title=" ">
<polygon fill="#e0e0e0" stroke="#999999" points="356,-74 300,-74 300,-55 356,-55 356,-74"/>
<text text-anchor="middle" x="328" y="-62" font-family="Helvetica,sans-Serif" font-size="10.00">optional</text>
</a>
</g>
</g>
<!-- Node7&#45;&gt;Node12 -->
<g id="edge13" class="edge">
<title>Node7&#45;&gt;Node12</title>
<path fill="none" stroke="#63b8ff" d="M385.91,-109.98C375.51,-102 359.74,-89.88 347.28,-80.31"/>
<polygon fill="#63b8ff" stroke="#63b8ff" points="349.35,-77.49 339.29,-74.17 345.09,-83.04 349.35,-77.49"/>
</g>
<!-- Node7&#45;&gt;Node13 -->
<g id="edge15" class="edge">
<title>Node7&#45;&gt;Node13</title>
<path fill="none" stroke="#63b8ff" d="M414.51,-109.98C431.97,-101.5 459.01,-88.35 479.17,-78.54"/>
<polygon fill="#63b8ff" stroke="#63b8ff" points="480.71,-81.69 488.17,-74.17 477.64,-75.4 480.71,-81.69"/>
</g>
<!-- Node13&#45;&gt;Node3 -->
<g id="edge18" class="edge">
<title>Node13&#45;&gt;Node3</title>
<path fill="none" stroke="#63b8ff" d="M476.25,-58.89C417.23,-49.74 284.86,-29.23 212.87,-18.07"/>
<polygon fill="#63b8ff" stroke="#63b8ff" points="213.12,-14.57 202.7,-16.5 212.05,-21.49 213.12,-14.57"/>
</g>
<!-- Node13&#45;&gt;Node8 -->
<g id="edge16" class="edge">
<title>Node13&#45;&gt;Node8</title>
<path fill="none" stroke="#63b8ff" d="M497.74,-54.75C490.54,-47.11 479.89,-35.82 471.15,-26.56"/>
<polygon fill="#63b8ff" stroke="#63b8ff" points="473.51,-23.96 464.1,-19.09 468.42,-28.76 473.51,-23.96"/>
</g>
<!-- Node13&#45;&gt;Node10 -->
<g id="edge17" class="edge">
<title>Node13&#45;&gt;Node10</title>
<path fill="none" stroke="#63b8ff" d="M514.09,-54.75C521.16,-47.11 531.59,-35.82 540.15,-26.56"/>
<polygon fill="#63b8ff" stroke="#63b8ff" points="542.84,-28.81 547.06,-19.09 537.7,-24.06 542.84,-28.81"/>
</g>
<!-- Node14&#45;&gt;Node3 -->
<g id="edge21" class="edge">
<title>Node14&#45;&gt;Node3</title>
<path fill="none" stroke="#63b8ff" d="M149.1,-164.81C147.27,-145.12 143.75,-95.67 150,-55 151.35,-46.19 154.13,-36.74 156.85,-28.82"/>
<polygon fill="#63b8ff" stroke="#63b8ff" points="160.23,-29.77 160.4,-19.18 153.66,-27.35 160.23,-29.77"/>
</g>
<!-- Node14&#45;&gt;Node7 -->
<g id="edge22" class="edge">
<title>Node14&#45;&gt;Node7</title>
<path fill="none" stroke="#63b8ff" d="M184.08,-166.19C229.33,-156.48 309.1,-139.36 357.1,-129.06"/>
<polygon fill="#63b8ff" stroke="#63b8ff" points="358.09,-132.43 367.13,-126.91 356.62,-125.59 358.09,-132.43"/>
</g>
</g>
</svg>
