<?xml version="1.0" encoding="UTF-8" standalone="no"?>
<!DOCTYPE svg PUBLIC "-//W3C//DTD SVG 1.1//EN"
 "http://www.w3.org/Graphics/SVG/1.1/DTD/svg11.dtd">
<!-- Generated by graphviz version 2.43.0 (0)
 -->
<!-- Title: main Pages: 1 -->
<svg width="798pt" height="163pt"
 viewBox="0.00 0.00 798.00 162.67" xmlns="http://www.w3.org/2000/svg" xmlns:xlink="http://www.w3.org/1999/xlink">
<g id="graph0" class="graph" transform="scale(1 1) rotate(0) translate(4 158.67)">
<title>main</title>
<!-- Node1 -->
<g id="node1" class="node">
<title>Node1</title>
<g id="a_node1"><a xlink:title=" ">
<polygon fill="#999999" stroke="#666666" points="41,-112.97 0,-112.97 0,-93.97 41,-93.97 41,-112.97"/>
<text text-anchor="middle" x="20.5" y="-100.97" font-family="Helvetica,sans-Serif" font-size="10.00">main</text>
</a>
</g>
</g>
<!-- Node2 -->
<g id="node2" class="node">
<title>Node2</title>
<g id="a_node2"><a xlink:href="classhqp_1_1SmartContainer.html#a535f6fa2534bccb4d47b52962e82a4ab" target="_top" xlink:title=" ">
<polygon fill="white" stroke="#666666" points="194,-142.47 77,-142.47 77,-112.47 194,-112.47 194,-142.47"/>
<text text-anchor="start" x="85" y="-130.47" font-family="Helvetica,sans-Serif" font-size="10.00">hqp::SmartContainer</text>
<text text-anchor="middle" x="135.5" y="-119.47" font-family="Helvetica,sans-Serif" font-size="10.00">::emplace_back</text>
</a>
</g>
</g>
<!-- Node1&#45;&gt;Node2 -->
<g id="edge1" class="edge">
<title>Node1&#45;&gt;Node2</title>
<path fill="none" stroke="#63b8ff" d="M41.18,-107.65C48.6,-109.22 57.51,-111.12 66.85,-113.1"/>
<polygon fill="#63b8ff" stroke="#63b8ff" points="66.18,-116.53 76.69,-115.19 67.63,-109.69 66.18,-116.53"/>
</g>
<!-- Node3 -->
<g id="node3" class="node">
<title>Node3</title>
<g id="a_node3"><a xlink:href="classhqp_1_1HierarchicalQP.html#afd188fe690d31e139bdb9ed95b8acf01" target="_top" xlink:title="Computes and retrieves the primal solution.">
<polygon fill="white" stroke="#666666" points="192,-94.47 79,-94.47 79,-64.47 192,-64.47 192,-94.47"/>
<text text-anchor="start" x="87" y="-82.47" font-family="Helvetica,sans-Serif" font-size="10.00">hqp::HierarchicalQP</text>
<text text-anchor="middle" x="135.5" y="-71.47" font-family="Helvetica,sans-Serif" font-size="10.00">::get_primal</text>
</a>
</g>
</g>
<!-- Node1&#45;&gt;Node3 -->
<g id="edge2" class="edge">
<title>Node1&#45;&gt;Node3</title>
<path fill="none" stroke="#63b8ff" d="M41.18,-99.29C49.06,-97.61 58.62,-95.58 68.58,-93.47"/>
<polygon fill="#63b8ff" stroke="#63b8ff" points="69.58,-96.83 78.63,-91.33 68.12,-89.99 69.58,-96.83"/>
</g>
<!-- Node4 -->
<g id="node4" class="node">
<title>Node4</title>
<g id="a_node4"><a xlink:href="classhqp_1_1HierarchicalQP.html#adac78a9cc96e9d4f311b9ef72acd7ebd" target="_top" xlink:title="Solves the overall HQP by combining tasks.">
<polygon fill="white" stroke="#666666" points="343,-94.47 230,-94.47 230,-64.47 343,-64.47 343,-94.47"/>
<text text-anchor="start" x="238" y="-82.47" font-family="Helvetica,sans-Serif" font-size="10.00">hqp::HierarchicalQP</text>
<text text-anchor="middle" x="286.5" y="-71.47" font-family="Helvetica,sans-Serif" font-size="10.00">::solve</text>
</a>
</g>
</g>
<!-- Node3&#45;&gt;Node4 -->
<g id="edge3" class="edge">
<title>Node3&#45;&gt;Node4</title>
<path fill="none" stroke="#63b8ff" d="M192.41,-79.47C201.29,-79.47 210.54,-79.47 219.62,-79.47"/>
<polygon fill="#63b8ff" stroke="#63b8ff" points="219.78,-82.97 229.78,-79.47 219.78,-75.97 219.78,-82.97"/>
</g>
<!-- Node5 -->
<g id="node5" class="node">
<title>Node5</title>
<g id="a_node5"><a xlink:href="classhqp_1_1HierarchicalQP.html#add4448ad1c21585e607457463016a027" target="_top" xlink:title="Handles equality constraint resolution.">
<polygon fill="white" stroke="#666666" points="641,-51.47 528,-51.47 528,-21.47 641,-21.47 641,-51.47"/>
<text text-anchor="start" x="536" y="-39.47" font-family="Helvetica,sans-Serif" font-size="10.00">hqp::HierarchicalQP</text>
<text text-anchor="middle" x="584.5" y="-28.47" font-family="Helvetica,sans-Serif" font-size="10.00">::equality_hqp</text>
</a>
</g>
</g>
<!-- Node4&#45;&gt;Node5 -->
<g id="edge4" class="edge">
<title>Node4&#45;&gt;Node5</title>
<path fill="none" stroke="#63b8ff" d="M338.95,-64.39C351.93,-61.03 365.9,-57.78 379,-55.47 424.87,-47.38 477.17,-42.6 517.4,-39.85"/>
<polygon fill="#63b8ff" stroke="#63b8ff" points="517.87,-43.33 527.62,-39.18 517.41,-36.34 517.87,-43.33"/>
</g>
<!-- Node6 -->
<g id="node6" class="node">
<title>Node6</title>
<g id="a_node6"><a xlink:href="namespacehqp.html#ab85e1340e7fee0a8d13730c50a970ceb" target="_top" xlink:title=" ">
<polygon fill="white" stroke="#666666" points="763,-109.97 704,-109.97 704,-90.97 763,-90.97 763,-109.97"/>
<text text-anchor="middle" x="733.5" y="-97.97" font-family="Helvetica,sans-Serif" font-size="10.00">hqp::find</text>
</a>
</g>
</g>
<!-- Node4&#45;&gt;Node6 -->
<g id="edge7" class="edge">
<title>Node4&#45;&gt;Node6</title>
<path fill="none" stroke="#63b8ff" d="M319.39,-94.49C381.61,-121.81 523.4,-174.36 641,-146.47 666.19,-140.49 692.33,-126.43 710.19,-115.42"/>
<polygon fill="#63b8ff" stroke="#63b8ff" points="712.16,-118.31 718.72,-109.99 708.4,-112.4 712.16,-118.31"/>
</g>
<!-- Node8 -->
<g id="node8" class="node">
<title>Node8</title>
<g id="a_node8"><a xlink:href="classhqp_1_1HierarchicalQP.html#aaf6df9e4aa247e25e1ff253bd6501028" target="_top" xlink:title="Handles inequality constrained tasks.">
<polygon fill="white" stroke="#666666" points="492,-94.47 379,-94.47 379,-64.47 492,-64.47 492,-94.47"/>
<text text-anchor="start" x="387" y="-82.47" font-family="Helvetica,sans-Serif" font-size="10.00">hqp::HierarchicalQP</text>
<text text-anchor="middle" x="435.5" y="-71.47" font-family="Helvetica,sans-Serif" font-size="10.00">::inequality_hqp</text>
</a>
</g>
</g>
<!-- Node4&#45;&gt;Node8 -->
<g id="edge8" class="edge">
<title>Node4&#45;&gt;Node8</title>
<path fill="none" stroke="#63b8ff" d="M343.07,-79.47C351.49,-79.47 360.24,-79.47 368.84,-79.47"/>
<polygon fill="#63b8ff" stroke="#63b8ff" points="368.85,-82.97 378.85,-79.47 368.85,-75.97 368.85,-82.97"/>
</g>
<!-- Node5&#45;&gt;Node6 -->
<g id="edge5" class="edge">
<title>Node5&#45;&gt;Node6</title>
<path fill="none" stroke="#63b8ff" d="M619.96,-51.47C644.58,-62.19 677.42,-76.49 701.27,-86.87"/>
<polygon fill="#63b8ff" stroke="#63b8ff" points="700,-90.13 710.57,-90.92 702.79,-83.72 700,-90.13"/>
</g>
<!-- Node7 -->
<g id="node7" class="node">
<title>Node7</title>
<g id="a_node7"><a xlink:href="classhqp_1_1HierarchicalQP.html#a69f7398b0f10bcc38452b0acf12f9997" target="_top" xlink:title="Retrieves task data.">
<polygon fill="white" stroke="#666666" points="790,-30.47 677,-30.47 677,-0.47 790,-0.47 790,-30.47"/>
<text text-anchor="start" x="685" y="-18.47" font-family="Helvetica,sans-Serif" font-size="10.00">hqp::HierarchicalQP</text>
<text text-anchor="middle" x="733.5" y="-7.47" font-family="Helvetica,sans-Serif" font-size="10.00">::get_task</text>
</a>
</g>
</g>
<!-- Node5&#45;&gt;Node7 -->
<g id="edge6" class="edge">
<title>Node5&#45;&gt;Node7</title>
<path fill="none" stroke="#63b8ff" d="M641.07,-28.53C649.49,-27.33 658.24,-26.08 666.84,-24.85"/>
<polygon fill="#63b8ff" stroke="#63b8ff" points="667.44,-28.3 676.85,-23.42 666.45,-21.37 667.44,-28.3"/>
</g>
<!-- Node8&#45;&gt;Node5 -->
<g id="edge11" class="edge">
<title>Node8&#45;&gt;Node5</title>
<path fill="none" stroke="#63b8ff" d="M487.91,-64.43C498.93,-61.21 510.67,-57.77 522.02,-54.45"/>
<polygon fill="#63b8ff" stroke="#63b8ff" points="523.25,-57.74 531.87,-51.57 521.29,-51.02 523.25,-57.74"/>
</g>
<!-- Node8&#45;&gt;Node6 -->
<g id="edge12" class="edge">
<title>Node8&#45;&gt;Node6</title>
<path fill="none" stroke="#63b8ff" d="M492.18,-83.42C551.09,-87.6 642.49,-94.08 693.93,-97.73"/>
<polygon fill="#63b8ff" stroke="#63b8ff" points="693.74,-101.23 703.97,-98.44 694.24,-94.24 693.74,-101.23"/>
</g>
<!-- Node8&#45;&gt;Node7 -->
<g id="edge13" class="edge">
<title>Node8&#45;&gt;Node7</title>
<path fill="none" stroke="#63b8ff" d="M450.96,-64.21C467.68,-47.78 496.94,-22.62 528,-12.47 572.65,2.13 625.76,0.84 666.67,-3.81"/>
<polygon fill="#63b8ff" stroke="#63b8ff" points="666.44,-7.31 676.79,-5.06 667.29,-0.37 666.44,-7.31"/>
</g>
<!-- Node9 -->
<g id="node9" class="node">
<title>Node9</title>
<g id="a_node9"><a xlink:href="classhqp_1_1HierarchicalQP.html#a7234e6ffbcaa28f908a0d728e4506ca3" target="_top" xlink:title="Updates dual variables.">
<polygon fill="white" stroke="#666666" points="641,-137.47 528,-137.47 528,-107.47 641,-107.47 641,-137.47"/>
<text text-anchor="start" x="536" y="-125.47" font-family="Helvetica,sans-Serif" font-size="10.00">hqp::HierarchicalQP</text>
<text text-anchor="middle" x="584.5" y="-114.47" font-family="Helvetica,sans-Serif" font-size="10.00">::dual_update</text>
</a>
</g>
</g>
<!-- Node8&#45;&gt;Node9 -->
<g id="edge9" class="edge">
<title>Node8&#45;&gt;Node9</title>
<path fill="none" stroke="#63b8ff" d="M487.91,-94.51C498.93,-97.73 510.67,-101.16 522.02,-104.48"/>
<polygon fill="#63b8ff" stroke="#63b8ff" points="521.29,-107.91 531.87,-107.36 523.25,-101.2 521.29,-107.91"/>
</g>
<!-- Node9&#45;&gt;Node6 -->
<g id="edge10" class="edge">
<title>Node9&#45;&gt;Node6</title>
<path fill="none" stroke="#63b8ff" d="M641.07,-114.15C658.55,-111.53 677.46,-108.7 693.53,-106.3"/>
<polygon fill="#63b8ff" stroke="#63b8ff" points="694.26,-109.73 703.63,-104.79 693.22,-102.81 694.26,-109.73"/>
</g>
</g>
</svg>
