<?xml version="1.0" encoding="UTF-8" standalone="no"?>
<!DOCTYPE svg PUBLIC "-//W3C//DTD SVG 1.1//EN"
 "http://www.w3.org/Graphics/SVG/1.1/DTD/svg11.dtd">
<!-- Generated by graphviz version 2.43.0 (0)
 -->
<!-- Title: main Pages: 1 -->
<svg width="202pt" height="86pt"
 viewBox="0.00 0.00 202.00 86.00" xmlns="http://www.w3.org/2000/svg" xmlns:xlink="http://www.w3.org/1999/xlink">
<g id="graph0" class="graph" transform="scale(1 1) rotate(0) translate(4 82)">
<title>main</title>
<!-- Node1 -->
<g id="node1" class="node">
<title>Node1</title>
<g id="a_node1"><a xlink:title=" ">
<polygon fill="#999999" stroke="#666666" points="41,-48.5 0,-48.5 0,-29.5 41,-29.5 41,-48.5"/>
<text text-anchor="middle" x="20.5" y="-36.5" font-family="Helvetica,sans-Serif" font-size="10.00">main</text>
</a>
</g>
</g>
<!-- Node2 -->
<g id="node2" class="node">
<title>Node2</title>
<g id="a_node2"><a xlink:href="classhqp_1_1SmartContainer.html#a535f6fa2534bccb4d47b52962e82a4ab" target="_top" xlink:title=" ">
<polygon fill="white" stroke="#666666" points="194,-78 77,-78 77,-48 194,-48 194,-78"/>
<text text-anchor="start" x="85" y="-66" font-family="Helvetica,sans-Serif" font-size="10.00">hqp::SmartContainer</text>
<text text-anchor="middle" x="135.5" y="-55" font-family="Helvetica,sans-Serif" font-size="10.00">::emplace_back</text>
</a>
</g>
</g>
<!-- Node1&#45;&gt;Node2 -->
<g id="edge1" class="edge">
<title>Node1&#45;&gt;Node2</title>
<path fill="none" stroke="#63b8ff" d="M41.18,-43.18C48.6,-44.76 57.51,-46.65 66.85,-48.63"/>
<polygon fill="#63b8ff" stroke="#63b8ff" points="66.18,-52.07 76.69,-50.72 67.63,-45.22 66.18,-52.07"/>
</g>
<!-- Node3 -->
<g id="node3" class="node">
<title>Node3</title>
<g id="a_node3"><a xlink:href="classhqp_1_1HierarchicalQP.html#afd188fe690d31e139bdb9ed95b8acf01" target="_top" xlink:title="Computes and retrieves the primal solution.">
<polygon fill="white" stroke="#666666" points="192,-30 79,-30 79,0 192,0 192,-30"/>
<text text-anchor="start" x="87" y="-18" font-family="Helvetica,sans-Serif" font-size="10.00">hqp::HierarchicalQP</text>
<text text-anchor="middle" x="135.5" y="-7" font-family="Helvetica,sans-Serif" font-size="10.00">::get_primal</text>
</a>
</g>
</g>
<!-- Node1&#45;&gt;Node3 -->
<g id="edge2" class="edge">
<title>Node1&#45;&gt;Node3</title>
<path fill="none" stroke="#63b8ff" d="M41.18,-34.82C49.06,-33.15 58.62,-31.12 68.58,-29"/>
<polygon fill="#63b8ff" stroke="#63b8ff" points="69.58,-32.37 78.63,-26.87 68.12,-25.52 69.58,-32.37"/>
</g>
</g>
</svg>
