<?xml version="1.0" encoding="UTF-8" standalone="no"?>
<!DOCTYPE svg PUBLIC "-//W3C//DTD SVG 1.1//EN"
 "http://www.w3.org/Graphics/SVG/1.1/DTD/svg11.dtd">
<!-- Generated by graphviz version 2.43.0 (0)
 -->
<!-- Title: main Pages: 1 -->
<svg width="794pt" height="163pt"
 viewBox="0.00 0.00 794.00 162.67" xmlns="http://www.w3.org/2000/svg" xmlns:xlink="http://www.w3.org/1999/xlink">
<g id="graph0" class="graph" transform="scale(1 1) rotate(0) translate(4 158.67)">
<title>main</title>
<!-- Node1 -->
<g id="node1" class="node">
<title>Node1</title>
<g id="a_node1"><a xlink:title=" ">
<polygon fill="#999999" stroke="#666666" points="41,-64.97 0,-64.97 0,-45.97 41,-45.97 41,-64.97"/>
<text text-anchor="middle" x="20.5" y="-52.97" font-family="Helvetica,sans-Serif" font-size="10.00">main</text>
</a>
</g>
</g>
<!-- Node2 -->
<g id="node2" class="node">
<title>Node2</title>
<g id="a_node2"><a xlink:href="classhqp_1_1HierarchicalQP.html#afd188fe690d31e139bdb9ed95b8acf01" target="_top" xlink:title="Computes and retrieves the primal solution.">
<polygon fill="white" stroke="#666666" points="190,-94.47 77,-94.47 77,-64.47 190,-64.47 190,-94.47"/>
<text text-anchor="start" x="85" y="-82.47" font-family="Helvetica,sans-Serif" font-size="10.00">hqp::HierarchicalQP</text>
<text text-anchor="middle" x="133.5" y="-71.47" font-family="Helvetica,sans-Serif" font-size="10.00">::get_primal</text>
</a>
</g>
</g>
<!-- Node1&#45;&gt;Node2 -->
<g id="edge1" class="edge">
<title>Node1&#45;&gt;Node2</title>
<path fill="none" stroke="#63b8ff" d="M41.09,-59.7C48.57,-61.32 57.58,-63.27 66.99,-65.3"/>
<polygon fill="#63b8ff" stroke="#63b8ff" points="66.37,-68.75 76.89,-67.44 67.85,-61.91 66.37,-68.75"/>
</g>
<!-- Node9 -->
<g id="node9" class="node">
<title>Node9</title>
<g id="a_node9"><a xlink:href="classhqp_1_1HierarchicalQP.html#a126f16766c7f830ac0b5778a9ea4b7c2" target="_top" xlink:title="Sets the metric matrix used to define the quadratic cost.">
<polygon fill="white" stroke="#666666" points="190,-46.47 77,-46.47 77,-16.47 190,-16.47 190,-46.47"/>
<text text-anchor="start" x="85" y="-34.47" font-family="Helvetica,sans-Serif" font-size="10.00">hqp::HierarchicalQP</text>
<text text-anchor="middle" x="133.5" y="-23.47" font-family="Helvetica,sans-Serif" font-size="10.00">::set_metric</text>
</a>
</g>
</g>
<!-- Node1&#45;&gt;Node9 -->
<g id="edge13" class="edge">
<title>Node1&#45;&gt;Node9</title>
<path fill="none" stroke="#63b8ff" d="M41.09,-51.23C48.57,-49.61 57.58,-47.67 66.99,-45.63"/>
<polygon fill="#63b8ff" stroke="#63b8ff" points="67.85,-49.03 76.89,-43.49 66.37,-42.18 67.85,-49.03"/>
</g>
<!-- Node3 -->
<g id="node3" class="node">
<title>Node3</title>
<g id="a_node3"><a xlink:href="classhqp_1_1HierarchicalQP.html#adac78a9cc96e9d4f311b9ef72acd7ebd" target="_top" xlink:title="Solves the overall HQP by combining tasks.">
<polygon fill="white" stroke="#666666" points="339,-94.47 226,-94.47 226,-64.47 339,-64.47 339,-94.47"/>
<text text-anchor="start" x="234" y="-82.47" font-family="Helvetica,sans-Serif" font-size="10.00">hqp::HierarchicalQP</text>
<text text-anchor="middle" x="282.5" y="-71.47" font-family="Helvetica,sans-Serif" font-size="10.00">::solve</text>
</a>
</g>
</g>
<!-- Node2&#45;&gt;Node3 -->
<g id="edge2" class="edge">
<title>Node2&#45;&gt;Node3</title>
<path fill="none" stroke="#63b8ff" d="M190.07,-79.47C198.49,-79.47 207.24,-79.47 215.84,-79.47"/>
<polygon fill="#63b8ff" stroke="#63b8ff" points="215.85,-82.97 225.85,-79.47 215.85,-75.97 215.85,-82.97"/>
</g>
<!-- Node4 -->
<g id="node4" class="node">
<title>Node4</title>
<g id="a_node4"><a xlink:href="classhqp_1_1HierarchicalQP.html#add4448ad1c21585e607457463016a027" target="_top" xlink:title="Handles equality constraint resolution.">
<polygon fill="white" stroke="#666666" points="637,-51.47 524,-51.47 524,-21.47 637,-21.47 637,-51.47"/>
<text text-anchor="start" x="532" y="-39.47" font-family="Helvetica,sans-Serif" font-size="10.00">hqp::HierarchicalQP</text>
<text text-anchor="middle" x="580.5" y="-28.47" font-family="Helvetica,sans-Serif" font-size="10.00">::equality_hqp</text>
</a>
</g>
</g>
<!-- Node3&#45;&gt;Node4 -->
<g id="edge3" class="edge">
<title>Node3&#45;&gt;Node4</title>
<path fill="none" stroke="#63b8ff" d="M334.95,-64.39C347.93,-61.03 361.9,-57.78 375,-55.47 420.87,-47.38 473.17,-42.6 513.4,-39.85"/>
<polygon fill="#63b8ff" stroke="#63b8ff" points="513.87,-43.33 523.62,-39.18 513.41,-36.34 513.87,-43.33"/>
</g>
<!-- Node5 -->
<g id="node5" class="node">
<title>Node5</title>
<g id="a_node5"><a xlink:href="namespacehqp.html#ab85e1340e7fee0a8d13730c50a970ceb" target="_top" xlink:title=" ">
<polygon fill="white" stroke="#666666" points="759,-109.97 700,-109.97 700,-90.97 759,-90.97 759,-109.97"/>
<text text-anchor="middle" x="729.5" y="-97.97" font-family="Helvetica,sans-Serif" font-size="10.00">hqp::find</text>
</a>
</g>
</g>
<!-- Node3&#45;&gt;Node5 -->
<g id="edge6" class="edge">
<title>Node3&#45;&gt;Node5</title>
<path fill="none" stroke="#63b8ff" d="M315.39,-94.49C377.61,-121.81 519.4,-174.36 637,-146.47 662.19,-140.49 688.33,-126.43 706.19,-115.42"/>
<polygon fill="#63b8ff" stroke="#63b8ff" points="708.16,-118.31 714.72,-109.99 704.4,-112.4 708.16,-118.31"/>
</g>
<!-- Node7 -->
<g id="node7" class="node">
<title>Node7</title>
<g id="a_node7"><a xlink:href="classhqp_1_1HierarchicalQP.html#aaf6df9e4aa247e25e1ff253bd6501028" target="_top" xlink:title="Handles inequality constrained tasks.">
<polygon fill="white" stroke="#666666" points="488,-94.47 375,-94.47 375,-64.47 488,-64.47 488,-94.47"/>
<text text-anchor="start" x="383" y="-82.47" font-family="Helvetica,sans-Serif" font-size="10.00">hqp::HierarchicalQP</text>
<text text-anchor="middle" x="431.5" y="-71.47" font-family="Helvetica,sans-Serif" font-size="10.00">::inequality_hqp</text>
</a>
</g>
</g>
<!-- Node3&#45;&gt;Node7 -->
<g id="edge7" class="edge">
<title>Node3&#45;&gt;Node7</title>
<path fill="none" stroke="#63b8ff" d="M339.07,-79.47C347.49,-79.47 356.24,-79.47 364.84,-79.47"/>
<polygon fill="#63b8ff" stroke="#63b8ff" points="364.85,-82.97 374.85,-79.47 364.85,-75.97 364.85,-82.97"/>
</g>
<!-- Node4&#45;&gt;Node5 -->
<g id="edge4" class="edge">
<title>Node4&#45;&gt;Node5</title>
<path fill="none" stroke="#63b8ff" d="M615.96,-51.47C640.58,-62.19 673.42,-76.49 697.27,-86.87"/>
<polygon fill="#63b8ff" stroke="#63b8ff" points="696,-90.13 706.57,-90.92 698.79,-83.72 696,-90.13"/>
</g>
<!-- Node6 -->
<g id="node6" class="node">
<title>Node6</title>
<g id="a_node6"><a xlink:href="classhqp_1_1HierarchicalQP.html#a69f7398b0f10bcc38452b0acf12f9997" target="_top" xlink:title="Retrieves task data.">
<polygon fill="white" stroke="#666666" points="786,-30.47 673,-30.47 673,-0.47 786,-0.47 786,-30.47"/>
<text text-anchor="start" x="681" y="-18.47" font-family="Helvetica,sans-Serif" font-size="10.00">hqp::HierarchicalQP</text>
<text text-anchor="middle" x="729.5" y="-7.47" font-family="Helvetica,sans-Serif" font-size="10.00">::get_task</text>
</a>
</g>
</g>
<!-- Node4&#45;&gt;Node6 -->
<g id="edge5" class="edge">
<title>Node4&#45;&gt;Node6</title>
<path fill="none" stroke="#63b8ff" d="M637.07,-28.53C645.49,-27.33 654.24,-26.08 662.84,-24.85"/>
<polygon fill="#63b8ff" stroke="#63b8ff" points="663.44,-28.3 672.85,-23.42 662.45,-21.37 663.44,-28.3"/>
</g>
<!-- Node7&#45;&gt;Node4 -->
<g id="edge10" class="edge">
<title>Node7&#45;&gt;Node4</title>
<path fill="none" stroke="#63b8ff" d="M483.91,-64.43C494.93,-61.21 506.67,-57.77 518.02,-54.45"/>
<polygon fill="#63b8ff" stroke="#63b8ff" points="519.25,-57.74 527.87,-51.57 517.29,-51.02 519.25,-57.74"/>
</g>
<!-- Node7&#45;&gt;Node5 -->
<g id="edge11" class="edge">
<title>Node7&#45;&gt;Node5</title>
<path fill="none" stroke="#63b8ff" d="M488.18,-83.42C547.09,-87.6 638.49,-94.08 689.93,-97.73"/>
<polygon fill="#63b8ff" stroke="#63b8ff" points="689.74,-101.23 699.97,-98.44 690.24,-94.24 689.74,-101.23"/>
</g>
<!-- Node7&#45;&gt;Node6 -->
<g id="edge12" class="edge">
<title>Node7&#45;&gt;Node6</title>
<path fill="none" stroke="#63b8ff" d="M446.96,-64.21C463.68,-47.78 492.94,-22.62 524,-12.47 568.65,2.13 621.76,0.84 662.67,-3.81"/>
<polygon fill="#63b8ff" stroke="#63b8ff" points="662.44,-7.31 672.79,-5.06 663.29,-0.37 662.44,-7.31"/>
</g>
<!-- Node8 -->
<g id="node8" class="node">
<title>Node8</title>
<g id="a_node8"><a xlink:href="classhqp_1_1HierarchicalQP.html#a7234e6ffbcaa28f908a0d728e4506ca3" target="_top" xlink:title="Updates dual variables.">
<polygon fill="white" stroke="#666666" points="637,-137.47 524,-137.47 524,-107.47 637,-107.47 637,-137.47"/>
<text text-anchor="start" x="532" y="-125.47" font-family="Helvetica,sans-Serif" font-size="10.00">hqp::HierarchicalQP</text>
<text text-anchor="middle" x="580.5" y="-114.47" font-family="Helvetica,sans-Serif" font-size="10.00">::dual_update</text>
</a>
</g>
</g>
<!-- Node7&#45;&gt;Node8 -->
<g id="edge8" class="edge">
<title>Node7&#45;&gt;Node8</title>
<path fill="none" stroke="#63b8ff" d="M483.91,-94.51C494.93,-97.73 506.67,-101.16 518.02,-104.48"/>
<polygon fill="#63b8ff" stroke="#63b8ff" points="517.29,-107.91 527.87,-107.36 519.25,-101.2 517.29,-107.91"/>
</g>
<!-- Node8&#45;&gt;Node5 -->
<g id="edge9" class="edge">
<title>Node8&#45;&gt;Node5</title>
<path fill="none" stroke="#63b8ff" d="M637.07,-114.15C654.55,-111.53 673.46,-108.7 689.53,-106.3"/>
<polygon fill="#63b8ff" stroke="#63b8ff" points="690.26,-109.73 699.63,-104.79 689.22,-102.81 690.26,-109.73"/>
</g>
</g>
</svg>
