<?xml version="1.0" encoding="UTF-8" standalone="no"?>
<!DOCTYPE svg PUBLIC "-//W3C//DTD SVG 1.1//EN"
 "http://www.w3.org/Graphics/SVG/1.1/DTD/svg11.dtd">
<!-- Generated by graphviz version 2.43.0 (0)
 -->
<!-- Title: main Pages: 1 -->
<svg width="794pt" height="162pt"
 viewBox="0.00 0.00 794.00 162.00" xmlns="http://www.w3.org/2000/svg" xmlns:xlink="http://www.w3.org/1999/xlink">
<g id="graph0" class="graph" transform="scale(1 1) rotate(0) translate(4 158)">
<title>main</title>
<!-- Node1 -->
<g id="node1" class="node">
<title>Node1</title>
<g id="a_node1"><a xlink:title=" ">
<polygon fill="#999999" stroke="#666666" points="41,-102.5 0,-102.5 0,-83.5 41,-83.5 41,-102.5"/>
<text text-anchor="middle" x="20.5" y="-90.5" font-family="Helvetica,sans-Serif" font-size="10.00">main</text>
</a>
</g>
</g>
<!-- Node2 -->
<g id="node2" class="node">
<title>Node2</title>
<g id="a_node2"><a xlink:href="classhqp_1_1HierarchicalQP.html#afd188fe690d31e139bdb9ed95b8acf01" target="_top" xlink:title="Computes and retrieves the primal solution.">
<polygon fill="white" stroke="#666666" points="190,-132 77,-132 77,-102 190,-102 190,-132"/>
<text text-anchor="start" x="85" y="-120" font-family="Helvetica,sans-Serif" font-size="10.00">hqp::HierarchicalQP</text>
<text text-anchor="middle" x="133.5" y="-109" font-family="Helvetica,sans-Serif" font-size="10.00">::get_primal</text>
</a>
</g>
</g>
<!-- Node1&#45;&gt;Node2 -->
<g id="edge1" class="edge">
<title>Node1&#45;&gt;Node2</title>
<path fill="none" stroke="#63b8ff" d="M41.09,-97.24C48.57,-98.85 57.58,-100.8 66.99,-102.84"/>
<polygon fill="#63b8ff" stroke="#63b8ff" points="66.37,-106.28 76.89,-104.98 67.85,-99.44 66.37,-106.28"/>
</g>
<!-- Node9 -->
<g id="node9" class="node">
<title>Node9</title>
<g id="a_node9"><a xlink:href="classhqp_1_1HierarchicalQP.html#a126f16766c7f830ac0b5778a9ea4b7c2" target="_top" xlink:title="Sets the metric matrix used to define the quadratic cost.">
<polygon fill="white" stroke="#666666" points="190,-84 77,-84 77,-54 190,-54 190,-84"/>
<text text-anchor="start" x="85" y="-72" font-family="Helvetica,sans-Serif" font-size="10.00">hqp::HierarchicalQP</text>
<text text-anchor="middle" x="133.5" y="-61" font-family="Helvetica,sans-Serif" font-size="10.00">::set_metric</text>
</a>
</g>
</g>
<!-- Node1&#45;&gt;Node9 -->
<g id="edge12" class="edge">
<title>Node1&#45;&gt;Node9</title>
<path fill="none" stroke="#63b8ff" d="M41.09,-88.76C48.57,-87.15 57.58,-85.2 66.99,-83.16"/>
<polygon fill="#63b8ff" stroke="#63b8ff" points="67.85,-86.56 76.89,-81.02 66.37,-79.72 67.85,-86.56"/>
</g>
<!-- Node3 -->
<g id="node3" class="node">
<title>Node3</title>
<g id="a_node3"><a xlink:href="classhqp_1_1HierarchicalQP.html#adac78a9cc96e9d4f311b9ef72acd7ebd" target="_top" xlink:title="Solves the overall HQP by combining tasks.">
<polygon fill="white" stroke="#666666" points="339,-132 226,-132 226,-102 339,-102 339,-132"/>
<text text-anchor="start" x="234" y="-120" font-family="Helvetica,sans-Serif" font-size="10.00">hqp::HierarchicalQP</text>
<text text-anchor="middle" x="282.5" y="-109" font-family="Helvetica,sans-Serif" font-size="10.00">::solve</text>
</a>
</g>
</g>
<!-- Node2&#45;&gt;Node3 -->
<g id="edge2" class="edge">
<title>Node2&#45;&gt;Node3</title>
<path fill="none" stroke="#63b8ff" d="M190.07,-117C198.49,-117 207.24,-117 215.84,-117"/>
<polygon fill="#63b8ff" stroke="#63b8ff" points="215.85,-120.5 225.85,-117 215.85,-113.5 215.85,-120.5"/>
</g>
<!-- Node4 -->
<g id="node4" class="node">
<title>Node4</title>
<g id="a_node4"><a xlink:href="classhqp_1_1HierarchicalQP.html#add4448ad1c21585e607457463016a027" target="_top" xlink:title="Handles equality constraint resolution.">
<polygon fill="white" stroke="#666666" points="637,-154 524,-154 524,-124 637,-124 637,-154"/>
<text text-anchor="start" x="532" y="-142" font-family="Helvetica,sans-Serif" font-size="10.00">hqp::HierarchicalQP</text>
<text text-anchor="middle" x="580.5" y="-131" font-family="Helvetica,sans-Serif" font-size="10.00">::equality_hqp</text>
</a>
</g>
</g>
<!-- Node3&#45;&gt;Node4 -->
<g id="edge3" class="edge">
<title>Node3&#45;&gt;Node4</title>
<path fill="none" stroke="#63b8ff" d="M339.18,-121.14C388.71,-124.82 461.22,-130.21 513.62,-134.1"/>
<polygon fill="#63b8ff" stroke="#63b8ff" points="513.59,-137.61 523.82,-134.86 514.11,-130.63 513.59,-137.61"/>
</g>
<!-- Node7 -->
<g id="node7" class="node">
<title>Node7</title>
<g id="a_node7"><a xlink:href="classhqp_1_1HierarchicalQP.html#aaf6df9e4aa247e25e1ff253bd6501028" target="_top" xlink:title="Handles inequality constrained tasks.">
<polygon fill="white" stroke="#666666" points="488,-111 375,-111 375,-81 488,-81 488,-111"/>
<text text-anchor="start" x="383" y="-99" font-family="Helvetica,sans-Serif" font-size="10.00">hqp::HierarchicalQP</text>
<text text-anchor="middle" x="431.5" y="-88" font-family="Helvetica,sans-Serif" font-size="10.00">::inequality_hqp</text>
</a>
</g>
</g>
<!-- Node3&#45;&gt;Node7 -->
<g id="edge6" class="edge">
<title>Node3&#45;&gt;Node7</title>
<path fill="none" stroke="#63b8ff" d="M339.07,-109.06C347.49,-107.86 356.24,-106.61 364.84,-105.38"/>
<polygon fill="#63b8ff" stroke="#63b8ff" points="365.44,-108.83 374.85,-103.95 364.45,-101.9 365.44,-108.83"/>
</g>
<!-- Node5 -->
<g id="node5" class="node">
<title>Node5</title>
<g id="a_node5"><a xlink:href="namespacehqp.html#ab85e1340e7fee0a8d13730c50a970ceb" target="_top" xlink:title=" ">
<polygon fill="white" stroke="#666666" points="759,-67.5 700,-67.5 700,-48.5 759,-48.5 759,-67.5"/>
<text text-anchor="middle" x="729.5" y="-55.5" font-family="Helvetica,sans-Serif" font-size="10.00">hqp::find</text>
</a>
</g>
</g>
<!-- Node4&#45;&gt;Node5 -->
<g id="edge4" class="edge">
<title>Node4&#45;&gt;Node5</title>
<path fill="none" stroke="#63b8ff" d="M608.81,-123.95C635.43,-109.29 675.64,-87.12 701.99,-72.61"/>
<polygon fill="#63b8ff" stroke="#63b8ff" points="703.95,-75.52 711.02,-67.63 700.57,-69.39 703.95,-75.52"/>
</g>
<!-- Node6 -->
<g id="node6" class="node">
<title>Node6</title>
<g id="a_node6"><a xlink:href="classhqp_1_1HierarchicalQP.html#a69f7398b0f10bcc38452b0acf12f9997" target="_top" xlink:title="Retrieves task data.">
<polygon fill="white" stroke="#666666" points="786,-135 673,-135 673,-105 786,-105 786,-135"/>
<text text-anchor="start" x="681" y="-123" font-family="Helvetica,sans-Serif" font-size="10.00">hqp::HierarchicalQP</text>
<text text-anchor="middle" x="729.5" y="-112" font-family="Helvetica,sans-Serif" font-size="10.00">::get_task</text>
</a>
</g>
</g>
<!-- Node4&#45;&gt;Node6 -->
<g id="edge5" class="edge">
<title>Node4&#45;&gt;Node6</title>
<path fill="none" stroke="#63b8ff" d="M637.07,-131.82C645.49,-130.73 654.24,-129.6 662.84,-128.49"/>
<polygon fill="#63b8ff" stroke="#63b8ff" points="663.38,-131.95 672.85,-127.19 662.48,-125 663.38,-131.95"/>
</g>
<!-- Node7&#45;&gt;Node4 -->
<g id="edge9" class="edge">
<title>Node7&#45;&gt;Node4</title>
<path fill="none" stroke="#63b8ff" d="M483.91,-111.04C494.93,-114.26 506.67,-117.7 518.02,-121.02"/>
<polygon fill="#63b8ff" stroke="#63b8ff" points="517.29,-124.45 527.87,-123.9 519.25,-117.73 517.29,-124.45"/>
</g>
<!-- Node7&#45;&gt;Node5 -->
<g id="edge10" class="edge">
<title>Node7&#45;&gt;Node5</title>
<path fill="none" stroke="#63b8ff" d="M488.18,-88.85C547.09,-81.29 638.49,-69.56 689.93,-62.95"/>
<polygon fill="#63b8ff" stroke="#63b8ff" points="690.49,-66.41 699.97,-61.66 689.6,-59.46 690.49,-66.41"/>
</g>
<!-- Node7&#45;&gt;Node6 -->
<g id="edge11" class="edge">
<title>Node7&#45;&gt;Node6</title>
<path fill="none" stroke="#63b8ff" d="M488.18,-100.51C537.71,-104.53 610.22,-110.41 662.62,-114.66"/>
<polygon fill="#63b8ff" stroke="#63b8ff" points="662.57,-118.17 672.82,-115.49 663.14,-111.19 662.57,-118.17"/>
</g>
<!-- Node8 -->
<g id="node8" class="node">
<title>Node8</title>
<g id="a_node8"><a xlink:href="classhqp_1_1HierarchicalQP.html#a292d98f5d69d3666a895d6a95e5dc6b9" target="_top" xlink:title="Updates dual variables.">
<polygon fill="white" stroke="#666666" points="637,-30 524,-30 524,0 637,0 637,-30"/>
<text text-anchor="start" x="532" y="-18" font-family="Helvetica,sans-Serif" font-size="10.00">hqp::HierarchicalQP</text>
<text text-anchor="middle" x="580.5" y="-7" font-family="Helvetica,sans-Serif" font-size="10.00">::dual_update</text>
</a>
</g>
</g>
<!-- Node7&#45;&gt;Node8 -->
<g id="edge7" class="edge">
<title>Node7&#45;&gt;Node8</title>
<path fill="none" stroke="#63b8ff" d="M458.39,-80.96C476.64,-70.44 501.7,-56.16 524,-44 529.57,-40.96 535.49,-37.8 541.31,-34.73"/>
<polygon fill="#63b8ff" stroke="#63b8ff" points="543.08,-37.75 550.31,-30.01 539.82,-31.56 543.08,-37.75"/>
</g>
<!-- Node8&#45;&gt;Node5 -->
<g id="edge8" class="edge">
<title>Node8&#45;&gt;Node5</title>
<path fill="none" stroke="#63b8ff" d="M632.91,-30.04C651.6,-35.51 672.39,-41.59 689.79,-46.68"/>
<polygon fill="#63b8ff" stroke="#63b8ff" points="689.03,-50.1 699.61,-49.55 690.99,-43.38 689.03,-50.1"/>
</g>
</g>
</svg>
