<?xml version="1.0" encoding="UTF-8" standalone="no"?>
<!DOCTYPE svg PUBLIC "-//W3C//DTD SVG 1.1//EN"
 "http://www.w3.org/Graphics/SVG/1.1/DTD/svg11.dtd">
<!-- Generated by graphviz version 2.43.0 (0)
 -->
<!-- Title: main Pages: 1 -->
<svg width="198pt" height="86pt"
 viewBox="0.00 0.00 198.00 86.00" xmlns="http://www.w3.org/2000/svg" xmlns:xlink="http://www.w3.org/1999/xlink">
<g id="graph0" class="graph" transform="scale(1 1) rotate(0) translate(4 82)">
<title>main</title>
<!-- Node1 -->
<g id="node1" class="node">
<title>Node1</title>
<g id="a_node1"><a xlink:title=" ">
<polygon fill="#999999" stroke="#666666" points="41,-48.5 0,-48.5 0,-29.5 41,-29.5 41,-48.5"/>
<text text-anchor="middle" x="20.5" y="-36.5" font-family="Helvetica,sans-Serif" font-size="10.00">main</text>
</a>
</g>
</g>
<!-- Node2 -->
<g id="node2" class="node">
<title>Node2</title>
<g id="a_node2"><a xlink:href="classhqp_1_1HierarchicalQP.html#afd188fe690d31e139bdb9ed95b8acf01" target="_top" xlink:title="Computes and retrieves the primal solution.">
<polygon fill="white" stroke="#666666" points="190,-78 77,-78 77,-48 190,-48 190,-78"/>
<text text-anchor="start" x="85" y="-66" font-family="Helvetica,sans-Serif" font-size="10.00">hqp::HierarchicalQP</text>
<text text-anchor="middle" x="133.5" y="-55" font-family="Helvetica,sans-Serif" font-size="10.00">::get_primal</text>
</a>
</g>
</g>
<!-- Node1&#45;&gt;Node2 -->
<g id="edge1" class="edge">
<title>Node1&#45;&gt;Node2</title>
<path fill="none" stroke="#63b8ff" d="M41.09,-43.24C48.57,-44.85 57.58,-46.8 66.99,-48.84"/>
<polygon fill="#63b8ff" stroke="#63b8ff" points="66.37,-52.28 76.89,-50.98 67.85,-45.44 66.37,-52.28"/>
</g>
<!-- Node3 -->
<g id="node3" class="node">
<title>Node3</title>
<g id="a_node3"><a xlink:href="classhqp_1_1HierarchicalQP.html#a126f16766c7f830ac0b5778a9ea4b7c2" target="_top" xlink:title="Sets the metric matrix used to define the quadratic cost.">
<polygon fill="white" stroke="#666666" points="190,-30 77,-30 77,0 190,0 190,-30"/>
<text text-anchor="start" x="85" y="-18" font-family="Helvetica,sans-Serif" font-size="10.00">hqp::HierarchicalQP</text>
<text text-anchor="middle" x="133.5" y="-7" font-family="Helvetica,sans-Serif" font-size="10.00">::set_metric</text>
</a>
</g>
</g>
<!-- Node1&#45;&gt;Node3 -->
<g id="edge2" class="edge">
<title>Node1&#45;&gt;Node3</title>
<path fill="none" stroke="#63b8ff" d="M41.09,-34.76C48.57,-33.15 57.58,-31.2 66.99,-29.16"/>
<polygon fill="#63b8ff" stroke="#63b8ff" points="67.85,-32.56 76.89,-27.02 66.37,-25.72 67.85,-32.56"/>
</g>
</g>
</svg>
