<?xml version="1.0" encoding="UTF-8" standalone="no"?>
<!DOCTYPE svg PUBLIC "-//W3C//DTD SVG 1.1//EN"
 "http://www.w3.org/Graphics/SVG/1.1/DTD/svg11.dtd">
<!-- Generated by graphviz version 2.43.0 (0)
 -->
<!-- Title: main Pages: 1 -->
<svg width="794pt" height="231pt"
 viewBox="0.00 0.00 794.00 231.47" xmlns="http://www.w3.org/2000/svg" xmlns:xlink="http://www.w3.org/1999/xlink">
<g id="graph0" class="graph" transform="scale(1 1) rotate(0) translate(4 227.47)">
<title>main</title>
<!-- Node1 -->
<g id="node1" class="node">
<title>Node1</title>
<g id="a_node1"><a xlink:title=" ">
<polygon fill="#999999" stroke="#666666" points="41,-107.97 0,-107.97 0,-88.97 41,-88.97 41,-107.97"/>
<text text-anchor="middle" x="20.5" y="-95.97" font-family="Helvetica,sans-Serif" font-size="10.00">main</text>
</a>
</g>
</g>
<!-- Node2 -->
<g id="node2" class="node">
<title>Node2</title>
<g id="a_node2"><a xlink:href="classhqp_1_1HierarchicalQP.html#afd188fe690d31e139bdb9ed95b8acf01" target="_top" xlink:title="Computes and retrieves the primal solution.">
<polygon fill="white" stroke="#666666" points="190,-137.47 77,-137.47 77,-107.47 190,-107.47 190,-137.47"/>
<text text-anchor="start" x="85" y="-125.47" font-family="Helvetica,sans-Serif" font-size="10.00">hqp::HierarchicalQP</text>
<text text-anchor="middle" x="133.5" y="-114.47" font-family="Helvetica,sans-Serif" font-size="10.00">::get_primal</text>
</a>
</g>
</g>
<!-- Node1&#45;&gt;Node2 -->
<g id="edge1" class="edge">
<title>Node1&#45;&gt;Node2</title>
<path fill="none" stroke="#63b8ff" d="M41.09,-102.7C48.57,-104.32 57.58,-106.27 66.99,-108.3"/>
<polygon fill="#63b8ff" stroke="#63b8ff" points="66.37,-111.75 76.89,-110.44 67.85,-104.91 66.37,-111.75"/>
</g>
<!-- Node10 -->
<g id="node10" class="node">
<title>Node10</title>
<g id="a_node10"><a xlink:href="classhqp_1_1HierarchicalQP.html#a126f16766c7f830ac0b5778a9ea4b7c2" target="_top" xlink:title="Sets the metric matrix used to define the quadratic cost.">
<polygon fill="white" stroke="#666666" points="190,-89.47 77,-89.47 77,-59.47 190,-59.47 190,-89.47"/>
<text text-anchor="start" x="85" y="-77.47" font-family="Helvetica,sans-Serif" font-size="10.00">hqp::HierarchicalQP</text>
<text text-anchor="middle" x="133.5" y="-66.47" font-family="Helvetica,sans-Serif" font-size="10.00">::set_metric</text>
</a>
</g>
</g>
<!-- Node1&#45;&gt;Node10 -->
<g id="edge15" class="edge">
<title>Node1&#45;&gt;Node10</title>
<path fill="none" stroke="#63b8ff" d="M41.09,-94.23C48.57,-92.61 57.58,-90.67 66.99,-88.63"/>
<polygon fill="#63b8ff" stroke="#63b8ff" points="67.85,-92.03 76.89,-86.49 66.37,-85.18 67.85,-92.03"/>
</g>
<!-- Node3 -->
<g id="node3" class="node">
<title>Node3</title>
<g id="a_node3"><a xlink:href="classhqp_1_1HierarchicalQP.html#adac78a9cc96e9d4f311b9ef72acd7ebd" target="_top" xlink:title="Solves the overall HQP by combining tasks.">
<polygon fill="white" stroke="#666666" points="339,-137.47 226,-137.47 226,-107.47 339,-107.47 339,-137.47"/>
<text text-anchor="start" x="234" y="-125.47" font-family="Helvetica,sans-Serif" font-size="10.00">hqp::HierarchicalQP</text>
<text text-anchor="middle" x="282.5" y="-114.47" font-family="Helvetica,sans-Serif" font-size="10.00">::solve</text>
</a>
</g>
</g>
<!-- Node2&#45;&gt;Node3 -->
<g id="edge2" class="edge">
<title>Node2&#45;&gt;Node3</title>
<path fill="none" stroke="#63b8ff" d="M190.07,-122.47C198.49,-122.47 207.24,-122.47 215.84,-122.47"/>
<polygon fill="#63b8ff" stroke="#63b8ff" points="215.85,-125.97 225.85,-122.47 215.85,-118.97 215.85,-125.97"/>
</g>
<!-- Node4 -->
<g id="node4" class="node">
<title>Node4</title>
<g id="a_node4"><a xlink:href="classhqp_1_1HierarchicalQP.html#add4448ad1c21585e607457463016a027" target="_top" xlink:title="Handles equality constraint resolution.">
<polygon fill="white" stroke="#666666" points="637,-51.47 524,-51.47 524,-21.47 637,-21.47 637,-51.47"/>
<text text-anchor="start" x="532" y="-39.47" font-family="Helvetica,sans-Serif" font-size="10.00">hqp::HierarchicalQP</text>
<text text-anchor="middle" x="580.5" y="-28.47" font-family="Helvetica,sans-Serif" font-size="10.00">::equality_hqp</text>
</a>
</g>
</g>
<!-- Node3&#45;&gt;Node4 -->
<g id="edge3" class="edge">
<title>Node3&#45;&gt;Node4</title>
<path fill="none" stroke="#63b8ff" d="M298.45,-107.45C315.39,-91.49 344.62,-66.98 375,-55.47 419.26,-38.69 472.61,-34.2 513.72,-33.77"/>
<polygon fill="#63b8ff" stroke="#63b8ff" points="513.9,-37.27 523.89,-33.74 513.88,-30.27 513.9,-37.27"/>
</g>
<!-- Node5 -->
<g id="node5" class="node">
<title>Node5</title>
<g id="a_node5"><a xlink:href="namespacehqp.html#ab85e1340e7fee0a8d13730c50a970ceb" target="_top" xlink:title=" ">
<polygon fill="white" stroke="#666666" points="759,-131.97 700,-131.97 700,-112.97 759,-112.97 759,-131.97"/>
<text text-anchor="middle" x="729.5" y="-119.97" font-family="Helvetica,sans-Serif" font-size="10.00">hqp::find</text>
</a>
</g>
</g>
<!-- Node3&#45;&gt;Node5 -->
<g id="edge6" class="edge">
<title>Node3&#45;&gt;Node5</title>
<path fill="none" stroke="#63b8ff" d="M339.11,-132.94C408.92,-144.56 532.22,-159.98 637,-146.47 654.67,-144.19 673.8,-139.53 689.97,-134.92"/>
<polygon fill="#63b8ff" stroke="#63b8ff" points="691.02,-138.26 699.62,-132.08 689.04,-131.55 691.02,-138.26"/>
</g>
<!-- Node7 -->
<g id="node7" class="node">
<title>Node7</title>
<g id="a_node7"><a xlink:href="classhqp_1_1HierarchicalQP.html#aaf6df9e4aa247e25e1ff253bd6501028" target="_top" xlink:title="Handles inequality constrained tasks.">
<polygon fill="white" stroke="#666666" points="488,-94.47 375,-94.47 375,-64.47 488,-64.47 488,-94.47"/>
<text text-anchor="start" x="383" y="-82.47" font-family="Helvetica,sans-Serif" font-size="10.00">hqp::HierarchicalQP</text>
<text text-anchor="middle" x="431.5" y="-71.47" font-family="Helvetica,sans-Serif" font-size="10.00">::inequality_hqp</text>
</a>
</g>
</g>
<!-- Node3&#45;&gt;Node7 -->
<g id="edge7" class="edge">
<title>Node3&#45;&gt;Node7</title>
<path fill="none" stroke="#63b8ff" d="M334.91,-107.43C345.93,-104.21 357.67,-100.77 369.02,-97.45"/>
<polygon fill="#63b8ff" stroke="#63b8ff" points="370.25,-100.74 378.87,-94.57 368.29,-94.02 370.25,-100.74"/>
</g>
<!-- Node9 -->
<g id="node9" class="node">
<title>Node9</title>
<g id="a_node9"><a xlink:href="classhqp_1_1HierarchicalQP.html#af25299ca77e16f5f9cb02cad264224a9" target="_top" xlink:title="Outputs the active set details to the console.">
<polygon fill="white" stroke="#666666" points="488,-223.47 375,-223.47 375,-193.47 488,-193.47 488,-223.47"/>
<text text-anchor="start" x="383" y="-211.47" font-family="Helvetica,sans-Serif" font-size="10.00">hqp::HierarchicalQP</text>
<text text-anchor="middle" x="431.5" y="-200.47" font-family="Helvetica,sans-Serif" font-size="10.00">::print_active_set</text>
</a>
</g>
</g>
<!-- Node3&#45;&gt;Node9 -->
<g id="edge13" class="edge">
<title>Node3&#45;&gt;Node9</title>
<path fill="none" stroke="#63b8ff" d="M306.52,-137.48C324.85,-149.27 351.28,-165.91 375,-179.47 380.26,-182.47 385.86,-185.55 391.4,-188.51"/>
<polygon fill="#63b8ff" stroke="#63b8ff" points="390.13,-191.8 400.61,-193.37 393.4,-185.61 390.13,-191.8"/>
</g>
<!-- Node4&#45;&gt;Node5 -->
<g id="edge4" class="edge">
<title>Node4&#45;&gt;Node5</title>
<path fill="none" stroke="#63b8ff" d="M611.39,-51.56C619.75,-55.92 628.79,-60.77 637,-65.47 660.63,-78.97 686.94,-95.53 705.26,-107.31"/>
<polygon fill="#63b8ff" stroke="#63b8ff" points="703.51,-110.35 713.81,-112.84 707.31,-104.47 703.51,-110.35"/>
</g>
<!-- Node6 -->
<g id="node6" class="node">
<title>Node6</title>
<g id="a_node6"><a xlink:href="classhqp_1_1HierarchicalQP.html#a69f7398b0f10bcc38452b0acf12f9997" target="_top" xlink:title="Retrieves task data.">
<polygon fill="white" stroke="#666666" points="786,-30.47 673,-30.47 673,-0.47 786,-0.47 786,-30.47"/>
<text text-anchor="start" x="681" y="-18.47" font-family="Helvetica,sans-Serif" font-size="10.00">hqp::HierarchicalQP</text>
<text text-anchor="middle" x="729.5" y="-7.47" font-family="Helvetica,sans-Serif" font-size="10.00">::get_task</text>
</a>
</g>
</g>
<!-- Node4&#45;&gt;Node6 -->
<g id="edge5" class="edge">
<title>Node4&#45;&gt;Node6</title>
<path fill="none" stroke="#63b8ff" d="M637.07,-28.53C645.49,-27.33 654.24,-26.08 662.84,-24.85"/>
<polygon fill="#63b8ff" stroke="#63b8ff" points="663.44,-28.3 672.85,-23.42 662.45,-21.37 663.44,-28.3"/>
</g>
<!-- Node7&#45;&gt;Node4 -->
<g id="edge10" class="edge">
<title>Node7&#45;&gt;Node4</title>
<path fill="none" stroke="#63b8ff" d="M483.91,-64.43C494.93,-61.21 506.67,-57.77 518.02,-54.45"/>
<polygon fill="#63b8ff" stroke="#63b8ff" points="519.25,-57.74 527.87,-51.57 517.29,-51.02 519.25,-57.74"/>
</g>
<!-- Node7&#45;&gt;Node5 -->
<g id="edge11" class="edge">
<title>Node7&#45;&gt;Node5</title>
<path fill="none" stroke="#63b8ff" d="M488.38,-82.18C529.67,-84.79 587.14,-89.67 637,-98.47 654.68,-101.58 673.94,-106.42 690.22,-110.93"/>
<polygon fill="#63b8ff" stroke="#63b8ff" points="689.34,-114.32 699.92,-113.68 691.25,-107.58 689.34,-114.32"/>
</g>
<!-- Node7&#45;&gt;Node6 -->
<g id="edge12" class="edge">
<title>Node7&#45;&gt;Node6</title>
<path fill="none" stroke="#63b8ff" d="M446.96,-64.21C463.68,-47.78 492.94,-22.62 524,-12.47 568.65,2.13 621.76,0.84 662.67,-3.81"/>
<polygon fill="#63b8ff" stroke="#63b8ff" points="662.44,-7.31 672.79,-5.06 663.29,-0.37 662.44,-7.31"/>
</g>
<!-- Node8 -->
<g id="node8" class="node">
<title>Node8</title>
<g id="a_node8"><a xlink:href="classhqp_1_1HierarchicalQP.html#a292d98f5d69d3666a895d6a95e5dc6b9" target="_top" xlink:title="Updates dual variables.">
<polygon fill="white" stroke="#666666" points="637,-137.47 524,-137.47 524,-107.47 637,-107.47 637,-137.47"/>
<text text-anchor="start" x="532" y="-125.47" font-family="Helvetica,sans-Serif" font-size="10.00">hqp::HierarchicalQP</text>
<text text-anchor="middle" x="580.5" y="-114.47" font-family="Helvetica,sans-Serif" font-size="10.00">::dual_update</text>
</a>
</g>
</g>
<!-- Node7&#45;&gt;Node8 -->
<g id="edge8" class="edge">
<title>Node7&#45;&gt;Node8</title>
<path fill="none" stroke="#63b8ff" d="M483.91,-94.51C494.93,-97.73 506.67,-101.16 518.02,-104.48"/>
<polygon fill="#63b8ff" stroke="#63b8ff" points="517.29,-107.91 527.87,-107.36 519.25,-101.2 517.29,-107.91"/>
</g>
<!-- Node8&#45;&gt;Node5 -->
<g id="edge9" class="edge">
<title>Node8&#45;&gt;Node5</title>
<path fill="none" stroke="#63b8ff" d="M637.07,-122.47C654.55,-122.47 673.46,-122.47 689.53,-122.47"/>
<polygon fill="#63b8ff" stroke="#63b8ff" points="689.63,-125.97 699.63,-122.47 689.63,-118.97 689.63,-125.97"/>
</g>
<!-- Node9&#45;&gt;Node5 -->
<g id="edge14" class="edge">
<title>Node9&#45;&gt;Node5</title>
<path fill="none" stroke="#63b8ff" d="M488.25,-206.78C530.24,-204.04 588.64,-197.06 637,-179.47 663.51,-169.82 690.52,-151.77 708.25,-138.56"/>
<polygon fill="#63b8ff" stroke="#63b8ff" points="710.81,-141.02 716.63,-132.16 706.56,-135.45 710.81,-141.02"/>
</g>
</g>
</svg>
