<?xml version="1.0" encoding="UTF-8" standalone="no"?>
<!DOCTYPE svg PUBLIC "-//W3C//DTD SVG 1.1//EN"
 "http://www.w3.org/Graphics/SVG/1.1/DTD/svg11.dtd">
<!-- Generated by graphviz version 2.43.0 (0)
 -->
<!-- Title: tests/02_compare_solvers.cpp Pages: 1 -->
<svg width="508pt" height="247pt"
 viewBox="0.00 0.00 507.66 247.00" xmlns="http://www.w3.org/2000/svg" xmlns:xlink="http://www.w3.org/1999/xlink">
<g id="graph0" class="graph" transform="scale(1 1) rotate(0) translate(4 243)">
<title>tests/02_compare_solvers.cpp</title>
<!-- Node1 -->
<g id="node1" class="node">
<title>Node1</title>
<g id="a_node1"><a xlink:title=" ">
<polygon fill="#999999" stroke="#666666" points="302.66,-239 138.66,-239 138.66,-220 302.66,-220 302.66,-239"/>
<text text-anchor="middle" x="220.66" y="-227" font-family="Helvetica,sans-Serif" font-size="10.00">tests/02_compare_solvers.cpp</text>
</a>
</g>
</g>
<!-- Node2 -->
<g id="node2" class="node">
<title>Node2</title>
<g id="a_node2"><a xlink:href="task_8hpp.html" target="_top" xlink:title="Declares the abstract Task interface and its derivatives used in the HQP solver.">
<polygon fill="white" stroke="#666666" points="251.16,-129 192.16,-129 192.16,-110 251.16,-110 251.16,-129"/>
<text text-anchor="middle" x="221.66" y="-117" font-family="Helvetica,sans-Serif" font-size="10.00">task.hpp</text>
</a>
</g>
</g>
<!-- Node1&#45;&gt;Node2 -->
<g id="edge1" class="edge">
<title>Node1&#45;&gt;Node2</title>
<path fill="none" stroke="#63b8ff" d="M210.67,-219.87C198.23,-208.01 179.46,-185.8 186.66,-165 190.34,-154.38 197.71,-144.38 204.74,-136.55"/>
<polygon fill="#63b8ff" stroke="#63b8ff" points="207.36,-138.88 211.78,-129.25 202.32,-134.02 207.36,-138.88"/>
</g>
<!-- Node9 -->
<g id="node9" class="node">
<title>Node9</title>
<g id="a_node9"><a xlink:title=" ">
<polygon fill="#e0e0e0" stroke="#999999" points="105.16,-19 28.16,-19 28.16,0 105.16,0 105.16,-19"/>
<text text-anchor="middle" x="66.66" y="-7" font-family="Helvetica,sans-Serif" font-size="10.00">Eigen/Dense</text>
</a>
</g>
</g>
<!-- Node1&#45;&gt;Node9 -->
<g id="edge13" class="edge">
<title>Node1&#45;&gt;Node9</title>
<path fill="none" stroke="#63b8ff" d="M159.93,-219.98C108.61,-209 39.34,-184.24 12.66,-129 -1.65,-99.36 -4.77,-84.58 9.66,-55 15.96,-42.09 28.02,-31.83 39.42,-24.43"/>
<polygon fill="#63b8ff" stroke="#63b8ff" points="41.53,-27.25 48.31,-19.12 37.93,-21.25 41.53,-27.25"/>
</g>
<!-- Node11 -->
<g id="node11" class="node">
<title>Node11</title>
<g id="a_node11"><a xlink:title=" ">
<polygon fill="#e0e0e0" stroke="#999999" points="245.66,-184 195.66,-184 195.66,-165 245.66,-165 245.66,-184"/>
<text text-anchor="middle" x="220.66" y="-172" font-family="Helvetica,sans-Serif" font-size="10.00">chrono</text>
</a>
</g>
</g>
<!-- Node1&#45;&gt;Node11 -->
<g id="edge14" class="edge">
<title>Node1&#45;&gt;Node11</title>
<path fill="none" stroke="#63b8ff" d="M220.66,-219.75C220.66,-212.8 220.66,-202.85 220.66,-194.13"/>
<polygon fill="#63b8ff" stroke="#63b8ff" points="224.16,-194.09 220.66,-184.09 217.16,-194.09 224.16,-194.09"/>
</g>
<!-- Node12 -->
<g id="node12" class="node">
<title>Node12</title>
<g id="a_node12"><a xlink:title=" ">
<polygon fill="#e0e0e0" stroke="#999999" points="325.66,-184 263.66,-184 263.66,-165 325.66,-165 325.66,-184"/>
<text text-anchor="middle" x="294.66" y="-172" font-family="Helvetica,sans-Serif" font-size="10.00">daqp.hpp</text>
</a>
</g>
</g>
<!-- Node1&#45;&gt;Node12 -->
<g id="edge15" class="edge">
<title>Node1&#45;&gt;Node12</title>
<path fill="none" stroke="#63b8ff" d="M232.55,-219.98C243.81,-211.92 260.95,-199.65 274.37,-190.03"/>
<polygon fill="#63b8ff" stroke="#63b8ff" points="276.47,-192.84 282.56,-184.17 272.39,-187.15 276.47,-192.84"/>
</g>
<!-- Node13 -->
<g id="node13" class="node">
<title>Node13</title>
<g id="a_node13"><a xlink:href="hqp_8hpp.html" target="_top" xlink:title="Main interface for the Weighted&#45;Hierarchical&#45;QP solver.">
<polygon fill="white" stroke="#666666" points="139.66,-184 83.66,-184 83.66,-165 139.66,-165 139.66,-184"/>
<text text-anchor="middle" x="111.66" y="-172" font-family="Helvetica,sans-Serif" font-size="10.00">hqp.hpp</text>
</a>
</g>
</g>
<!-- Node1&#45;&gt;Node13 -->
<g id="edge16" class="edge">
<title>Node1&#45;&gt;Node13</title>
<path fill="none" stroke="#63b8ff" d="M203.15,-219.98C185.69,-211.5 158.65,-198.35 138.49,-188.54"/>
<polygon fill="#63b8ff" stroke="#63b8ff" points="140.02,-185.4 129.49,-184.17 136.96,-191.69 140.02,-185.4"/>
</g>
<!-- Node15 -->
<g id="node15" class="node">
<title>Node15</title>
<g id="a_node15"><a xlink:title=" ">
<polygon fill="#e0e0e0" stroke="#999999" points="403.66,-184 343.66,-184 343.66,-165 403.66,-165 403.66,-184"/>
<text text-anchor="middle" x="373.66" y="-172" font-family="Helvetica,sans-Serif" font-size="10.00">iostream</text>
</a>
</g>
</g>
<!-- Node1&#45;&gt;Node15 -->
<g id="edge22" class="edge">
<title>Node1&#45;&gt;Node15</title>
<path fill="none" stroke="#63b8ff" d="M245.24,-219.98C270.71,-211.16 310.71,-197.31 339.29,-187.41"/>
<polygon fill="#63b8ff" stroke="#63b8ff" points="340.58,-190.66 348.89,-184.08 338.29,-184.05 340.58,-190.66"/>
</g>
<!-- Node16 -->
<g id="node16" class="node">
<title>Node16</title>
<g id="a_node16"><a xlink:title=" ">
<polygon fill="#e0e0e0" stroke="#999999" points="499.66,-184 421.66,-184 421.66,-165 499.66,-165 499.66,-184"/>
<text text-anchor="middle" x="460.66" y="-172" font-family="Helvetica,sans-Serif" font-size="10.00">lexls/lexlsi.h</text>
</a>
</g>
</g>
<!-- Node1&#45;&gt;Node16 -->
<g id="edge23" class="edge">
<title>Node1&#45;&gt;Node16</title>
<path fill="none" stroke="#63b8ff" d="M259.22,-219.98C300.74,-210.82 366.87,-196.21 411.95,-186.26"/>
<polygon fill="#63b8ff" stroke="#63b8ff" points="412.79,-189.66 421.8,-184.08 411.28,-182.82 412.79,-189.66"/>
</g>
<!-- Node3 -->
<g id="node3" class="node">
<title>Node3</title>
<g id="a_node3"><a xlink:title=" ">
<polygon fill="#e0e0e0" stroke="#999999" points="70.16,-74 29.16,-74 29.16,-55 70.16,-55 70.16,-74"/>
<text text-anchor="middle" x="49.66" y="-62" font-family="Helvetica,sans-Serif" font-size="10.00">tuple</text>
</a>
</g>
</g>
<!-- Node2&#45;&gt;Node3 -->
<g id="edge2" class="edge">
<title>Node2&#45;&gt;Node3</title>
<path fill="none" stroke="#63b8ff" d="M194.03,-109.98C162.84,-100.37 112.25,-84.79 79.99,-74.85"/>
<polygon fill="#63b8ff" stroke="#63b8ff" points="80.8,-71.43 70.21,-71.83 78.74,-78.12 80.8,-71.43"/>
</g>
<!-- Node4 -->
<g id="node4" class="node">
<title>Node4</title>
<g id="a_node4"><a xlink:title=" ">
<polygon fill="#e0e0e0" stroke="#999999" points="216.66,-19 158.66,-19 158.66,0 216.66,0 216.66,-19"/>
<text text-anchor="middle" x="187.66" y="-7" font-family="Helvetica,sans-Serif" font-size="10.00">memory</text>
</a>
</g>
</g>
<!-- Node2&#45;&gt;Node4 -->
<g id="edge3" class="edge">
<title>Node2&#45;&gt;Node4</title>
<path fill="none" stroke="#63b8ff" d="M236.44,-109.9C254.75,-98.08 282.1,-75.9 269.66,-55 260.18,-39.06 242.77,-28.48 226.42,-21.65"/>
<polygon fill="#63b8ff" stroke="#63b8ff" points="227.58,-18.34 216.99,-18.05 225.08,-24.88 227.58,-18.34"/>
</g>
<!-- Node5 -->
<g id="node5" class="node">
<title>Node5</title>
<g id="a_node5"><a xlink:title=" ">
<polygon fill="#e0e0e0" stroke="#999999" points="362.16,-74 317.16,-74 317.16,-55 362.16,-55 362.16,-74"/>
<text text-anchor="middle" x="339.66" y="-62" font-family="Helvetica,sans-Serif" font-size="10.00">utility</text>
</a>
</g>
</g>
<!-- Node2&#45;&gt;Node5 -->
<g id="edge4" class="edge">
<title>Node2&#45;&gt;Node5</title>
<path fill="none" stroke="#63b8ff" d="M240.62,-109.98C259.69,-101.42 289.32,-88.11 311.21,-78.28"/>
<polygon fill="#63b8ff" stroke="#63b8ff" points="312.67,-81.46 320.36,-74.17 309.8,-75.07 312.67,-81.46"/>
</g>
<!-- Node6 -->
<g id="node6" class="node">
<title>Node6</title>
<g id="a_node6"><a xlink:title=" ">
<polygon fill="#e0e0e0" stroke="#999999" points="380.16,-19 311.16,-19 311.16,0 380.16,0 380.16,-19"/>
<text text-anchor="middle" x="345.66" y="-7" font-family="Helvetica,sans-Serif" font-size="10.00">type_traits</text>
</a>
</g>
</g>
<!-- Node2&#45;&gt;Node6 -->
<g id="edge5" class="edge">
<title>Node2&#45;&gt;Node6</title>
<path fill="none" stroke="#63b8ff" d="M251.41,-119.34C286.62,-118.53 343.96,-111.11 371.66,-74 382.18,-59.9 371.92,-40.94 361.35,-27.42"/>
<polygon fill="#63b8ff" stroke="#63b8ff" points="363.7,-24.79 354.57,-19.42 358.36,-29.31 363.7,-24.79"/>
</g>
<!-- Node7 -->
<g id="node7" class="node">
<title>Node7</title>
<g id="a_node7"><a xlink:title=" ">
<polygon fill="#e0e0e0" stroke="#999999" points="470.66,-74 418.66,-74 418.66,-55 470.66,-55 470.66,-74"/>
<text text-anchor="middle" x="444.66" y="-62" font-family="Helvetica,sans-Serif" font-size="10.00">cassert</text>
</a>
</g>
</g>
<!-- Node2&#45;&gt;Node7 -->
<g id="edge6" class="edge">
<title>Node2&#45;&gt;Node7</title>
<path fill="none" stroke="#63b8ff" d="M251.28,-111.46C291.86,-101.82 364.7,-84.51 408.47,-74.1"/>
<polygon fill="#63b8ff" stroke="#63b8ff" points="409.48,-77.46 418.4,-71.74 407.87,-70.65 409.48,-77.46"/>
</g>
<!-- Node8 -->
<g id="node8" class="node">
<title>Node8</title>
<g id="a_node8"><a xlink:title=" ">
<polygon fill="#e0e0e0" stroke="#999999" points="260.66,-74 204.66,-74 204.66,-55 260.66,-55 260.66,-74"/>
<text text-anchor="middle" x="232.66" y="-62" font-family="Helvetica,sans-Serif" font-size="10.00">optional</text>
</a>
</g>
</g>
<!-- Node2&#45;&gt;Node8 -->
<g id="edge7" class="edge">
<title>Node2&#45;&gt;Node8</title>
<path fill="none" stroke="#63b8ff" d="M223.48,-109.75C224.92,-102.8 226.99,-92.85 228.8,-84.13"/>
<polygon fill="#63b8ff" stroke="#63b8ff" points="232.27,-84.59 230.88,-74.09 225.42,-83.17 232.27,-84.59"/>
</g>
<!-- Node2&#45;&gt;Node9 -->
<g id="edge8" class="edge">
<title>Node2&#45;&gt;Node9</title>
<path fill="none" stroke="#63b8ff" d="M191.84,-110.07C169.86,-102.87 140.03,-90.98 117.66,-74 100.82,-61.22 86.26,-41.71 77.06,-27.69"/>
<polygon fill="#63b8ff" stroke="#63b8ff" points="79.88,-25.6 71.58,-19.01 73.96,-29.34 79.88,-25.6"/>
</g>
<!-- Node10 -->
<g id="node10" class="node">
<title>Node10</title>
<g id="a_node10"><a xlink:href="utils_8hpp.html" target="_top" xlink:title="Declares common utility functions used throughout the HQP solver.">
<polygon fill="white" stroke="#666666" points="186.16,-74 127.16,-74 127.16,-55 186.16,-55 186.16,-74"/>
<text text-anchor="middle" x="156.66" y="-62" font-family="Helvetica,sans-Serif" font-size="10.00">utils.hpp</text>
</a>
</g>
</g>
<!-- Node2&#45;&gt;Node10 -->
<g id="edge9" class="edge">
<title>Node2&#45;&gt;Node10</title>
<path fill="none" stroke="#63b8ff" d="M211.22,-109.98C201.52,-102.07 186.85,-90.11 175.16,-80.58"/>
<polygon fill="#63b8ff" stroke="#63b8ff" points="177.26,-77.78 167.3,-74.17 172.83,-83.2 177.26,-77.78"/>
</g>
<!-- Node10&#45;&gt;Node4 -->
<g id="edge10" class="edge">
<title>Node10&#45;&gt;Node4</title>
<path fill="none" stroke="#63b8ff" d="M161.78,-54.75C166.03,-47.49 172.19,-36.95 177.44,-27.98"/>
<polygon fill="#63b8ff" stroke="#63b8ff" points="180.61,-29.49 182.64,-19.09 174.57,-25.95 180.61,-29.49"/>
</g>
<!-- Node10&#45;&gt;Node6 -->
<g id="edge11" class="edge">
<title>Node10&#45;&gt;Node6</title>
<path fill="none" stroke="#63b8ff" d="M186.19,-55.22C218.27,-46.22 269.7,-31.8 305.45,-21.78"/>
<polygon fill="#63b8ff" stroke="#63b8ff" points="306.4,-25.14 315.09,-19.07 304.51,-18.4 306.4,-25.14"/>
</g>
<!-- Node10&#45;&gt;Node9 -->
<g id="edge12" class="edge">
<title>Node10&#45;&gt;Node9</title>
<path fill="none" stroke="#63b8ff" d="M142.2,-54.98C128.25,-46.77 106.87,-34.18 90.41,-24.49"/>
<polygon fill="#63b8ff" stroke="#63b8ff" points="91.78,-21.23 81.39,-19.17 88.23,-27.26 91.78,-21.23"/>
</g>
<!-- Node13&#45;&gt;Node2 -->
<g id="edge20" class="edge">
<title>Node13&#45;&gt;Node2</title>
<path fill="none" stroke="#63b8ff" d="M129.34,-164.98C146.95,-156.5 174.24,-143.35 194.59,-133.54"/>
<polygon fill="#63b8ff" stroke="#63b8ff" points="196.18,-136.66 203.67,-129.17 193.14,-130.36 196.18,-136.66"/>
</g>
<!-- Node13&#45;&gt;Node3 -->
<g id="edge18" class="edge">
<title>Node13&#45;&gt;Node3</title>
<path fill="none" stroke="#63b8ff" d="M110.21,-164.78C107.8,-152.05 102.19,-127.94 91.66,-110 85.31,-99.17 75.86,-88.85 67.54,-80.88"/>
<polygon fill="#63b8ff" stroke="#63b8ff" points="69.78,-78.19 60.04,-74.02 65.06,-83.36 69.78,-78.19"/>
</g>
<!-- Node13&#45;&gt;Node9 -->
<g id="edge19" class="edge">
<title>Node13&#45;&gt;Node9</title>
<path fill="none" stroke="#63b8ff" d="M83.32,-166.16C64.15,-159.66 39.97,-148.15 26.66,-129 7.8,-101.88 6.6,-85.35 19.66,-55 24.82,-43.03 34.95,-32.76 44.49,-25.12"/>
<polygon fill="#63b8ff" stroke="#63b8ff" points="46.65,-27.88 52.59,-19.11 42.47,-22.26 46.65,-27.88"/>
</g>
<!-- Node13&#45;&gt;Node10 -->
<g id="edge21" class="edge">
<title>Node13&#45;&gt;Node10</title>
<path fill="none" stroke="#63b8ff" d="M115.35,-164.66C122.7,-147.01 139.33,-107.09 149.11,-83.64"/>
<polygon fill="#63b8ff" stroke="#63b8ff" points="152.44,-84.74 153.06,-74.16 145.98,-82.04 152.44,-84.74"/>
</g>
<!-- Node14 -->
<g id="node14" class="node">
<title>Node14</title>
<g id="a_node14"><a xlink:title=" ">
<polygon fill="#e0e0e0" stroke="#999999" points="83.16,-129 36.16,-129 36.16,-110 83.16,-110 83.16,-129"/>
<text text-anchor="middle" x="59.66" y="-117" font-family="Helvetica,sans-Serif" font-size="10.00">vector</text>
</a>
</g>
</g>
<!-- Node13&#45;&gt;Node14 -->
<g id="edge17" class="edge">
<title>Node13&#45;&gt;Node14</title>
<path fill="none" stroke="#63b8ff" d="M103.08,-164.75C95.5,-157.03 84.28,-145.6 75.15,-136.28"/>
<polygon fill="#63b8ff" stroke="#63b8ff" points="77.59,-133.78 68.09,-129.09 72.59,-138.68 77.59,-133.78"/>
</g>
</g>
</svg>
