<?xml version="1.0" encoding="UTF-8" standalone="no"?>
<!DOCTYPE svg PUBLIC "-//W3C//DTD SVG 1.1//EN"
 "http://www.w3.org/Graphics/SVG/1.1/DTD/svg11.dtd">
<!-- Generated by graphviz version 2.43.0 (0)
 -->
<!-- Title: tests/02_compare_solvers.cpp Pages: 1 -->
<svg width="716pt" height="247pt"
 viewBox="0.00 0.00 716.00 247.00" xmlns="http://www.w3.org/2000/svg" xmlns:xlink="http://www.w3.org/1999/xlink">
<g id="graph0" class="graph" transform="scale(1 1) rotate(0) translate(4 243)">
<title>tests/02_compare_solvers.cpp</title>
<!-- Node1 -->
<g id="node1" class="node">
<title>Node1</title>
<g id="a_node1"><a xlink:title=" ">
<polygon fill="#999999" stroke="#666666" points="531,-239 367,-239 367,-220 531,-220 531,-239"/>
<text text-anchor="middle" x="449" y="-227" font-family="Helvetica,sans-Serif" font-size="10.00">tests/02_compare_solvers.cpp</text>
</a>
</g>
</g>
<!-- Node2 -->
<g id="node2" class="node">
<title>Node2</title>
<g id="a_node2"><a xlink:title=" ">
<polygon fill="#e0e0e0" stroke="#999999" points="287,-184 237,-184 237,-165 287,-165 287,-184"/>
<text text-anchor="middle" x="262" y="-172" font-family="Helvetica,sans-Serif" font-size="10.00">chrono</text>
</a>
</g>
</g>
<!-- Node1&#45;&gt;Node2 -->
<g id="edge1" class="edge">
<title>Node1&#45;&gt;Node2</title>
<path fill="none" stroke="#63b8ff" d="M418.96,-219.98C385.69,-210.56 332.14,-195.38 297,-185.42"/>
<polygon fill="#63b8ff" stroke="#63b8ff" points="297.75,-181.99 287.17,-182.63 295.84,-188.73 297.75,-181.99"/>
</g>
<!-- Node3 -->
<g id="node3" class="node">
<title>Node3</title>
<g id="a_node3"><a xlink:title=" ">
<polygon fill="#e0e0e0" stroke="#999999" points="365,-184 305,-184 305,-165 365,-165 365,-184"/>
<text text-anchor="middle" x="335" y="-172" font-family="Helvetica,sans-Serif" font-size="10.00">iostream</text>
</a>
</g>
</g>
<!-- Node1&#45;&gt;Node3 -->
<g id="edge2" class="edge">
<title>Node1&#45;&gt;Node3</title>
<path fill="none" stroke="#63b8ff" d="M430.68,-219.98C412.34,-211.46 383.89,-198.23 362.77,-188.41"/>
<polygon fill="#63b8ff" stroke="#63b8ff" points="364.19,-185.21 353.65,-184.17 361.24,-191.56 364.19,-185.21"/>
</g>
<!-- Node4 -->
<g id="node4" class="node">
<title>Node4</title>
<g id="a_node4"><a xlink:title=" ">
<polygon fill="#e0e0e0" stroke="#999999" points="473.5,-19 396.5,-19 396.5,0 473.5,0 473.5,-19"/>
<text text-anchor="middle" x="435" y="-7" font-family="Helvetica,sans-Serif" font-size="10.00">Eigen/Dense</text>
</a>
</g>
</g>
<!-- Node1&#45;&gt;Node4 -->
<g id="edge3" class="edge">
<title>Node1&#45;&gt;Node4</title>
<path fill="none" stroke="#63b8ff" d="M459.44,-219.87C468.42,-211.7 480.74,-198.55 486,-184 496.07,-156.13 532.33,-168.81 481,-55 475.75,-43.37 465.96,-33.22 456.75,-25.56"/>
<polygon fill="#63b8ff" stroke="#63b8ff" points="458.65,-22.61 448.6,-19.26 454.37,-28.14 458.65,-22.61"/>
</g>
<!-- Node5 -->
<g id="node5" class="node">
<title>Node5</title>
<g id="a_node5"><a xlink:title=" ">
<polygon fill="#e0e0e0" stroke="#999999" points="612,-184 550,-184 550,-165 612,-165 612,-184"/>
<text text-anchor="middle" x="581" y="-172" font-family="Helvetica,sans-Serif" font-size="10.00">daqp.hpp</text>
</a>
</g>
</g>
<!-- Node1&#45;&gt;Node5 -->
<g id="edge4" class="edge">
<title>Node1&#45;&gt;Node5</title>
<path fill="none" stroke="#63b8ff" d="M470.21,-219.98C491.73,-211.34 525.28,-197.87 549.83,-188.02"/>
<polygon fill="#63b8ff" stroke="#63b8ff" points="551.43,-191.14 559.41,-184.17 548.82,-184.65 551.43,-191.14"/>
</g>
<!-- Node6 -->
<g id="node6" class="node">
<title>Node6</title>
<g id="a_node6"><a xlink:title=" ">
<polygon fill="#e0e0e0" stroke="#999999" points="708,-184 630,-184 630,-165 708,-165 708,-184"/>
<text text-anchor="middle" x="669" y="-172" font-family="Helvetica,sans-Serif" font-size="10.00">lexls/lexlsi.h</text>
</a>
</g>
</g>
<!-- Node1&#45;&gt;Node6 -->
<g id="edge5" class="edge">
<title>Node1&#45;&gt;Node6</title>
<path fill="none" stroke="#63b8ff" d="M484.35,-219.98C522.16,-210.87 582.26,-196.4 623.57,-186.45"/>
<polygon fill="#63b8ff" stroke="#63b8ff" points="624.47,-189.83 633.38,-184.08 622.83,-183.02 624.47,-189.83"/>
</g>
<!-- Node7 -->
<g id="node7" class="node">
<title>Node7</title>
<g id="a_node7"><a xlink:href="hqp_8hpp.html" target="_top" xlink:title="Main interface for the Weighted&#45;Hierarchical&#45;QP solver.">
<polygon fill="white" stroke="#666666" points="477,-184 421,-184 421,-165 477,-165 477,-184"/>
<text text-anchor="middle" x="449" y="-172" font-family="Helvetica,sans-Serif" font-size="10.00">hqp.hpp</text>
</a>
</g>
</g>
<!-- Node1&#45;&gt;Node7 -->
<g id="edge6" class="edge">
<title>Node1&#45;&gt;Node7</title>
<path fill="none" stroke="#63b8ff" d="M449,-219.75C449,-212.8 449,-202.85 449,-194.13"/>
<polygon fill="#63b8ff" stroke="#63b8ff" points="452.5,-194.09 449,-184.09 445.5,-194.09 452.5,-194.09"/>
</g>
<!-- Node10 -->
<g id="node10" class="node">
<title>Node10</title>
<g id="a_node10"><a xlink:href="task_8hpp.html" target="_top" xlink:title="Declares the abstract Task interface and its derivatives used in the HQP solver.">
<polygon fill="white" stroke="#666666" points="319.5,-129 260.5,-129 260.5,-110 319.5,-110 319.5,-129"/>
<text text-anchor="middle" x="290" y="-117" font-family="Helvetica,sans-Serif" font-size="10.00">task.hpp</text>
</a>
</g>
</g>
<!-- Node1&#45;&gt;Node10 -->
<g id="edge22" class="edge">
<title>Node1&#45;&gt;Node10</title>
<path fill="none" stroke="#63b8ff" d="M439.82,-219.58C426.18,-206.61 399.43,-182.21 374,-165 356.29,-153.02 334.99,-141.76 318.27,-133.57"/>
<polygon fill="#63b8ff" stroke="#63b8ff" points="319.54,-130.3 309.01,-129.12 316.51,-136.61 319.54,-130.3"/>
</g>
<!-- Node7&#45;&gt;Node4 -->
<g id="edge9" class="edge">
<title>Node7&#45;&gt;Node4</title>
<path fill="none" stroke="#63b8ff" d="M453.11,-164.88C457.06,-156.09 462.74,-141.94 465,-129 470.65,-96.6 474.61,-86.45 465,-55 461.91,-44.9 455.68,-35.02 449.69,-27.15"/>
<polygon fill="#63b8ff" stroke="#63b8ff" points="452.24,-24.74 443.21,-19.2 446.82,-29.16 452.24,-24.74"/>
</g>
<!-- Node8 -->
<g id="node8" class="node">
<title>Node8</title>
<g id="a_node8"><a xlink:title=" ">
<polygon fill="#e0e0e0" stroke="#999999" points="455.5,-129 408.5,-129 408.5,-110 455.5,-110 455.5,-129"/>
<text text-anchor="middle" x="432" y="-117" font-family="Helvetica,sans-Serif" font-size="10.00">vector</text>
</a>
</g>
</g>
<!-- Node7&#45;&gt;Node8 -->
<g id="edge7" class="edge">
<title>Node7&#45;&gt;Node8</title>
<path fill="none" stroke="#63b8ff" d="M446.19,-164.75C443.94,-157.72 440.7,-147.62 437.88,-138.84"/>
<polygon fill="#63b8ff" stroke="#63b8ff" points="441.14,-137.54 434.75,-129.09 434.48,-139.68 441.14,-137.54"/>
</g>
<!-- Node9 -->
<g id="node9" class="node">
<title>Node9</title>
<g id="a_node9"><a xlink:title=" ">
<polygon fill="#e0e0e0" stroke="#999999" points="455.5,-74 414.5,-74 414.5,-55 455.5,-55 455.5,-74"/>
<text text-anchor="middle" x="435" y="-62" font-family="Helvetica,sans-Serif" font-size="10.00">tuple</text>
</a>
</g>
</g>
<!-- Node7&#45;&gt;Node9 -->
<g id="edge8" class="edge">
<title>Node7&#45;&gt;Node9</title>
<path fill="none" stroke="#63b8ff" d="M433.87,-164.73C422.19,-156.99 406.88,-144.55 400,-129 392.57,-112.22 404.95,-93.97 416.98,-81.35"/>
<polygon fill="#63b8ff" stroke="#63b8ff" points="419.52,-83.77 424.25,-74.29 414.64,-78.75 419.52,-83.77"/>
</g>
<!-- Node7&#45;&gt;Node10 -->
<g id="edge10" class="edge">
<title>Node7&#45;&gt;Node10</title>
<path fill="none" stroke="#63b8ff" d="M423.45,-164.98C396.88,-156.13 355.06,-142.19 325.33,-132.28"/>
<polygon fill="#63b8ff" stroke="#63b8ff" points="326.34,-128.92 315.75,-129.08 324.13,-135.56 326.34,-128.92"/>
</g>
<!-- Node10&#45;&gt;Node4 -->
<g id="edge17" class="edge">
<title>Node10&#45;&gt;Node4</title>
<path fill="none" stroke="#63b8ff" d="M307.21,-110C323.29,-101.73 347.65,-88.34 367,-74 386.53,-59.53 406.59,-40.13 419.82,-26.6"/>
<polygon fill="#63b8ff" stroke="#63b8ff" points="422.34,-29.02 426.76,-19.39 417.3,-24.17 422.34,-29.02"/>
</g>
<!-- Node10&#45;&gt;Node9 -->
<g id="edge11" class="edge">
<title>Node10&#45;&gt;Node9</title>
<path fill="none" stroke="#63b8ff" d="M313.3,-109.98C338.11,-100.92 377.48,-86.53 404.69,-76.58"/>
<polygon fill="#63b8ff" stroke="#63b8ff" points="405.92,-79.85 414.11,-73.13 403.52,-73.28 405.92,-79.85"/>
</g>
<!-- Node11 -->
<g id="node11" class="node">
<title>Node11</title>
<g id="a_node11"><a xlink:title=" ">
<polygon fill="#e0e0e0" stroke="#999999" points="58,-19 0,-19 0,0 58,0 58,-19"/>
<text text-anchor="middle" x="29" y="-7" font-family="Helvetica,sans-Serif" font-size="10.00">memory</text>
</a>
</g>
</g>
<!-- Node10&#45;&gt;Node11 -->
<g id="edge12" class="edge">
<title>Node10&#45;&gt;Node11</title>
<path fill="none" stroke="#63b8ff" d="M260.18,-119.04C215.97,-118.45 132.02,-111.9 74,-74 56.91,-62.83 44.31,-42.72 36.86,-28.12"/>
<polygon fill="#63b8ff" stroke="#63b8ff" points="40.01,-26.58 32.53,-19.06 33.69,-29.6 40.01,-26.58"/>
</g>
<!-- Node12 -->
<g id="node12" class="node">
<title>Node12</title>
<g id="a_node12"><a xlink:title=" ">
<polygon fill="#e0e0e0" stroke="#999999" points="213.5,-74 168.5,-74 168.5,-55 213.5,-55 213.5,-74"/>
<text text-anchor="middle" x="191" y="-62" font-family="Helvetica,sans-Serif" font-size="10.00">utility</text>
</a>
</g>
</g>
<!-- Node10&#45;&gt;Node12 -->
<g id="edge13" class="edge">
<title>Node10&#45;&gt;Node12</title>
<path fill="none" stroke="#63b8ff" d="M274.09,-109.98C258.45,-101.61 234.34,-88.7 216.12,-78.95"/>
<polygon fill="#63b8ff" stroke="#63b8ff" points="217.66,-75.8 207.2,-74.17 214.36,-81.98 217.66,-75.8"/>
</g>
<!-- Node13 -->
<g id="node13" class="node">
<title>Node13</title>
<g id="a_node13"><a xlink:title=" ">
<polygon fill="#e0e0e0" stroke="#999999" points="148.5,-19 79.5,-19 79.5,0 148.5,0 148.5,-19"/>
<text text-anchor="middle" x="114" y="-7" font-family="Helvetica,sans-Serif" font-size="10.00">type_traits</text>
</a>
</g>
</g>
<!-- Node10&#45;&gt;Node13 -->
<g id="edge14" class="edge">
<title>Node10&#45;&gt;Node13</title>
<path fill="none" stroke="#63b8ff" d="M260.46,-116.62C208.5,-112.64 104.12,-101.35 82,-74 70.32,-59.56 83.43,-40.15 96.21,-26.61"/>
<polygon fill="#63b8ff" stroke="#63b8ff" points="98.86,-28.92 103.52,-19.4 93.94,-23.94 98.86,-28.92"/>
</g>
<!-- Node14 -->
<g id="node14" class="node">
<title>Node14</title>
<g id="a_node14"><a xlink:title=" ">
<polygon fill="#e0e0e0" stroke="#999999" points="284,-74 232,-74 232,-55 284,-55 284,-74"/>
<text text-anchor="middle" x="258" y="-62" font-family="Helvetica,sans-Serif" font-size="10.00">cassert</text>
</a>
</g>
</g>
<!-- Node10&#45;&gt;Node14 -->
<g id="edge15" class="edge">
<title>Node10&#45;&gt;Node14</title>
<path fill="none" stroke="#63b8ff" d="M284.72,-109.75C280.29,-102.42 273.84,-91.73 268.38,-82.7"/>
<polygon fill="#63b8ff" stroke="#63b8ff" points="271.35,-80.84 263.19,-74.09 265.36,-84.46 271.35,-80.84"/>
</g>
<!-- Node15 -->
<g id="node15" class="node">
<title>Node15</title>
<g id="a_node15"><a xlink:title=" ">
<polygon fill="#e0e0e0" stroke="#999999" points="358,-74 302,-74 302,-55 358,-55 358,-74"/>
<text text-anchor="middle" x="330" y="-62" font-family="Helvetica,sans-Serif" font-size="10.00">optional</text>
</a>
</g>
</g>
<!-- Node10&#45;&gt;Node15 -->
<g id="edge16" class="edge">
<title>Node10&#45;&gt;Node15</title>
<path fill="none" stroke="#63b8ff" d="M296.61,-109.75C302.26,-102.26 310.54,-91.28 317.45,-82.13"/>
<polygon fill="#63b8ff" stroke="#63b8ff" points="320.29,-84.18 323.52,-74.09 314.7,-79.96 320.29,-84.18"/>
</g>
<!-- Node16 -->
<g id="node16" class="node">
<title>Node16</title>
<g id="a_node16"><a xlink:href="utils_8hpp.html" target="_top" xlink:title="Declares common utility functions used throughout the HQP solver.">
<polygon fill="white" stroke="#666666" points="150.5,-74 91.5,-74 91.5,-55 150.5,-55 150.5,-74"/>
<text text-anchor="middle" x="121" y="-62" font-family="Helvetica,sans-Serif" font-size="10.00">utils.hpp</text>
</a>
</g>
</g>
<!-- Node10&#45;&gt;Node16 -->
<g id="edge18" class="edge">
<title>Node10&#45;&gt;Node16</title>
<path fill="none" stroke="#63b8ff" d="M262.85,-109.98C234.47,-101.09 189.77,-87.07 158.14,-77.15"/>
<polygon fill="#63b8ff" stroke="#63b8ff" points="158.95,-73.73 148.37,-74.08 156.86,-80.41 158.95,-73.73"/>
</g>
<!-- Node16&#45;&gt;Node4 -->
<g id="edge21" class="edge">
<title>Node16&#45;&gt;Node4</title>
<path fill="none" stroke="#63b8ff" d="M150.84,-56.65C153.59,-56.07 156.34,-55.51 159,-55 238.25,-39.76 331,-25.54 386.27,-17.45"/>
<polygon fill="#63b8ff" stroke="#63b8ff" points="387.08,-20.87 396.47,-15.96 386.07,-13.94 387.08,-20.87"/>
</g>
<!-- Node16&#45;&gt;Node11 -->
<g id="edge19" class="edge">
<title>Node16&#45;&gt;Node11</title>
<path fill="none" stroke="#63b8ff" d="M106.22,-54.98C91.82,-46.69 69.69,-33.94 52.81,-24.22"/>
<polygon fill="#63b8ff" stroke="#63b8ff" points="54.46,-21.13 44.05,-19.17 50.97,-27.19 54.46,-21.13"/>
</g>
<!-- Node16&#45;&gt;Node13 -->
<g id="edge20" class="edge">
<title>Node16&#45;&gt;Node13</title>
<path fill="none" stroke="#63b8ff" d="M119.84,-54.75C118.93,-47.8 117.61,-37.85 116.46,-29.13"/>
<polygon fill="#63b8ff" stroke="#63b8ff" points="119.91,-28.54 115.13,-19.09 112.97,-29.46 119.91,-28.54"/>
</g>
</g>
</svg>
