<?xml version="1.0" encoding="UTF-8" standalone="no"?>
<!DOCTYPE svg PUBLIC "-//W3C//DTD SVG 1.1//EN"
 "http://www.w3.org/Graphics/SVG/1.1/DTD/svg11.dtd">
<!-- Generated by graphviz version 2.43.0 (0)
 -->
<!-- Title: tests/03_set_stack.cpp Pages: 1 -->
<svg width="476pt" height="247pt"
 viewBox="0.00 0.00 475.54 247.00" xmlns="http://www.w3.org/2000/svg" xmlns:xlink="http://www.w3.org/1999/xlink">
<g id="graph0" class="graph" transform="scale(1 1) rotate(0) translate(4 243)">
<title>tests/03_set_stack.cpp</title>
<!-- Node1 -->
<g id="node1" class="node">
<title>Node1</title>
<g id="a_node1"><a xlink:title=" ">
<polygon fill="#999999" stroke="#666666" points="375,-239 247,-239 247,-220 375,-220 375,-239"/>
<text text-anchor="middle" x="311" y="-227" font-family="Helvetica,sans-Serif" font-size="10.00">tests/03_set_stack.cpp</text>
</a>
</g>
</g>
<!-- Node2 -->
<g id="node2" class="node">
<title>Node2</title>
<g id="a_node2"><a xlink:title=" ">
<polygon fill="#e0e0e0" stroke="#999999" points="205,-184 155,-184 155,-165 205,-165 205,-184"/>
<text text-anchor="middle" x="180" y="-172" font-family="Helvetica,sans-Serif" font-size="10.00">chrono</text>
</a>
</g>
</g>
<!-- Node1&#45;&gt;Node2 -->
<g id="edge1" class="edge">
<title>Node1&#45;&gt;Node2</title>
<path fill="none" stroke="#63b8ff" d="M289.95,-219.98C268.59,-211.34 235.3,-197.87 210.94,-188.02"/>
<polygon fill="#63b8ff" stroke="#63b8ff" points="212.01,-184.68 201.43,-184.17 209.39,-191.17 212.01,-184.68"/>
</g>
<!-- Node3 -->
<g id="node3" class="node">
<title>Node3</title>
<g id="a_node3"><a xlink:title=" ">
<polygon fill="#e0e0e0" stroke="#999999" points="283,-184 223,-184 223,-165 283,-165 283,-184"/>
<text text-anchor="middle" x="253" y="-172" font-family="Helvetica,sans-Serif" font-size="10.00">iostream</text>
</a>
</g>
</g>
<!-- Node1&#45;&gt;Node3 -->
<g id="edge2" class="edge">
<title>Node1&#45;&gt;Node3</title>
<path fill="none" stroke="#63b8ff" d="M301.68,-219.98C293.19,-212.23 280.44,-200.58 270.12,-191.14"/>
<polygon fill="#63b8ff" stroke="#63b8ff" points="272.23,-188.33 262.49,-184.17 267.51,-193.5 272.23,-188.33"/>
</g>
<!-- Node4 -->
<g id="node4" class="node">
<title>Node4</title>
<g id="a_node4"><a xlink:title=" ">
<polygon fill="#e0e0e0" stroke="#999999" points="429.5,-19 352.5,-19 352.5,0 429.5,0 429.5,-19"/>
<text text-anchor="middle" x="391" y="-7" font-family="Helvetica,sans-Serif" font-size="10.00">Eigen/Dense</text>
</a>
</g>
</g>
<!-- Node1&#45;&gt;Node4 -->
<g id="edge3" class="edge">
<title>Node1&#45;&gt;Node4</title>
<path fill="none" stroke="#63b8ff" d="M338.59,-219.91C358.45,-212.71 384.98,-200.86 404,-184 445.84,-146.92 452.76,-128.55 465,-74 466.85,-65.76 469.16,-62.35 465,-55 456.83,-40.55 441.88,-30.27 427.54,-23.26"/>
<polygon fill="#63b8ff" stroke="#63b8ff" points="428.85,-20.01 418.29,-19.12 425.99,-26.4 428.85,-20.01"/>
</g>
<!-- Node5 -->
<g id="node5" class="node">
<title>Node5</title>
<g id="a_node5"><a xlink:href="hqp_8hpp.html" target="_top" xlink:title="Main interface for the Weighted&#45;Hierarchical&#45;QP solver.">
<polygon fill="white" stroke="#666666" points="395,-184 339,-184 339,-165 395,-165 395,-184"/>
<text text-anchor="middle" x="367" y="-172" font-family="Helvetica,sans-Serif" font-size="10.00">hqp.hpp</text>
</a>
</g>
</g>
<!-- Node1&#45;&gt;Node5 -->
<g id="edge4" class="edge">
<title>Node1&#45;&gt;Node5</title>
<path fill="none" stroke="#63b8ff" d="M320,-219.98C328.19,-212.23 340.51,-200.58 350.47,-191.14"/>
<polygon fill="#63b8ff" stroke="#63b8ff" points="352.98,-193.59 357.84,-184.17 348.17,-188.5 352.98,-193.59"/>
</g>
<!-- Node8 -->
<g id="node8" class="node">
<title>Node8</title>
<g id="a_node8"><a xlink:href="task_8hpp.html" target="_top" xlink:title="Declares the abstract Task interface and its derivatives used in the HQP solver.">
<polygon fill="white" stroke="#666666" points="278.5,-129 219.5,-129 219.5,-110 278.5,-110 278.5,-129"/>
<text text-anchor="middle" x="249" y="-117" font-family="Helvetica,sans-Serif" font-size="10.00">task.hpp</text>
</a>
</g>
</g>
<!-- Node1&#45;&gt;Node8 -->
<g id="edge21" class="edge">
<title>Node1&#45;&gt;Node8</title>
<path fill="none" stroke="#63b8ff" d="M309.74,-219.76C307.61,-207.01 302.46,-182.88 292,-165 285.67,-154.18 276.17,-143.98 267.71,-136.08"/>
<polygon fill="#63b8ff" stroke="#63b8ff" points="269.86,-133.3 260.06,-129.26 265.2,-138.53 269.86,-133.3"/>
</g>
<!-- Node5&#45;&gt;Node4 -->
<g id="edge7" class="edge">
<title>Node5&#45;&gt;Node4</title>
<path fill="none" stroke="#63b8ff" d="M379.07,-164.8C399.24,-149.31 438.71,-114.76 450,-74 452.25,-65.86 453.77,-62.56 450,-55 443.43,-41.82 430.9,-31.52 419.07,-24.16"/>
<polygon fill="#63b8ff" stroke="#63b8ff" points="420.68,-21.05 410.27,-19.1 417.2,-27.12 420.68,-21.05"/>
</g>
<!-- Node6 -->
<g id="node6" class="node">
<title>Node6</title>
<g id="a_node6"><a xlink:title=" ">
<polygon fill="#e0e0e0" stroke="#999999" points="390.5,-129 343.5,-129 343.5,-110 390.5,-110 390.5,-129"/>
<text text-anchor="middle" x="367" y="-117" font-family="Helvetica,sans-Serif" font-size="10.00">vector</text>
</a>
</g>
</g>
<!-- Node5&#45;&gt;Node6 -->
<g id="edge5" class="edge">
<title>Node5&#45;&gt;Node6</title>
<path fill="none" stroke="#63b8ff" d="M367,-164.75C367,-157.8 367,-147.85 367,-139.13"/>
<polygon fill="#63b8ff" stroke="#63b8ff" points="370.5,-139.09 367,-129.09 363.5,-139.09 370.5,-139.09"/>
</g>
<!-- Node7 -->
<g id="node7" class="node">
<title>Node7</title>
<g id="a_node7"><a xlink:title=" ">
<polygon fill="#e0e0e0" stroke="#999999" points="440.5,-74 399.5,-74 399.5,-55 440.5,-55 440.5,-74"/>
<text text-anchor="middle" x="420" y="-62" font-family="Helvetica,sans-Serif" font-size="10.00">tuple</text>
</a>
</g>
</g>
<!-- Node5&#45;&gt;Node7 -->
<g id="edge6" class="edge">
<title>Node5&#45;&gt;Node7</title>
<path fill="none" stroke="#63b8ff" d="M374.77,-164.88C382.14,-156.32 393.1,-142.54 400,-129 407.31,-114.67 412.58,-97.14 415.88,-84.14"/>
<polygon fill="#63b8ff" stroke="#63b8ff" points="419.36,-84.6 418.26,-74.07 412.55,-82.99 419.36,-84.6"/>
</g>
<!-- Node5&#45;&gt;Node8 -->
<g id="edge8" class="edge">
<title>Node5&#45;&gt;Node8</title>
<path fill="none" stroke="#63b8ff" d="M348.04,-164.98C328.97,-156.42 299.34,-143.11 277.45,-133.28"/>
<polygon fill="#63b8ff" stroke="#63b8ff" points="278.86,-130.07 268.3,-129.17 275.99,-136.46 278.86,-130.07"/>
</g>
<!-- Node14 -->
<g id="node14" class="node">
<title>Node14</title>
<g id="a_node14"><a xlink:href="utils_8hpp.html" target="_top" xlink:title="Declares common utility functions used throughout the HQP solver.">
<polygon fill="white" stroke="#666666" points="342.5,-74 283.5,-74 283.5,-55 342.5,-55 342.5,-74"/>
<text text-anchor="middle" x="313" y="-62" font-family="Helvetica,sans-Serif" font-size="10.00">utils.hpp</text>
</a>
</g>
</g>
<!-- Node5&#45;&gt;Node14 -->
<g id="edge20" class="edge">
<title>Node5&#45;&gt;Node14</title>
<path fill="none" stroke="#63b8ff" d="M359.57,-164.8C352.49,-156.17 341.92,-142.35 335,-129 327.45,-114.44 321.55,-96.71 317.77,-83.69"/>
<polygon fill="#63b8ff" stroke="#63b8ff" points="321.14,-82.75 315.11,-74.04 314.4,-84.61 321.14,-82.75"/>
</g>
<!-- Node8&#45;&gt;Node4 -->
<g id="edge15" class="edge">
<title>Node8&#45;&gt;Node4</title>
<path fill="none" stroke="#63b8ff" d="M278.72,-110.95C300.86,-104.15 330.8,-92.37 352,-74 366.34,-61.58 377.04,-42.56 383.58,-28.57"/>
<polygon fill="#63b8ff" stroke="#63b8ff" points="386.94,-29.61 387.75,-19.04 380.53,-26.8 386.94,-29.61"/>
</g>
<!-- Node8&#45;&gt;Node7 -->
<g id="edge9" class="edge">
<title>Node8&#45;&gt;Node7</title>
<path fill="none" stroke="#63b8ff" d="M276.47,-109.98C307.4,-100.4 357.5,-84.87 389.58,-74.93"/>
<polygon fill="#63b8ff" stroke="#63b8ff" points="390.8,-78.21 399.32,-71.91 388.73,-71.53 390.8,-78.21"/>
</g>
<!-- Node9 -->
<g id="node9" class="node">
<title>Node9</title>
<g id="a_node9"><a xlink:title=" ">
<polygon fill="#e0e0e0" stroke="#999999" points="322,-19 264,-19 264,0 322,0 322,-19"/>
<text text-anchor="middle" x="293" y="-7" font-family="Helvetica,sans-Serif" font-size="10.00">memory</text>
</a>
</g>
</g>
<!-- Node8&#45;&gt;Node9 -->
<g id="edge10" class="edge">
<title>Node8&#45;&gt;Node9</title>
<path fill="none" stroke="#63b8ff" d="M237.31,-109.88C222.25,-97.68 199.31,-74.65 211,-55 220.49,-39.06 237.9,-28.48 254.24,-21.65"/>
<polygon fill="#63b8ff" stroke="#63b8ff" points="255.58,-24.88 263.67,-18.05 253.08,-18.34 255.58,-24.88"/>
</g>
<!-- Node10 -->
<g id="node10" class="node">
<title>Node10</title>
<g id="a_node10"><a xlink:title=" ">
<polygon fill="#e0e0e0" stroke="#999999" points="265.5,-74 220.5,-74 220.5,-55 265.5,-55 265.5,-74"/>
<text text-anchor="middle" x="243" y="-62" font-family="Helvetica,sans-Serif" font-size="10.00">utility</text>
</a>
</g>
</g>
<!-- Node8&#45;&gt;Node10 -->
<g id="edge11" class="edge">
<title>Node8&#45;&gt;Node10</title>
<path fill="none" stroke="#63b8ff" d="M248.01,-109.75C247.22,-102.8 246.1,-92.85 245.11,-84.13"/>
<polygon fill="#63b8ff" stroke="#63b8ff" points="248.58,-83.63 243.97,-74.09 241.62,-84.42 248.58,-83.63"/>
</g>
<!-- Node11 -->
<g id="node11" class="node">
<title>Node11</title>
<g id="a_node11"><a xlink:title=" ">
<polygon fill="#e0e0e0" stroke="#999999" points="221.5,-19 152.5,-19 152.5,0 221.5,0 221.5,-19"/>
<text text-anchor="middle" x="187" y="-7" font-family="Helvetica,sans-Serif" font-size="10.00">type_traits</text>
</a>
</g>
</g>
<!-- Node8&#45;&gt;Node11 -->
<g id="edge12" class="edge">
<title>Node8&#45;&gt;Node11</title>
<path fill="none" stroke="#63b8ff" d="M237.31,-109.9C227.06,-101.76 212.5,-88.63 204,-74 196.02,-60.26 191.69,-42.69 189.4,-29.51"/>
<polygon fill="#63b8ff" stroke="#63b8ff" points="192.81,-28.65 187.88,-19.27 185.89,-29.68 192.81,-28.65"/>
</g>
<!-- Node12 -->
<g id="node12" class="node">
<title>Node12</title>
<g id="a_node12"><a xlink:title=" ">
<polygon fill="#e0e0e0" stroke="#999999" points="52,-74 0,-74 0,-55 52,-55 52,-74"/>
<text text-anchor="middle" x="26" y="-62" font-family="Helvetica,sans-Serif" font-size="10.00">cassert</text>
</a>
</g>
</g>
<!-- Node8&#45;&gt;Node12 -->
<g id="edge13" class="edge">
<title>Node8&#45;&gt;Node12</title>
<path fill="none" stroke="#63b8ff" d="M219.36,-111.54C184.18,-103.27 123.5,-88.96 62.21,-74.28"/>
<polygon fill="#63b8ff" stroke="#63b8ff" points="62.91,-70.85 52.37,-71.92 61.28,-77.66 62.91,-70.85"/>
</g>
<!-- Node13 -->
<g id="node13" class="node">
<title>Node13</title>
<g id="a_node13"><a xlink:title=" ">
<polygon fill="#e0e0e0" stroke="#999999" points="126,-74 70,-74 70,-55 126,-55 126,-74"/>
<text text-anchor="middle" x="98" y="-62" font-family="Helvetica,sans-Serif" font-size="10.00">optional</text>
</a>
</g>
</g>
<!-- Node8&#45;&gt;Node13 -->
<g id="edge14" class="edge">
<title>Node8&#45;&gt;Node13</title>
<path fill="none" stroke="#63b8ff" d="M224.74,-109.98C199.68,-101.19 160.37,-87.39 132.17,-77.49"/>
<polygon fill="#63b8ff" stroke="#63b8ff" points="133.3,-74.18 122.7,-74.17 130.98,-80.78 133.3,-74.18"/>
</g>
<!-- Node8&#45;&gt;Node14 -->
<g id="edge16" class="edge">
<title>Node8&#45;&gt;Node14</title>
<path fill="none" stroke="#63b8ff" d="M259.28,-109.98C268.84,-102.07 283.28,-90.11 294.78,-80.58"/>
<polygon fill="#63b8ff" stroke="#63b8ff" points="297.06,-83.24 302.53,-74.17 292.6,-77.85 297.06,-83.24"/>
</g>
<!-- Node14&#45;&gt;Node4 -->
<g id="edge19" class="edge">
<title>Node14&#45;&gt;Node4</title>
<path fill="none" stroke="#63b8ff" d="M325.53,-54.98C337.4,-46.92 355.46,-34.65 369.61,-25.03"/>
<polygon fill="#63b8ff" stroke="#63b8ff" points="371.94,-27.69 378.24,-19.17 368,-21.9 371.94,-27.69"/>
</g>
<!-- Node14&#45;&gt;Node9 -->
<g id="edge17" class="edge">
<title>Node14&#45;&gt;Node9</title>
<path fill="none" stroke="#63b8ff" d="M309.7,-54.75C307.02,-47.65 303.15,-37.4 299.81,-28.56"/>
<polygon fill="#63b8ff" stroke="#63b8ff" points="303.05,-27.21 296.24,-19.09 296.5,-29.68 303.05,-27.21"/>
</g>
<!-- Node14&#45;&gt;Node11 -->
<g id="edge18" class="edge">
<title>Node14&#45;&gt;Node11</title>
<path fill="none" stroke="#63b8ff" d="M292.76,-54.98C272.3,-46.38 240.47,-32.99 217.07,-23.15"/>
<polygon fill="#63b8ff" stroke="#63b8ff" points="218.19,-19.82 207.61,-19.17 215.47,-26.27 218.19,-19.82"/>
</g>
</g>
</svg>
