<?xml version="1.0" encoding="UTF-8" standalone="no"?>
<!DOCTYPE svg PUBLIC "-//W3C//DTD SVG 1.1//EN"
 "http://www.w3.org/Graphics/SVG/1.1/DTD/svg11.dtd">
<!-- Generated by graphviz version 2.43.0 (0)
 -->
<!-- Title: main Pages: 1 -->
<svg width="198pt" height="124pt"
 viewBox="0.00 0.00 198.00 124.00" xmlns="http://www.w3.org/2000/svg" xmlns:xlink="http://www.w3.org/1999/xlink">
<g id="graph0" class="graph" transform="scale(1 1) rotate(0) translate(4 120)">
<title>main</title>
<!-- Node1 -->
<g id="node1" class="node">
<title>Node1</title>
<g id="a_node1"><a xlink:title=" ">
<polygon fill="#999999" stroke="#666666" points="41,-67.5 0,-67.5 0,-48.5 41,-48.5 41,-67.5"/>
<text text-anchor="middle" x="20.5" y="-55.5" font-family="Helvetica,sans-Serif" font-size="10.00">main</text>
</a>
</g>
</g>
<!-- Node2 -->
<g id="node2" class="node">
<title>Node2</title>
<g id="a_node2"><a xlink:href="classhqp_1_1HierarchicalQP.html#afd188fe690d31e139bdb9ed95b8acf01" target="_top" xlink:title="Computes and retrieves the primal solution.">
<polygon fill="white" stroke="#666666" points="190,-116 77,-116 77,-86 190,-86 190,-116"/>
<text text-anchor="start" x="85" y="-104" font-family="Helvetica,sans-Serif" font-size="10.00">hqp::HierarchicalQP</text>
<text text-anchor="middle" x="133.5" y="-93" font-family="Helvetica,sans-Serif" font-size="10.00">::get_primal</text>
</a>
</g>
</g>
<!-- Node1&#45;&gt;Node2 -->
<g id="edge1" class="edge">
<title>Node1&#45;&gt;Node2</title>
<path fill="none" stroke="#63b8ff" d="M41.09,-65.59C52.93,-70.18 68.6,-76.25 83.62,-82.06"/>
<polygon fill="#63b8ff" stroke="#63b8ff" points="82.75,-85.48 93.34,-85.83 85.28,-78.95 82.75,-85.48"/>
</g>
<!-- Node3 -->
<g id="node3" class="node">
<title>Node3</title>
<g id="a_node3"><a xlink:href="04__random__problem_8cpp.html#abbfac764a8ef8631a7b19819cca07bbe" target="_top" xlink:title=" ">
<polygon fill="white" stroke="#666666" points="183.5,-67.5 83.5,-67.5 83.5,-48.5 183.5,-48.5 183.5,-67.5"/>
<text text-anchor="middle" x="133.5" y="-55.5" font-family="Helvetica,sans-Serif" font-size="10.00">lexls_from_stack</text>
</a>
</g>
</g>
<!-- Node1&#45;&gt;Node3 -->
<g id="edge2" class="edge">
<title>Node1&#45;&gt;Node3</title>
<path fill="none" stroke="#63b8ff" d="M41.09,-58C50.14,-58 61.42,-58 72.94,-58"/>
<polygon fill="#63b8ff" stroke="#63b8ff" points="73.07,-61.5 83.07,-58 73.07,-54.5 73.07,-61.5"/>
</g>
<!-- Node4 -->
<g id="node4" class="node">
<title>Node4</title>
<g id="a_node4"><a xlink:href="classhqp_1_1HierarchicalQP.html#ac420f3e0f18c54980c5d9c9cd7ef8446" target="_top" xlink:title="Stacks multiple tasks into a TaskContainer for hierarchical QP.">
<polygon fill="white" stroke="#666666" points="190,-30 77,-30 77,0 190,0 190,-30"/>
<text text-anchor="start" x="85" y="-18" font-family="Helvetica,sans-Serif" font-size="10.00">hqp::HierarchicalQP</text>
<text text-anchor="middle" x="133.5" y="-7" font-family="Helvetica,sans-Serif" font-size="10.00">::set_stack</text>
</a>
</g>
</g>
<!-- Node1&#45;&gt;Node4 -->
<g id="edge3" class="edge">
<title>Node1&#45;&gt;Node4</title>
<path fill="none" stroke="#63b8ff" d="M41.09,-50.41C52.93,-45.82 68.6,-39.75 83.62,-33.94"/>
<polygon fill="#63b8ff" stroke="#63b8ff" points="85.28,-37.05 93.34,-30.17 82.75,-30.52 85.28,-37.05"/>
</g>
</g>
</svg>
