<?xml version="1.0" encoding="UTF-8" standalone="no"?>
<!DOCTYPE svg PUBLIC "-//W3C//DTD SVG 1.1//EN"
 "http://www.w3.org/Graphics/SVG/1.1/DTD/svg11.dtd">
<!-- Generated by graphviz version 2.43.0 (0)
 -->
<!-- Title: tests/04_random_problem.cpp Pages: 1 -->
<svg width="701pt" height="247pt"
 viewBox="0.00 0.00 701.00 247.00" xmlns="http://www.w3.org/2000/svg" xmlns:xlink="http://www.w3.org/1999/xlink">
<g id="graph0" class="graph" transform="scale(1 1) rotate(0) translate(4 243)">
<title>tests/04_random_problem.cpp</title>
<!-- Node1 -->
<g id="node1" class="node">
<title>Node1</title>
<g id="a_node1"><a xlink:title=" ">
<polygon fill="#999999" stroke="#666666" points="482,-239 318,-239 318,-220 482,-220 482,-239"/>
<text text-anchor="middle" x="400" y="-227" font-family="Helvetica,sans-Serif" font-size="10.00">tests/04_random_problem.cpp</text>
</a>
</g>
</g>
<!-- Node2 -->
<g id="node2" class="node">
<title>Node2</title>
<g id="a_node2"><a xlink:title=" ">
<polygon fill="#e0e0e0" stroke="#999999" points="194,-184 144,-184 144,-165 194,-165 194,-184"/>
<text text-anchor="middle" x="169" y="-172" font-family="Helvetica,sans-Serif" font-size="10.00">chrono</text>
</a>
</g>
</g>
<!-- Node1&#45;&gt;Node2 -->
<g id="edge1" class="edge">
<title>Node1&#45;&gt;Node2</title>
<path fill="none" stroke="#63b8ff" d="M361.07,-219.98C323.38,-211.67 264.38,-198.51 204.28,-184.26"/>
<polygon fill="#63b8ff" stroke="#63b8ff" points="204.77,-180.78 194.24,-181.88 203.15,-187.59 204.77,-180.78"/>
</g>
<!-- Node3 -->
<g id="node3" class="node">
<title>Node3</title>
<g id="a_node3"><a xlink:title=" ">
<polygon fill="#e0e0e0" stroke="#999999" points="272,-184 212,-184 212,-165 272,-165 272,-184"/>
<text text-anchor="middle" x="242" y="-172" font-family="Helvetica,sans-Serif" font-size="10.00">iostream</text>
</a>
</g>
</g>
<!-- Node1&#45;&gt;Node3 -->
<g id="edge2" class="edge">
<title>Node1&#45;&gt;Node3</title>
<path fill="none" stroke="#63b8ff" d="M374.61,-219.98C348.2,-211.13 306.65,-197.19 277.11,-187.28"/>
<polygon fill="#63b8ff" stroke="#63b8ff" points="278.18,-183.94 267.58,-184.08 275.95,-190.58 278.18,-183.94"/>
</g>
<!-- Node4 -->
<g id="node4" class="node">
<title>Node4</title>
<g id="a_node4"><a xlink:title=" ">
<polygon fill="#e0e0e0" stroke="#999999" points="344,-184 290,-184 290,-165 344,-165 344,-184"/>
<text text-anchor="middle" x="317" y="-172" font-family="Helvetica,sans-Serif" font-size="10.00">random</text>
</a>
</g>
</g>
<!-- Node1&#45;&gt;Node4 -->
<g id="edge3" class="edge">
<title>Node1&#45;&gt;Node4</title>
<path fill="none" stroke="#63b8ff" d="M386.66,-219.98C373.91,-211.84 354.45,-199.41 339.33,-189.76"/>
<polygon fill="#63b8ff" stroke="#63b8ff" points="340.89,-186.6 330.58,-184.17 337.12,-192.5 340.89,-186.6"/>
</g>
<!-- Node5 -->
<g id="node5" class="node">
<title>Node5</title>
<g id="a_node5"><a xlink:title=" ">
<polygon fill="#e0e0e0" stroke="#999999" points="429.5,-19 352.5,-19 352.5,0 429.5,0 429.5,-19"/>
<text text-anchor="middle" x="391" y="-7" font-family="Helvetica,sans-Serif" font-size="10.00">Eigen/Dense</text>
</a>
</g>
</g>
<!-- Node1&#45;&gt;Node5 -->
<g id="edge4" class="edge">
<title>Node1&#45;&gt;Node5</title>
<path fill="none" stroke="#63b8ff" d="M422.07,-219.93C437.13,-212.79 455.93,-201.02 465,-184 491.97,-133.41 494.37,-104.82 466,-55 457.7,-40.43 442.55,-30.14 428.02,-23.15"/>
<polygon fill="#63b8ff" stroke="#63b8ff" points="429.21,-19.85 418.65,-19.02 426.39,-26.25 429.21,-19.85"/>
</g>
<!-- Node6 -->
<g id="node6" class="node">
<title>Node6</title>
<g id="a_node6"><a xlink:title=" ">
<polygon fill="#e0e0e0" stroke="#999999" points="597,-184 535,-184 535,-165 597,-165 597,-184"/>
<text text-anchor="middle" x="566" y="-172" font-family="Helvetica,sans-Serif" font-size="10.00">daqp.hpp</text>
</a>
</g>
</g>
<!-- Node1&#45;&gt;Node6 -->
<g id="edge5" class="edge">
<title>Node1&#45;&gt;Node6</title>
<path fill="none" stroke="#63b8ff" d="M426.67,-219.98C454.54,-211.09 498.45,-197.07 529.52,-187.15"/>
<polygon fill="#63b8ff" stroke="#63b8ff" points="530.66,-190.46 539.12,-184.08 528.53,-183.79 530.66,-190.46"/>
</g>
<!-- Node7 -->
<g id="node7" class="node">
<title>Node7</title>
<g id="a_node7"><a xlink:title=" ">
<polygon fill="#e0e0e0" stroke="#999999" points="693,-184 615,-184 615,-165 693,-165 693,-184"/>
<text text-anchor="middle" x="654" y="-172" font-family="Helvetica,sans-Serif" font-size="10.00">lexls/lexlsi.h</text>
</a>
</g>
</g>
<!-- Node1&#45;&gt;Node7 -->
<g id="edge6" class="edge">
<title>Node1&#45;&gt;Node7</title>
<path fill="none" stroke="#63b8ff" d="M440.81,-219.98C485.58,-210.64 557.42,-195.65 605.16,-185.69"/>
<polygon fill="#63b8ff" stroke="#63b8ff" points="605.89,-189.12 614.96,-183.65 604.46,-182.26 605.89,-189.12"/>
</g>
<!-- Node8 -->
<g id="node8" class="node">
<title>Node8</title>
<g id="a_node8"><a xlink:href="hqp_8hpp.html" target="_top" xlink:title="Main interface for the Weighted&#45;Hierarchical&#45;QP solver.">
<polygon fill="white" stroke="#666666" points="456,-184 400,-184 400,-165 456,-165 456,-184"/>
<text text-anchor="middle" x="428" y="-172" font-family="Helvetica,sans-Serif" font-size="10.00">hqp.hpp</text>
</a>
</g>
</g>
<!-- Node1&#45;&gt;Node8 -->
<g id="edge7" class="edge">
<title>Node1&#45;&gt;Node8</title>
<path fill="none" stroke="#63b8ff" d="M404.62,-219.75C408.46,-212.49 414.02,-201.95 418.76,-192.98"/>
<polygon fill="#63b8ff" stroke="#63b8ff" points="421.89,-194.57 423.46,-184.09 415.7,-191.3 421.89,-194.57"/>
</g>
<!-- Node11 -->
<g id="node11" class="node">
<title>Node11</title>
<g id="a_node11"><a xlink:href="task_8hpp.html" target="_top" xlink:title="Declares the abstract Task interface and its derivatives used in the HQP solver.">
<polygon fill="white" stroke="#666666" points="276.5,-129 217.5,-129 217.5,-110 276.5,-110 276.5,-129"/>
<text text-anchor="middle" x="247" y="-117" font-family="Helvetica,sans-Serif" font-size="10.00">task.hpp</text>
</a>
</g>
</g>
<!-- Node1&#45;&gt;Node11 -->
<g id="edge24" class="edge">
<title>Node1&#45;&gt;Node11</title>
<path fill="none" stroke="#63b8ff" d="M395.65,-219.95C388.45,-206.57 372.85,-180.58 353,-165 333.35,-149.57 307.57,-138.59 286.36,-131.4"/>
<polygon fill="#63b8ff" stroke="#63b8ff" points="287.26,-128.01 276.66,-128.26 285.1,-134.67 287.26,-128.01"/>
</g>
<!-- Node8&#45;&gt;Node5 -->
<g id="edge10" class="edge">
<title>Node8&#45;&gt;Node5</title>
<path fill="none" stroke="#63b8ff" d="M433.04,-164.96C444.26,-144.74 468.85,-92.83 450,-55 443.43,-41.82 430.9,-31.52 419.07,-24.16"/>
<polygon fill="#63b8ff" stroke="#63b8ff" points="420.68,-21.05 410.27,-19.1 417.2,-27.12 420.68,-21.05"/>
</g>
<!-- Node9 -->
<g id="node9" class="node">
<title>Node9</title>
<g id="a_node9"><a xlink:title=" ">
<polygon fill="#e0e0e0" stroke="#999999" points="399.5,-129 352.5,-129 352.5,-110 399.5,-110 399.5,-129"/>
<text text-anchor="middle" x="376" y="-117" font-family="Helvetica,sans-Serif" font-size="10.00">vector</text>
</a>
</g>
</g>
<!-- Node8&#45;&gt;Node9 -->
<g id="edge8" class="edge">
<title>Node8&#45;&gt;Node9</title>
<path fill="none" stroke="#63b8ff" d="M419.41,-164.75C411.84,-157.03 400.62,-145.6 391.49,-136.28"/>
<polygon fill="#63b8ff" stroke="#63b8ff" points="393.93,-133.78 384.43,-129.09 388.93,-138.68 393.93,-133.78"/>
</g>
<!-- Node10 -->
<g id="node10" class="node">
<title>Node10</title>
<g id="a_node10"><a xlink:title=" ">
<polygon fill="#e0e0e0" stroke="#999999" points="440.5,-74 399.5,-74 399.5,-55 440.5,-55 440.5,-74"/>
<text text-anchor="middle" x="420" y="-62" font-family="Helvetica,sans-Serif" font-size="10.00">tuple</text>
</a>
</g>
</g>
<!-- Node8&#45;&gt;Node10 -->
<g id="edge9" class="edge">
<title>Node8&#45;&gt;Node10</title>
<path fill="none" stroke="#63b8ff" d="M427.35,-164.66C426.05,-147.17 423.13,-107.8 421.39,-84.27"/>
<polygon fill="#63b8ff" stroke="#63b8ff" points="424.87,-83.87 420.64,-74.16 417.89,-84.39 424.87,-83.87"/>
</g>
<!-- Node8&#45;&gt;Node11 -->
<g id="edge11" class="edge">
<title>Node8&#45;&gt;Node11</title>
<path fill="none" stroke="#63b8ff" d="M399.72,-165.22C369.13,-156.26 320.17,-141.92 285.95,-131.91"/>
<polygon fill="#63b8ff" stroke="#63b8ff" points="286.86,-128.53 276.28,-129.07 284.9,-135.24 286.86,-128.53"/>
</g>
<!-- Node17 -->
<g id="node17" class="node">
<title>Node17</title>
<g id="a_node17"><a xlink:href="utils_8hpp.html" target="_top" xlink:title="Declares common utility functions used throughout the HQP solver.">
<polygon fill="white" stroke="#666666" points="342.5,-74 283.5,-74 283.5,-55 342.5,-55 342.5,-74"/>
<text text-anchor="middle" x="313" y="-62" font-family="Helvetica,sans-Serif" font-size="10.00">utils.hpp</text>
</a>
</g>
</g>
<!-- Node8&#45;&gt;Node17 -->
<g id="edge23" class="edge">
<title>Node8&#45;&gt;Node17</title>
<path fill="none" stroke="#63b8ff" d="M402.56,-164.91C384.36,-157.69 360.3,-145.84 344,-129 331.75,-116.34 323.49,-97.9 318.6,-84.15"/>
<polygon fill="#63b8ff" stroke="#63b8ff" points="321.82,-82.74 315.38,-74.33 315.16,-84.92 321.82,-82.74"/>
</g>
<!-- Node11&#45;&gt;Node5 -->
<g id="edge18" class="edge">
<title>Node11&#45;&gt;Node5</title>
<path fill="none" stroke="#63b8ff" d="M276.83,-111.22C299.44,-104.51 330.24,-92.72 352,-74 366.38,-61.63 377.08,-42.6 383.6,-28.59"/>
<polygon fill="#63b8ff" stroke="#63b8ff" points="386.97,-29.62 387.76,-19.06 380.55,-26.82 386.97,-29.62"/>
</g>
<!-- Node11&#45;&gt;Node10 -->
<g id="edge12" class="edge">
<title>Node11&#45;&gt;Node10</title>
<path fill="none" stroke="#63b8ff" d="M274.8,-109.98C306.17,-100.37 357.05,-84.79 389.49,-74.85"/>
<polygon fill="#63b8ff" stroke="#63b8ff" points="390.79,-78.11 399.33,-71.83 388.74,-71.41 390.79,-78.11"/>
</g>
<!-- Node12 -->
<g id="node12" class="node">
<title>Node12</title>
<g id="a_node12"><a xlink:title=" ">
<polygon fill="#e0e0e0" stroke="#999999" points="322,-19 264,-19 264,0 322,0 322,-19"/>
<text text-anchor="middle" x="293" y="-7" font-family="Helvetica,sans-Serif" font-size="10.00">memory</text>
</a>
</g>
</g>
<!-- Node11&#45;&gt;Node12 -->
<g id="edge13" class="edge">
<title>Node11&#45;&gt;Node12</title>
<path fill="none" stroke="#63b8ff" d="M235.8,-109.81C221.38,-97.51 199.46,-74.38 211,-55 220.49,-39.06 237.9,-28.48 254.24,-21.65"/>
<polygon fill="#63b8ff" stroke="#63b8ff" points="255.58,-24.88 263.67,-18.05 253.08,-18.34 255.58,-24.88"/>
</g>
<!-- Node13 -->
<g id="node13" class="node">
<title>Node13</title>
<g id="a_node13"><a xlink:title=" ">
<polygon fill="#e0e0e0" stroke="#999999" points="265.5,-74 220.5,-74 220.5,-55 265.5,-55 265.5,-74"/>
<text text-anchor="middle" x="243" y="-62" font-family="Helvetica,sans-Serif" font-size="10.00">utility</text>
</a>
</g>
</g>
<!-- Node11&#45;&gt;Node13 -->
<g id="edge14" class="edge">
<title>Node11&#45;&gt;Node13</title>
<path fill="none" stroke="#63b8ff" d="M246.34,-109.75C245.82,-102.8 245.06,-92.85 244.41,-84.13"/>
<polygon fill="#63b8ff" stroke="#63b8ff" points="247.89,-83.8 243.65,-74.09 240.91,-84.32 247.89,-83.8"/>
</g>
<!-- Node14 -->
<g id="node14" class="node">
<title>Node14</title>
<g id="a_node14"><a xlink:title=" ">
<polygon fill="#e0e0e0" stroke="#999999" points="221.5,-19 152.5,-19 152.5,0 221.5,0 221.5,-19"/>
<text text-anchor="middle" x="187" y="-7" font-family="Helvetica,sans-Serif" font-size="10.00">type_traits</text>
</a>
</g>
</g>
<!-- Node11&#45;&gt;Node14 -->
<g id="edge15" class="edge">
<title>Node11&#45;&gt;Node14</title>
<path fill="none" stroke="#63b8ff" d="M235.84,-109.79C226.05,-101.58 212.15,-88.4 204,-74 196.18,-60.17 191.83,-42.6 189.5,-29.45"/>
<polygon fill="#63b8ff" stroke="#63b8ff" points="192.91,-28.59 187.93,-19.24 185.99,-29.66 192.91,-28.59"/>
</g>
<!-- Node15 -->
<g id="node15" class="node">
<title>Node15</title>
<g id="a_node15"><a xlink:title=" ">
<polygon fill="#e0e0e0" stroke="#999999" points="52,-74 0,-74 0,-55 52,-55 52,-74"/>
<text text-anchor="middle" x="26" y="-62" font-family="Helvetica,sans-Serif" font-size="10.00">cassert</text>
</a>
</g>
</g>
<!-- Node11&#45;&gt;Node15 -->
<g id="edge16" class="edge">
<title>Node11&#45;&gt;Node15</title>
<path fill="none" stroke="#63b8ff" d="M217.36,-111.44C182.51,-103.13 122.67,-88.85 62.1,-74.26"/>
<polygon fill="#63b8ff" stroke="#63b8ff" points="62.91,-70.86 52.37,-71.91 61.27,-77.66 62.91,-70.86"/>
</g>
<!-- Node16 -->
<g id="node16" class="node">
<title>Node16</title>
<g id="a_node16"><a xlink:title=" ">
<polygon fill="#e0e0e0" stroke="#999999" points="126,-74 70,-74 70,-55 126,-55 126,-74"/>
<text text-anchor="middle" x="98" y="-62" font-family="Helvetica,sans-Serif" font-size="10.00">optional</text>
</a>
</g>
</g>
<!-- Node11&#45;&gt;Node16 -->
<g id="edge17" class="edge">
<title>Node11&#45;&gt;Node16</title>
<path fill="none" stroke="#63b8ff" d="M223.06,-109.98C198.44,-101.23 159.88,-87.51 132.08,-77.62"/>
<polygon fill="#63b8ff" stroke="#63b8ff" points="132.97,-74.22 122.38,-74.17 130.62,-80.82 132.97,-74.22"/>
</g>
<!-- Node11&#45;&gt;Node17 -->
<g id="edge19" class="edge">
<title>Node11&#45;&gt;Node17</title>
<path fill="none" stroke="#63b8ff" d="M257.6,-109.98C267.46,-102.07 282.35,-90.11 294.22,-80.58"/>
<polygon fill="#63b8ff" stroke="#63b8ff" points="296.6,-83.16 302.2,-74.17 292.21,-77.7 296.6,-83.16"/>
</g>
<!-- Node17&#45;&gt;Node5 -->
<g id="edge22" class="edge">
<title>Node17&#45;&gt;Node5</title>
<path fill="none" stroke="#63b8ff" d="M325.53,-54.98C337.4,-46.92 355.46,-34.65 369.61,-25.03"/>
<polygon fill="#63b8ff" stroke="#63b8ff" points="371.94,-27.69 378.24,-19.17 368,-21.9 371.94,-27.69"/>
</g>
<!-- Node17&#45;&gt;Node12 -->
<g id="edge20" class="edge">
<title>Node17&#45;&gt;Node12</title>
<path fill="none" stroke="#63b8ff" d="M309.7,-54.75C307.02,-47.65 303.15,-37.4 299.81,-28.56"/>
<polygon fill="#63b8ff" stroke="#63b8ff" points="303.05,-27.21 296.24,-19.09 296.5,-29.68 303.05,-27.21"/>
</g>
<!-- Node17&#45;&gt;Node14 -->
<g id="edge21" class="edge">
<title>Node17&#45;&gt;Node14</title>
<path fill="none" stroke="#63b8ff" d="M292.76,-54.98C272.3,-46.38 240.47,-32.99 217.07,-23.15"/>
<polygon fill="#63b8ff" stroke="#63b8ff" points="218.19,-19.82 207.61,-19.17 215.47,-26.27 218.19,-19.82"/>
</g>
</g>
</svg>
