<?xml version="1.0" encoding="UTF-8" standalone="no"?>
<!DOCTYPE svg PUBLIC "-//W3C//DTD SVG 1.1//EN"
 "http://www.w3.org/Graphics/SVG/1.1/DTD/svg11.dtd">
<!-- Generated by graphviz version 2.43.0 (0)
 -->
<!-- Title: hqp::Task Pages: 1 -->
<svg width="432pt" height="372pt"
 viewBox="0.00 0.00 432.00 371.50" xmlns="http://www.w3.org/2000/svg" xmlns:xlink="http://www.w3.org/1999/xlink">
<g id="graph0" class="graph" transform="scale(1 1) rotate(0) translate(4 367.5)">
<title>hqp::Task</title>
<!-- Node1 -->
<g id="node1" class="node">
<title>Node1</title>
<g id="a_node1"><a xlink:title=" ">
<polygon fill="#999999" stroke="#666666" points="62,-120.5 0,-120.5 0,-101.5 62,-101.5 62,-120.5"/>
<text text-anchor="middle" x="31" y="-108.5" font-family="Helvetica,sans-Serif" font-size="10.00">hqp::Task</text>
</a>
</g>
</g>
<!-- Node2 -->
<g id="node2" class="node">
<title>Node2</title>
<g id="a_node2"><a xlink:href="classhqp_1_1TaskInterface.html" target="_top" xlink:title=" ">
<polygon fill="white" stroke="#666666" points="230.5,-196.5 108.5,-196.5 108.5,-177.5 230.5,-177.5 230.5,-196.5"/>
<text text-anchor="middle" x="169.5" y="-184.5" font-family="Helvetica,sans-Serif" font-size="10.00">hqp::TaskInterface&lt;&gt;</text>
</a>
</g>
</g>
<!-- Node1&#45;&gt;Node2 -->
<g id="edge1" class="edge">
<title>Node1&#45;&gt;Node2</title>
<path fill="none" stroke="#63b8ff" d="M48.84,-127.88C61.44,-139.7 79.61,-155.09 98,-165 107.48,-170.11 118.33,-174.23 128.63,-177.47"/>
<polygon fill="#63b8ff" stroke="#63b8ff" points="51.04,-125.15 41.41,-120.73 46.18,-130.19 51.04,-125.15"/>
</g>
<!-- Node12 -->
<g id="node12" class="node">
<title>Node12</title>
<g id="a_node12"><a xlink:href="classhqp_1_1TaskInterface.html" target="_top" xlink:title=" ">
<polygon fill="white" stroke="#666666" points="241,-155.5 98,-155.5 98,-114.5 241,-114.5 241,-155.5"/>
<text text-anchor="start" x="106" y="-143.5" font-family="Helvetica,sans-Serif" font-size="10.00">hqp::TaskInterface</text>
<text text-anchor="start" x="106" y="-132.5" font-family="Helvetica,sans-Serif" font-size="10.00">&lt; double, Eigen::VectorXd</text>
<text text-anchor="middle" x="169.5" y="-121.5" font-family="Helvetica,sans-Serif" font-size="10.00"> const &amp; &gt;</text>
</a>
</g>
</g>
<!-- Node1&#45;&gt;Node12 -->
<g id="edge11" class="edge">
<title>Node1&#45;&gt;Node12</title>
<path fill="none" stroke="#63b8ff" d="M72.17,-118.06C80.27,-119.49 89.01,-121.02 97.8,-122.57"/>
<polygon fill="#63b8ff" stroke="#63b8ff" points="72.75,-114.61 62.29,-116.33 71.54,-121.51 72.75,-114.61"/>
</g>
<!-- Node13 -->
<g id="node13" class="node">
<title>Node13</title>
<g id="a_node13"><a xlink:href="classhqp_1_1SubTasks.html" target="_top" xlink:title=" ">
<polygon fill="white" stroke="#666666" points="212.5,-96.5 126.5,-96.5 126.5,-77.5 212.5,-77.5 212.5,-96.5"/>
<text text-anchor="middle" x="169.5" y="-84.5" font-family="Helvetica,sans-Serif" font-size="10.00">hqp::SubTasks</text>
</a>
</g>
</g>
<!-- Node1&#45;&gt;Node13 -->
<g id="edge12" class="edge">
<title>Node1&#45;&gt;Node13</title>
<path fill="none" stroke="#63b8ff" d="M72.47,-103.88C89.46,-100.9 109.22,-97.42 126.39,-94.4"/>
<polygon fill="#63b8ff" stroke="#63b8ff" points="71.54,-100.49 62.29,-105.67 72.75,-107.39 71.54,-100.49"/>
</g>
<!-- Node14 -->
<g id="node14" class="node">
<title>Node14</title>
<g id="a_node14"><a xlink:href="classhqp_1_1TaskInterface.html" target="_top" xlink:title="Templated interface for tasks with arbitrary arguments.">
<polygon fill="white" stroke="#666666" points="222.5,-52 116.5,-52 116.5,-22 222.5,-22 222.5,-52"/>
<text text-anchor="start" x="124.5" y="-40" font-family="Helvetica,sans-Serif" font-size="10.00">hqp::TaskInterface</text>
<text text-anchor="middle" x="169.5" y="-29" font-family="Helvetica,sans-Serif" font-size="10.00">&lt; Args &gt;</text>
</a>
</g>
</g>
<!-- Node1&#45;&gt;Node14 -->
<g id="edge13" class="edge">
<title>Node1&#45;&gt;Node14</title>
<path fill="none" stroke="#63b8ff" d="M54.27,-95.72C66.85,-87.38 83.01,-77.12 98,-69 108.99,-63.05 121.3,-57.2 132.52,-52.16"/>
<polygon fill="#63b8ff" stroke="#63b8ff" points="52.17,-92.92 45.82,-101.4 56.07,-98.73 52.17,-92.92"/>
</g>
<!-- Node3 -->
<g id="node3" class="node">
<title>Node3</title>
<g id="a_node3"><a xlink:href="classTask0.html" target="_top" xlink:title=" ">
<polygon fill="white" stroke="#666666" points="372.5,-363.5 328.5,-363.5 328.5,-344.5 372.5,-344.5 372.5,-363.5"/>
<text text-anchor="middle" x="350.5" y="-351.5" font-family="Helvetica,sans-Serif" font-size="10.00">Task0</text>
</a>
</g>
</g>
<!-- Node2&#45;&gt;Node3 -->
<g id="edge2" class="edge">
<title>Node2&#45;&gt;Node3</title>
<path fill="none" stroke="#63b8ff" d="M178.66,-206C193.41,-238.01 227.64,-302.46 277,-336 292.23,-346.35 312.87,-350.76 328.24,-352.63"/>
<polygon fill="#63b8ff" stroke="#63b8ff" points="181.83,-204.53 174.56,-196.83 175.44,-207.39 181.83,-204.53"/>
</g>
<!-- Node4 -->
<g id="node4" class="node">
<title>Node4</title>
<g id="a_node4"><a xlink:href="classTask1.html" target="_top" xlink:title=" ">
<polygon fill="white" stroke="#666666" points="372.5,-326.5 328.5,-326.5 328.5,-307.5 372.5,-307.5 372.5,-326.5"/>
<text text-anchor="middle" x="350.5" y="-314.5" font-family="Helvetica,sans-Serif" font-size="10.00">Task1</text>
</a>
</g>
</g>
<!-- Node2&#45;&gt;Node4 -->
<g id="edge3" class="edge">
<title>Node2&#45;&gt;Node4</title>
<path fill="none" stroke="#63b8ff" d="M182.57,-205.07C200.26,-230.1 235.66,-274.95 277,-299 292.81,-308.2 313.19,-312.72 328.32,-314.93"/>
<polygon fill="#63b8ff" stroke="#63b8ff" points="185.24,-202.78 176.68,-196.53 179.48,-206.75 185.24,-202.78"/>
</g>
<!-- Node5 -->
<g id="node5" class="node">
<title>Node5</title>
<g id="a_node5"><a xlink:href="classTask2.html" target="_top" xlink:title=" ">
<polygon fill="white" stroke="#666666" points="372.5,-289.5 328.5,-289.5 328.5,-270.5 372.5,-270.5 372.5,-289.5"/>
<text text-anchor="middle" x="350.5" y="-277.5" font-family="Helvetica,sans-Serif" font-size="10.00">Task2</text>
</a>
</g>
</g>
<!-- Node2&#45;&gt;Node5 -->
<g id="edge4" class="edge">
<title>Node2&#45;&gt;Node5</title>
<path fill="none" stroke="#63b8ff" d="M188.95,-203.24C209.2,-220.27 243.34,-246.63 277,-262 293.4,-269.49 313.36,-274.15 328.19,-276.85"/>
<polygon fill="#63b8ff" stroke="#63b8ff" points="191.03,-200.42 181.16,-196.58 186.48,-205.74 191.03,-200.42"/>
</g>
<!-- Node6 -->
<g id="node6" class="node">
<title>Node6</title>
<g id="a_node6"><a xlink:href="classTask3.html" target="_top" xlink:title=" ">
<polygon fill="white" stroke="#666666" points="372.5,-252.5 328.5,-252.5 328.5,-233.5 372.5,-233.5 372.5,-252.5"/>
<text text-anchor="middle" x="350.5" y="-240.5" font-family="Helvetica,sans-Serif" font-size="10.00">Task3</text>
</a>
</g>
</g>
<!-- Node2&#45;&gt;Node6 -->
<g id="edge5" class="edge">
<title>Node2&#45;&gt;Node6</title>
<path fill="none" stroke="#63b8ff" d="M204.86,-200.24C225.58,-207.98 252.61,-217.64 277,-225 294.13,-230.17 313.86,-235 328.41,-238.35"/>
<polygon fill="#63b8ff" stroke="#63b8ff" points="205.82,-196.86 195.23,-196.61 203.35,-203.41 205.82,-196.86"/>
</g>
<!-- Node7 -->
<g id="node7" class="node">
<title>Node7</title>
<g id="a_node7"><a xlink:href="classhqp_1_1Task0.html" target="_top" xlink:title=" ">
<polygon fill="white" stroke="#666666" points="384.5,-215.5 316.5,-215.5 316.5,-196.5 384.5,-196.5 384.5,-215.5"/>
<text text-anchor="middle" x="350.5" y="-203.5" font-family="Helvetica,sans-Serif" font-size="10.00">hqp::Task0</text>
</a>
</g>
</g>
<!-- Node2&#45;&gt;Node7 -->
<g id="edge6" class="edge">
<title>Node2&#45;&gt;Node7</title>
<path fill="none" stroke="#63b8ff" d="M240.84,-194.47C266.89,-197.23 295.22,-200.24 316.42,-202.49"/>
<polygon fill="#63b8ff" stroke="#63b8ff" points="240.92,-190.95 230.6,-193.38 240.18,-197.92 240.92,-190.95"/>
</g>
<!-- Node8 -->
<g id="node8" class="node">
<title>Node8</title>
<g id="a_node8"><a xlink:href="classhqp_1_1Task2.html" target="_top" xlink:title=" ">
<polygon fill="white" stroke="#666666" points="384.5,-178.5 316.5,-178.5 316.5,-159.5 384.5,-159.5 384.5,-178.5"/>
<text text-anchor="middle" x="350.5" y="-166.5" font-family="Helvetica,sans-Serif" font-size="10.00">hqp::Task2</text>
</a>
</g>
</g>
<!-- Node2&#45;&gt;Node8 -->
<g id="edge7" class="edge">
<title>Node2&#45;&gt;Node8</title>
<path fill="none" stroke="#63b8ff" d="M240.84,-179.93C266.89,-177.31 295.22,-174.46 316.42,-172.33"/>
<polygon fill="#63b8ff" stroke="#63b8ff" points="240.2,-176.47 230.6,-180.96 240.9,-183.44 240.2,-176.47"/>
</g>
<!-- Node9 -->
<g id="node9" class="node">
<title>Node9</title>
<g id="a_node9"><a xlink:href="classhqp_1_1Task3.html" target="_top" xlink:title=" ">
<polygon fill="white" stroke="#666666" points="384.5,-141.5 316.5,-141.5 316.5,-122.5 384.5,-122.5 384.5,-141.5"/>
<text text-anchor="middle" x="350.5" y="-129.5" font-family="Helvetica,sans-Serif" font-size="10.00">hqp::Task3</text>
</a>
</g>
</g>
<!-- Node2&#45;&gt;Node9 -->
<g id="edge8" class="edge">
<title>Node2&#45;&gt;Node9</title>
<path fill="none" stroke="#63b8ff" d="M212.24,-174.49C221.74,-171.5 231.75,-168.24 241,-165 257.2,-159.33 260.67,-156.3 277,-151 289.75,-146.87 303.97,-142.98 316.43,-139.82"/>
<polygon fill="#63b8ff" stroke="#63b8ff" points="211.1,-171.18 202.59,-177.49 213.18,-177.87 211.1,-171.18"/>
</g>
<!-- Node10 -->
<g id="node10" class="node">
<title>Node10</title>
<g id="a_node10"><a xlink:href="classhqp_1_1Task5.html" target="_top" xlink:title=" ">
<polygon fill="white" stroke="#666666" points="384.5,-104.5 316.5,-104.5 316.5,-85.5 384.5,-85.5 384.5,-104.5"/>
<text text-anchor="middle" x="350.5" y="-92.5" font-family="Helvetica,sans-Serif" font-size="10.00">hqp::Task5</text>
</a>
</g>
</g>
<!-- Node2&#45;&gt;Node10 -->
<g id="edge9" class="edge">
<title>Node2&#45;&gt;Node10</title>
<path fill="none" stroke="#63b8ff" d="M226.17,-173.52C231.42,-171.12 236.47,-168.3 241,-165 263.43,-148.67 254.2,-129.81 277,-114 288.55,-105.99 303.26,-101.36 316.4,-98.68"/>
<polygon fill="#63b8ff" stroke="#63b8ff" points="224.53,-170.4 216.58,-177.4 227.16,-176.89 224.53,-170.4"/>
</g>
<!-- Node11 -->
<g id="node11" class="node">
<title>Node11</title>
<g id="a_node11"><a xlink:href="classhqp_1_1Task6.html" target="_top" xlink:title=" ">
<polygon fill="white" stroke="#666666" points="384.5,-67.5 316.5,-67.5 316.5,-48.5 384.5,-48.5 384.5,-67.5"/>
<text text-anchor="middle" x="350.5" y="-55.5" font-family="Helvetica,sans-Serif" font-size="10.00">hqp::Task6</text>
</a>
</g>
</g>
<!-- Node2&#45;&gt;Node11 -->
<g id="edge10" class="edge">
<title>Node2&#45;&gt;Node11</title>
<path fill="none" stroke="#63b8ff" d="M229.92,-172.96C233.92,-170.69 237.67,-168.06 241,-165 272.13,-136.43 245.21,-104.84 277,-77 287.77,-67.57 302.67,-62.73 316.16,-60.29"/>
<polygon fill="#63b8ff" stroke="#63b8ff" points="228.33,-169.84 220.87,-177.36 231.39,-176.13 228.33,-169.84"/>
</g>
<!-- Node15 -->
<g id="node15" class="node">
<title>Node15</title>
<g id="a_node15"><a xlink:href="classhqp_1_1Task1.html" target="_top" xlink:title=" ">
<polygon fill="white" stroke="#666666" points="424,-30 277,-30 277,0 424,0 424,-30"/>
<text text-anchor="start" x="285" y="-18" font-family="Helvetica,sans-Serif" font-size="10.00">hqp::Task1&lt; double,</text>
<text text-anchor="middle" x="350.5" y="-7" font-family="Helvetica,sans-Serif" font-size="10.00"> Eigen::VectorXd const &amp; &gt;</text>
</a>
</g>
</g>
<!-- Node14&#45;&gt;Node15 -->
<g id="edge14" class="edge">
<title>Node14&#45;&gt;Node15</title>
<path fill="none" stroke="#63b8ff" d="M232.9,-29.33C247.1,-27.59 262.31,-25.72 276.89,-23.92"/>
<polygon fill="#63b8ff" stroke="#63b8ff" points="232.25,-25.88 222.76,-30.58 233.11,-32.83 232.25,-25.88"/>
</g>
</g>
</svg>
