<?xml version="1.0" encoding="UTF-8" standalone="no"?>
<!DOCTYPE svg PUBLIC "-//W3C//DTD SVG 1.1//EN"
 "http://www.w3.org/Graphics/SVG/1.1/DTD/svg11.dtd">
<!-- Generated by graphviz version 2.43.0 (0)
 -->
<!-- Title: hqp::TaskInterface::compute Pages: 1 -->
<svg width="278pt" height="76pt"
 viewBox="0.00 0.00 278.00 75.50" xmlns="http://www.w3.org/2000/svg" xmlns:xlink="http://www.w3.org/1999/xlink">
<g id="graph0" class="graph" transform="scale(1 1) rotate(0) translate(4 71.5)">
<title>hqp::TaskInterface::compute</title>
<!-- Node1 -->
<g id="node1" class="node">
<title>Node1</title>
<g id="a_node1"><a xlink:title="Pure virtual function to compute task&#45;specific output.">
<polygon fill="#999999" stroke="#666666" points="106,-51 0,-51 0,-21 106,-21 106,-51"/>
<text text-anchor="start" x="8" y="-39" font-family="Helvetica,sans-Serif" font-size="10.00">hqp::TaskInterface</text>
<text text-anchor="middle" x="53" y="-28" font-family="Helvetica,sans-Serif" font-size="10.00">::compute</text>
</a>
</g>
</g>
<!-- Node2 -->
<g id="node2" class="node">
<title>Node2</title>
<g id="a_node2"><a xlink:href="classhqp_1_1TaskInterface.html#adf438bcb5931d58002bd23db6857d567" target="_top" xlink:title="Executes the task using the provided parameters.">
<polygon fill="white" stroke="#666666" points="270,-67.5 142,-67.5 142,-48.5 270,-48.5 270,-67.5"/>
<text text-anchor="middle" x="206" y="-55.5" font-family="Helvetica,sans-Serif" font-size="10.00">hqp::TaskInterface::run</text>
</a>
</g>
</g>
<!-- Node1&#45;&gt;Node2 -->
<g id="edge1" class="edge">
<title>Node1&#45;&gt;Node2</title>
<path fill="none" stroke="#63b8ff" d="M106.39,-43.63C114.59,-44.83 123.2,-46.08 131.77,-47.33"/>
<polygon fill="#63b8ff" stroke="#63b8ff" points="131.38,-50.81 141.78,-48.79 132.39,-43.88 131.38,-50.81"/>
</g>
<!-- Node3 -->
<g id="node3" class="node">
<title>Node3</title>
<g id="a_node3"><a xlink:href="classhqp_1_1TaskInterface.html#a7ff707f967a16e04eb6a178e09ddd0c1" target="_top" xlink:title=" ">
<polygon fill="white" stroke="#666666" points="259,-30 153,-30 153,0 259,0 259,-30"/>
<text text-anchor="start" x="161" y="-18" font-family="Helvetica,sans-Serif" font-size="10.00">hqp::TaskInterface</text>
<text text-anchor="middle" x="206" y="-7" font-family="Helvetica,sans-Serif" font-size="10.00">::unwrap</text>
</a>
</g>
</g>
<!-- Node1&#45;&gt;Node3 -->
<g id="edge2" class="edge">
<title>Node1&#45;&gt;Node3</title>
<path fill="none" stroke="#63b8ff" d="M106.39,-28.71C118.17,-27.08 130.78,-25.32 142.91,-23.64"/>
<polygon fill="#63b8ff" stroke="#63b8ff" points="143.54,-27.08 152.96,-22.24 142.57,-20.15 143.54,-27.08"/>
</g>
</g>
</svg>
