<?xml version="1.0" encoding="UTF-8" standalone="no"?>
<!DOCTYPE svg PUBLIC "-//W3C//DTD SVG 1.1//EN"
 "http://www.w3.org/Graphics/SVG/1.1/DTD/svg11.dtd">
<!-- Generated by graphviz version 2.43.0 (0)
 -->
<!-- Title: hqp::HierarchicalQP::solve Pages: 1 -->
<svg width="568pt" height="162pt"
 viewBox="0.00 0.00 568.00 162.00" xmlns="http://www.w3.org/2000/svg" xmlns:xlink="http://www.w3.org/1999/xlink">
<g id="graph0" class="graph" transform="scale(1 1) rotate(0) translate(4 158)">
<title>hqp::HierarchicalQP::solve</title>
<!-- Node1 -->
<g id="node1" class="node">
<title>Node1</title>
<g id="a_node1"><a xlink:title="Solves the overall HQP by combining tasks.">
<polygon fill="#999999" stroke="#666666" points="113,-132 0,-132 0,-102 113,-102 113,-132"/>
<text text-anchor="start" x="8" y="-120" font-family="Helvetica,sans-Serif" font-size="10.00">hqp::HierarchicalQP</text>
<text text-anchor="middle" x="56.5" y="-109" font-family="Helvetica,sans-Serif" font-size="10.00">::solve</text>
</a>
</g>
</g>
<!-- Node2 -->
<g id="node2" class="node">
<title>Node2</title>
<g id="a_node2"><a xlink:href="classhqp_1_1HierarchicalQP.html#add4448ad1c21585e607457463016a027" target="_top" xlink:title="Handles equality constraint resolution.">
<polygon fill="white" stroke="#666666" points="411,-154 298,-154 298,-124 411,-124 411,-154"/>
<text text-anchor="start" x="306" y="-142" font-family="Helvetica,sans-Serif" font-size="10.00">hqp::HierarchicalQP</text>
<text text-anchor="middle" x="354.5" y="-131" font-family="Helvetica,sans-Serif" font-size="10.00">::equality_hqp</text>
</a>
</g>
</g>
<!-- Node1&#45;&gt;Node2 -->
<g id="edge1" class="edge">
<title>Node1&#45;&gt;Node2</title>
<path fill="none" stroke="#63b8ff" d="M113.18,-121.14C162.71,-124.82 235.22,-130.21 287.62,-134.1"/>
<polygon fill="#63b8ff" stroke="#63b8ff" points="287.59,-137.61 297.82,-134.86 288.11,-130.63 287.59,-137.61"/>
</g>
<!-- Node5 -->
<g id="node5" class="node">
<title>Node5</title>
<g id="a_node5"><a xlink:href="classhqp_1_1HierarchicalQP.html#aaf6df9e4aa247e25e1ff253bd6501028" target="_top" xlink:title="Handles inequality constrained tasks.">
<polygon fill="white" stroke="#666666" points="262,-111 149,-111 149,-81 262,-81 262,-111"/>
<text text-anchor="start" x="157" y="-99" font-family="Helvetica,sans-Serif" font-size="10.00">hqp::HierarchicalQP</text>
<text text-anchor="middle" x="205.5" y="-88" font-family="Helvetica,sans-Serif" font-size="10.00">::inequality_hqp</text>
</a>
</g>
</g>
<!-- Node1&#45;&gt;Node5 -->
<g id="edge4" class="edge">
<title>Node1&#45;&gt;Node5</title>
<path fill="none" stroke="#63b8ff" d="M113.07,-109.06C121.49,-107.86 130.24,-106.61 138.84,-105.38"/>
<polygon fill="#63b8ff" stroke="#63b8ff" points="139.44,-108.83 148.85,-103.95 138.45,-101.9 139.44,-108.83"/>
</g>
<!-- Node3 -->
<g id="node3" class="node">
<title>Node3</title>
<g id="a_node3"><a xlink:href="namespacehqp.html#ab85e1340e7fee0a8d13730c50a970ceb" target="_top" xlink:title=" ">
<polygon fill="white" stroke="#666666" points="533,-67.5 474,-67.5 474,-48.5 533,-48.5 533,-67.5"/>
<text text-anchor="middle" x="503.5" y="-55.5" font-family="Helvetica,sans-Serif" font-size="10.00">hqp::find</text>
</a>
</g>
</g>
<!-- Node2&#45;&gt;Node3 -->
<g id="edge2" class="edge">
<title>Node2&#45;&gt;Node3</title>
<path fill="none" stroke="#63b8ff" d="M382.81,-123.95C409.43,-109.29 449.64,-87.12 475.99,-72.61"/>
<polygon fill="#63b8ff" stroke="#63b8ff" points="477.95,-75.52 485.02,-67.63 474.57,-69.39 477.95,-75.52"/>
</g>
<!-- Node4 -->
<g id="node4" class="node">
<title>Node4</title>
<g id="a_node4"><a xlink:href="classhqp_1_1HierarchicalQP.html#a69f7398b0f10bcc38452b0acf12f9997" target="_top" xlink:title="Retrieves task data.">
<polygon fill="white" stroke="#666666" points="560,-135 447,-135 447,-105 560,-105 560,-135"/>
<text text-anchor="start" x="455" y="-123" font-family="Helvetica,sans-Serif" font-size="10.00">hqp::HierarchicalQP</text>
<text text-anchor="middle" x="503.5" y="-112" font-family="Helvetica,sans-Serif" font-size="10.00">::get_task</text>
</a>
</g>
</g>
<!-- Node2&#45;&gt;Node4 -->
<g id="edge3" class="edge">
<title>Node2&#45;&gt;Node4</title>
<path fill="none" stroke="#63b8ff" d="M411.07,-131.82C419.49,-130.73 428.24,-129.6 436.84,-128.49"/>
<polygon fill="#63b8ff" stroke="#63b8ff" points="437.38,-131.95 446.85,-127.19 436.48,-125 437.38,-131.95"/>
</g>
<!-- Node5&#45;&gt;Node2 -->
<g id="edge7" class="edge">
<title>Node5&#45;&gt;Node2</title>
<path fill="none" stroke="#63b8ff" d="M257.91,-111.04C268.93,-114.26 280.67,-117.7 292.02,-121.02"/>
<polygon fill="#63b8ff" stroke="#63b8ff" points="291.29,-124.45 301.87,-123.9 293.25,-117.73 291.29,-124.45"/>
</g>
<!-- Node5&#45;&gt;Node3 -->
<g id="edge8" class="edge">
<title>Node5&#45;&gt;Node3</title>
<path fill="none" stroke="#63b8ff" d="M262.18,-88.85C321.09,-81.29 412.49,-69.56 463.93,-62.95"/>
<polygon fill="#63b8ff" stroke="#63b8ff" points="464.49,-66.41 473.97,-61.66 463.6,-59.46 464.49,-66.41"/>
</g>
<!-- Node5&#45;&gt;Node4 -->
<g id="edge9" class="edge">
<title>Node5&#45;&gt;Node4</title>
<path fill="none" stroke="#63b8ff" d="M262.18,-100.51C311.71,-104.53 384.22,-110.41 436.62,-114.66"/>
<polygon fill="#63b8ff" stroke="#63b8ff" points="436.57,-118.17 446.82,-115.49 437.14,-111.19 436.57,-118.17"/>
</g>
<!-- Node6 -->
<g id="node6" class="node">
<title>Node6</title>
<g id="a_node6"><a xlink:href="classhqp_1_1HierarchicalQP.html#a292d98f5d69d3666a895d6a95e5dc6b9" target="_top" xlink:title="Updates dual variables.">
<polygon fill="white" stroke="#666666" points="411,-30 298,-30 298,0 411,0 411,-30"/>
<text text-anchor="start" x="306" y="-18" font-family="Helvetica,sans-Serif" font-size="10.00">hqp::HierarchicalQP</text>
<text text-anchor="middle" x="354.5" y="-7" font-family="Helvetica,sans-Serif" font-size="10.00">::dual_update</text>
</a>
</g>
</g>
<!-- Node5&#45;&gt;Node6 -->
<g id="edge5" class="edge">
<title>Node5&#45;&gt;Node6</title>
<path fill="none" stroke="#63b8ff" d="M232.39,-80.96C250.64,-70.44 275.7,-56.16 298,-44 303.57,-40.96 309.49,-37.8 315.31,-34.73"/>
<polygon fill="#63b8ff" stroke="#63b8ff" points="317.08,-37.75 324.31,-30.01 313.82,-31.56 317.08,-37.75"/>
</g>
<!-- Node6&#45;&gt;Node3 -->
<g id="edge6" class="edge">
<title>Node6&#45;&gt;Node3</title>
<path fill="none" stroke="#63b8ff" d="M406.91,-30.04C425.6,-35.51 446.39,-41.59 463.79,-46.68"/>
<polygon fill="#63b8ff" stroke="#63b8ff" points="463.03,-50.1 473.61,-49.55 464.99,-43.38 463.03,-50.1"/>
</g>
</g>
</svg>
