<?xml version="1.0" encoding="UTF-8" standalone="no"?>
<!DOCTYPE svg PUBLIC "-//W3C//DTD SVG 1.1//EN"
 "http://www.w3.org/Graphics/SVG/1.1/DTD/svg11.dtd">
<!-- Generated by graphviz version 2.43.0 (0)
 -->
<!-- Title: hqp::HierarchicalQP::inequality_hqp Pages: 1 -->
<svg width="419pt" height="145pt"
 viewBox="0.00 0.00 419.00 145.00" xmlns="http://www.w3.org/2000/svg" xmlns:xlink="http://www.w3.org/1999/xlink">
<g id="graph0" class="graph" transform="scale(1 1) rotate(0) translate(4 141)">
<title>hqp::HierarchicalQP::inequality_hqp</title>
<!-- Node1 -->
<g id="node1" class="node">
<title>Node1</title>
<g id="a_node1"><a xlink:title="Handles inequality constrained tasks.">
<polygon fill="#999999" stroke="#666666" points="113,-72 0,-72 0,-42 113,-42 113,-72"/>
<text text-anchor="start" x="8" y="-60" font-family="Helvetica,sans-Serif" font-size="10.00">hqp::HierarchicalQP</text>
<text text-anchor="middle" x="56.5" y="-49" font-family="Helvetica,sans-Serif" font-size="10.00">::inequality_hqp</text>
</a>
</g>
</g>
<!-- Node2 -->
<g id="node2" class="node">
<title>Node2</title>
<g id="a_node2"><a xlink:href="classhqp_1_1HierarchicalQP.html#a292d98f5d69d3666a895d6a95e5dc6b9" target="_top" xlink:title="Updates dual variables.">
<polygon fill="white" stroke="#666666" points="262,-137 149,-137 149,-107 262,-107 262,-137"/>
<text text-anchor="start" x="157" y="-125" font-family="Helvetica,sans-Serif" font-size="10.00">hqp::HierarchicalQP</text>
<text text-anchor="middle" x="205.5" y="-114" font-family="Helvetica,sans-Serif" font-size="10.00">::dual_update</text>
</a>
</g>
</g>
<!-- Node1&#45;&gt;Node2 -->
<g id="edge1" class="edge">
<title>Node1&#45;&gt;Node2</title>
<path fill="none" stroke="#63b8ff" d="M91.59,-72.08C112.3,-81.23 138.93,-93.01 161.13,-102.82"/>
<polygon fill="#63b8ff" stroke="#63b8ff" points="159.78,-106.05 170.34,-106.89 162.61,-99.65 159.78,-106.05"/>
</g>
<!-- Node3 -->
<g id="node3" class="node">
<title>Node3</title>
<g id="a_node3"><a xlink:href="namespacehqp.html#ab85e1340e7fee0a8d13730c50a970ceb" target="_top" xlink:title=" ">
<polygon fill="white" stroke="#666666" points="384,-88.5 325,-88.5 325,-69.5 384,-69.5 384,-88.5"/>
<text text-anchor="middle" x="354.5" y="-76.5" font-family="Helvetica,sans-Serif" font-size="10.00">hqp::find</text>
</a>
</g>
</g>
<!-- Node1&#45;&gt;Node3 -->
<g id="edge6" class="edge">
<title>Node1&#45;&gt;Node3</title>
<path fill="none" stroke="#63b8ff" d="M113.18,-61.14C172.09,-65.52 263.49,-72.31 314.93,-76.13"/>
<polygon fill="#63b8ff" stroke="#63b8ff" points="314.74,-79.63 324.97,-76.88 315.25,-72.65 314.74,-79.63"/>
</g>
<!-- Node4 -->
<g id="node4" class="node">
<title>Node4</title>
<g id="a_node4"><a xlink:href="classhqp_1_1HierarchicalQP.html#add4448ad1c21585e607457463016a027" target="_top" xlink:title="Handles equality constraint resolution.">
<polygon fill="white" stroke="#666666" points="262,-51 149,-51 149,-21 262,-21 262,-51"/>
<text text-anchor="start" x="157" y="-39" font-family="Helvetica,sans-Serif" font-size="10.00">hqp::HierarchicalQP</text>
<text text-anchor="middle" x="205.5" y="-28" font-family="Helvetica,sans-Serif" font-size="10.00">::equality_hqp</text>
</a>
</g>
</g>
<!-- Node1&#45;&gt;Node4 -->
<g id="edge3" class="edge">
<title>Node1&#45;&gt;Node4</title>
<path fill="none" stroke="#63b8ff" d="M113.07,-49.06C121.49,-47.86 130.24,-46.61 138.84,-45.38"/>
<polygon fill="#63b8ff" stroke="#63b8ff" points="139.44,-48.83 148.85,-43.95 138.45,-41.9 139.44,-48.83"/>
</g>
<!-- Node5 -->
<g id="node5" class="node">
<title>Node5</title>
<g id="a_node5"><a xlink:href="classhqp_1_1HierarchicalQP.html#a7f754bcfa36f0f97fd9063ad079940e9" target="_top" xlink:title="Retrieves task data.">
<polygon fill="white" stroke="#666666" points="411,-30 298,-30 298,0 411,0 411,-30"/>
<text text-anchor="start" x="306" y="-18" font-family="Helvetica,sans-Serif" font-size="10.00">hqp::HierarchicalQP</text>
<text text-anchor="middle" x="354.5" y="-7" font-family="Helvetica,sans-Serif" font-size="10.00">::get_task</text>
</a>
</g>
</g>
<!-- Node1&#45;&gt;Node5 -->
<g id="edge7" class="edge">
<title>Node1&#45;&gt;Node5</title>
<path fill="none" stroke="#63b8ff" d="M80.83,-41.79C98.68,-31.1 124.34,-17.74 149,-12 194.43,-1.43 247.09,-2.5 287.59,-6.05"/>
<polygon fill="#63b8ff" stroke="#63b8ff" points="287.33,-9.54 297.61,-6.99 287.99,-2.57 287.33,-9.54"/>
</g>
<!-- Node2&#45;&gt;Node3 -->
<g id="edge2" class="edge">
<title>Node2&#45;&gt;Node3</title>
<path fill="none" stroke="#63b8ff" d="M257.91,-106.96C276.6,-101.49 297.39,-95.41 314.79,-90.32"/>
<polygon fill="#63b8ff" stroke="#63b8ff" points="315.99,-93.62 324.61,-87.45 314.03,-86.9 315.99,-93.62"/>
</g>
<!-- Node4&#45;&gt;Node3 -->
<g id="edge4" class="edge">
<title>Node4&#45;&gt;Node3</title>
<path fill="none" stroke="#63b8ff" d="M257.91,-51.04C276.6,-56.51 297.39,-62.59 314.79,-67.68"/>
<polygon fill="#63b8ff" stroke="#63b8ff" points="314.03,-71.1 324.61,-70.55 315.99,-64.38 314.03,-71.1"/>
</g>
<!-- Node4&#45;&gt;Node5 -->
<g id="edge5" class="edge">
<title>Node4&#45;&gt;Node5</title>
<path fill="none" stroke="#63b8ff" d="M262.07,-28.06C270.49,-26.86 279.24,-25.61 287.84,-24.38"/>
<polygon fill="#63b8ff" stroke="#63b8ff" points="288.44,-27.83 297.85,-22.95 287.45,-20.9 288.44,-27.83"/>
</g>
</g>
</svg>
