<?xml version="1.0" encoding="UTF-8" standalone="no"?>
<!DOCTYPE svg PUBLIC "-//W3C//DTD SVG 1.1//EN"
 "http://www.w3.org/Graphics/SVG/1.1/DTD/svg11.dtd">
<!-- Generated by graphviz version 2.43.0 (0)
 -->
<!-- Title: hqp::Task1 Pages: 1 -->
<svg width="114pt" height="148pt"
 viewBox="0.00 0.00 114.00 148.00" xmlns="http://www.w3.org/2000/svg" xmlns:xlink="http://www.w3.org/1999/xlink">
<g id="graph0" class="graph" transform="scale(1 1) rotate(0) translate(4 144)">
<title>hqp::Task1</title>
<!-- Node1 -->
<g id="node1" class="node">
<title>Node1</title>
<g id="a_node1"><a xlink:title=" ">
<polygon fill="#999999" stroke="#666666" points="87,-19 19,-19 19,0 87,0 87,-19"/>
<text text-anchor="middle" x="53" y="-7" font-family="Helvetica,sans-Serif" font-size="10.00">hqp::Task1</text>
</a>
</g>
</g>
<!-- Node2 -->
<g id="node2" class="node">
<title>Node2</title>
<g id="a_node2"><a xlink:href="classhqp_1_1TaskInterface.html" target="_top" xlink:title="Templated interface for tasks with arbitrary arguments.">
<polygon fill="white" stroke="#666666" points="106,-85 0,-85 0,-55 106,-55 106,-85"/>
<text text-anchor="start" x="8" y="-73" font-family="Helvetica,sans-Serif" font-size="10.00">hqp::TaskInterface</text>
<text text-anchor="middle" x="53" y="-62" font-family="Helvetica,sans-Serif" font-size="10.00">&lt; Args &gt;</text>
</a>
</g>
</g>
<!-- Node2&#45;&gt;Node1 -->
<g id="edge1" class="edge">
<title>Node2&#45;&gt;Node1</title>
<path fill="none" stroke="#63b8ff" d="M53,-44.75C53,-35.72 53,-26.03 53,-19.27"/>
<polygon fill="#63b8ff" stroke="#63b8ff" points="49.5,-44.84 53,-54.84 56.5,-44.84 49.5,-44.84"/>
</g>
<!-- Node3 -->
<g id="node3" class="node">
<title>Node3</title>
<g id="a_node3"><a xlink:href="classhqp_1_1Task.html" target="_top" xlink:title=" ">
<polygon fill="white" stroke="#666666" points="84,-140 22,-140 22,-121 84,-121 84,-140"/>
<text text-anchor="middle" x="53" y="-128" font-family="Helvetica,sans-Serif" font-size="10.00">hqp::Task</text>
</a>
</g>
</g>
<!-- Node3&#45;&gt;Node2 -->
<g id="edge2" class="edge">
<title>Node3&#45;&gt;Node2</title>
<path fill="none" stroke="#63b8ff" d="M53,-110.65C53,-102.36 53,-92.78 53,-85.11"/>
<polygon fill="#63b8ff" stroke="#63b8ff" points="49.5,-110.87 53,-120.87 56.5,-110.87 49.5,-110.87"/>
</g>
</g>
</svg>
