<?xml version="1.0" encoding="UTF-8" standalone="no"?>
<!DOCTYPE svg PUBLIC "-//W3C//DTD SVG 1.1//EN"
 "http://www.w3.org/Graphics/SVG/1.1/DTD/svg11.dtd">
<!-- Generated by graphviz version 2.43.0 (0)
 -->
<!-- Title: hqp::HierarchicalQP::solve Pages: 1 -->
<svg width="568pt" height="163pt"
 viewBox="0.00 0.00 568.00 162.67" xmlns="http://www.w3.org/2000/svg" xmlns:xlink="http://www.w3.org/1999/xlink">
<g id="graph0" class="graph" transform="scale(1 1) rotate(0) translate(4 158.67)">
<title>hqp::HierarchicalQP::solve</title>
<!-- Node1 -->
<g id="node1" class="node">
<title>Node1</title>
<g id="a_node1"><a xlink:title="Solves the overall HQP by combining tasks.">
<polygon fill="#999999" stroke="#666666" points="113,-94.47 0,-94.47 0,-64.47 113,-64.47 113,-94.47"/>
<text text-anchor="start" x="8" y="-82.47" font-family="Helvetica,sans-Serif" font-size="10.00">hqp::HierarchicalQP</text>
<text text-anchor="middle" x="56.5" y="-71.47" font-family="Helvetica,sans-Serif" font-size="10.00">::solve</text>
</a>
</g>
</g>
<!-- Node2 -->
<g id="node2" class="node">
<title>Node2</title>
<g id="a_node2"><a xlink:href="classhqp_1_1HierarchicalQP.html#add4448ad1c21585e607457463016a027" target="_top" xlink:title="Handles equality constraint resolution.">
<polygon fill="white" stroke="#666666" points="411,-51.47 298,-51.47 298,-21.47 411,-21.47 411,-51.47"/>
<text text-anchor="start" x="306" y="-39.47" font-family="Helvetica,sans-Serif" font-size="10.00">hqp::HierarchicalQP</text>
<text text-anchor="middle" x="354.5" y="-28.47" font-family="Helvetica,sans-Serif" font-size="10.00">::equality_hqp</text>
</a>
</g>
</g>
<!-- Node1&#45;&gt;Node2 -->
<g id="edge1" class="edge">
<title>Node1&#45;&gt;Node2</title>
<path fill="none" stroke="#63b8ff" d="M108.95,-64.39C121.93,-61.03 135.9,-57.78 149,-55.47 194.87,-47.38 247.17,-42.6 287.4,-39.85"/>
<polygon fill="#63b8ff" stroke="#63b8ff" points="287.87,-43.33 297.62,-39.18 287.41,-36.34 287.87,-43.33"/>
</g>
<!-- Node3 -->
<g id="node3" class="node">
<title>Node3</title>
<g id="a_node3"><a xlink:href="namespacehqp.html#ab85e1340e7fee0a8d13730c50a970ceb" target="_top" xlink:title=" ">
<polygon fill="white" stroke="#666666" points="533,-109.97 474,-109.97 474,-90.97 533,-90.97 533,-109.97"/>
<text text-anchor="middle" x="503.5" y="-97.97" font-family="Helvetica,sans-Serif" font-size="10.00">hqp::find</text>
</a>
</g>
</g>
<!-- Node1&#45;&gt;Node3 -->
<g id="edge4" class="edge">
<title>Node1&#45;&gt;Node3</title>
<path fill="none" stroke="#63b8ff" d="M89.39,-94.49C151.61,-121.81 293.4,-174.36 411,-146.47 436.19,-140.49 462.33,-126.43 480.19,-115.42"/>
<polygon fill="#63b8ff" stroke="#63b8ff" points="482.16,-118.31 488.72,-109.99 478.4,-112.4 482.16,-118.31"/>
</g>
<!-- Node5 -->
<g id="node5" class="node">
<title>Node5</title>
<g id="a_node5"><a xlink:href="classhqp_1_1HierarchicalQP.html#aaf6df9e4aa247e25e1ff253bd6501028" target="_top" xlink:title="Handles inequality constrained tasks.">
<polygon fill="white" stroke="#666666" points="262,-94.47 149,-94.47 149,-64.47 262,-64.47 262,-94.47"/>
<text text-anchor="start" x="157" y="-82.47" font-family="Helvetica,sans-Serif" font-size="10.00">hqp::HierarchicalQP</text>
<text text-anchor="middle" x="205.5" y="-71.47" font-family="Helvetica,sans-Serif" font-size="10.00">::inequality_hqp</text>
</a>
</g>
</g>
<!-- Node1&#45;&gt;Node5 -->
<g id="edge5" class="edge">
<title>Node1&#45;&gt;Node5</title>
<path fill="none" stroke="#63b8ff" d="M113.07,-79.47C121.49,-79.47 130.24,-79.47 138.84,-79.47"/>
<polygon fill="#63b8ff" stroke="#63b8ff" points="138.85,-82.97 148.85,-79.47 138.85,-75.97 138.85,-82.97"/>
</g>
<!-- Node2&#45;&gt;Node3 -->
<g id="edge2" class="edge">
<title>Node2&#45;&gt;Node3</title>
<path fill="none" stroke="#63b8ff" d="M389.96,-51.47C414.58,-62.19 447.42,-76.49 471.27,-86.87"/>
<polygon fill="#63b8ff" stroke="#63b8ff" points="470,-90.13 480.57,-90.92 472.79,-83.72 470,-90.13"/>
</g>
<!-- Node4 -->
<g id="node4" class="node">
<title>Node4</title>
<g id="a_node4"><a xlink:href="classhqp_1_1HierarchicalQP.html#a7f754bcfa36f0f97fd9063ad079940e9" target="_top" xlink:title="Retrieves task data.">
<polygon fill="white" stroke="#666666" points="560,-30.47 447,-30.47 447,-0.47 560,-0.47 560,-30.47"/>
<text text-anchor="start" x="455" y="-18.47" font-family="Helvetica,sans-Serif" font-size="10.00">hqp::HierarchicalQP</text>
<text text-anchor="middle" x="503.5" y="-7.47" font-family="Helvetica,sans-Serif" font-size="10.00">::get_task</text>
</a>
</g>
</g>
<!-- Node2&#45;&gt;Node4 -->
<g id="edge3" class="edge">
<title>Node2&#45;&gt;Node4</title>
<path fill="none" stroke="#63b8ff" d="M411.07,-28.53C419.49,-27.33 428.24,-26.08 436.84,-24.85"/>
<polygon fill="#63b8ff" stroke="#63b8ff" points="437.44,-28.3 446.85,-23.42 436.45,-21.37 437.44,-28.3"/>
</g>
<!-- Node5&#45;&gt;Node2 -->
<g id="edge8" class="edge">
<title>Node5&#45;&gt;Node2</title>
<path fill="none" stroke="#63b8ff" d="M257.91,-64.43C268.93,-61.21 280.67,-57.77 292.02,-54.45"/>
<polygon fill="#63b8ff" stroke="#63b8ff" points="293.25,-57.74 301.87,-51.57 291.29,-51.02 293.25,-57.74"/>
</g>
<!-- Node5&#45;&gt;Node3 -->
<g id="edge9" class="edge">
<title>Node5&#45;&gt;Node3</title>
<path fill="none" stroke="#63b8ff" d="M262.18,-83.42C321.09,-87.6 412.49,-94.08 463.93,-97.73"/>
<polygon fill="#63b8ff" stroke="#63b8ff" points="463.74,-101.23 473.97,-98.44 464.24,-94.24 463.74,-101.23"/>
</g>
<!-- Node5&#45;&gt;Node4 -->
<g id="edge10" class="edge">
<title>Node5&#45;&gt;Node4</title>
<path fill="none" stroke="#63b8ff" d="M220.96,-64.21C237.68,-47.78 266.94,-22.62 298,-12.47 342.65,2.13 395.76,0.84 436.67,-3.81"/>
<polygon fill="#63b8ff" stroke="#63b8ff" points="436.44,-7.31 446.79,-5.06 437.29,-0.37 436.44,-7.31"/>
</g>
<!-- Node6 -->
<g id="node6" class="node">
<title>Node6</title>
<g id="a_node6"><a xlink:href="classhqp_1_1HierarchicalQP.html#a292d98f5d69d3666a895d6a95e5dc6b9" target="_top" xlink:title="Updates dual variables.">
<polygon fill="white" stroke="#666666" points="411,-137.47 298,-137.47 298,-107.47 411,-107.47 411,-137.47"/>
<text text-anchor="start" x="306" y="-125.47" font-family="Helvetica,sans-Serif" font-size="10.00">hqp::HierarchicalQP</text>
<text text-anchor="middle" x="354.5" y="-114.47" font-family="Helvetica,sans-Serif" font-size="10.00">::dual_update</text>
</a>
</g>
</g>
<!-- Node5&#45;&gt;Node6 -->
<g id="edge6" class="edge">
<title>Node5&#45;&gt;Node6</title>
<path fill="none" stroke="#63b8ff" d="M257.91,-94.51C268.93,-97.73 280.67,-101.16 292.02,-104.48"/>
<polygon fill="#63b8ff" stroke="#63b8ff" points="291.29,-107.91 301.87,-107.36 293.25,-101.2 291.29,-107.91"/>
</g>
<!-- Node6&#45;&gt;Node3 -->
<g id="edge7" class="edge">
<title>Node6&#45;&gt;Node3</title>
<path fill="none" stroke="#63b8ff" d="M411.07,-114.15C428.55,-111.53 447.46,-108.7 463.53,-106.3"/>
<polygon fill="#63b8ff" stroke="#63b8ff" points="464.26,-109.73 473.63,-104.79 463.22,-102.81 464.26,-109.73"/>
</g>
</g>
</svg>
