<?xml version="1.0" encoding="UTF-8" standalone="no"?>
<!DOCTYPE svg PUBLIC "-//W3C//DTD SVG 1.1//EN"
 "http://www.w3.org/Graphics/SVG/1.1/DTD/svg11.dtd">
<!-- Generated by graphviz version 2.43.0 (0)
 -->
<!-- Title: hqp::HierarchicalQP::get_primal Pages: 1 -->
<svg width="717pt" height="231pt"
 viewBox="0.00 0.00 717.00 231.47" xmlns="http://www.w3.org/2000/svg" xmlns:xlink="http://www.w3.org/1999/xlink">
<g id="graph0" class="graph" transform="scale(1 1) rotate(0) translate(4 227.47)">
<title>hqp::HierarchicalQP::get_primal</title>
<!-- Node1 -->
<g id="node1" class="node">
<title>Node1</title>
<g id="a_node1"><a xlink:title="Computes and retrieves the primal solution.">
<polygon fill="#999999" stroke="#666666" points="113,-137.47 0,-137.47 0,-107.47 113,-107.47 113,-137.47"/>
<text text-anchor="start" x="8" y="-125.47" font-family="Helvetica,sans-Serif" font-size="10.00">hqp::HierarchicalQP</text>
<text text-anchor="middle" x="56.5" y="-114.47" font-family="Helvetica,sans-Serif" font-size="10.00">::get_primal</text>
</a>
</g>
</g>
<!-- Node2 -->
<g id="node2" class="node">
<title>Node2</title>
<g id="a_node2"><a xlink:href="classhqp_1_1HierarchicalQP.html#adac78a9cc96e9d4f311b9ef72acd7ebd" target="_top" xlink:title="Solves the overall HQP by combining tasks.">
<polygon fill="white" stroke="#666666" points="262,-137.47 149,-137.47 149,-107.47 262,-107.47 262,-137.47"/>
<text text-anchor="start" x="157" y="-125.47" font-family="Helvetica,sans-Serif" font-size="10.00">hqp::HierarchicalQP</text>
<text text-anchor="middle" x="205.5" y="-114.47" font-family="Helvetica,sans-Serif" font-size="10.00">::solve</text>
</a>
</g>
</g>
<!-- Node1&#45;&gt;Node2 -->
<g id="edge1" class="edge">
<title>Node1&#45;&gt;Node2</title>
<path fill="none" stroke="#63b8ff" d="M113.07,-122.47C121.49,-122.47 130.24,-122.47 138.84,-122.47"/>
<polygon fill="#63b8ff" stroke="#63b8ff" points="138.85,-125.97 148.85,-122.47 138.85,-118.97 138.85,-125.97"/>
</g>
<!-- Node3 -->
<g id="node3" class="node">
<title>Node3</title>
<g id="a_node3"><a xlink:href="classhqp_1_1HierarchicalQP.html#add4448ad1c21585e607457463016a027" target="_top" xlink:title="Handles equality constraint resolution.">
<polygon fill="white" stroke="#666666" points="560,-51.47 447,-51.47 447,-21.47 560,-21.47 560,-51.47"/>
<text text-anchor="start" x="455" y="-39.47" font-family="Helvetica,sans-Serif" font-size="10.00">hqp::HierarchicalQP</text>
<text text-anchor="middle" x="503.5" y="-28.47" font-family="Helvetica,sans-Serif" font-size="10.00">::equality_hqp</text>
</a>
</g>
</g>
<!-- Node2&#45;&gt;Node3 -->
<g id="edge2" class="edge">
<title>Node2&#45;&gt;Node3</title>
<path fill="none" stroke="#63b8ff" d="M221.45,-107.45C238.39,-91.49 267.62,-66.98 298,-55.47 342.26,-38.69 395.61,-34.2 436.72,-33.77"/>
<polygon fill="#63b8ff" stroke="#63b8ff" points="436.9,-37.27 446.89,-33.74 436.88,-30.27 436.9,-37.27"/>
</g>
<!-- Node4 -->
<g id="node4" class="node">
<title>Node4</title>
<g id="a_node4"><a xlink:href="namespacehqp.html#ab85e1340e7fee0a8d13730c50a970ceb" target="_top" xlink:title=" ">
<polygon fill="white" stroke="#666666" points="682,-131.97 623,-131.97 623,-112.97 682,-112.97 682,-131.97"/>
<text text-anchor="middle" x="652.5" y="-119.97" font-family="Helvetica,sans-Serif" font-size="10.00">hqp::find</text>
</a>
</g>
</g>
<!-- Node2&#45;&gt;Node4 -->
<g id="edge5" class="edge">
<title>Node2&#45;&gt;Node4</title>
<path fill="none" stroke="#63b8ff" d="M262.11,-132.94C331.92,-144.56 455.22,-159.98 560,-146.47 577.67,-144.19 596.8,-139.53 612.97,-134.92"/>
<polygon fill="#63b8ff" stroke="#63b8ff" points="614.02,-138.26 622.62,-132.08 612.04,-131.55 614.02,-138.26"/>
</g>
<!-- Node6 -->
<g id="node6" class="node">
<title>Node6</title>
<g id="a_node6"><a xlink:href="classhqp_1_1HierarchicalQP.html#aaf6df9e4aa247e25e1ff253bd6501028" target="_top" xlink:title="Handles inequality constrained tasks.">
<polygon fill="white" stroke="#666666" points="411,-94.47 298,-94.47 298,-64.47 411,-64.47 411,-94.47"/>
<text text-anchor="start" x="306" y="-82.47" font-family="Helvetica,sans-Serif" font-size="10.00">hqp::HierarchicalQP</text>
<text text-anchor="middle" x="354.5" y="-71.47" font-family="Helvetica,sans-Serif" font-size="10.00">::inequality_hqp</text>
</a>
</g>
</g>
<!-- Node2&#45;&gt;Node6 -->
<g id="edge6" class="edge">
<title>Node2&#45;&gt;Node6</title>
<path fill="none" stroke="#63b8ff" d="M257.91,-107.43C268.93,-104.21 280.67,-100.77 292.02,-97.45"/>
<polygon fill="#63b8ff" stroke="#63b8ff" points="293.25,-100.74 301.87,-94.57 291.29,-94.02 293.25,-100.74"/>
</g>
<!-- Node8 -->
<g id="node8" class="node">
<title>Node8</title>
<g id="a_node8"><a xlink:href="classhqp_1_1HierarchicalQP.html#af25299ca77e16f5f9cb02cad264224a9" target="_top" xlink:title="Outputs the active set details to the console.">
<polygon fill="white" stroke="#666666" points="411,-223.47 298,-223.47 298,-193.47 411,-193.47 411,-223.47"/>
<text text-anchor="start" x="306" y="-211.47" font-family="Helvetica,sans-Serif" font-size="10.00">hqp::HierarchicalQP</text>
<text text-anchor="middle" x="354.5" y="-200.47" font-family="Helvetica,sans-Serif" font-size="10.00">::print_active_set</text>
</a>
</g>
</g>
<!-- Node2&#45;&gt;Node8 -->
<g id="edge12" class="edge">
<title>Node2&#45;&gt;Node8</title>
<path fill="none" stroke="#63b8ff" d="M229.52,-137.48C247.85,-149.27 274.28,-165.91 298,-179.47 303.26,-182.47 308.86,-185.55 314.4,-188.51"/>
<polygon fill="#63b8ff" stroke="#63b8ff" points="313.13,-191.8 323.61,-193.37 316.4,-185.61 313.13,-191.8"/>
</g>
<!-- Node3&#45;&gt;Node4 -->
<g id="edge3" class="edge">
<title>Node3&#45;&gt;Node4</title>
<path fill="none" stroke="#63b8ff" d="M534.39,-51.56C542.75,-55.92 551.79,-60.77 560,-65.47 583.63,-78.97 609.94,-95.53 628.26,-107.31"/>
<polygon fill="#63b8ff" stroke="#63b8ff" points="626.51,-110.35 636.81,-112.84 630.31,-104.47 626.51,-110.35"/>
</g>
<!-- Node5 -->
<g id="node5" class="node">
<title>Node5</title>
<g id="a_node5"><a xlink:href="classhqp_1_1HierarchicalQP.html#a69f7398b0f10bcc38452b0acf12f9997" target="_top" xlink:title="Retrieves task data.">
<polygon fill="white" stroke="#666666" points="709,-30.47 596,-30.47 596,-0.47 709,-0.47 709,-30.47"/>
<text text-anchor="start" x="604" y="-18.47" font-family="Helvetica,sans-Serif" font-size="10.00">hqp::HierarchicalQP</text>
<text text-anchor="middle" x="652.5" y="-7.47" font-family="Helvetica,sans-Serif" font-size="10.00">::get_task</text>
</a>
</g>
</g>
<!-- Node3&#45;&gt;Node5 -->
<g id="edge4" class="edge">
<title>Node3&#45;&gt;Node5</title>
<path fill="none" stroke="#63b8ff" d="M560.07,-28.53C568.49,-27.33 577.24,-26.08 585.84,-24.85"/>
<polygon fill="#63b8ff" stroke="#63b8ff" points="586.44,-28.3 595.85,-23.42 585.45,-21.37 586.44,-28.3"/>
</g>
<!-- Node6&#45;&gt;Node3 -->
<g id="edge9" class="edge">
<title>Node6&#45;&gt;Node3</title>
<path fill="none" stroke="#63b8ff" d="M406.91,-64.43C417.93,-61.21 429.67,-57.77 441.02,-54.45"/>
<polygon fill="#63b8ff" stroke="#63b8ff" points="442.25,-57.74 450.87,-51.57 440.29,-51.02 442.25,-57.74"/>
</g>
<!-- Node6&#45;&gt;Node4 -->
<g id="edge10" class="edge">
<title>Node6&#45;&gt;Node4</title>
<path fill="none" stroke="#63b8ff" d="M411.38,-82.18C452.67,-84.79 510.14,-89.67 560,-98.47 577.68,-101.58 596.94,-106.42 613.22,-110.93"/>
<polygon fill="#63b8ff" stroke="#63b8ff" points="612.34,-114.32 622.92,-113.68 614.25,-107.58 612.34,-114.32"/>
</g>
<!-- Node6&#45;&gt;Node5 -->
<g id="edge11" class="edge">
<title>Node6&#45;&gt;Node5</title>
<path fill="none" stroke="#63b8ff" d="M369.96,-64.21C386.68,-47.78 415.94,-22.62 447,-12.47 491.65,2.13 544.76,0.84 585.67,-3.81"/>
<polygon fill="#63b8ff" stroke="#63b8ff" points="585.44,-7.31 595.79,-5.06 586.29,-0.37 585.44,-7.31"/>
</g>
<!-- Node7 -->
<g id="node7" class="node">
<title>Node7</title>
<g id="a_node7"><a xlink:href="classhqp_1_1HierarchicalQP.html#a292d98f5d69d3666a895d6a95e5dc6b9" target="_top" xlink:title="Updates dual variables.">
<polygon fill="white" stroke="#666666" points="560,-137.47 447,-137.47 447,-107.47 560,-107.47 560,-137.47"/>
<text text-anchor="start" x="455" y="-125.47" font-family="Helvetica,sans-Serif" font-size="10.00">hqp::HierarchicalQP</text>
<text text-anchor="middle" x="503.5" y="-114.47" font-family="Helvetica,sans-Serif" font-size="10.00">::dual_update</text>
</a>
</g>
</g>
<!-- Node6&#45;&gt;Node7 -->
<g id="edge7" class="edge">
<title>Node6&#45;&gt;Node7</title>
<path fill="none" stroke="#63b8ff" d="M406.91,-94.51C417.93,-97.73 429.67,-101.16 441.02,-104.48"/>
<polygon fill="#63b8ff" stroke="#63b8ff" points="440.29,-107.91 450.87,-107.36 442.25,-101.2 440.29,-107.91"/>
</g>
<!-- Node7&#45;&gt;Node4 -->
<g id="edge8" class="edge">
<title>Node7&#45;&gt;Node4</title>
<path fill="none" stroke="#63b8ff" d="M560.07,-122.47C577.55,-122.47 596.46,-122.47 612.53,-122.47"/>
<polygon fill="#63b8ff" stroke="#63b8ff" points="612.63,-125.97 622.63,-122.47 612.63,-118.97 612.63,-125.97"/>
</g>
<!-- Node8&#45;&gt;Node4 -->
<g id="edge13" class="edge">
<title>Node8&#45;&gt;Node4</title>
<path fill="none" stroke="#63b8ff" d="M411.25,-206.78C453.24,-204.04 511.64,-197.06 560,-179.47 586.51,-169.82 613.52,-151.77 631.25,-138.56"/>
<polygon fill="#63b8ff" stroke="#63b8ff" points="633.81,-141.02 639.63,-132.16 629.56,-135.45 633.81,-141.02"/>
</g>
</g>
</svg>
