<?xml version="1.0" encoding="UTF-8" standalone="no"?>
<!DOCTYPE svg PUBLIC "-//W3C//DTD SVG 1.1//EN"
 "http://www.w3.org/Graphics/SVG/1.1/DTD/svg11.dtd">
<!-- Generated by graphviz version 2.43.0 (0)
 -->
<!-- Title: hqp::Task3 Pages: 1 -->
<svg width="130pt" height="137pt"
 viewBox="0.00 0.00 130.00 137.00" xmlns="http://www.w3.org/2000/svg" xmlns:xlink="http://www.w3.org/1999/xlink">
<g id="graph0" class="graph" transform="scale(1 1) rotate(0) translate(4 133)">
<title>hqp::Task3</title>
<!-- Node1 -->
<g id="node1" class="node">
<title>Node1</title>
<g id="a_node1"><a xlink:title=" ">
<polygon fill="#999999" stroke="#666666" points="95,-19 27,-19 27,0 95,0 95,-19"/>
<text text-anchor="middle" x="61" y="-7" font-family="Helvetica,sans-Serif" font-size="10.00">hqp::Task3</text>
</a>
</g>
</g>
<!-- Node2 -->
<g id="node2" class="node">
<title>Node2</title>
<g id="a_node2"><a xlink:href="classhqp_1_1TaskInterface.html" target="_top" xlink:title=" ">
<polygon fill="white" stroke="#666666" points="122,-74 0,-74 0,-55 122,-55 122,-74"/>
<text text-anchor="middle" x="61" y="-62" font-family="Helvetica,sans-Serif" font-size="10.00">hqp::TaskInterface&lt;&gt;</text>
</a>
</g>
</g>
<!-- Node2&#45;&gt;Node1 -->
<g id="edge1" class="edge">
<title>Node2&#45;&gt;Node1</title>
<path fill="none" stroke="#63b8ff" d="M61,-44.66C61,-35.93 61,-25.99 61,-19.09"/>
<polygon fill="#63b8ff" stroke="#63b8ff" points="57.5,-44.75 61,-54.75 64.5,-44.75 57.5,-44.75"/>
</g>
<!-- Node3 -->
<g id="node3" class="node">
<title>Node3</title>
<g id="a_node3"><a xlink:href="classhqp_1_1Task.html" target="_top" xlink:title=" ">
<polygon fill="white" stroke="#666666" points="92,-129 30,-129 30,-110 92,-110 92,-129"/>
<text text-anchor="middle" x="61" y="-117" font-family="Helvetica,sans-Serif" font-size="10.00">hqp::Task</text>
</a>
</g>
</g>
<!-- Node3&#45;&gt;Node2 -->
<g id="edge2" class="edge">
<title>Node3&#45;&gt;Node2</title>
<path fill="none" stroke="#63b8ff" d="M61,-99.66C61,-90.93 61,-80.99 61,-74.09"/>
<polygon fill="#63b8ff" stroke="#63b8ff" points="57.5,-99.75 61,-109.75 64.5,-99.75 57.5,-99.75"/>
</g>
</g>
</svg>
