<?xml version="1.0" encoding="UTF-8" standalone="no"?>
<!DOCTYPE svg PUBLIC "-//W3C//DTD SVG 1.1//EN"
 "http://www.w3.org/Graphics/SVG/1.1/DTD/svg11.dtd">
<!-- Generated by graphviz version 2.43.0 (0)
 -->
<!-- Title: hqp::SmartContainer&lt; Container, PtrWrapper, SmartPtr, T &gt; Pages: 1 -->
<svg width="456pt" height="60pt"
 viewBox="0.00 0.00 456.00 60.00" xmlns="http://www.w3.org/2000/svg" xmlns:xlink="http://www.w3.org/1999/xlink">
<g id="graph0" class="graph" transform="scale(1 1) rotate(0) translate(4 56)">
<title>hqp::SmartContainer&lt; Container, PtrWrapper, SmartPtr, T &gt;</title>
<!-- Node1 -->
<g id="node1" class="node">
<title>Node1</title>
<g id="a_node1"><a xlink:title=" ">
<polygon fill="#999999" stroke="#666666" points="306,-46.5 167,-46.5 167,-5.5 306,-5.5 306,-46.5"/>
<text text-anchor="start" x="175" y="-34.5" font-family="Helvetica,sans-Serif" font-size="10.00">hqp::SmartContainer</text>
<text text-anchor="start" x="175" y="-23.5" font-family="Helvetica,sans-Serif" font-size="10.00">&lt; Container, PtrWrapper,</text>
<text text-anchor="middle" x="236.5" y="-12.5" font-family="Helvetica,sans-Serif" font-size="10.00"> SmartPtr, T &gt;</text>
</a>
</g>
</g>
<!-- Node3 -->
<g id="node3" class="node">
<title>Node3</title>
<g id="a_node3"><a xlink:href="classhqp_1_1StackOfTasks.html" target="_top" xlink:title=" ">
<polygon fill="white" stroke="#666666" points="448,-35.5 342,-35.5 342,-16.5 448,-16.5 448,-35.5"/>
<text text-anchor="middle" x="395" y="-23.5" font-family="Helvetica,sans-Serif" font-size="10.00">hqp::StackOfTasks</text>
</a>
</g>
</g>
<!-- Node1&#45;&gt;Node3 -->
<g id="edge2" class="edge">
<title>Node1&#45;&gt;Node3</title>
<path fill="none" stroke="#63b8ff" d="M316.31,-26C324.98,-26 333.65,-26 341.88,-26"/>
<polygon fill="#63b8ff" stroke="#63b8ff" points="316.14,-22.5 306.14,-26 316.14,-29.5 316.14,-22.5"/>
</g>
<!-- Node2 -->
<g id="node2" class="node">
<title>Node2</title>
<g id="a_node2"><a xlink:title=" ">
<polygon fill="white" stroke="#666666" points="131,-52 0,-52 0,0 131,0 131,-52"/>
<text text-anchor="start" x="8" y="-40" font-family="Helvetica,sans-Serif" font-size="10.00">Container&lt; PtrWrapper</text>
<text text-anchor="start" x="8" y="-29" font-family="Helvetica,sans-Serif" font-size="10.00">&lt; SmartPtr, T &gt;, std</text>
<text text-anchor="start" x="8" y="-18" font-family="Helvetica,sans-Serif" font-size="10.00">::allocator&lt; PtrWrapper</text>
<text text-anchor="middle" x="65.5" y="-7" font-family="Helvetica,sans-Serif" font-size="10.00">&lt; SmartPtr, T &gt; &gt; &gt;</text>
</a>
</g>
</g>
<!-- Node2&#45;&gt;Node1 -->
<g id="edge1" class="edge">
<title>Node2&#45;&gt;Node1</title>
<path fill="none" stroke="#63b8ff" d="M141.56,-26C149.99,-26 158.55,-26 166.89,-26"/>
<polygon fill="#63b8ff" stroke="#63b8ff" points="141.36,-22.5 131.36,-26 141.36,-29.5 141.36,-22.5"/>
</g>
</g>
</svg>
