<?xml version="1.0" encoding="UTF-8" standalone="no"?>
<!DOCTYPE svg PUBLIC "-//W3C//DTD SVG 1.1//EN"
 "http://www.w3.org/Graphics/SVG/1.1/DTD/svg11.dtd">
<!-- Generated by graphviz version 2.43.0 (0)
 -->
<!-- Title: hqp::Task Pages: 1 -->
<svg width="218pt" height="93pt"
 viewBox="0.00 0.00 218.00 93.00" xmlns="http://www.w3.org/2000/svg" xmlns:xlink="http://www.w3.org/1999/xlink">
<g id="graph0" class="graph" transform="scale(1 1) rotate(0) translate(4 89)">
<title>hqp::Task</title>
<!-- Node1 -->
<g id="node1" class="node">
<title>Node1</title>
<g id="a_node1"><a xlink:title=" ">
<polygon fill="#999999" stroke="#666666" points="131,-85 69,-85 69,-66 131,-66 131,-85"/>
<text text-anchor="middle" x="100" y="-73" font-family="Helvetica,sans-Serif" font-size="10.00">hqp::Task</text>
</a>
</g>
</g>
<!-- Node2 -->
<g id="node2" class="node">
<title>Node2</title>
<g id="a_node2"><a xlink:href="classhqp_1_1SubTasks.html" target="_top" xlink:title=" ">
<polygon fill="white" stroke="#666666" points="86,-24.5 0,-24.5 0,-5.5 86,-5.5 86,-24.5"/>
<text text-anchor="middle" x="43" y="-12.5" font-family="Helvetica,sans-Serif" font-size="10.00">hqp::SubTasks</text>
</a>
</g>
</g>
<!-- Node1&#45;&gt;Node2 -->
<g id="edge1" class="edge">
<title>Node1&#45;&gt;Node2</title>
<path fill="none" stroke="#63b8ff" d="M84.5,-58.59C73.85,-47.67 60.13,-33.58 51.45,-24.67"/>
<polygon fill="#63b8ff" stroke="#63b8ff" points="82.1,-61.15 91.59,-65.87 87.12,-56.26 82.1,-61.15"/>
</g>
<!-- Node3 -->
<g id="node3" class="node">
<title>Node3</title>
<g id="a_node3"><a xlink:href="classhqp_1_1TaskInterface.html" target="_top" xlink:title="Templated interface for tasks with arbitrary arguments.">
<polygon fill="white" stroke="#666666" points="210,-30 104,-30 104,0 210,0 210,-30"/>
<text text-anchor="start" x="112" y="-18" font-family="Helvetica,sans-Serif" font-size="10.00">hqp::TaskInterface</text>
<text text-anchor="middle" x="157" y="-7" font-family="Helvetica,sans-Serif" font-size="10.00">&lt; Args &gt;</text>
</a>
</g>
</g>
<!-- Node1&#45;&gt;Node3 -->
<g id="edge2" class="edge">
<title>Node1&#45;&gt;Node3</title>
<path fill="none" stroke="#63b8ff" d="M115.4,-58.7C124.08,-49.78 134.85,-38.74 143.25,-30.11"/>
<polygon fill="#63b8ff" stroke="#63b8ff" points="112.88,-56.26 108.41,-65.87 117.9,-61.15 112.88,-56.26"/>
</g>
</g>
</svg>
