<?xml version="1.0" encoding="UTF-8" standalone="no"?>
<!DOCTYPE svg PUBLIC "-//W3C//DTD SVG 1.1//EN"
 "http://www.w3.org/Graphics/SVG/1.1/DTD/svg11.dtd">
<!-- Generated by graphviz version 2.43.0 (0)
 -->
<!-- Title: hqp::TaskInterface::compute Pages: 1 -->
<svg width="278pt" height="64pt"
 viewBox="0.00 0.00 278.00 64.00" xmlns="http://www.w3.org/2000/svg" xmlns:xlink="http://www.w3.org/1999/xlink">
<g id="graph0" class="graph" transform="scale(1 1) rotate(0) translate(4 60)">
<title>hqp::TaskInterface::compute</title>
<!-- Node1 -->
<g id="node1" class="node">
<title>Node1</title>
<g id="a_node1"><a xlink:title="Pure virtual function to compute task&#45;specific output.">
<polygon fill="#999999" stroke="#666666" points="106,-42.5 0,-42.5 0,-12.5 106,-12.5 106,-42.5"/>
<text text-anchor="start" x="8" y="-30.5" font-family="Helvetica,sans-Serif" font-size="10.00">hqp::TaskInterface</text>
<text text-anchor="middle" x="53" y="-19.5" font-family="Helvetica,sans-Serif" font-size="10.00">::compute</text>
</a>
</g>
</g>
<!-- Node2 -->
<g id="node2" class="node">
<title>Node2</title>
<g id="a_node2"><a xlink:href="classhqp_1_1TaskInterface.html#adf438bcb5931d58002bd23db6857d567" target="_top" xlink:title="Executes the task with provided parameters.">
<polygon fill="white" stroke="#666666" points="270,-56 142,-56 142,-37 270,-37 270,-56"/>
<text text-anchor="middle" x="206" y="-44" font-family="Helvetica,sans-Serif" font-size="10.00">hqp::TaskInterface::run</text>
</a>
</g>
</g>
<!-- Node1&#45;&gt;Node2 -->
<g id="edge1" class="edge">
<title>Node1&#45;&gt;Node2</title>
<path fill="none" stroke="#63b8ff" d="M106.39,-34.09C114.59,-35.12 123.2,-36.21 131.77,-37.29"/>
<polygon fill="#63b8ff" stroke="#63b8ff" points="131.42,-40.77 141.78,-38.55 132.3,-33.82 131.42,-40.77"/>
</g>
<!-- Node3 -->
<g id="node3" class="node">
<title>Node3</title>
<g id="a_node3"><a xlink:href="namespacehqp.html#a3995044fda58d1086e53fba48d3e5fa9" target="_top" xlink:title=" ">
<polygon fill="white" stroke="#666666" points="244.5,-19 167.5,-19 167.5,0 244.5,0 244.5,-19"/>
<text text-anchor="middle" x="206" y="-7" font-family="Helvetica,sans-Serif" font-size="10.00">hqp::unwrap</text>
</a>
</g>
</g>
<!-- Node1&#45;&gt;Node3 -->
<g id="edge2" class="edge">
<title>Node1&#45;&gt;Node3</title>
<path fill="none" stroke="#63b8ff" d="M106.39,-21.25C122.88,-19.29 141,-17.13 157.15,-15.2"/>
<polygon fill="#63b8ff" stroke="#63b8ff" points="157.94,-18.63 167.45,-13.98 157.11,-11.68 157.94,-18.63"/>
</g>
</g>
</svg>
