<?xml version="1.0" encoding="UTF-8" standalone="no"?>
<!DOCTYPE svg PUBLIC "-//W3C//DTD SVG 1.1//EN"
 "http://www.w3.org/Graphics/SVG/1.1/DTD/svg11.dtd">
<!-- Generated by graphviz version 2.43.0 (0)
 -->
<!-- Title: hqp::Task Pages: 1 -->
<svg width="415pt" height="251pt"
 viewBox="0.00 0.00 415.00 251.00" xmlns="http://www.w3.org/2000/svg" xmlns:xlink="http://www.w3.org/1999/xlink">
<g id="graph0" class="graph" transform="scale(1 1) rotate(0) translate(4 247)">
<title>hqp::Task</title>
<!-- Node1 -->
<g id="node1" class="node">
<title>Node1</title>
<g id="a_node1"><a xlink:title=" ">
<polygon fill="#999999" stroke="#666666" points="62,-97 0,-97 0,-78 62,-78 62,-97"/>
<text text-anchor="middle" x="31" y="-85" font-family="Helvetica,sans-Serif" font-size="10.00">hqp::Task</text>
</a>
</g>
</g>
<!-- Node2 -->
<g id="node2" class="node">
<title>Node2</title>
<g id="a_node2"><a xlink:href="classhqp_1_1TaskInterface.html" target="_top" xlink:title=" ">
<polygon fill="white" stroke="#666666" points="226,-169 104,-169 104,-150 226,-150 226,-169"/>
<text text-anchor="middle" x="165" y="-157" font-family="Helvetica,sans-Serif" font-size="10.00">hqp::TaskInterface&lt;&gt;</text>
</a>
</g>
</g>
<!-- Node1&#45;&gt;Node2 -->
<g id="edge1" class="edge">
<title>Node1&#45;&gt;Node2</title>
<path fill="none" stroke="#63b8ff" d="M48.73,-104.59C61.28,-116.5 79.43,-131.93 98,-141.5 104.55,-144.87 111.79,-147.67 119.01,-149.97"/>
<polygon fill="#63b8ff" stroke="#63b8ff" points="50.94,-101.85 41.34,-97.36 46.04,-106.85 50.94,-101.85"/>
</g>
<!-- Node8 -->
<g id="node8" class="node">
<title>Node8</title>
<g id="a_node8"><a xlink:href="classhqp_1_1TaskInterface.html" target="_top" xlink:title=" ">
<polygon fill="white" stroke="#666666" points="232,-132 98,-132 98,-91 232,-91 232,-132"/>
<text text-anchor="start" x="106" y="-120" font-family="Helvetica,sans-Serif" font-size="10.00">hqp::TaskInterface</text>
<text text-anchor="start" x="106" y="-109" font-family="Helvetica,sans-Serif" font-size="10.00">&lt; double const &amp;, Eigen</text>
<text text-anchor="middle" x="165" y="-98" font-family="Helvetica,sans-Serif" font-size="10.00">::VectorXd const &amp; &gt;</text>
</a>
</g>
</g>
<!-- Node1&#45;&gt;Node8 -->
<g id="edge7" class="edge">
<title>Node1&#45;&gt;Node8</title>
<path fill="none" stroke="#63b8ff" d="M72.2,-94.81C80.32,-96.29 89.07,-97.88 97.82,-99.47"/>
<polygon fill="#63b8ff" stroke="#63b8ff" points="72.75,-91.35 62.28,-93.01 71.5,-98.24 72.75,-91.35"/>
</g>
<!-- Node9 -->
<g id="node9" class="node">
<title>Node9</title>
<g id="a_node9"><a xlink:href="classhqp_1_1SubTasks.html" target="_top" xlink:title=" ">
<polygon fill="white" stroke="#666666" points="208,-73 122,-73 122,-54 208,-54 208,-73"/>
<text text-anchor="middle" x="165" y="-61" font-family="Helvetica,sans-Serif" font-size="10.00">hqp::SubTasks</text>
</a>
</g>
</g>
<!-- Node1&#45;&gt;Node9 -->
<g id="edge8" class="edge">
<title>Node1&#45;&gt;Node9</title>
<path fill="none" stroke="#63b8ff" d="M72.23,-80.19C87.94,-77.33 105.96,-74.05 121.85,-71.16"/>
<polygon fill="#63b8ff" stroke="#63b8ff" points="71.5,-76.76 62.28,-81.99 72.75,-83.65 71.5,-76.76"/>
</g>
<!-- Node10 -->
<g id="node10" class="node">
<title>Node10</title>
<g id="a_node10"><a xlink:href="classhqp_1_1TaskInterface.html" target="_top" xlink:title=" ">
<polygon fill="white" stroke="#666666" points="218,-35.5 112,-35.5 112,-5.5 218,-5.5 218,-35.5"/>
<text text-anchor="start" x="120" y="-23.5" font-family="Helvetica,sans-Serif" font-size="10.00">hqp::TaskInterface</text>
<text text-anchor="middle" x="165" y="-12.5" font-family="Helvetica,sans-Serif" font-size="10.00">&lt; Args &gt;</text>
</a>
</g>
</g>
<!-- Node1&#45;&gt;Node10 -->
<g id="edge9" class="edge">
<title>Node1&#45;&gt;Node10</title>
<path fill="none" stroke="#63b8ff" d="M53.51,-71.69C66.06,-62.93 82.44,-52.27 98,-44.5 104.44,-41.29 111.41,-38.28 118.33,-35.55"/>
<polygon fill="#63b8ff" stroke="#63b8ff" points="51.23,-69.01 45.11,-77.66 55.29,-74.72 51.23,-69.01"/>
</g>
<!-- Node3 -->
<g id="node3" class="node">
<title>Node3</title>
<g id="a_node3"><a xlink:href="classhqp_1_1Task0.html" target="_top" xlink:title=" ">
<polygon fill="white" stroke="#666666" points="371.5,-243 303.5,-243 303.5,-224 371.5,-224 371.5,-243"/>
<text text-anchor="middle" x="337.5" y="-231" font-family="Helvetica,sans-Serif" font-size="10.00">hqp::Task0</text>
</a>
</g>
</g>
<!-- Node2&#45;&gt;Node3 -->
<g id="edge2" class="edge">
<title>Node2&#45;&gt;Node3</title>
<path fill="none" stroke="#63b8ff" d="M189.15,-174.36C209.31,-186.77 239.69,-204.21 268,-215.5 279.19,-219.96 291.85,-223.65 303.22,-226.5"/>
<polygon fill="#63b8ff" stroke="#63b8ff" points="190.98,-171.38 180.64,-169.05 187.27,-177.31 190.98,-171.38"/>
</g>
<!-- Node4 -->
<g id="node4" class="node">
<title>Node4</title>
<g id="a_node4"><a xlink:href="classhqp_1_1Task2.html" target="_top" xlink:title=" ">
<polygon fill="white" stroke="#666666" points="371.5,-206 303.5,-206 303.5,-187 371.5,-187 371.5,-206"/>
<text text-anchor="middle" x="337.5" y="-194" font-family="Helvetica,sans-Serif" font-size="10.00">hqp::Task2</text>
</a>
</g>
</g>
<!-- Node2&#45;&gt;Node4 -->
<g id="edge3" class="edge">
<title>Node2&#45;&gt;Node4</title>
<path fill="none" stroke="#63b8ff" d="M219.74,-171.16C247.11,-177.1 279.52,-184.13 303.24,-189.28"/>
<polygon fill="#63b8ff" stroke="#63b8ff" points="220.42,-167.73 209.91,-169.03 218.94,-174.57 220.42,-167.73"/>
</g>
<!-- Node5 -->
<g id="node5" class="node">
<title>Node5</title>
<g id="a_node5"><a xlink:href="classhqp_1_1Task3.html" target="_top" xlink:title=" ">
<polygon fill="white" stroke="#666666" points="371.5,-169 303.5,-169 303.5,-150 371.5,-150 371.5,-169"/>
<text text-anchor="middle" x="337.5" y="-157" font-family="Helvetica,sans-Serif" font-size="10.00">hqp::Task3</text>
</a>
</g>
</g>
<!-- Node2&#45;&gt;Node5 -->
<g id="edge4" class="edge">
<title>Node2&#45;&gt;Node5</title>
<path fill="none" stroke="#63b8ff" d="M236.27,-159.5C259.42,-159.5 284.1,-159.5 303.18,-159.5"/>
<polygon fill="#63b8ff" stroke="#63b8ff" points="236.11,-156 226.11,-159.5 236.11,-163 236.11,-156"/>
</g>
<!-- Node6 -->
<g id="node6" class="node">
<title>Node6</title>
<g id="a_node6"><a xlink:href="classhqp_1_1Task5.html" target="_top" xlink:title=" ">
<polygon fill="white" stroke="#666666" points="371.5,-132 303.5,-132 303.5,-113 371.5,-113 371.5,-132"/>
<text text-anchor="middle" x="337.5" y="-120" font-family="Helvetica,sans-Serif" font-size="10.00">hqp::Task5</text>
</a>
</g>
</g>
<!-- Node2&#45;&gt;Node6 -->
<g id="edge5" class="edge">
<title>Node2&#45;&gt;Node6</title>
<path fill="none" stroke="#63b8ff" d="M219.74,-147.84C247.11,-141.9 279.52,-134.87 303.24,-129.72"/>
<polygon fill="#63b8ff" stroke="#63b8ff" points="218.94,-144.43 209.91,-149.97 220.42,-151.27 218.94,-144.43"/>
</g>
<!-- Node7 -->
<g id="node7" class="node">
<title>Node7</title>
<g id="a_node7"><a xlink:href="classhqp_1_1Task6.html" target="_top" xlink:title=" ">
<polygon fill="white" stroke="#666666" points="371.5,-95 303.5,-95 303.5,-76 371.5,-76 371.5,-95"/>
<text text-anchor="middle" x="337.5" y="-83" font-family="Helvetica,sans-Serif" font-size="10.00">hqp::Task6</text>
</a>
</g>
</g>
<!-- Node2&#45;&gt;Node7 -->
<g id="edge6" class="edge">
<title>Node2&#45;&gt;Node7</title>
<path fill="none" stroke="#63b8ff" d="M222.99,-146.12C226.11,-144.72 229.14,-143.19 232,-141.5 251.77,-129.85 248.26,-116.19 268,-104.5 278.72,-98.15 291.65,-93.85 303.37,-90.97"/>
<polygon fill="#63b8ff" stroke="#63b8ff" points="221.43,-142.97 213.42,-149.89 224,-149.48 221.43,-142.97"/>
</g>
<!-- Node11 -->
<g id="node11" class="node">
<title>Node11</title>
<g id="a_node11"><a xlink:href="classhqp_1_1Task1.html" target="_top" xlink:title=" ">
<polygon fill="white" stroke="#666666" points="407,-41 268,-41 268,0 407,0 407,-41"/>
<text text-anchor="start" x="276" y="-29" font-family="Helvetica,sans-Serif" font-size="10.00">hqp::Task1&lt; double</text>
<text text-anchor="start" x="276" y="-18" font-family="Helvetica,sans-Serif" font-size="10.00"> const &amp;, Eigen::VectorXd</text>
<text text-anchor="middle" x="337.5" y="-7" font-family="Helvetica,sans-Serif" font-size="10.00"> const &amp; &gt;</text>
</a>
</g>
</g>
<!-- Node10&#45;&gt;Node11 -->
<g id="edge10" class="edge">
<title>Node10&#45;&gt;Node11</title>
<path fill="none" stroke="#63b8ff" d="M228.21,-20.5C241.07,-20.5 254.69,-20.5 267.77,-20.5"/>
<polygon fill="#63b8ff" stroke="#63b8ff" points="228.08,-17 218.08,-20.5 228.08,-24 228.08,-17"/>
</g>
</g>
</svg>
