<?xml version="1.0" encoding="UTF-8" standalone="no"?>
<!DOCTYPE svg PUBLIC "-//W3C//DTD SVG 1.1//EN"
 "http://www.w3.org/Graphics/SVG/1.1/DTD/svg11.dtd">
<!-- Generated by graphviz version 2.43.0 (0)
 -->
<!-- Title: hqp::StackOfTasks Pages: 1 -->
<svg width="403pt" height="60pt"
 viewBox="0.00 0.00 403.00 60.00" xmlns="http://www.w3.org/2000/svg" xmlns:xlink="http://www.w3.org/1999/xlink">
<g id="graph0" class="graph" transform="scale(1 1) rotate(0) translate(4 56)">
<title>hqp::StackOfTasks</title>
<!-- Node1 -->
<g id="node1" class="node">
<title>Node1</title>
<g id="a_node1"><a xlink:title=" ">
<polygon fill="#999999" stroke="#666666" points="395,-35.5 289,-35.5 289,-16.5 395,-16.5 395,-35.5"/>
<text text-anchor="middle" x="342" y="-23.5" font-family="Helvetica,sans-Serif" font-size="10.00">hqp::StackOfTasks</text>
</a>
</g>
</g>
<!-- Node2 -->
<g id="node2" class="node">
<title>Node2</title>
<g id="a_node2"><a xlink:href="classhqp_1_1SmartContainer.html" target="_top" xlink:title=" ">
<polygon fill="white" stroke="#666666" points="253,-35.5 167,-35.5 167,-16.5 253,-16.5 253,-35.5"/>
<text text-anchor="middle" x="210" y="-23.5" font-family="Helvetica,sans-Serif" font-size="10.00">TaskContainer</text>
</a>
</g>
</g>
<!-- Node2&#45;&gt;Node1 -->
<g id="edge1" class="edge">
<title>Node2&#45;&gt;Node1</title>
<path fill="none" stroke="#63b8ff" d="M263.48,-26C271.74,-26 280.28,-26 288.54,-26"/>
<polygon fill="#63b8ff" stroke="#63b8ff" points="263.21,-22.5 253.21,-26 263.21,-29.5 263.21,-22.5"/>
</g>
<!-- Node3 -->
<g id="node3" class="node">
<title>Node3</title>
<g id="a_node3"><a xlink:title=" ">
<polygon fill="white" stroke="#666666" points="131,-52 0,-52 0,0 131,0 131,-52"/>
<text text-anchor="start" x="8" y="-40" font-family="Helvetica,sans-Serif" font-size="10.00">Container&lt; PtrWrapper</text>
<text text-anchor="start" x="8" y="-29" font-family="Helvetica,sans-Serif" font-size="10.00">&lt; SmartPtr, T &gt;, std</text>
<text text-anchor="start" x="8" y="-18" font-family="Helvetica,sans-Serif" font-size="10.00">::allocator&lt; PtrWrapper</text>
<text text-anchor="middle" x="65.5" y="-7" font-family="Helvetica,sans-Serif" font-size="10.00">&lt; SmartPtr, T &gt; &gt; &gt;</text>
</a>
</g>
</g>
<!-- Node3&#45;&gt;Node2 -->
<g id="edge2" class="edge">
<title>Node3&#45;&gt;Node2</title>
<path fill="none" stroke="#63b8ff" d="M141.3,-26C150,-26 158.64,-26 166.68,-26"/>
<polygon fill="#63b8ff" stroke="#63b8ff" points="141.08,-22.5 131.08,-26 141.08,-29.5 141.08,-22.5"/>
</g>
</g>
</svg>
