<?xml version="1.0" encoding="UTF-8" standalone="no"?>
<!DOCTYPE svg PUBLIC "-//W3C//DTD SVG 1.1//EN"
 "http://www.w3.org/Graphics/SVG/1.1/DTD/svg11.dtd">
<!-- Generated by graphviz version 2.43.0 (0)
 -->
<!-- Title: hqp::TaskInterface&lt; Args &gt; Pages: 1 -->
<svg width="147pt" height="170pt"
 viewBox="0.00 0.00 147.00 170.00" xmlns="http://www.w3.org/2000/svg" xmlns:xlink="http://www.w3.org/1999/xlink">
<g id="graph0" class="graph" transform="scale(1 1) rotate(0) translate(4 166)">
<title>hqp::TaskInterface&lt; Args &gt;</title>
<!-- Node1 -->
<g id="node1" class="node">
<title>Node1</title>
<g id="a_node1"><a xlink:title=" ">
<polygon fill="#999999" stroke="#666666" points="122.5,-107 16.5,-107 16.5,-77 122.5,-77 122.5,-107"/>
<text text-anchor="start" x="24.5" y="-95" font-family="Helvetica,sans-Serif" font-size="10.00">hqp::TaskInterface</text>
<text text-anchor="middle" x="69.5" y="-84" font-family="Helvetica,sans-Serif" font-size="10.00">&lt; Args &gt;</text>
</a>
</g>
</g>
<!-- Node3 -->
<g id="node3" class="node">
<title>Node3</title>
<g id="a_node3"><a xlink:href="classhqp_1_1Task1.html" target="_top" xlink:title=" ">
<polygon fill="white" stroke="#666666" points="139,-41 0,-41 0,0 139,0 139,-41"/>
<text text-anchor="start" x="8" y="-29" font-family="Helvetica,sans-Serif" font-size="10.00">hqp::Task1&lt; double</text>
<text text-anchor="start" x="8" y="-18" font-family="Helvetica,sans-Serif" font-size="10.00"> const &amp;, Eigen::VectorXd</text>
<text text-anchor="middle" x="69.5" y="-7" font-family="Helvetica,sans-Serif" font-size="10.00"> const &amp; &gt;</text>
</a>
</g>
</g>
<!-- Node1&#45;&gt;Node3 -->
<g id="edge2" class="edge">
<title>Node1&#45;&gt;Node3</title>
<path fill="none" stroke="#63b8ff" d="M69.5,-66.91C69.5,-58.47 69.5,-49.1 69.5,-41.07"/>
<polygon fill="#63b8ff" stroke="#63b8ff" points="66,-66.94 69.5,-76.94 73,-66.94 66,-66.94"/>
</g>
<!-- Node2 -->
<g id="node2" class="node">
<title>Node2</title>
<g id="a_node2"><a xlink:href="classhqp_1_1Task.html" target="_top" xlink:title=" ">
<polygon fill="white" stroke="#666666" points="100.5,-162 38.5,-162 38.5,-143 100.5,-143 100.5,-162"/>
<text text-anchor="middle" x="69.5" y="-150" font-family="Helvetica,sans-Serif" font-size="10.00">hqp::Task</text>
</a>
</g>
</g>
<!-- Node2&#45;&gt;Node1 -->
<g id="edge1" class="edge">
<title>Node2&#45;&gt;Node1</title>
<path fill="none" stroke="#63b8ff" d="M69.5,-132.65C69.5,-124.36 69.5,-114.78 69.5,-107.11"/>
<polygon fill="#63b8ff" stroke="#63b8ff" points="66,-132.87 69.5,-142.87 73,-132.87 66,-132.87"/>
</g>
</g>
</svg>
