<?xml version="1.0" encoding="UTF-8" standalone="no"?>
<!DOCTYPE svg PUBLIC "-//W3C//DTD SVG 1.1//EN"
 "http://www.w3.org/Graphics/SVG/1.1/DTD/svg11.dtd">
<!-- Generated by graphviz version 2.43.0 (0)
 -->
<!-- Title: hqp::SubTasks Pages: 1 -->
<svg width="497pt" height="92pt"
 viewBox="0.00 0.00 497.00 91.50" xmlns="http://www.w3.org/2000/svg" xmlns:xlink="http://www.w3.org/1999/xlink">
<g id="graph0" class="graph" transform="scale(1 1) rotate(0) translate(4 87.5)">
<title>hqp::SubTasks</title>
<!-- Node1 -->
<g id="node1" class="node">
<title>Node1</title>
<g id="a_node1"><a xlink:title=" ">
<polygon fill="#999999" stroke="#666666" points="489,-59.5 403,-59.5 403,-40.5 489,-40.5 489,-59.5"/>
<text text-anchor="middle" x="446" y="-47.5" font-family="Helvetica,sans-Serif" font-size="10.00">hqp::SubTasks</text>
</a>
</g>
</g>
<!-- Node2 -->
<g id="node2" class="node">
<title>Node2</title>
<g id="a_node2"><a xlink:href="classhqp_1_1Task.html" target="_top" xlink:title=" ">
<polygon fill="white" stroke="#666666" points="309,-83.5 247,-83.5 247,-64.5 309,-64.5 309,-83.5"/>
<text text-anchor="middle" x="278" y="-71.5" font-family="Helvetica,sans-Serif" font-size="10.00">hqp::Task</text>
</a>
</g>
</g>
<!-- Node2&#45;&gt;Node1 -->
<g id="edge1" class="edge">
<title>Node2&#45;&gt;Node1</title>
<path fill="none" stroke="#63b8ff" d="M319.09,-68.2C344.48,-64.53 377.24,-59.8 402.99,-56.07"/>
<polygon fill="#63b8ff" stroke="#63b8ff" points="318.46,-64.76 309.06,-69.65 319.46,-71.69 318.46,-64.76"/>
</g>
<!-- Node3 -->
<g id="node3" class="node">
<title>Node3</title>
<g id="a_node3"><a xlink:href="classhqp_1_1SmartContainer.html" target="_top" xlink:title=" ">
<polygon fill="white" stroke="#666666" points="348,-46.5 208,-46.5 208,-5.5 348,-5.5 348,-46.5"/>
<text text-anchor="start" x="216" y="-34.5" font-family="Helvetica,sans-Serif" font-size="10.00">hqp::SmartContainer</text>
<text text-anchor="start" x="216" y="-23.5" font-family="Helvetica,sans-Serif" font-size="10.00">&lt; std::vector, GenericPtr,</text>
<text text-anchor="middle" x="278" y="-12.5" font-family="Helvetica,sans-Serif" font-size="10.00"> std::shared_ptr, Task &gt;</text>
</a>
</g>
</g>
<!-- Node3&#45;&gt;Node1 -->
<g id="edge2" class="edge">
<title>Node3&#45;&gt;Node1</title>
<path fill="none" stroke="#9a32cd" stroke-dasharray="5,2" d="M358.47,-37.49C373.8,-39.71 389.29,-41.95 402.84,-43.9"/>
<polygon fill="#9a32cd" stroke="#9a32cd" points="358.84,-34.01 348.44,-36.04 357.83,-40.93 358.84,-34.01"/>
<text text-anchor="middle" x="375.5" y="-43" font-family="Helvetica,sans-Serif" font-size="10.00"> sot</text>
</g>
<!-- Node4 -->
<g id="node4" class="node">
<title>Node4</title>
<g id="a_node4"><a xlink:title=" ">
<polygon fill="white" stroke="#666666" points="171,-52 0,-52 0,0 171,0 171,-52"/>
<text text-anchor="start" x="8" y="-40" font-family="Helvetica,sans-Serif" font-size="10.00">std::vector &lt; GenericPtr</text>
<text text-anchor="start" x="8" y="-29" font-family="Helvetica,sans-Serif" font-size="10.00"> &lt; std::shared_ptr , Task</text>
<text text-anchor="start" x="8" y="-18" font-family="Helvetica,sans-Serif" font-size="10.00"> &#160;&gt;, std::allocator&lt; GenericPtr</text>
<text text-anchor="middle" x="85.5" y="-7" font-family="Helvetica,sans-Serif" font-size="10.00"> &lt; std::shared_ptr , Task &#160;&gt; &gt; &gt;</text>
</a>
</g>
</g>
<!-- Node4&#45;&gt;Node3 -->
<g id="edge3" class="edge">
<title>Node4&#45;&gt;Node3</title>
<path fill="none" stroke="#63b8ff" d="M181.23,-26C190.16,-26 199.09,-26 207.72,-26"/>
<polygon fill="#63b8ff" stroke="#63b8ff" points="181.17,-22.5 171.17,-26 181.17,-29.5 181.17,-22.5"/>
</g>
</g>
</svg>
