<?xml version="1.0" encoding="UTF-8" standalone="no"?>
<!DOCTYPE svg PUBLIC "-//W3C//DTD SVG 1.1//EN"
 "http://www.w3.org/Graphics/SVG/1.1/DTD/svg11.dtd">
<!-- Generated by graphviz version 2.43.0 (0)
 -->
<!-- Title: hqp::HierarchicalQP::get_primal Pages: 1 -->
<svg width="717pt" height="162pt"
 viewBox="0.00 0.00 717.00 162.00" xmlns="http://www.w3.org/2000/svg" xmlns:xlink="http://www.w3.org/1999/xlink">
<g id="graph0" class="graph" transform="scale(1 1) rotate(0) translate(4 158)">
<title>hqp::HierarchicalQP::get_primal</title>
<!-- Node1 -->
<g id="node1" class="node">
<title>Node1</title>
<g id="a_node1"><a xlink:title="Computes and retrieves the primal solution.">
<polygon fill="#999999" stroke="#666666" points="113,-132 0,-132 0,-102 113,-102 113,-132"/>
<text text-anchor="start" x="8" y="-120" font-family="Helvetica,sans-Serif" font-size="10.00">hqp::HierarchicalQP</text>
<text text-anchor="middle" x="56.5" y="-109" font-family="Helvetica,sans-Serif" font-size="10.00">::get_primal</text>
</a>
</g>
</g>
<!-- Node2 -->
<g id="node2" class="node">
<title>Node2</title>
<g id="a_node2"><a xlink:href="classhqp_1_1HierarchicalQP.html#adac78a9cc96e9d4f311b9ef72acd7ebd" target="_top" xlink:title="Solves the overall HQP by combining tasks.">
<polygon fill="white" stroke="#666666" points="262,-132 149,-132 149,-102 262,-102 262,-132"/>
<text text-anchor="start" x="157" y="-120" font-family="Helvetica,sans-Serif" font-size="10.00">hqp::HierarchicalQP</text>
<text text-anchor="middle" x="205.5" y="-109" font-family="Helvetica,sans-Serif" font-size="10.00">::solve</text>
</a>
</g>
</g>
<!-- Node1&#45;&gt;Node2 -->
<g id="edge1" class="edge">
<title>Node1&#45;&gt;Node2</title>
<path fill="none" stroke="#63b8ff" d="M113.07,-117C121.49,-117 130.24,-117 138.84,-117"/>
<polygon fill="#63b8ff" stroke="#63b8ff" points="138.85,-120.5 148.85,-117 138.85,-113.5 138.85,-120.5"/>
</g>
<!-- Node3 -->
<g id="node3" class="node">
<title>Node3</title>
<g id="a_node3"><a xlink:href="classhqp_1_1HierarchicalQP.html#add4448ad1c21585e607457463016a027" target="_top" xlink:title="Handles equality constraint resolution.">
<polygon fill="white" stroke="#666666" points="560,-154 447,-154 447,-124 560,-124 560,-154"/>
<text text-anchor="start" x="455" y="-142" font-family="Helvetica,sans-Serif" font-size="10.00">hqp::HierarchicalQP</text>
<text text-anchor="middle" x="503.5" y="-131" font-family="Helvetica,sans-Serif" font-size="10.00">::equality_hqp</text>
</a>
</g>
</g>
<!-- Node2&#45;&gt;Node3 -->
<g id="edge2" class="edge">
<title>Node2&#45;&gt;Node3</title>
<path fill="none" stroke="#63b8ff" d="M262.18,-121.14C311.71,-124.82 384.22,-130.21 436.62,-134.1"/>
<polygon fill="#63b8ff" stroke="#63b8ff" points="436.59,-137.61 446.82,-134.86 437.11,-130.63 436.59,-137.61"/>
</g>
<!-- Node6 -->
<g id="node6" class="node">
<title>Node6</title>
<g id="a_node6"><a xlink:href="classhqp_1_1HierarchicalQP.html#aaf6df9e4aa247e25e1ff253bd6501028" target="_top" xlink:title="Handles inequality constrained tasks.">
<polygon fill="white" stroke="#666666" points="411,-111 298,-111 298,-81 411,-81 411,-111"/>
<text text-anchor="start" x="306" y="-99" font-family="Helvetica,sans-Serif" font-size="10.00">hqp::HierarchicalQP</text>
<text text-anchor="middle" x="354.5" y="-88" font-family="Helvetica,sans-Serif" font-size="10.00">::inequality_hqp</text>
</a>
</g>
</g>
<!-- Node2&#45;&gt;Node6 -->
<g id="edge5" class="edge">
<title>Node2&#45;&gt;Node6</title>
<path fill="none" stroke="#63b8ff" d="M262.07,-109.06C270.49,-107.86 279.24,-106.61 287.84,-105.38"/>
<polygon fill="#63b8ff" stroke="#63b8ff" points="288.44,-108.83 297.85,-103.95 287.45,-101.9 288.44,-108.83"/>
</g>
<!-- Node4 -->
<g id="node4" class="node">
<title>Node4</title>
<g id="a_node4"><a xlink:href="namespacehqp.html#ab85e1340e7fee0a8d13730c50a970ceb" target="_top" xlink:title=" ">
<polygon fill="white" stroke="#666666" points="682,-67.5 623,-67.5 623,-48.5 682,-48.5 682,-67.5"/>
<text text-anchor="middle" x="652.5" y="-55.5" font-family="Helvetica,sans-Serif" font-size="10.00">hqp::find</text>
</a>
</g>
</g>
<!-- Node3&#45;&gt;Node4 -->
<g id="edge3" class="edge">
<title>Node3&#45;&gt;Node4</title>
<path fill="none" stroke="#63b8ff" d="M531.81,-123.95C558.43,-109.29 598.64,-87.12 624.99,-72.61"/>
<polygon fill="#63b8ff" stroke="#63b8ff" points="626.95,-75.52 634.02,-67.63 623.57,-69.39 626.95,-75.52"/>
</g>
<!-- Node5 -->
<g id="node5" class="node">
<title>Node5</title>
<g id="a_node5"><a xlink:href="classhqp_1_1HierarchicalQP.html#a69f7398b0f10bcc38452b0acf12f9997" target="_top" xlink:title="Retrieves task data.">
<polygon fill="white" stroke="#666666" points="709,-135 596,-135 596,-105 709,-105 709,-135"/>
<text text-anchor="start" x="604" y="-123" font-family="Helvetica,sans-Serif" font-size="10.00">hqp::HierarchicalQP</text>
<text text-anchor="middle" x="652.5" y="-112" font-family="Helvetica,sans-Serif" font-size="10.00">::get_task</text>
</a>
</g>
</g>
<!-- Node3&#45;&gt;Node5 -->
<g id="edge4" class="edge">
<title>Node3&#45;&gt;Node5</title>
<path fill="none" stroke="#63b8ff" d="M560.07,-131.82C568.49,-130.73 577.24,-129.6 585.84,-128.49"/>
<polygon fill="#63b8ff" stroke="#63b8ff" points="586.38,-131.95 595.85,-127.19 585.48,-125 586.38,-131.95"/>
</g>
<!-- Node6&#45;&gt;Node3 -->
<g id="edge8" class="edge">
<title>Node6&#45;&gt;Node3</title>
<path fill="none" stroke="#63b8ff" d="M406.91,-111.04C417.93,-114.26 429.67,-117.7 441.02,-121.02"/>
<polygon fill="#63b8ff" stroke="#63b8ff" points="440.29,-124.45 450.87,-123.9 442.25,-117.73 440.29,-124.45"/>
</g>
<!-- Node6&#45;&gt;Node4 -->
<g id="edge9" class="edge">
<title>Node6&#45;&gt;Node4</title>
<path fill="none" stroke="#63b8ff" d="M411.18,-88.85C470.09,-81.29 561.49,-69.56 612.93,-62.95"/>
<polygon fill="#63b8ff" stroke="#63b8ff" points="613.49,-66.41 622.97,-61.66 612.6,-59.46 613.49,-66.41"/>
</g>
<!-- Node6&#45;&gt;Node5 -->
<g id="edge10" class="edge">
<title>Node6&#45;&gt;Node5</title>
<path fill="none" stroke="#63b8ff" d="M411.18,-100.51C460.71,-104.53 533.22,-110.41 585.62,-114.66"/>
<polygon fill="#63b8ff" stroke="#63b8ff" points="585.57,-118.17 595.82,-115.49 586.14,-111.19 585.57,-118.17"/>
</g>
<!-- Node7 -->
<g id="node7" class="node">
<title>Node7</title>
<g id="a_node7"><a xlink:href="classhqp_1_1HierarchicalQP.html#a292d98f5d69d3666a895d6a95e5dc6b9" target="_top" xlink:title="Updates dual variables.">
<polygon fill="white" stroke="#666666" points="560,-30 447,-30 447,0 560,0 560,-30"/>
<text text-anchor="start" x="455" y="-18" font-family="Helvetica,sans-Serif" font-size="10.00">hqp::HierarchicalQP</text>
<text text-anchor="middle" x="503.5" y="-7" font-family="Helvetica,sans-Serif" font-size="10.00">::dual_update</text>
</a>
</g>
</g>
<!-- Node6&#45;&gt;Node7 -->
<g id="edge6" class="edge">
<title>Node6&#45;&gt;Node7</title>
<path fill="none" stroke="#63b8ff" d="M381.39,-80.96C399.64,-70.44 424.7,-56.16 447,-44 452.57,-40.96 458.49,-37.8 464.31,-34.73"/>
<polygon fill="#63b8ff" stroke="#63b8ff" points="466.08,-37.75 473.31,-30.01 462.82,-31.56 466.08,-37.75"/>
</g>
<!-- Node7&#45;&gt;Node4 -->
<g id="edge7" class="edge">
<title>Node7&#45;&gt;Node4</title>
<path fill="none" stroke="#63b8ff" d="M555.91,-30.04C574.6,-35.51 595.39,-41.59 612.79,-46.68"/>
<polygon fill="#63b8ff" stroke="#63b8ff" points="612.03,-50.1 622.61,-49.55 613.99,-43.38 612.03,-50.1"/>
</g>
</g>
</svg>
