<?xml version="1.0" encoding="UTF-8" standalone="no"?>
<!DOCTYPE svg PUBLIC "-//W3C//DTD SVG 1.1//EN"
 "http://www.w3.org/Graphics/SVG/1.1/DTD/svg11.dtd">
<!-- Generated by graphviz version 2.43.0 (0)
 -->
<!-- Title: hqp::HierarchicalQP::solve Pages: 1 -->
<svg width="568pt" height="231pt"
 viewBox="0.00 0.00 568.00 231.47" xmlns="http://www.w3.org/2000/svg" xmlns:xlink="http://www.w3.org/1999/xlink">
<g id="graph0" class="graph" transform="scale(1 1) rotate(0) translate(4 227.47)">
<title>hqp::HierarchicalQP::solve</title>
<!-- Node1 -->
<g id="node1" class="node">
<title>Node1</title>
<g id="a_node1"><a xlink:title="Solves the overall HQP by combining tasks.">
<polygon fill="#999999" stroke="#666666" points="113,-137.47 0,-137.47 0,-107.47 113,-107.47 113,-137.47"/>
<text text-anchor="start" x="8" y="-125.47" font-family="Helvetica,sans-Serif" font-size="10.00">hqp::HierarchicalQP</text>
<text text-anchor="middle" x="56.5" y="-114.47" font-family="Helvetica,sans-Serif" font-size="10.00">::solve</text>
</a>
</g>
</g>
<!-- Node2 -->
<g id="node2" class="node">
<title>Node2</title>
<g id="a_node2"><a xlink:href="classhqp_1_1HierarchicalQP.html#add4448ad1c21585e607457463016a027" target="_top" xlink:title="Handles equality constraint resolution.">
<polygon fill="white" stroke="#666666" points="411,-51.47 298,-51.47 298,-21.47 411,-21.47 411,-51.47"/>
<text text-anchor="start" x="306" y="-39.47" font-family="Helvetica,sans-Serif" font-size="10.00">hqp::HierarchicalQP</text>
<text text-anchor="middle" x="354.5" y="-28.47" font-family="Helvetica,sans-Serif" font-size="10.00">::equality_hqp</text>
</a>
</g>
</g>
<!-- Node1&#45;&gt;Node2 -->
<g id="edge1" class="edge">
<title>Node1&#45;&gt;Node2</title>
<path fill="none" stroke="#63b8ff" d="M72.45,-107.45C89.39,-91.49 118.62,-66.98 149,-55.47 193.26,-38.69 246.61,-34.2 287.72,-33.77"/>
<polygon fill="#63b8ff" stroke="#63b8ff" points="287.9,-37.27 297.89,-33.74 287.88,-30.27 287.9,-37.27"/>
</g>
<!-- Node3 -->
<g id="node3" class="node">
<title>Node3</title>
<g id="a_node3"><a xlink:href="namespacehqp.html#ab85e1340e7fee0a8d13730c50a970ceb" target="_top" xlink:title=" ">
<polygon fill="white" stroke="#666666" points="533,-131.97 474,-131.97 474,-112.97 533,-112.97 533,-131.97"/>
<text text-anchor="middle" x="503.5" y="-119.97" font-family="Helvetica,sans-Serif" font-size="10.00">hqp::find</text>
</a>
</g>
</g>
<!-- Node1&#45;&gt;Node3 -->
<g id="edge4" class="edge">
<title>Node1&#45;&gt;Node3</title>
<path fill="none" stroke="#63b8ff" d="M113.11,-132.94C182.92,-144.56 306.22,-159.98 411,-146.47 428.67,-144.19 447.8,-139.53 463.97,-134.92"/>
<polygon fill="#63b8ff" stroke="#63b8ff" points="465.02,-138.26 473.62,-132.08 463.04,-131.55 465.02,-138.26"/>
</g>
<!-- Node5 -->
<g id="node5" class="node">
<title>Node5</title>
<g id="a_node5"><a xlink:href="classhqp_1_1HierarchicalQP.html#aaf6df9e4aa247e25e1ff253bd6501028" target="_top" xlink:title="Handles inequality constrained tasks.">
<polygon fill="white" stroke="#666666" points="262,-94.47 149,-94.47 149,-64.47 262,-64.47 262,-94.47"/>
<text text-anchor="start" x="157" y="-82.47" font-family="Helvetica,sans-Serif" font-size="10.00">hqp::HierarchicalQP</text>
<text text-anchor="middle" x="205.5" y="-71.47" font-family="Helvetica,sans-Serif" font-size="10.00">::inequality_hqp</text>
</a>
</g>
</g>
<!-- Node1&#45;&gt;Node5 -->
<g id="edge5" class="edge">
<title>Node1&#45;&gt;Node5</title>
<path fill="none" stroke="#63b8ff" d="M108.91,-107.43C119.93,-104.21 131.67,-100.77 143.02,-97.45"/>
<polygon fill="#63b8ff" stroke="#63b8ff" points="144.25,-100.74 152.87,-94.57 142.29,-94.02 144.25,-100.74"/>
</g>
<!-- Node7 -->
<g id="node7" class="node">
<title>Node7</title>
<g id="a_node7"><a xlink:href="classhqp_1_1HierarchicalQP.html#af25299ca77e16f5f9cb02cad264224a9" target="_top" xlink:title="Outputs the active set details to the console.">
<polygon fill="white" stroke="#666666" points="262,-223.47 149,-223.47 149,-193.47 262,-193.47 262,-223.47"/>
<text text-anchor="start" x="157" y="-211.47" font-family="Helvetica,sans-Serif" font-size="10.00">hqp::HierarchicalQP</text>
<text text-anchor="middle" x="205.5" y="-200.47" font-family="Helvetica,sans-Serif" font-size="10.00">::print_active_set</text>
</a>
</g>
</g>
<!-- Node1&#45;&gt;Node7 -->
<g id="edge11" class="edge">
<title>Node1&#45;&gt;Node7</title>
<path fill="none" stroke="#63b8ff" d="M80.52,-137.48C98.85,-149.27 125.28,-165.91 149,-179.47 154.26,-182.47 159.86,-185.55 165.4,-188.51"/>
<polygon fill="#63b8ff" stroke="#63b8ff" points="164.13,-191.8 174.61,-193.37 167.4,-185.61 164.13,-191.8"/>
</g>
<!-- Node2&#45;&gt;Node3 -->
<g id="edge2" class="edge">
<title>Node2&#45;&gt;Node3</title>
<path fill="none" stroke="#63b8ff" d="M385.39,-51.56C393.75,-55.92 402.79,-60.77 411,-65.47 434.63,-78.97 460.94,-95.53 479.26,-107.31"/>
<polygon fill="#63b8ff" stroke="#63b8ff" points="477.51,-110.35 487.81,-112.84 481.31,-104.47 477.51,-110.35"/>
</g>
<!-- Node4 -->
<g id="node4" class="node">
<title>Node4</title>
<g id="a_node4"><a xlink:href="classhqp_1_1HierarchicalQP.html#a69f7398b0f10bcc38452b0acf12f9997" target="_top" xlink:title="Retrieves task data.">
<polygon fill="white" stroke="#666666" points="560,-30.47 447,-30.47 447,-0.47 560,-0.47 560,-30.47"/>
<text text-anchor="start" x="455" y="-18.47" font-family="Helvetica,sans-Serif" font-size="10.00">hqp::HierarchicalQP</text>
<text text-anchor="middle" x="503.5" y="-7.47" font-family="Helvetica,sans-Serif" font-size="10.00">::get_task</text>
</a>
</g>
</g>
<!-- Node2&#45;&gt;Node4 -->
<g id="edge3" class="edge">
<title>Node2&#45;&gt;Node4</title>
<path fill="none" stroke="#63b8ff" d="M411.07,-28.53C419.49,-27.33 428.24,-26.08 436.84,-24.85"/>
<polygon fill="#63b8ff" stroke="#63b8ff" points="437.44,-28.3 446.85,-23.42 436.45,-21.37 437.44,-28.3"/>
</g>
<!-- Node5&#45;&gt;Node2 -->
<g id="edge8" class="edge">
<title>Node5&#45;&gt;Node2</title>
<path fill="none" stroke="#63b8ff" d="M257.91,-64.43C268.93,-61.21 280.67,-57.77 292.02,-54.45"/>
<polygon fill="#63b8ff" stroke="#63b8ff" points="293.25,-57.74 301.87,-51.57 291.29,-51.02 293.25,-57.74"/>
</g>
<!-- Node5&#45;&gt;Node3 -->
<g id="edge9" class="edge">
<title>Node5&#45;&gt;Node3</title>
<path fill="none" stroke="#63b8ff" d="M262.38,-82.18C303.67,-84.79 361.14,-89.67 411,-98.47 428.68,-101.58 447.94,-106.42 464.22,-110.93"/>
<polygon fill="#63b8ff" stroke="#63b8ff" points="463.34,-114.32 473.92,-113.68 465.25,-107.58 463.34,-114.32"/>
</g>
<!-- Node5&#45;&gt;Node4 -->
<g id="edge10" class="edge">
<title>Node5&#45;&gt;Node4</title>
<path fill="none" stroke="#63b8ff" d="M220.96,-64.21C237.68,-47.78 266.94,-22.62 298,-12.47 342.65,2.13 395.76,0.84 436.67,-3.81"/>
<polygon fill="#63b8ff" stroke="#63b8ff" points="436.44,-7.31 446.79,-5.06 437.29,-0.37 436.44,-7.31"/>
</g>
<!-- Node6 -->
<g id="node6" class="node">
<title>Node6</title>
<g id="a_node6"><a xlink:href="classhqp_1_1HierarchicalQP.html#a292d98f5d69d3666a895d6a95e5dc6b9" target="_top" xlink:title="Updates dual variables.">
<polygon fill="white" stroke="#666666" points="411,-137.47 298,-137.47 298,-107.47 411,-107.47 411,-137.47"/>
<text text-anchor="start" x="306" y="-125.47" font-family="Helvetica,sans-Serif" font-size="10.00">hqp::HierarchicalQP</text>
<text text-anchor="middle" x="354.5" y="-114.47" font-family="Helvetica,sans-Serif" font-size="10.00">::dual_update</text>
</a>
</g>
</g>
<!-- Node5&#45;&gt;Node6 -->
<g id="edge6" class="edge">
<title>Node5&#45;&gt;Node6</title>
<path fill="none" stroke="#63b8ff" d="M257.91,-94.51C268.93,-97.73 280.67,-101.16 292.02,-104.48"/>
<polygon fill="#63b8ff" stroke="#63b8ff" points="291.29,-107.91 301.87,-107.36 293.25,-101.2 291.29,-107.91"/>
</g>
<!-- Node6&#45;&gt;Node3 -->
<g id="edge7" class="edge">
<title>Node6&#45;&gt;Node3</title>
<path fill="none" stroke="#63b8ff" d="M411.07,-122.47C428.55,-122.47 447.46,-122.47 463.53,-122.47"/>
<polygon fill="#63b8ff" stroke="#63b8ff" points="463.63,-125.97 473.63,-122.47 463.63,-118.97 463.63,-125.97"/>
</g>
<!-- Node7&#45;&gt;Node3 -->
<g id="edge12" class="edge">
<title>Node7&#45;&gt;Node3</title>
<path fill="none" stroke="#63b8ff" d="M262.25,-206.78C304.24,-204.04 362.64,-197.06 411,-179.47 437.51,-169.82 464.52,-151.77 482.25,-138.56"/>
<polygon fill="#63b8ff" stroke="#63b8ff" points="484.81,-141.02 490.63,-132.16 480.56,-135.45 484.81,-141.02"/>
</g>
</g>
</svg>
