<?xml version="1.0" encoding="UTF-8" standalone="no"?>
<!DOCTYPE svg PUBLIC "-//W3C//DTD SVG 1.1//EN"
 "http://www.w3.org/Graphics/SVG/1.1/DTD/svg11.dtd">
<!-- Generated by graphviz version 2.43.0 (0)
 -->
<!-- Title: hqp::HierarchicalQP::get_primal Pages: 1 -->
<svg width="717pt" height="163pt"
 viewBox="0.00 0.00 717.00 162.67" xmlns="http://www.w3.org/2000/svg" xmlns:xlink="http://www.w3.org/1999/xlink">
<g id="graph0" class="graph" transform="scale(1 1) rotate(0) translate(4 158.67)">
<title>hqp::HierarchicalQP::get_primal</title>
<!-- Node1 -->
<g id="node1" class="node">
<title>Node1</title>
<g id="a_node1"><a xlink:title="Computes and retrieves the primal solution.">
<polygon fill="#999999" stroke="#666666" points="113,-94.47 0,-94.47 0,-64.47 113,-64.47 113,-94.47"/>
<text text-anchor="start" x="8" y="-82.47" font-family="Helvetica,sans-Serif" font-size="10.00">hqp::HierarchicalQP</text>
<text text-anchor="middle" x="56.5" y="-71.47" font-family="Helvetica,sans-Serif" font-size="10.00">::get_primal</text>
</a>
</g>
</g>
<!-- Node2 -->
<g id="node2" class="node">
<title>Node2</title>
<g id="a_node2"><a xlink:href="classhqp_1_1HierarchicalQP.html#adac78a9cc96e9d4f311b9ef72acd7ebd" target="_top" xlink:title="Solves the overall HQP by combining tasks.">
<polygon fill="white" stroke="#666666" points="262,-94.47 149,-94.47 149,-64.47 262,-64.47 262,-94.47"/>
<text text-anchor="start" x="157" y="-82.47" font-family="Helvetica,sans-Serif" font-size="10.00">hqp::HierarchicalQP</text>
<text text-anchor="middle" x="205.5" y="-71.47" font-family="Helvetica,sans-Serif" font-size="10.00">::solve</text>
</a>
</g>
</g>
<!-- Node1&#45;&gt;Node2 -->
<g id="edge1" class="edge">
<title>Node1&#45;&gt;Node2</title>
<path fill="none" stroke="#63b8ff" d="M113.07,-79.47C121.49,-79.47 130.24,-79.47 138.84,-79.47"/>
<polygon fill="#63b8ff" stroke="#63b8ff" points="138.85,-82.97 148.85,-79.47 138.85,-75.97 138.85,-82.97"/>
</g>
<!-- Node3 -->
<g id="node3" class="node">
<title>Node3</title>
<g id="a_node3"><a xlink:href="classhqp_1_1HierarchicalQP.html#add4448ad1c21585e607457463016a027" target="_top" xlink:title="Handles equality constraint resolution.">
<polygon fill="white" stroke="#666666" points="560,-51.47 447,-51.47 447,-21.47 560,-21.47 560,-51.47"/>
<text text-anchor="start" x="455" y="-39.47" font-family="Helvetica,sans-Serif" font-size="10.00">hqp::HierarchicalQP</text>
<text text-anchor="middle" x="503.5" y="-28.47" font-family="Helvetica,sans-Serif" font-size="10.00">::equality_hqp</text>
</a>
</g>
</g>
<!-- Node2&#45;&gt;Node3 -->
<g id="edge2" class="edge">
<title>Node2&#45;&gt;Node3</title>
<path fill="none" stroke="#63b8ff" d="M257.95,-64.39C270.93,-61.03 284.9,-57.78 298,-55.47 343.87,-47.38 396.17,-42.6 436.4,-39.85"/>
<polygon fill="#63b8ff" stroke="#63b8ff" points="436.87,-43.33 446.62,-39.18 436.41,-36.34 436.87,-43.33"/>
</g>
<!-- Node4 -->
<g id="node4" class="node">
<title>Node4</title>
<g id="a_node4"><a xlink:href="namespacehqp.html#ab85e1340e7fee0a8d13730c50a970ceb" target="_top" xlink:title=" ">
<polygon fill="white" stroke="#666666" points="682,-109.97 623,-109.97 623,-90.97 682,-90.97 682,-109.97"/>
<text text-anchor="middle" x="652.5" y="-97.97" font-family="Helvetica,sans-Serif" font-size="10.00">hqp::find</text>
</a>
</g>
</g>
<!-- Node2&#45;&gt;Node4 -->
<g id="edge5" class="edge">
<title>Node2&#45;&gt;Node4</title>
<path fill="none" stroke="#63b8ff" d="M238.39,-94.49C300.61,-121.81 442.4,-174.36 560,-146.47 585.19,-140.49 611.33,-126.43 629.19,-115.42"/>
<polygon fill="#63b8ff" stroke="#63b8ff" points="631.16,-118.31 637.72,-109.99 627.4,-112.4 631.16,-118.31"/>
</g>
<!-- Node6 -->
<g id="node6" class="node">
<title>Node6</title>
<g id="a_node6"><a xlink:href="classhqp_1_1HierarchicalQP.html#aaf6df9e4aa247e25e1ff253bd6501028" target="_top" xlink:title="Handles inequality constrained tasks.">
<polygon fill="white" stroke="#666666" points="411,-94.47 298,-94.47 298,-64.47 411,-64.47 411,-94.47"/>
<text text-anchor="start" x="306" y="-82.47" font-family="Helvetica,sans-Serif" font-size="10.00">hqp::HierarchicalQP</text>
<text text-anchor="middle" x="354.5" y="-71.47" font-family="Helvetica,sans-Serif" font-size="10.00">::inequality_hqp</text>
</a>
</g>
</g>
<!-- Node2&#45;&gt;Node6 -->
<g id="edge6" class="edge">
<title>Node2&#45;&gt;Node6</title>
<path fill="none" stroke="#63b8ff" d="M262.07,-79.47C270.49,-79.47 279.24,-79.47 287.84,-79.47"/>
<polygon fill="#63b8ff" stroke="#63b8ff" points="287.85,-82.97 297.85,-79.47 287.85,-75.97 287.85,-82.97"/>
</g>
<!-- Node3&#45;&gt;Node4 -->
<g id="edge3" class="edge">
<title>Node3&#45;&gt;Node4</title>
<path fill="none" stroke="#63b8ff" d="M538.96,-51.47C563.58,-62.19 596.42,-76.49 620.27,-86.87"/>
<polygon fill="#63b8ff" stroke="#63b8ff" points="619,-90.13 629.57,-90.92 621.79,-83.72 619,-90.13"/>
</g>
<!-- Node5 -->
<g id="node5" class="node">
<title>Node5</title>
<g id="a_node5"><a xlink:href="classhqp_1_1HierarchicalQP.html#a7f754bcfa36f0f97fd9063ad079940e9" target="_top" xlink:title="Retrieves task data.">
<polygon fill="white" stroke="#666666" points="709,-30.47 596,-30.47 596,-0.47 709,-0.47 709,-30.47"/>
<text text-anchor="start" x="604" y="-18.47" font-family="Helvetica,sans-Serif" font-size="10.00">hqp::HierarchicalQP</text>
<text text-anchor="middle" x="652.5" y="-7.47" font-family="Helvetica,sans-Serif" font-size="10.00">::get_task</text>
</a>
</g>
</g>
<!-- Node3&#45;&gt;Node5 -->
<g id="edge4" class="edge">
<title>Node3&#45;&gt;Node5</title>
<path fill="none" stroke="#63b8ff" d="M560.07,-28.53C568.49,-27.33 577.24,-26.08 585.84,-24.85"/>
<polygon fill="#63b8ff" stroke="#63b8ff" points="586.44,-28.3 595.85,-23.42 585.45,-21.37 586.44,-28.3"/>
</g>
<!-- Node6&#45;&gt;Node3 -->
<g id="edge9" class="edge">
<title>Node6&#45;&gt;Node3</title>
<path fill="none" stroke="#63b8ff" d="M406.91,-64.43C417.93,-61.21 429.67,-57.77 441.02,-54.45"/>
<polygon fill="#63b8ff" stroke="#63b8ff" points="442.25,-57.74 450.87,-51.57 440.29,-51.02 442.25,-57.74"/>
</g>
<!-- Node6&#45;&gt;Node4 -->
<g id="edge10" class="edge">
<title>Node6&#45;&gt;Node4</title>
<path fill="none" stroke="#63b8ff" d="M411.18,-83.42C470.09,-87.6 561.49,-94.08 612.93,-97.73"/>
<polygon fill="#63b8ff" stroke="#63b8ff" points="612.74,-101.23 622.97,-98.44 613.24,-94.24 612.74,-101.23"/>
</g>
<!-- Node6&#45;&gt;Node5 -->
<g id="edge11" class="edge">
<title>Node6&#45;&gt;Node5</title>
<path fill="none" stroke="#63b8ff" d="M369.96,-64.21C386.68,-47.78 415.94,-22.62 447,-12.47 491.65,2.13 544.76,0.84 585.67,-3.81"/>
<polygon fill="#63b8ff" stroke="#63b8ff" points="585.44,-7.31 595.79,-5.06 586.29,-0.37 585.44,-7.31"/>
</g>
<!-- Node7 -->
<g id="node7" class="node">
<title>Node7</title>
<g id="a_node7"><a xlink:href="classhqp_1_1HierarchicalQP.html#a292d98f5d69d3666a895d6a95e5dc6b9" target="_top" xlink:title="Updates dual variables.">
<polygon fill="white" stroke="#666666" points="560,-137.47 447,-137.47 447,-107.47 560,-107.47 560,-137.47"/>
<text text-anchor="start" x="455" y="-125.47" font-family="Helvetica,sans-Serif" font-size="10.00">hqp::HierarchicalQP</text>
<text text-anchor="middle" x="503.5" y="-114.47" font-family="Helvetica,sans-Serif" font-size="10.00">::dual_update</text>
</a>
</g>
</g>
<!-- Node6&#45;&gt;Node7 -->
<g id="edge7" class="edge">
<title>Node6&#45;&gt;Node7</title>
<path fill="none" stroke="#63b8ff" d="M406.91,-94.51C417.93,-97.73 429.67,-101.16 441.02,-104.48"/>
<polygon fill="#63b8ff" stroke="#63b8ff" points="440.29,-107.91 450.87,-107.36 442.25,-101.2 440.29,-107.91"/>
</g>
<!-- Node7&#45;&gt;Node4 -->
<g id="edge8" class="edge">
<title>Node7&#45;&gt;Node4</title>
<path fill="none" stroke="#63b8ff" d="M560.07,-114.15C577.55,-111.53 596.46,-108.7 612.53,-106.3"/>
<polygon fill="#63b8ff" stroke="#63b8ff" points="613.26,-109.73 622.63,-104.79 612.22,-102.81 613.26,-109.73"/>
</g>
</g>
</svg>
