<?xml version="1.0" encoding="UTF-8" standalone="no"?>
<!DOCTYPE svg PUBLIC "-//W3C//DTD SVG 1.1//EN"
 "http://www.w3.org/Graphics/SVG/1.1/DTD/svg11.dtd">
<!-- Generated by graphviz version 2.43.0 (0)
 -->
<!-- Title: hqp::HierarchicalQP::get_task Pages: 1 -->
<svg width="794pt" height="81pt"
 viewBox="0.00 0.00 794.00 81.00" xmlns="http://www.w3.org/2000/svg" xmlns:xlink="http://www.w3.org/1999/xlink">
<g id="graph0" class="graph" transform="scale(1 1) rotate(0) translate(4 77)">
<title>hqp::HierarchicalQP::get_task</title>
<!-- Node1 -->
<g id="node1" class="node">
<title>Node1</title>
<g id="a_node1"><a xlink:title="Retrieves task data.">
<polygon fill="#999999" stroke="#666666" points="786,-51 673,-51 673,-21 786,-21 786,-51"/>
<text text-anchor="start" x="681" y="-39" font-family="Helvetica,sans-Serif" font-size="10.00">hqp::HierarchicalQP</text>
<text text-anchor="middle" x="729.5" y="-28" font-family="Helvetica,sans-Serif" font-size="10.00">::get_task</text>
</a>
</g>
</g>
<!-- Node2 -->
<g id="node2" class="node">
<title>Node2</title>
<g id="a_node2"><a xlink:href="classhqp_1_1HierarchicalQP.html#add4448ad1c21585e607457463016a027" target="_top" xlink:title="Handles equality constraint resolution.">
<polygon fill="white" stroke="#666666" points="637,-30 524,-30 524,0 637,0 637,-30"/>
<text text-anchor="start" x="532" y="-18" font-family="Helvetica,sans-Serif" font-size="10.00">hqp::HierarchicalQP</text>
<text text-anchor="middle" x="580.5" y="-7" font-family="Helvetica,sans-Serif" font-size="10.00">::equality_hqp</text>
</a>
</g>
</g>
<!-- Node1&#45;&gt;Node2 -->
<g id="edge1" class="edge">
<title>Node1&#45;&gt;Node2</title>
<path fill="none" stroke="#63b8ff" d="M662.92,-26.63C654.32,-25.4 645.57,-24.15 637.15,-22.95"/>
<polygon fill="#63b8ff" stroke="#63b8ff" points="662.53,-30.11 672.93,-28.06 663.52,-23.18 662.53,-30.11"/>
</g>
<!-- Node3 -->
<g id="node3" class="node">
<title>Node3</title>
<g id="a_node3"><a xlink:href="classhqp_1_1HierarchicalQP.html#aaf6df9e4aa247e25e1ff253bd6501028" target="_top" xlink:title="Handles inequality constrained tasks.">
<polygon fill="white" stroke="#666666" points="488,-73 375,-73 375,-43 488,-43 488,-73"/>
<text text-anchor="start" x="383" y="-61" font-family="Helvetica,sans-Serif" font-size="10.00">hqp::HierarchicalQP</text>
<text text-anchor="middle" x="431.5" y="-50" font-family="Helvetica,sans-Serif" font-size="10.00">::inequality_hqp</text>
</a>
</g>
</g>
<!-- Node1&#45;&gt;Node3 -->
<g id="edge7" class="edge">
<title>Node1&#45;&gt;Node3</title>
<path fill="none" stroke="#63b8ff" d="M662.62,-40.9C610.22,-44.79 537.71,-50.18 488.18,-53.86"/>
<polygon fill="#63b8ff" stroke="#63b8ff" points="663.11,-44.37 672.82,-40.14 662.59,-37.39 663.11,-44.37"/>
</g>
<!-- Node2&#45;&gt;Node3 -->
<g id="edge2" class="edge">
<title>Node2&#45;&gt;Node3</title>
<path fill="none" stroke="#63b8ff" d="M518.25,-32.92C506.9,-36.24 495.16,-39.67 484.13,-42.9"/>
<polygon fill="#63b8ff" stroke="#63b8ff" points="519.47,-36.21 528.09,-30.04 517.51,-29.49 519.47,-36.21"/>
</g>
<!-- Node4 -->
<g id="node4" class="node">
<title>Node4</title>
<g id="a_node4"><a xlink:href="classhqp_1_1HierarchicalQP.html#adac78a9cc96e9d4f311b9ef72acd7ebd" target="_top" xlink:title="Solves the overall HQP by combining tasks.">
<polygon fill="white" stroke="#666666" points="339,-51 226,-51 226,-21 339,-21 339,-51"/>
<text text-anchor="start" x="234" y="-39" font-family="Helvetica,sans-Serif" font-size="10.00">hqp::HierarchicalQP</text>
<text text-anchor="middle" x="282.5" y="-28" font-family="Helvetica,sans-Serif" font-size="10.00">::solve</text>
</a>
</g>
</g>
<!-- Node2&#45;&gt;Node4 -->
<g id="edge6" class="edge">
<title>Node2&#45;&gt;Node4</title>
<path fill="none" stroke="#63b8ff" d="M513.62,-19.67C461.22,-23.39 388.71,-28.54 339.18,-32.05"/>
<polygon fill="#63b8ff" stroke="#63b8ff" points="514.1,-23.15 523.82,-18.95 513.6,-16.17 514.1,-23.15"/>
</g>
<!-- Node3&#45;&gt;Node4 -->
<g id="edge3" class="edge">
<title>Node3&#45;&gt;Node4</title>
<path fill="none" stroke="#63b8ff" d="M364.92,-48.19C356.32,-46.9 347.57,-45.59 339.15,-44.33"/>
<polygon fill="#63b8ff" stroke="#63b8ff" points="364.52,-51.66 374.93,-49.68 365.55,-44.74 364.52,-51.66"/>
</g>
<!-- Node5 -->
<g id="node5" class="node">
<title>Node5</title>
<g id="a_node5"><a xlink:href="classhqp_1_1HierarchicalQP.html#afd188fe690d31e139bdb9ed95b8acf01" target="_top" xlink:title="Computes and retrieves the primal solution.">
<polygon fill="white" stroke="#666666" points="190,-51 77,-51 77,-21 190,-21 190,-51"/>
<text text-anchor="start" x="85" y="-39" font-family="Helvetica,sans-Serif" font-size="10.00">hqp::HierarchicalQP</text>
<text text-anchor="middle" x="133.5" y="-28" font-family="Helvetica,sans-Serif" font-size="10.00">::get_primal</text>
</a>
</g>
</g>
<!-- Node4&#45;&gt;Node5 -->
<g id="edge4" class="edge">
<title>Node4&#45;&gt;Node5</title>
<path fill="none" stroke="#63b8ff" d="M215.92,-36C207.32,-36 198.57,-36 190.15,-36"/>
<polygon fill="#63b8ff" stroke="#63b8ff" points="215.93,-39.5 225.93,-36 215.93,-32.5 215.93,-39.5"/>
</g>
<!-- Node6 -->
<g id="node6" class="node">
<title>Node6</title>
<g id="a_node6"><a xlink:href="00__basic__select_8cpp.html#ae66f6b31b5ad750f1fe042a706a4e3d4" target="_top" xlink:title=" ">
<polygon fill="white" stroke="#666666" points="41,-45.5 0,-45.5 0,-26.5 41,-26.5 41,-45.5"/>
<text text-anchor="middle" x="20.5" y="-33.5" font-family="Helvetica,sans-Serif" font-size="10.00">main</text>
</a>
</g>
</g>
<!-- Node5&#45;&gt;Node6 -->
<g id="edge5" class="edge">
<title>Node5&#45;&gt;Node6</title>
<path fill="none" stroke="#63b8ff" d="M66.58,-36C57.37,-36 48.56,-36 41.21,-36"/>
<polygon fill="#63b8ff" stroke="#63b8ff" points="66.67,-39.5 76.67,-36 66.67,-32.5 66.67,-39.5"/>
</g>
</g>
</svg>
