<?xml version="1.0" encoding="UTF-8" standalone="no"?>
<!DOCTYPE svg PUBLIC "-//W3C//DTD SVG 1.1//EN"
 "http://www.w3.org/Graphics/SVG/1.1/DTD/svg11.dtd">
<!-- Generated by graphviz version 2.43.0 (0)
 -->
<!-- Title: include/hqp.hpp Pages: 1 -->
<svg width="276pt" height="137pt"
 viewBox="0.00 0.00 276.00 137.00" xmlns="http://www.w3.org/2000/svg" xmlns:xlink="http://www.w3.org/1999/xlink">
<g id="graph0" class="graph" transform="scale(1 1) rotate(0) translate(4 133)">
<title>include/hqp.hpp</title>
<!-- Node1 -->
<g id="node1" class="node">
<title>Node1</title>
<g id="a_node1"><a xlink:title="Main interface for the Weighted&#45;Hierarchical&#45;QP solver.">
<polygon fill="#999999" stroke="#666666" points="160.5,-129 66.5,-129 66.5,-110 160.5,-110 160.5,-129"/>
<text text-anchor="middle" x="113.5" y="-117" font-family="Helvetica,sans-Serif" font-size="10.00">include/hqp.hpp</text>
</a>
</g>
</g>
<!-- Node2 -->
<g id="node2" class="node">
<title>Node2</title>
<g id="a_node2"><a xlink:title=" ">
<polygon fill="#e0e0e0" stroke="#999999" points="47,-74 0,-74 0,-55 47,-55 47,-74"/>
<text text-anchor="middle" x="23.5" y="-62" font-family="Helvetica,sans-Serif" font-size="10.00">vector</text>
</a>
</g>
</g>
<!-- Node1&#45;&gt;Node2 -->
<g id="edge1" class="edge">
<title>Node1&#45;&gt;Node2</title>
<path fill="none" stroke="#63b8ff" d="M99.04,-109.98C85.08,-101.77 63.71,-89.18 47.25,-79.49"/>
<polygon fill="#63b8ff" stroke="#63b8ff" points="48.62,-76.23 38.22,-74.17 45.06,-82.26 48.62,-76.23"/>
</g>
<!-- Node3 -->
<g id="node3" class="node">
<title>Node3</title>
<g id="a_node3"><a xlink:title=" ">
<polygon fill="#e0e0e0" stroke="#999999" points="96,-19 55,-19 55,0 96,0 96,-19"/>
<text text-anchor="middle" x="75.5" y="-7" font-family="Helvetica,sans-Serif" font-size="10.00">tuple</text>
</a>
</g>
</g>
<!-- Node1&#45;&gt;Node3 -->
<g id="edge2" class="edge">
<title>Node1&#45;&gt;Node3</title>
<path fill="none" stroke="#63b8ff" d="M110.39,-109.66C104.18,-92.01 90.13,-52.09 81.88,-28.64"/>
<polygon fill="#63b8ff" stroke="#63b8ff" points="85.17,-27.43 78.55,-19.16 78.56,-29.75 85.17,-27.43"/>
</g>
<!-- Node4 -->
<g id="node4" class="node">
<title>Node4</title>
<g id="a_node4"><a xlink:title=" ">
<polygon fill="#e0e0e0" stroke="#999999" points="172.5,-19 114.5,-19 114.5,0 172.5,0 172.5,-19"/>
<text text-anchor="middle" x="143.5" y="-7" font-family="Helvetica,sans-Serif" font-size="10.00">memory</text>
</a>
</g>
</g>
<!-- Node1&#45;&gt;Node4 -->
<g id="edge3" class="edge">
<title>Node1&#45;&gt;Node4</title>
<path fill="none" stroke="#63b8ff" d="M115.96,-109.66C120.84,-92.09 131.85,-52.45 138.37,-28.95"/>
<polygon fill="#63b8ff" stroke="#63b8ff" points="141.79,-29.73 141.09,-19.16 135.05,-27.86 141.79,-29.73"/>
</g>
<!-- Node5 -->
<g id="node5" class="node">
<title>Node5</title>
<g id="a_node5"><a xlink:title=" ">
<polygon fill="#e0e0e0" stroke="#999999" points="268,-19 191,-19 191,0 268,0 268,-19"/>
<text text-anchor="middle" x="229.5" y="-7" font-family="Helvetica,sans-Serif" font-size="10.00">Eigen/Dense</text>
</a>
</g>
</g>
<!-- Node1&#45;&gt;Node5 -->
<g id="edge4" class="edge">
<title>Node1&#45;&gt;Node5</title>
<path fill="none" stroke="#63b8ff" d="M149.38,-109.98C169.93,-103.37 194.7,-92.18 210.5,-74 221.24,-61.65 225.91,-43.43 227.94,-29.67"/>
<polygon fill="#63b8ff" stroke="#63b8ff" points="231.46,-29.72 229.1,-19.39 224.5,-28.93 231.46,-29.72"/>
</g>
<!-- Node6 -->
<g id="node6" class="node">
<title>Node6</title>
<g id="a_node6"><a xlink:href="task_8hpp.html" target="_top" xlink:title="Declares the abstract Task interface and its derivatives used in the HQP solver.">
<polygon fill="white" stroke="#666666" points="201,-74 142,-74 142,-55 201,-55 201,-74"/>
<text text-anchor="middle" x="171.5" y="-62" font-family="Helvetica,sans-Serif" font-size="10.00">task.hpp</text>
</a>
</g>
</g>
<!-- Node1&#45;&gt;Node6 -->
<g id="edge5" class="edge">
<title>Node1&#45;&gt;Node6</title>
<path fill="none" stroke="#63b8ff" d="M122.82,-109.98C131.31,-102.23 144.06,-90.58 154.38,-81.14"/>
<polygon fill="#63b8ff" stroke="#63b8ff" points="156.99,-83.5 162.01,-74.17 152.27,-78.33 156.99,-83.5"/>
</g>
<!-- Node6&#45;&gt;Node3 -->
<g id="edge6" class="edge">
<title>Node6&#45;&gt;Node3</title>
<path fill="none" stroke="#63b8ff" d="M156.08,-54.98C141.05,-46.69 117.96,-33.94 100.34,-24.22"/>
<polygon fill="#63b8ff" stroke="#63b8ff" points="101.65,-20.94 91.2,-19.17 98.27,-27.07 101.65,-20.94"/>
</g>
<!-- Node6&#45;&gt;Node4 -->
<g id="edge7" class="edge">
<title>Node6&#45;&gt;Node4</title>
<path fill="none" stroke="#63b8ff" d="M166.88,-54.75C163.04,-47.49 157.48,-36.95 152.74,-27.98"/>
<polygon fill="#63b8ff" stroke="#63b8ff" points="155.8,-26.3 148.04,-19.09 149.61,-29.57 155.8,-26.3"/>
</g>
<!-- Node6&#45;&gt;Node5 -->
<g id="edge8" class="edge">
<title>Node6&#45;&gt;Node5</title>
<path fill="none" stroke="#63b8ff" d="M180.82,-54.98C189.31,-47.23 202.06,-35.58 212.38,-26.14"/>
<polygon fill="#63b8ff" stroke="#63b8ff" points="214.99,-28.5 220.01,-19.17 210.27,-23.33 214.99,-28.5"/>
</g>
</g>
</svg>
