<?xml version="1.0" encoding="UTF-8" standalone="no"?>
<!DOCTYPE svg PUBLIC "-//W3C//DTD SVG 1.1//EN"
 "http://www.w3.org/Graphics/SVG/1.1/DTD/svg11.dtd">
<!-- Generated by graphviz version 2.43.0 (0)
 -->
<!-- Title: src/hqp.cpp Pages: 1 -->
<svg width="617pt" height="247pt"
 viewBox="0.00 0.00 617.41 247.00" xmlns="http://www.w3.org/2000/svg" xmlns:xlink="http://www.w3.org/1999/xlink">
<g id="graph0" class="graph" transform="scale(1 1) rotate(0) translate(4 243)">
<title>src/hqp.cpp</title>
<!-- Node1 -->
<g id="node1" class="node">
<title>Node1</title>
<g id="a_node1"><a xlink:title=" ">
<polygon fill="#999999" stroke="#666666" points="124,-239 52,-239 52,-220 124,-220 124,-239"/>
<text text-anchor="middle" x="88" y="-227" font-family="Helvetica,sans-Serif" font-size="10.00">src/hqp.cpp</text>
</a>
</g>
</g>
<!-- Node2 -->
<g id="node2" class="node">
<title>Node2</title>
<g id="a_node2"><a xlink:title=" ">
<polygon fill="#e0e0e0" stroke="#999999" points="60,-184 0,-184 0,-165 60,-165 60,-184"/>
<text text-anchor="middle" x="30" y="-172" font-family="Helvetica,sans-Serif" font-size="10.00">iostream</text>
</a>
</g>
</g>
<!-- Node1&#45;&gt;Node2 -->
<g id="edge1" class="edge">
<title>Node1&#45;&gt;Node2</title>
<path fill="none" stroke="#63b8ff" d="M78.68,-219.98C70.19,-212.23 57.44,-200.58 47.12,-191.14"/>
<polygon fill="#63b8ff" stroke="#63b8ff" points="49.23,-188.33 39.49,-184.17 44.51,-193.5 49.23,-188.33"/>
</g>
<!-- Node3 -->
<g id="node3" class="node">
<title>Node3</title>
<g id="a_node3"><a xlink:href="hqp_8hpp.html" target="_top" xlink:title="Main interface for the Weighted&#45;Hierarchical&#45;QP solver.">
<polygon fill="white" stroke="#666666" points="299,-184 243,-184 243,-165 299,-165 299,-184"/>
<text text-anchor="middle" x="271" y="-172" font-family="Helvetica,sans-Serif" font-size="10.00">hqp.hpp</text>
</a>
</g>
</g>
<!-- Node1&#45;&gt;Node3 -->
<g id="edge2" class="edge">
<title>Node1&#45;&gt;Node3</title>
<path fill="none" stroke="#63b8ff" d="M117.4,-219.98C148.85,-210.88 198.83,-196.4 233.19,-186.45"/>
<polygon fill="#63b8ff" stroke="#63b8ff" points="234.24,-189.79 242.87,-183.65 232.29,-183.07 234.24,-189.79"/>
</g>
<!-- Node14 -->
<g id="node14" class="node">
<title>Node14</title>
<g id="a_node14"><a xlink:href="utils_8hpp.html" target="_top" xlink:title="Declares common utility functions used throughout the HQP solver.">
<polygon fill="white" stroke="#666666" points="213.5,-74 154.5,-74 154.5,-55 213.5,-55 213.5,-74"/>
<text text-anchor="middle" x="184" y="-62" font-family="Helvetica,sans-Serif" font-size="10.00">utils.hpp</text>
</a>
</g>
</g>
<!-- Node1&#45;&gt;Node14 -->
<g id="edge23" class="edge">
<title>Node1&#45;&gt;Node14</title>
<path fill="none" stroke="#63b8ff" d="M93.16,-219.74C108.33,-193.98 153,-118.13 173.5,-83.33"/>
<polygon fill="#63b8ff" stroke="#63b8ff" points="176.75,-84.7 178.81,-74.31 170.72,-81.15 176.75,-84.7"/>
</g>
<!-- Node4 -->
<g id="node4" class="node">
<title>Node4</title>
<g id="a_node4"><a xlink:title=" ">
<polygon fill="#e0e0e0" stroke="#999999" points="595.5,-74 554.5,-74 554.5,-55 595.5,-55 595.5,-74"/>
<text text-anchor="middle" x="575" y="-62" font-family="Helvetica,sans-Serif" font-size="10.00">tuple</text>
</a>
</g>
</g>
<!-- Node3&#45;&gt;Node4 -->
<g id="edge3" class="edge">
<title>Node3&#45;&gt;Node4</title>
<path fill="none" stroke="#63b8ff" d="M295.11,-164.94C349.94,-145.46 483.89,-97.87 544.42,-76.36"/>
<polygon fill="#63b8ff" stroke="#63b8ff" points="545.91,-79.55 554.16,-72.9 543.56,-72.95 545.91,-79.55"/>
</g>
<!-- Node5 -->
<g id="node5" class="node">
<title>Node5</title>
<g id="a_node5"><a xlink:title=" ">
<polygon fill="#e0e0e0" stroke="#999999" points="78.5,-19 31.5,-19 31.5,0 78.5,0 78.5,-19"/>
<text text-anchor="middle" x="55" y="-7" font-family="Helvetica,sans-Serif" font-size="10.00">vector</text>
</a>
</g>
</g>
<!-- Node3&#45;&gt;Node5 -->
<g id="edge4" class="edge">
<title>Node3&#45;&gt;Node5</title>
<path fill="none" stroke="#63b8ff" d="M242.76,-166.15C219.2,-159.13 185.46,-146.93 160,-129 119.35,-100.37 83.72,-53.04 66.31,-27.72"/>
<polygon fill="#63b8ff" stroke="#63b8ff" points="69.05,-25.52 60.56,-19.19 63.25,-29.43 69.05,-25.52"/>
</g>
<!-- Node6 -->
<g id="node6" class="node">
<title>Node6</title>
<g id="a_node6"><a xlink:title=" ">
<polygon fill="#e0e0e0" stroke="#999999" points="564.5,-19 487.5,-19 487.5,0 564.5,0 564.5,-19"/>
<text text-anchor="middle" x="526" y="-7" font-family="Helvetica,sans-Serif" font-size="10.00">Eigen/Dense</text>
</a>
</g>
</g>
<!-- Node3&#45;&gt;Node6 -->
<g id="edge5" class="edge">
<title>Node3&#45;&gt;Node6</title>
<path fill="none" stroke="#63b8ff" d="M299.25,-169.49C373.03,-158.38 568.29,-124.64 605,-74 620.66,-52.4 590.06,-34.11 562.5,-22.79"/>
<polygon fill="#63b8ff" stroke="#63b8ff" points="563.55,-19.44 552.96,-19.08 561.01,-25.96 563.55,-19.44"/>
</g>
<!-- Node7 -->
<g id="node7" class="node">
<title>Node7</title>
<g id="a_node7"><a xlink:href="options_8hpp.html" target="_top" xlink:title=" ">
<polygon fill="white" stroke="#666666" points="243,-129 169,-129 169,-110 243,-110 243,-129"/>
<text text-anchor="middle" x="206" y="-117" font-family="Helvetica,sans-Serif" font-size="10.00">options.hpp</text>
</a>
</g>
</g>
<!-- Node3&#45;&gt;Node7 -->
<g id="edge6" class="edge">
<title>Node3&#45;&gt;Node7</title>
<path fill="none" stroke="#63b8ff" d="M260.56,-164.98C250.85,-157.07 236.18,-145.11 224.5,-135.58"/>
<polygon fill="#63b8ff" stroke="#63b8ff" points="226.6,-132.78 216.63,-129.17 222.17,-138.2 226.6,-132.78"/>
</g>
<!-- Node8 -->
<g id="node8" class="node">
<title>Node8</title>
<g id="a_node8"><a xlink:href="task_8hpp.html" target="_top" xlink:title="Declares the abstract Task interface and its derivatives used in the HQP solver.">
<polygon fill="white" stroke="#666666" points="373.5,-129 314.5,-129 314.5,-110 373.5,-110 373.5,-129"/>
<text text-anchor="middle" x="344" y="-117" font-family="Helvetica,sans-Serif" font-size="10.00">task.hpp</text>
</a>
</g>
</g>
<!-- Node3&#45;&gt;Node8 -->
<g id="edge7" class="edge">
<title>Node3&#45;&gt;Node8</title>
<path fill="none" stroke="#63b8ff" d="M282.73,-164.98C293.73,-157 310.42,-144.88 323.6,-135.31"/>
<polygon fill="#63b8ff" stroke="#63b8ff" points="326.02,-137.88 332.06,-129.17 321.91,-132.21 326.02,-137.88"/>
</g>
<!-- Node3&#45;&gt;Node14 -->
<g id="edge22" class="edge">
<title>Node3&#45;&gt;Node14</title>
<path fill="none" stroke="#63b8ff" d="M270.29,-164.86C268.84,-151.8 264.52,-126.79 252,-110 242.06,-96.68 226.87,-86.19 213.36,-78.76"/>
<polygon fill="#63b8ff" stroke="#63b8ff" points="214.86,-75.59 204.37,-74.1 211.64,-81.8 214.86,-75.59"/>
</g>
<!-- Node8&#45;&gt;Node4 -->
<g id="edge8" class="edge">
<title>Node8&#45;&gt;Node4</title>
<path fill="none" stroke="#63b8ff" d="M373.58,-111.93C411.99,-103.36 481.06,-87.85 540,-74 541.45,-73.66 542.92,-73.31 544.42,-72.96"/>
<polygon fill="#63b8ff" stroke="#63b8ff" points="545.38,-76.32 554.28,-70.59 543.74,-69.52 545.38,-76.32"/>
</g>
<!-- Node8&#45;&gt;Node6 -->
<g id="edge14" class="edge">
<title>Node8&#45;&gt;Node6</title>
<path fill="none" stroke="#63b8ff" d="M373.79,-118.64C410.08,-117.17 471,-109.14 507,-74 518.96,-62.33 523.46,-43.47 525.12,-29.33"/>
<polygon fill="#63b8ff" stroke="#63b8ff" points="528.62,-29.48 525.93,-19.23 521.64,-28.92 528.62,-29.48"/>
</g>
<!-- Node9 -->
<g id="node9" class="node">
<title>Node9</title>
<g id="a_node9"><a xlink:title=" ">
<polygon fill="#e0e0e0" stroke="#999999" points="372,-19 314,-19 314,0 372,0 372,-19"/>
<text text-anchor="middle" x="343" y="-7" font-family="Helvetica,sans-Serif" font-size="10.00">memory</text>
</a>
</g>
</g>
<!-- Node8&#45;&gt;Node9 -->
<g id="edge9" class="edge">
<title>Node8&#45;&gt;Node9</title>
<path fill="none" stroke="#63b8ff" d="M343.92,-109.66C343.76,-92.17 343.39,-52.8 343.17,-29.27"/>
<polygon fill="#63b8ff" stroke="#63b8ff" points="346.67,-29.13 343.08,-19.16 339.67,-29.19 346.67,-29.13"/>
</g>
<!-- Node10 -->
<g id="node10" class="node">
<title>Node10</title>
<g id="a_node10"><a xlink:title=" ">
<polygon fill="#e0e0e0" stroke="#999999" points="315.5,-74 270.5,-74 270.5,-55 315.5,-55 315.5,-74"/>
<text text-anchor="middle" x="293" y="-62" font-family="Helvetica,sans-Serif" font-size="10.00">utility</text>
</a>
</g>
</g>
<!-- Node8&#45;&gt;Node10 -->
<g id="edge10" class="edge">
<title>Node8&#45;&gt;Node10</title>
<path fill="none" stroke="#63b8ff" d="M335.58,-109.75C328.23,-102.11 317.37,-90.82 308.46,-81.56"/>
<polygon fill="#63b8ff" stroke="#63b8ff" points="310.72,-78.87 301.26,-74.09 305.68,-83.72 310.72,-78.87"/>
</g>
<!-- Node11 -->
<g id="node11" class="node">
<title>Node11</title>
<g id="a_node11"><a xlink:title=" ">
<polygon fill="#e0e0e0" stroke="#999999" points="294.5,-19 225.5,-19 225.5,0 294.5,0 294.5,-19"/>
<text text-anchor="middle" x="260" y="-7" font-family="Helvetica,sans-Serif" font-size="10.00">type_traits</text>
</a>
</g>
</g>
<!-- Node8&#45;&gt;Node11 -->
<g id="edge11" class="edge">
<title>Node8&#45;&gt;Node11</title>
<path fill="none" stroke="#63b8ff" d="M314.46,-110.69C295.98,-104.14 273.56,-92.75 262,-74 253.77,-60.65 254.06,-42.54 255.95,-29.08"/>
<polygon fill="#63b8ff" stroke="#63b8ff" points="259.43,-29.53 257.76,-19.07 252.54,-28.28 259.43,-29.53"/>
</g>
<!-- Node12 -->
<g id="node12" class="node">
<title>Node12</title>
<g id="a_node12"><a xlink:title=" ">
<polygon fill="#e0e0e0" stroke="#999999" points="424,-74 372,-74 372,-55 424,-55 424,-74"/>
<text text-anchor="middle" x="398" y="-62" font-family="Helvetica,sans-Serif" font-size="10.00">cassert</text>
</a>
</g>
</g>
<!-- Node8&#45;&gt;Node12 -->
<g id="edge12" class="edge">
<title>Node8&#45;&gt;Node12</title>
<path fill="none" stroke="#63b8ff" d="M352.92,-109.75C360.78,-102.03 372.43,-90.6 381.92,-81.28"/>
<polygon fill="#63b8ff" stroke="#63b8ff" points="384.56,-83.59 389.25,-74.09 379.66,-78.6 384.56,-83.59"/>
</g>
<!-- Node13 -->
<g id="node13" class="node">
<title>Node13</title>
<g id="a_node13"><a xlink:title=" ">
<polygon fill="#e0e0e0" stroke="#999999" points="498,-74 442,-74 442,-55 498,-55 498,-74"/>
<text text-anchor="middle" x="470" y="-62" font-family="Helvetica,sans-Serif" font-size="10.00">optional</text>
</a>
</g>
</g>
<!-- Node8&#45;&gt;Node13 -->
<g id="edge13" class="edge">
<title>Node8&#45;&gt;Node13</title>
<path fill="none" stroke="#63b8ff" d="M364.24,-109.98C384.7,-101.38 416.53,-87.99 439.93,-78.15"/>
<polygon fill="#63b8ff" stroke="#63b8ff" points="441.53,-81.27 449.39,-74.17 438.81,-74.82 441.53,-81.27"/>
</g>
<!-- Node8&#45;&gt;Node14 -->
<g id="edge15" class="edge">
<title>Node8&#45;&gt;Node14</title>
<path fill="none" stroke="#63b8ff" d="M318.29,-109.98C291.55,-101.13 249.47,-87.19 219.55,-77.28"/>
<polygon fill="#63b8ff" stroke="#63b8ff" points="220.5,-73.9 209.91,-74.08 218.3,-80.55 220.5,-73.9"/>
</g>
<!-- Node14&#45;&gt;Node5 -->
<g id="edge20" class="edge">
<title>Node14&#45;&gt;Node5</title>
<path fill="none" stroke="#63b8ff" d="M163.27,-54.98C142.24,-46.34 109.45,-32.87 85.46,-23.02"/>
<polygon fill="#63b8ff" stroke="#63b8ff" points="86.68,-19.73 76.1,-19.17 84.02,-26.21 86.68,-19.73"/>
</g>
<!-- Node14&#45;&gt;Node6 -->
<g id="edge21" class="edge">
<title>Node14&#45;&gt;Node6</title>
<path fill="none" stroke="#63b8ff" d="M213.75,-58.89C272.77,-49.74 405.14,-29.23 477.13,-18.07"/>
<polygon fill="#63b8ff" stroke="#63b8ff" points="477.95,-21.49 487.3,-16.5 476.88,-14.57 477.95,-21.49"/>
</g>
<!-- Node14&#45;&gt;Node9 -->
<g id="edge16" class="edge">
<title>Node14&#45;&gt;Node9</title>
<path fill="none" stroke="#63b8ff" d="M209.55,-54.98C236.12,-46.13 277.94,-32.19 307.67,-22.28"/>
<polygon fill="#63b8ff" stroke="#63b8ff" points="308.87,-25.56 317.25,-19.08 306.66,-18.92 308.87,-25.56"/>
</g>
<!-- Node14&#45;&gt;Node11 -->
<g id="edge19" class="edge">
<title>Node14&#45;&gt;Node11</title>
<path fill="none" stroke="#63b8ff" d="M196.21,-54.98C207.78,-46.92 225.38,-34.65 239.16,-25.03"/>
<polygon fill="#63b8ff" stroke="#63b8ff" points="241.37,-27.76 247.57,-19.17 237.36,-22.02 241.37,-27.76"/>
</g>
<!-- Node15 -->
<g id="node15" class="node">
<title>Node15</title>
<g id="a_node15"><a xlink:title=" ">
<polygon fill="#e0e0e0" stroke="#999999" points="145,-19 97,-19 97,0 145,0 145,-19"/>
<text text-anchor="middle" x="121" y="-7" font-family="Helvetica,sans-Serif" font-size="10.00">mutex</text>
</a>
</g>
</g>
<!-- Node14&#45;&gt;Node15 -->
<g id="edge17" class="edge">
<title>Node14&#45;&gt;Node15</title>
<path fill="none" stroke="#63b8ff" d="M173.88,-54.98C164.56,-47.15 150.53,-35.34 139.26,-25.86"/>
<polygon fill="#63b8ff" stroke="#63b8ff" points="141.21,-22.93 131.31,-19.17 136.71,-28.29 141.21,-22.93"/>
</g>
<!-- Node16 -->
<g id="node16" class="node">
<title>Node16</title>
<g id="a_node16"><a xlink:title=" ">
<polygon fill="#e0e0e0" stroke="#999999" points="207,-19 163,-19 163,0 207,0 207,-19"/>
<text text-anchor="middle" x="185" y="-7" font-family="Helvetica,sans-Serif" font-size="10.00">string</text>
</a>
</g>
</g>
<!-- Node14&#45;&gt;Node16 -->
<g id="edge18" class="edge">
<title>Node14&#45;&gt;Node16</title>
<path fill="none" stroke="#63b8ff" d="M184.17,-54.75C184.3,-47.8 184.48,-37.85 184.65,-29.13"/>
<polygon fill="#63b8ff" stroke="#63b8ff" points="188.15,-29.15 184.84,-19.09 181.15,-29.02 188.15,-29.15"/>
</g>
</g>
</svg>
