<?xml version="1.0" encoding="UTF-8" standalone="no"?>
<!DOCTYPE svg PUBLIC "-//W3C//DTD SVG 1.1//EN"
 "http://www.w3.org/Graphics/SVG/1.1/DTD/svg11.dtd">
<!-- Generated by graphviz version 2.43.0 (0)
 -->
<!-- Title: include/hqp.hpp Pages: 1 -->
<svg width="821pt" height="82pt"
 viewBox="0.00 0.00 820.50 82.00" xmlns="http://www.w3.org/2000/svg" xmlns:xlink="http://www.w3.org/1999/xlink">
<g id="graph0" class="graph" transform="scale(1 1) rotate(0) translate(4 78)">
<title>include/hqp.hpp</title>
<!-- Node1 -->
<g id="node1" class="node">
<title>Node1</title>
<g id="a_node1"><a xlink:title="Main interface for the Weighted&#45;Hierarchical&#45;QP solver.">
<polygon fill="#999999" stroke="#666666" points="449.5,-74 355.5,-74 355.5,-55 449.5,-55 449.5,-74"/>
<text text-anchor="middle" x="402.5" y="-62" font-family="Helvetica,sans-Serif" font-size="10.00">include/hqp.hpp</text>
</a>
</g>
</g>
<!-- Node2 -->
<g id="node2" class="node">
<title>Node2</title>
<g id="a_node2"><a xlink:href="00__basic__select_8cpp.html" target="_top" xlink:title=" ">
<polygon fill="white" stroke="#666666" points="141,-19 0,-19 0,0 141,0 141,-19"/>
<text text-anchor="middle" x="70.5" y="-7" font-family="Helvetica,sans-Serif" font-size="10.00">tests/00_basic_select.cpp</text>
</a>
</g>
</g>
<!-- Node1&#45;&gt;Node2 -->
<g id="edge1" class="edge">
<title>Node1&#45;&gt;Node2</title>
<path fill="none" stroke="#63b8ff" d="M345.25,-54.36C283.06,-44.43 184.5,-28.7 123.87,-19.02"/>
<polygon fill="#63b8ff" stroke="#63b8ff" points="344.86,-57.84 355.29,-55.96 345.96,-50.93 344.86,-57.84"/>
</g>
<!-- Node3 -->
<g id="node3" class="node">
<title>Node3</title>
<g id="a_node3"><a xlink:href="01__metric__swap_8cpp.html" target="_top" xlink:title=" ">
<polygon fill="white" stroke="#666666" points="302,-19 159,-19 159,0 302,0 302,-19"/>
<text text-anchor="middle" x="230.5" y="-7" font-family="Helvetica,sans-Serif" font-size="10.00">tests/01_metric_swap.cpp</text>
</a>
</g>
</g>
<!-- Node1&#45;&gt;Node3 -->
<g id="edge2" class="edge">
<title>Node1&#45;&gt;Node3</title>
<path fill="none" stroke="#63b8ff" d="M364.94,-51.93C332.82,-42.03 287.31,-28.01 258.35,-19.08"/>
<polygon fill="#63b8ff" stroke="#63b8ff" points="364.28,-55.38 374.87,-54.98 366.34,-48.69 364.28,-55.38"/>
</g>
<!-- Node4 -->
<g id="node4" class="node">
<title>Node4</title>
<g id="a_node4"><a xlink:href="02__compare__solvers_8cpp.html" target="_top" xlink:title=" ">
<polygon fill="white" stroke="#666666" points="484.5,-19 320.5,-19 320.5,0 484.5,0 484.5,-19"/>
<text text-anchor="middle" x="402.5" y="-7" font-family="Helvetica,sans-Serif" font-size="10.00">tests/02_compare_solvers.cpp</text>
</a>
</g>
</g>
<!-- Node1&#45;&gt;Node4 -->
<g id="edge3" class="edge">
<title>Node1&#45;&gt;Node4</title>
<path fill="none" stroke="#63b8ff" d="M402.5,-44.66C402.5,-35.93 402.5,-25.99 402.5,-19.09"/>
<polygon fill="#63b8ff" stroke="#63b8ff" points="399,-44.75 402.5,-54.75 406,-44.75 399,-44.75"/>
</g>
<!-- Node5 -->
<g id="node5" class="node">
<title>Node5</title>
<g id="a_node5"><a xlink:href="03__set__stack_8cpp.html" target="_top" xlink:title=" ">
<polygon fill="white" stroke="#666666" points="630.5,-19 502.5,-19 502.5,0 630.5,0 630.5,-19"/>
<text text-anchor="middle" x="566.5" y="-7" font-family="Helvetica,sans-Serif" font-size="10.00">tests/03_set_stack.cpp</text>
</a>
</g>
</g>
<!-- Node1&#45;&gt;Node5 -->
<g id="edge4" class="edge">
<title>Node1&#45;&gt;Node5</title>
<path fill="none" stroke="#63b8ff" d="M438.71,-51.8C469.32,-41.91 512.45,-27.97 539.94,-19.08"/>
<polygon fill="#63b8ff" stroke="#63b8ff" points="437.29,-48.58 428.85,-54.98 439.44,-55.24 437.29,-48.58"/>
</g>
<!-- Node6 -->
<g id="node6" class="node">
<title>Node6</title>
<g id="a_node6"><a xlink:href="04__random__problem_8cpp.html" target="_top" xlink:title=" ">
<polygon fill="white" stroke="#666666" points="812.5,-19 648.5,-19 648.5,0 812.5,0 812.5,-19"/>
<text text-anchor="middle" x="730.5" y="-7" font-family="Helvetica,sans-Serif" font-size="10.00">tests/04_random_problem.cpp</text>
</a>
</g>
</g>
<!-- Node1&#45;&gt;Node6 -->
<g id="edge5" class="edge">
<title>Node1&#45;&gt;Node6</title>
<path fill="none" stroke="#63b8ff" d="M459.77,-54.25C521.24,-44.31 618.07,-28.67 677.74,-19.03"/>
<polygon fill="#63b8ff" stroke="#63b8ff" points="459.16,-50.8 449.84,-55.85 460.27,-57.71 459.16,-50.8"/>
</g>
</g>
</svg>
