<?xml version="1.0" encoding="UTF-8" standalone="no"?>
<!DOCTYPE svg PUBLIC "-//W3C//DTD SVG 1.1//EN"
 "http://www.w3.org/Graphics/SVG/1.1/DTD/svg11.dtd">
<!-- Generated by graphviz version 2.43.0 (0)
 -->
<!-- Title: include/hqp.hpp Pages: 1 -->
<svg width="558pt" height="192pt"
 viewBox="0.00 0.00 557.50 192.00" xmlns="http://www.w3.org/2000/svg" xmlns:xlink="http://www.w3.org/1999/xlink">
<g id="graph0" class="graph" transform="scale(1 1) rotate(0) translate(4 188)">
<title>include/hqp.hpp</title>
<!-- Node1 -->
<g id="node1" class="node">
<title>Node1</title>
<g id="a_node1"><a xlink:title="Main interface for the Weighted&#45;Hierarchical&#45;QP solver.">
<polygon fill="#999999" stroke="#666666" points="171.5,-184 77.5,-184 77.5,-165 171.5,-165 171.5,-184"/>
<text text-anchor="middle" x="124.5" y="-172" font-family="Helvetica,sans-Serif" font-size="10.00">include/hqp.hpp</text>
</a>
</g>
</g>
<!-- Node2 -->
<g id="node2" class="node">
<title>Node2</title>
<g id="a_node2"><a xlink:title=" ">
<polygon fill="#e0e0e0" stroke="#999999" points="47,-129 0,-129 0,-110 47,-110 47,-129"/>
<text text-anchor="middle" x="23.5" y="-117" font-family="Helvetica,sans-Serif" font-size="10.00">vector</text>
</a>
</g>
</g>
<!-- Node1&#45;&gt;Node2 -->
<g id="edge1" class="edge">
<title>Node1&#45;&gt;Node2</title>
<path fill="none" stroke="#63b8ff" d="M108.27,-164.98C92.32,-156.61 67.72,-143.7 49.12,-133.95"/>
<polygon fill="#63b8ff" stroke="#63b8ff" points="50.5,-130.72 40.02,-129.17 47.25,-136.92 50.5,-130.72"/>
</g>
<!-- Node3 -->
<g id="node3" class="node">
<title>Node3</title>
<g id="a_node3"><a xlink:title=" ">
<polygon fill="#e0e0e0" stroke="#999999" points="145,-74 104,-74 104,-55 145,-55 145,-74"/>
<text text-anchor="middle" x="124.5" y="-62" font-family="Helvetica,sans-Serif" font-size="10.00">tuple</text>
</a>
</g>
</g>
<!-- Node1&#45;&gt;Node3 -->
<g id="edge2" class="edge">
<title>Node1&#45;&gt;Node3</title>
<path fill="none" stroke="#63b8ff" d="M124.5,-164.66C124.5,-147.17 124.5,-107.8 124.5,-84.27"/>
<polygon fill="#63b8ff" stroke="#63b8ff" points="128,-84.16 124.5,-74.16 121,-84.16 128,-84.16"/>
</g>
<!-- Node4 -->
<g id="node4" class="node">
<title>Node4</title>
<g id="a_node4"><a xlink:title=" ">
<polygon fill="#e0e0e0" stroke="#999999" points="345,-19 268,-19 268,0 345,0 345,-19"/>
<text text-anchor="middle" x="306.5" y="-7" font-family="Helvetica,sans-Serif" font-size="10.00">Eigen/Dense</text>
</a>
</g>
</g>
<!-- Node1&#45;&gt;Node4 -->
<g id="edge3" class="edge">
<title>Node1&#45;&gt;Node4</title>
<path fill="none" stroke="#63b8ff" d="M117.91,-164.98C102.46,-143.9 67.21,-88.61 94.5,-55 114.64,-30.19 201.45,-18.71 257.55,-13.8"/>
<polygon fill="#63b8ff" stroke="#63b8ff" points="257.97,-17.27 267.64,-12.95 257.38,-10.3 257.97,-17.27"/>
</g>
<!-- Node5 -->
<g id="node5" class="node">
<title>Node5</title>
<g id="a_node5"><a xlink:href="task_8hpp.html" target="_top" xlink:title="Declares the abstract Task interface and its derivatives used in the HQP solver.">
<polygon fill="white" stroke="#666666" points="336,-129 277,-129 277,-110 336,-110 336,-129"/>
<text text-anchor="middle" x="306.5" y="-117" font-family="Helvetica,sans-Serif" font-size="10.00">task.hpp</text>
</a>
</g>
</g>
<!-- Node1&#45;&gt;Node5 -->
<g id="edge4" class="edge">
<title>Node1&#45;&gt;Node5</title>
<path fill="none" stroke="#63b8ff" d="M153.74,-164.98C184.56,-156.01 233.28,-141.82 267.39,-131.89"/>
<polygon fill="#63b8ff" stroke="#63b8ff" points="268.41,-135.24 277.03,-129.08 266.45,-128.52 268.41,-135.24"/>
</g>
<!-- Node11 -->
<g id="node11" class="node">
<title>Node11</title>
<g id="a_node11"><a xlink:href="utils_8hpp.html" target="_top" xlink:title="Declares common utility functions used throughout the HQP solver.">
<polygon fill="white" stroke="#666666" points="506,-74 447,-74 447,-55 506,-55 506,-74"/>
<text text-anchor="middle" x="476.5" y="-62" font-family="Helvetica,sans-Serif" font-size="10.00">utils.hpp</text>
</a>
</g>
</g>
<!-- Node1&#45;&gt;Node11 -->
<g id="edge16" class="edge">
<title>Node1&#45;&gt;Node11</title>
<path fill="none" stroke="#63b8ff" d="M171.74,-167.42C216.9,-160.8 286.5,-148.48 344.5,-129 383.83,-115.79 426.65,-93.63 452.53,-79.29"/>
<polygon fill="#63b8ff" stroke="#63b8ff" points="454.57,-82.16 461.58,-74.21 451.14,-76.05 454.57,-82.16"/>
</g>
<!-- Node5&#45;&gt;Node3 -->
<g id="edge5" class="edge">
<title>Node5&#45;&gt;Node3</title>
<path fill="none" stroke="#63b8ff" d="M277.16,-109.99C248.29,-101.6 202.67,-88.35 154.71,-74.35"/>
<polygon fill="#63b8ff" stroke="#63b8ff" points="155.67,-70.98 145.09,-71.54 153.71,-77.7 155.67,-70.98"/>
</g>
<!-- Node5&#45;&gt;Node4 -->
<g id="edge11" class="edge">
<title>Node5&#45;&gt;Node4</title>
<path fill="none" stroke="#63b8ff" d="M306.5,-109.66C306.5,-92.17 306.5,-52.8 306.5,-29.27"/>
<polygon fill="#63b8ff" stroke="#63b8ff" points="310,-29.16 306.5,-19.16 303,-29.16 310,-29.16"/>
</g>
<!-- Node6 -->
<g id="node6" class="node">
<title>Node6</title>
<g id="a_node6"><a xlink:title=" ">
<polygon fill="#e0e0e0" stroke="#999999" points="549.5,-19 491.5,-19 491.5,0 549.5,0 549.5,-19"/>
<text text-anchor="middle" x="520.5" y="-7" font-family="Helvetica,sans-Serif" font-size="10.00">memory</text>
</a>
</g>
</g>
<!-- Node5&#45;&gt;Node6 -->
<g id="edge6" class="edge">
<title>Node5&#45;&gt;Node6</title>
<path fill="none" stroke="#63b8ff" d="M336.38,-116.44C388.39,-112.18 492.27,-100.5 515.5,-74 526.08,-61.93 526.27,-43.12 524.45,-29.11"/>
<polygon fill="#63b8ff" stroke="#63b8ff" points="527.87,-28.37 522.72,-19.11 520.98,-29.56 527.87,-28.37"/>
</g>
<!-- Node7 -->
<g id="node7" class="node">
<title>Node7</title>
<g id="a_node7"><a xlink:title=" ">
<polygon fill="#e0e0e0" stroke="#999999" points="208,-74 163,-74 163,-55 208,-55 208,-74"/>
<text text-anchor="middle" x="185.5" y="-62" font-family="Helvetica,sans-Serif" font-size="10.00">utility</text>
</a>
</g>
</g>
<!-- Node5&#45;&gt;Node7 -->
<g id="edge7" class="edge">
<title>Node5&#45;&gt;Node7</title>
<path fill="none" stroke="#63b8ff" d="M287.06,-109.98C267.51,-101.42 237.12,-88.11 214.68,-78.28"/>
<polygon fill="#63b8ff" stroke="#63b8ff" points="215.86,-74.98 205.29,-74.17 213.05,-81.39 215.86,-74.98"/>
</g>
<!-- Node8 -->
<g id="node8" class="node">
<title>Node8</title>
<g id="a_node8"><a xlink:title=" ">
<polygon fill="#e0e0e0" stroke="#999999" points="459,-19 390,-19 390,0 459,0 459,-19"/>
<text text-anchor="middle" x="424.5" y="-7" font-family="Helvetica,sans-Serif" font-size="10.00">type_traits</text>
</a>
</g>
</g>
<!-- Node5&#45;&gt;Node8 -->
<g id="edge8" class="edge">
<title>Node5&#45;&gt;Node8</title>
<path fill="none" stroke="#63b8ff" d="M313.36,-109.76C323.57,-97.01 343.71,-72.88 363.5,-55 375.59,-44.07 390.32,-33.27 402.28,-25.04"/>
<polygon fill="#63b8ff" stroke="#63b8ff" points="404.47,-27.79 410.79,-19.29 400.55,-21.99 404.47,-27.79"/>
</g>
<!-- Node9 -->
<g id="node9" class="node">
<title>Node9</title>
<g id="a_node9"><a xlink:title=" ">
<polygon fill="#e0e0e0" stroke="#999999" points="278.5,-74 226.5,-74 226.5,-55 278.5,-55 278.5,-74"/>
<text text-anchor="middle" x="252.5" y="-62" font-family="Helvetica,sans-Serif" font-size="10.00">cassert</text>
</a>
</g>
</g>
<!-- Node5&#45;&gt;Node9 -->
<g id="edge9" class="edge">
<title>Node5&#45;&gt;Node9</title>
<path fill="none" stroke="#63b8ff" d="M297.58,-109.75C289.72,-102.03 278.07,-90.6 268.58,-81.28"/>
<polygon fill="#63b8ff" stroke="#63b8ff" points="270.84,-78.6 261.25,-74.09 265.94,-83.59 270.84,-78.6"/>
</g>
<!-- Node10 -->
<g id="node10" class="node">
<title>Node10</title>
<g id="a_node10"><a xlink:title=" ">
<polygon fill="#e0e0e0" stroke="#999999" points="428.5,-74 372.5,-74 372.5,-55 428.5,-55 428.5,-74"/>
<text text-anchor="middle" x="400.5" y="-62" font-family="Helvetica,sans-Serif" font-size="10.00">optional</text>
</a>
</g>
</g>
<!-- Node5&#45;&gt;Node10 -->
<g id="edge10" class="edge">
<title>Node5&#45;&gt;Node10</title>
<path fill="none" stroke="#63b8ff" d="M321.6,-109.98C336.32,-101.69 358.92,-88.94 376.17,-79.22"/>
<polygon fill="#63b8ff" stroke="#63b8ff" points="378.13,-82.13 385.12,-74.17 374.69,-76.03 378.13,-82.13"/>
</g>
<!-- Node5&#45;&gt;Node11 -->
<g id="edge12" class="edge">
<title>Node5&#45;&gt;Node11</title>
<path fill="none" stroke="#63b8ff" d="M333.81,-109.98C362.35,-101.09 407.33,-87.07 439.14,-77.15"/>
<polygon fill="#63b8ff" stroke="#63b8ff" points="440.47,-80.4 448.97,-74.08 438.38,-73.72 440.47,-80.4"/>
</g>
<!-- Node11&#45;&gt;Node4 -->
<g id="edge15" class="edge">
<title>Node11&#45;&gt;Node4</title>
<path fill="none" stroke="#63b8ff" d="M449.19,-54.98C420.65,-46.09 375.67,-32.07 343.86,-22.15"/>
<polygon fill="#63b8ff" stroke="#63b8ff" points="344.62,-18.72 334.03,-19.08 342.53,-25.4 344.62,-18.72"/>
</g>
<!-- Node11&#45;&gt;Node6 -->
<g id="edge13" class="edge">
<title>Node11&#45;&gt;Node6</title>
<path fill="none" stroke="#63b8ff" d="M483.77,-54.75C490.04,-47.18 499.29,-36.05 506.93,-26.84"/>
<polygon fill="#63b8ff" stroke="#63b8ff" points="509.67,-29.02 513.37,-19.09 504.29,-24.55 509.67,-29.02"/>
</g>
<!-- Node11&#45;&gt;Node8 -->
<g id="edge14" class="edge">
<title>Node11&#45;&gt;Node8</title>
<path fill="none" stroke="#63b8ff" d="M467.91,-54.75C460.34,-47.03 449.12,-35.6 439.99,-26.28"/>
<polygon fill="#63b8ff" stroke="#63b8ff" points="442.43,-23.78 432.93,-19.09 437.43,-28.68 442.43,-23.78"/>
</g>
</g>
</svg>
