<?xml version="1.0" encoding="UTF-8" standalone="no"?>
<!DOCTYPE svg PUBLIC "-//W3C//DTD SVG 1.1//EN"
 "http://www.w3.org/Graphics/SVG/1.1/DTD/svg11.dtd">
<!-- Generated by graphviz version 2.43.0 (0)
 -->
<!-- Title: include/hqp.hpp Pages: 1 -->
<svg width="477pt" height="192pt"
 viewBox="0.00 0.00 477.00 192.00" xmlns="http://www.w3.org/2000/svg" xmlns:xlink="http://www.w3.org/1999/xlink">
<g id="graph0" class="graph" transform="scale(1 1) rotate(0) translate(4 188)">
<title>include/hqp.hpp</title>
<!-- Node1 -->
<g id="node1" class="node">
<title>Node1</title>
<g id="a_node1"><a xlink:title="Main interface for the Weighted&#45;Hierarchical&#45;QP solver.">
<polygon fill="#999999" stroke="#666666" points="250.5,-184 156.5,-184 156.5,-165 250.5,-165 250.5,-184"/>
<text text-anchor="middle" x="203.5" y="-172" font-family="Helvetica,sans-Serif" font-size="10.00">include/hqp.hpp</text>
</a>
</g>
</g>
<!-- Node2 -->
<g id="node2" class="node">
<title>Node2</title>
<g id="a_node2"><a xlink:title=" ">
<polygon fill="#e0e0e0" stroke="#999999" points="146,-129 99,-129 99,-110 146,-110 146,-129"/>
<text text-anchor="middle" x="122.5" y="-117" font-family="Helvetica,sans-Serif" font-size="10.00">vector</text>
</a>
</g>
</g>
<!-- Node1&#45;&gt;Node2 -->
<g id="edge1" class="edge">
<title>Node1&#45;&gt;Node2</title>
<path fill="none" stroke="#63b8ff" d="M190.49,-164.98C178.04,-156.84 159.04,-144.41 144.29,-134.76"/>
<polygon fill="#63b8ff" stroke="#63b8ff" points="146.04,-131.72 135.75,-129.17 142.2,-137.57 146.04,-131.72"/>
</g>
<!-- Node3 -->
<g id="node3" class="node">
<title>Node3</title>
<g id="a_node3"><a xlink:title=" ">
<polygon fill="#e0e0e0" stroke="#999999" points="41,-74 0,-74 0,-55 41,-55 41,-74"/>
<text text-anchor="middle" x="20.5" y="-62" font-family="Helvetica,sans-Serif" font-size="10.00">tuple</text>
</a>
</g>
</g>
<!-- Node1&#45;&gt;Node3 -->
<g id="edge2" class="edge">
<title>Node1&#45;&gt;Node3</title>
<path fill="none" stroke="#63b8ff" d="M199.01,-164.78C191.57,-151.14 175.4,-124.83 154.5,-110 145.84,-103.86 87.55,-85.65 50.76,-74.52"/>
<polygon fill="#63b8ff" stroke="#63b8ff" points="51.6,-71.12 41.01,-71.59 49.58,-77.82 51.6,-71.12"/>
</g>
<!-- Node4 -->
<g id="node4" class="node">
<title>Node4</title>
<g id="a_node4"><a xlink:title=" ">
<polygon fill="#e0e0e0" stroke="#999999" points="469,-19 392,-19 392,0 469,0 469,-19"/>
<text text-anchor="middle" x="430.5" y="-7" font-family="Helvetica,sans-Serif" font-size="10.00">Eigen/Dense</text>
</a>
</g>
</g>
<!-- Node1&#45;&gt;Node4 -->
<g id="edge3" class="edge">
<title>Node1&#45;&gt;Node4</title>
<path fill="none" stroke="#63b8ff" d="M250.55,-167.93C304.53,-158.74 390.72,-134.87 430.5,-74 439.08,-60.88 438.12,-42.74 435.58,-29.21"/>
<polygon fill="#63b8ff" stroke="#63b8ff" points="438.92,-28.09 433.25,-19.14 432.1,-29.67 438.92,-28.09"/>
</g>
<!-- Node5 -->
<g id="node5" class="node">
<title>Node5</title>
<g id="a_node5"><a xlink:href="task_8hpp.html" target="_top" xlink:title="Declares the abstract Task interface and its derivatives used in the HQP solver.">
<polygon fill="white" stroke="#666666" points="262,-129 203,-129 203,-110 262,-110 262,-129"/>
<text text-anchor="middle" x="232.5" y="-117" font-family="Helvetica,sans-Serif" font-size="10.00">task.hpp</text>
</a>
</g>
</g>
<!-- Node1&#45;&gt;Node5 -->
<g id="edge4" class="edge">
<title>Node1&#45;&gt;Node5</title>
<path fill="none" stroke="#63b8ff" d="M208.29,-164.75C212.26,-157.49 218.03,-146.95 222.93,-137.98"/>
<polygon fill="#63b8ff" stroke="#63b8ff" points="226.07,-139.54 227.8,-129.09 219.93,-136.18 226.07,-139.54"/>
</g>
<!-- Node5&#45;&gt;Node3 -->
<g id="edge5" class="edge">
<title>Node5&#45;&gt;Node3</title>
<path fill="none" stroke="#63b8ff" d="M202.78,-111.58C168.59,-103.55 110.51,-89.67 51.07,-74.07"/>
<polygon fill="#63b8ff" stroke="#63b8ff" points="51.69,-70.62 41.13,-71.45 49.91,-77.39 51.69,-70.62"/>
</g>
<!-- Node5&#45;&gt;Node4 -->
<g id="edge11" class="edge">
<title>Node5&#45;&gt;Node4</title>
<path fill="none" stroke="#63b8ff" d="M262.32,-114.69C307.49,-108.35 390.24,-94.28 411.5,-74 423.59,-62.47 428.08,-43.59 429.7,-29.41"/>
<polygon fill="#63b8ff" stroke="#63b8ff" points="433.2,-29.51 430.47,-19.28 426.22,-28.98 433.2,-29.51"/>
</g>
<!-- Node6 -->
<g id="node6" class="node">
<title>Node6</title>
<g id="a_node6"><a xlink:title=" ">
<polygon fill="#e0e0e0" stroke="#999999" points="331.5,-19 273.5,-19 273.5,0 331.5,0 331.5,-19"/>
<text text-anchor="middle" x="302.5" y="-7" font-family="Helvetica,sans-Serif" font-size="10.00">memory</text>
</a>
</g>
</g>
<!-- Node5&#45;&gt;Node6 -->
<g id="edge6" class="edge">
<title>Node5&#45;&gt;Node6</title>
<path fill="none" stroke="#63b8ff" d="M237.44,-109.73C244.48,-97.35 257.94,-74.11 270.5,-55 276.64,-45.66 283.89,-35.51 289.93,-27.28"/>
<polygon fill="#63b8ff" stroke="#63b8ff" points="292.76,-29.33 295.9,-19.21 287.14,-25.16 292.76,-29.33"/>
</g>
<!-- Node7 -->
<g id="node7" class="node">
<title>Node7</title>
<g id="a_node7"><a xlink:title=" ">
<polygon fill="#e0e0e0" stroke="#999999" points="402,-74 357,-74 357,-55 402,-55 402,-74"/>
<text text-anchor="middle" x="379.5" y="-62" font-family="Helvetica,sans-Serif" font-size="10.00">utility</text>
</a>
</g>
</g>
<!-- Node5&#45;&gt;Node7 -->
<g id="edge7" class="edge">
<title>Node5&#45;&gt;Node7</title>
<path fill="none" stroke="#63b8ff" d="M256.12,-109.98C280.84,-101.07 319.81,-87.02 347.33,-77.1"/>
<polygon fill="#63b8ff" stroke="#63b8ff" points="348.69,-80.33 356.91,-73.65 346.31,-73.75 348.69,-80.33"/>
</g>
<!-- Node8 -->
<g id="node8" class="node">
<title>Node8</title>
<g id="a_node8"><a xlink:title=" ">
<polygon fill="#e0e0e0" stroke="#999999" points="252,-19 183,-19 183,0 252,0 252,-19"/>
<text text-anchor="middle" x="217.5" y="-7" font-family="Helvetica,sans-Serif" font-size="10.00">type_traits</text>
</a>
</g>
</g>
<!-- Node5&#45;&gt;Node8 -->
<g id="edge8" class="edge">
<title>Node5&#45;&gt;Node8</title>
<path fill="none" stroke="#63b8ff" d="M231.27,-109.66C228.84,-92.17 223.38,-52.8 220.11,-29.27"/>
<polygon fill="#63b8ff" stroke="#63b8ff" points="223.55,-28.58 218.7,-19.16 216.61,-29.54 223.55,-28.58"/>
</g>
<!-- Node9 -->
<g id="node9" class="node">
<title>Node9</title>
<g id="a_node9"><a xlink:title=" ">
<polygon fill="#e0e0e0" stroke="#999999" points="111.5,-74 59.5,-74 59.5,-55 111.5,-55 111.5,-74"/>
<text text-anchor="middle" x="85.5" y="-62" font-family="Helvetica,sans-Serif" font-size="10.00">cassert</text>
</a>
</g>
</g>
<!-- Node5&#45;&gt;Node9 -->
<g id="edge9" class="edge">
<title>Node5&#45;&gt;Node9</title>
<path fill="none" stroke="#63b8ff" d="M208.88,-109.98C184.6,-101.23 146.55,-87.51 119.13,-77.62"/>
<polygon fill="#63b8ff" stroke="#63b8ff" points="120.14,-74.27 109.55,-74.17 117.77,-80.85 120.14,-74.27"/>
</g>
<!-- Node10 -->
<g id="node10" class="node">
<title>Node10</title>
<g id="a_node10"><a xlink:title=" ">
<polygon fill="#e0e0e0" stroke="#999999" points="185.5,-74 129.5,-74 129.5,-55 185.5,-55 185.5,-74"/>
<text text-anchor="middle" x="157.5" y="-62" font-family="Helvetica,sans-Serif" font-size="10.00">optional</text>
</a>
</g>
</g>
<!-- Node5&#45;&gt;Node10 -->
<g id="edge10" class="edge">
<title>Node5&#45;&gt;Node10</title>
<path fill="none" stroke="#63b8ff" d="M220.45,-109.98C209.04,-101.92 191.67,-89.65 178.07,-80.03"/>
<polygon fill="#63b8ff" stroke="#63b8ff" points="179.96,-77.08 169.77,-74.17 175.92,-82.8 179.96,-77.08"/>
</g>
<!-- Node11 -->
<g id="node11" class="node">
<title>Node11</title>
<g id="a_node11"><a xlink:href="utils_8hpp.html" target="_top" xlink:title="Declares common utility functions used throughout the HQP solver.">
<polygon fill="white" stroke="#666666" points="339,-74 280,-74 280,-55 339,-55 339,-74"/>
<text text-anchor="middle" x="309.5" y="-62" font-family="Helvetica,sans-Serif" font-size="10.00">utils.hpp</text>
</a>
</g>
</g>
<!-- Node5&#45;&gt;Node11 -->
<g id="edge12" class="edge">
<title>Node5&#45;&gt;Node11</title>
<path fill="none" stroke="#63b8ff" d="M244.87,-109.98C256.59,-101.92 274.42,-89.65 288.39,-80.03"/>
<polygon fill="#63b8ff" stroke="#63b8ff" points="290.65,-82.72 296.9,-74.17 286.68,-76.96 290.65,-82.72"/>
</g>
<!-- Node11&#45;&gt;Node4 -->
<g id="edge15" class="edge">
<title>Node11&#45;&gt;Node4</title>
<path fill="none" stroke="#63b8ff" d="M328.94,-54.98C348.49,-46.42 378.88,-33.11 401.32,-23.28"/>
<polygon fill="#63b8ff" stroke="#63b8ff" points="402.95,-26.39 410.71,-19.17 400.14,-19.98 402.95,-26.39"/>
</g>
<!-- Node11&#45;&gt;Node6 -->
<g id="edge13" class="edge">
<title>Node11&#45;&gt;Node6</title>
<path fill="none" stroke="#63b8ff" d="M308.34,-54.75C307.43,-47.8 306.11,-37.85 304.96,-29.13"/>
<polygon fill="#63b8ff" stroke="#63b8ff" points="308.41,-28.54 303.63,-19.09 301.47,-29.46 308.41,-28.54"/>
</g>
<!-- Node11&#45;&gt;Node8 -->
<g id="edge14" class="edge">
<title>Node11&#45;&gt;Node8</title>
<path fill="none" stroke="#63b8ff" d="M294.72,-54.98C280.32,-46.69 258.19,-33.94 241.31,-24.22"/>
<polygon fill="#63b8ff" stroke="#63b8ff" points="242.96,-21.13 232.55,-19.17 239.47,-27.19 242.96,-21.13"/>
</g>
</g>
</svg>
