<?xml version="1.0" encoding="UTF-8" standalone="no"?>
<!DOCTYPE svg PUBLIC "-//W3C//DTD SVG 1.1//EN"
 "http://www.w3.org/Graphics/SVG/1.1/DTD/svg11.dtd">
<!-- Generated by graphviz version 2.43.0 (0)
 -->
<!-- Title: src/hqp.cpp Pages: 1 -->
<svg width="306pt" height="192pt"
 viewBox="0.00 0.00 306.00 192.00" xmlns="http://www.w3.org/2000/svg" xmlns:xlink="http://www.w3.org/1999/xlink">
<g id="graph0" class="graph" transform="scale(1 1) rotate(0) translate(4 188)">
<title>src/hqp.cpp</title>
<!-- Node1 -->
<g id="node1" class="node">
<title>Node1</title>
<g id="a_node1"><a xlink:title=" ">
<polygon fill="#999999" stroke="#666666" points="179.5,-184 107.5,-184 107.5,-165 179.5,-165 179.5,-184"/>
<text text-anchor="middle" x="143.5" y="-172" font-family="Helvetica,sans-Serif" font-size="10.00">src/hqp.cpp</text>
</a>
</g>
</g>
<!-- Node2 -->
<g id="node2" class="node">
<title>Node2</title>
<g id="a_node2"><a xlink:title=" ">
<polygon fill="#e0e0e0" stroke="#999999" points="97.5,-129 37.5,-129 37.5,-110 97.5,-110 97.5,-129"/>
<text text-anchor="middle" x="67.5" y="-117" font-family="Helvetica,sans-Serif" font-size="10.00">iostream</text>
</a>
</g>
</g>
<!-- Node1&#45;&gt;Node2 -->
<g id="edge1" class="edge">
<title>Node1&#45;&gt;Node2</title>
<path fill="none" stroke="#63b8ff" d="M131.29,-164.98C119.72,-156.92 102.12,-144.65 88.34,-135.03"/>
<polygon fill="#63b8ff" stroke="#63b8ff" points="90.14,-132.02 79.93,-129.17 86.13,-137.76 90.14,-132.02"/>
</g>
<!-- Node3 -->
<g id="node3" class="node">
<title>Node3</title>
<g id="a_node3"><a xlink:href="hqp_8hpp.html" target="_top" xlink:title="Main interface for the Weighted&#45;Hierarchical&#45;QP solver.">
<polygon fill="white" stroke="#666666" points="171.5,-129 115.5,-129 115.5,-110 171.5,-110 171.5,-129"/>
<text text-anchor="middle" x="143.5" y="-117" font-family="Helvetica,sans-Serif" font-size="10.00">hqp.hpp</text>
</a>
</g>
</g>
<!-- Node1&#45;&gt;Node3 -->
<g id="edge2" class="edge">
<title>Node1&#45;&gt;Node3</title>
<path fill="none" stroke="#63b8ff" d="M143.5,-164.75C143.5,-157.8 143.5,-147.85 143.5,-139.13"/>
<polygon fill="#63b8ff" stroke="#63b8ff" points="147,-139.09 143.5,-129.09 140,-139.09 147,-139.09"/>
</g>
<!-- Node9 -->
<g id="node9" class="node">
<title>Node9</title>
<g id="a_node9"><a xlink:href="utils_8hpp.html" target="_top" xlink:title="Declares common utility functions used throughout the HQP solver.">
<polygon fill="white" stroke="#666666" points="298,-74 239,-74 239,-55 298,-55 298,-74"/>
<text text-anchor="middle" x="268.5" y="-62" font-family="Helvetica,sans-Serif" font-size="10.00">utils.hpp</text>
</a>
</g>
</g>
<!-- Node1&#45;&gt;Node9 -->
<g id="edge11" class="edge">
<title>Node1&#45;&gt;Node9</title>
<path fill="none" stroke="#63b8ff" d="M153.73,-164.66C174.99,-146.3 224.16,-103.81 250.71,-80.87"/>
<polygon fill="#63b8ff" stroke="#63b8ff" points="253.2,-83.34 258.48,-74.16 248.62,-78.05 253.2,-83.34"/>
</g>
<!-- Node4 -->
<g id="node4" class="node">
<title>Node4</title>
<g id="a_node4"><a xlink:title=" ">
<polygon fill="#e0e0e0" stroke="#999999" points="144,-74 97,-74 97,-55 144,-55 144,-74"/>
<text text-anchor="middle" x="120.5" y="-62" font-family="Helvetica,sans-Serif" font-size="10.00">vector</text>
</a>
</g>
</g>
<!-- Node3&#45;&gt;Node4 -->
<g id="edge3" class="edge">
<title>Node3&#45;&gt;Node4</title>
<path fill="none" stroke="#63b8ff" d="M139.7,-109.75C136.59,-102.57 132.08,-92.18 128.21,-83.27"/>
<polygon fill="#63b8ff" stroke="#63b8ff" points="131.42,-81.87 124.23,-74.09 125,-84.66 131.42,-81.87"/>
</g>
<!-- Node5 -->
<g id="node5" class="node">
<title>Node5</title>
<g id="a_node5"><a xlink:title=" ">
<polygon fill="#e0e0e0" stroke="#999999" points="41,-19 0,-19 0,0 41,0 41,-19"/>
<text text-anchor="middle" x="20.5" y="-7" font-family="Helvetica,sans-Serif" font-size="10.00">tuple</text>
</a>
</g>
</g>
<!-- Node3&#45;&gt;Node5 -->
<g id="edge4" class="edge">
<title>Node3&#45;&gt;Node5</title>
<path fill="none" stroke="#63b8ff" d="M115.43,-110.99C78.31,-100.77 16.81,-82.77 10.5,-74 1.04,-60.86 5.51,-42.23 11.16,-28.55"/>
<polygon fill="#63b8ff" stroke="#63b8ff" points="14.46,-29.76 15.5,-19.22 8.11,-26.81 14.46,-29.76"/>
</g>
<!-- Node6 -->
<g id="node6" class="node">
<title>Node6</title>
<g id="a_node6"><a xlink:title=" ">
<polygon fill="#e0e0e0" stroke="#999999" points="135.5,-19 77.5,-19 77.5,0 135.5,0 135.5,-19"/>
<text text-anchor="middle" x="106.5" y="-7" font-family="Helvetica,sans-Serif" font-size="10.00">memory</text>
</a>
</g>
</g>
<!-- Node3&#45;&gt;Node6 -->
<g id="edge5" class="edge">
<title>Node3&#45;&gt;Node6</title>
<path fill="none" stroke="#63b8ff" d="M147.48,-109.91C152.7,-97.35 160.32,-73.45 152.5,-55 147.52,-43.25 137.75,-33.09 128.49,-25.45"/>
<polygon fill="#63b8ff" stroke="#63b8ff" points="130.35,-22.47 120.28,-19.18 126.1,-28.03 130.35,-22.47"/>
</g>
<!-- Node7 -->
<g id="node7" class="node">
<title>Node7</title>
<g id="a_node7"><a xlink:title=" ">
<polygon fill="#e0e0e0" stroke="#999999" points="249,-19 172,-19 172,0 249,0 249,-19"/>
<text text-anchor="middle" x="210.5" y="-7" font-family="Helvetica,sans-Serif" font-size="10.00">Eigen/Dense</text>
</a>
</g>
</g>
<!-- Node3&#45;&gt;Node7 -->
<g id="edge6" class="edge">
<title>Node3&#45;&gt;Node7</title>
<path fill="none" stroke="#63b8ff" d="M148.98,-109.66C160.08,-91.77 185.37,-51 199.83,-27.69"/>
<polygon fill="#63b8ff" stroke="#63b8ff" points="202.83,-29.5 205.13,-19.16 196.88,-25.81 202.83,-29.5"/>
</g>
<!-- Node8 -->
<g id="node8" class="node">
<title>Node8</title>
<g id="a_node8"><a xlink:href="task_8hpp.html" target="_top" xlink:title="Declares the abstract Task interface and its derivatives used in the HQP solver.">
<polygon fill="white" stroke="#666666" points="79,-74 20,-74 20,-55 79,-55 79,-74"/>
<text text-anchor="middle" x="49.5" y="-62" font-family="Helvetica,sans-Serif" font-size="10.00">task.hpp</text>
</a>
</g>
</g>
<!-- Node3&#45;&gt;Node8 -->
<g id="edge7" class="edge">
<title>Node3&#45;&gt;Node8</title>
<path fill="none" stroke="#63b8ff" d="M128.4,-109.98C113.68,-101.69 91.08,-88.94 73.83,-79.22"/>
<polygon fill="#63b8ff" stroke="#63b8ff" points="75.31,-76.03 64.88,-74.17 71.87,-82.13 75.31,-76.03"/>
</g>
<!-- Node8&#45;&gt;Node5 -->
<g id="edge8" class="edge">
<title>Node8&#45;&gt;Node5</title>
<path fill="none" stroke="#63b8ff" d="M44.71,-54.75C40.74,-47.49 34.97,-36.95 30.07,-27.98"/>
<polygon fill="#63b8ff" stroke="#63b8ff" points="33.07,-26.18 25.2,-19.09 26.93,-29.54 33.07,-26.18"/>
</g>
<!-- Node8&#45;&gt;Node6 -->
<g id="edge9" class="edge">
<title>Node8&#45;&gt;Node6</title>
<path fill="none" stroke="#63b8ff" d="M58.66,-54.98C67,-47.23 79.53,-35.58 89.68,-26.14"/>
<polygon fill="#63b8ff" stroke="#63b8ff" points="92.24,-28.54 97.18,-19.17 87.47,-23.42 92.24,-28.54"/>
</g>
<!-- Node8&#45;&gt;Node7 -->
<g id="edge10" class="edge">
<title>Node8&#45;&gt;Node7</title>
<path fill="none" stroke="#63b8ff" d="M75.37,-54.98C102.28,-46.13 144.62,-32.19 174.73,-22.28"/>
<polygon fill="#63b8ff" stroke="#63b8ff" points="176.03,-25.53 184.43,-19.08 173.84,-18.88 176.03,-25.53"/>
</g>
<!-- Node9&#45;&gt;Node7 -->
<g id="edge12" class="edge">
<title>Node9&#45;&gt;Node7</title>
<path fill="none" stroke="#63b8ff" d="M259.18,-54.98C250.69,-47.23 237.94,-35.58 227.62,-26.14"/>
<polygon fill="#63b8ff" stroke="#63b8ff" points="229.73,-23.33 219.99,-19.17 225.01,-28.5 229.73,-23.33"/>
</g>
</g>
</svg>
