<?xml version="1.0" encoding="UTF-8" standalone="no"?>
<!DOCTYPE svg PUBLIC "-//W3C//DTD SVG 1.1//EN"
 "http://www.w3.org/Graphics/SVG/1.1/DTD/svg11.dtd">
<!-- Generated by graphviz version 2.43.0 (0)
 -->
<!-- Title: include/hqp.hpp Pages: 1 -->
<svg width="529pt" height="137pt"
 viewBox="0.00 0.00 529.00 137.00" xmlns="http://www.w3.org/2000/svg" xmlns:xlink="http://www.w3.org/1999/xlink">
<g id="graph0" class="graph" transform="scale(1 1) rotate(0) translate(4 133)">
<title>include/hqp.hpp</title>
<!-- Node1 -->
<g id="node1" class="node">
<title>Node1</title>
<g id="a_node1"><a xlink:title="Main interface for the Weighted&#45;Hierarchical&#45;QP solver.">
<polygon fill="#999999" stroke="#666666" points="160.5,-129 66.5,-129 66.5,-110 160.5,-110 160.5,-129"/>
<text text-anchor="middle" x="113.5" y="-117" font-family="Helvetica,sans-Serif" font-size="10.00">include/hqp.hpp</text>
</a>
</g>
</g>
<!-- Node2 -->
<g id="node2" class="node">
<title>Node2</title>
<g id="a_node2"><a xlink:title=" ">
<polygon fill="#e0e0e0" stroke="#999999" points="47,-74 0,-74 0,-55 47,-55 47,-74"/>
<text text-anchor="middle" x="23.5" y="-62" font-family="Helvetica,sans-Serif" font-size="10.00">vector</text>
</a>
</g>
</g>
<!-- Node1&#45;&gt;Node2 -->
<g id="edge1" class="edge">
<title>Node1&#45;&gt;Node2</title>
<path fill="none" stroke="#63b8ff" d="M99.04,-109.98C85.08,-101.77 63.71,-89.18 47.25,-79.49"/>
<polygon fill="#63b8ff" stroke="#63b8ff" points="48.62,-76.23 38.22,-74.17 45.06,-82.26 48.62,-76.23"/>
</g>
<!-- Node3 -->
<g id="node3" class="node">
<title>Node3</title>
<g id="a_node3"><a xlink:title=" ">
<polygon fill="#e0e0e0" stroke="#999999" points="54,-19 13,-19 13,0 54,0 54,-19"/>
<text text-anchor="middle" x="33.5" y="-7" font-family="Helvetica,sans-Serif" font-size="10.00">tuple</text>
</a>
</g>
</g>
<!-- Node1&#45;&gt;Node3 -->
<g id="edge2" class="edge">
<title>Node1&#45;&gt;Node3</title>
<path fill="none" stroke="#63b8ff" d="M106.95,-109.66C93.64,-91.69 63.23,-50.64 46.01,-27.38"/>
<polygon fill="#63b8ff" stroke="#63b8ff" points="48.68,-25.11 39.91,-19.16 43.05,-29.28 48.68,-25.11"/>
</g>
<!-- Node4 -->
<g id="node4" class="node">
<title>Node4</title>
<g id="a_node4"><a xlink:title=" ">
<polygon fill="#e0e0e0" stroke="#999999" points="130.5,-19 72.5,-19 72.5,0 130.5,0 130.5,-19"/>
<text text-anchor="middle" x="101.5" y="-7" font-family="Helvetica,sans-Serif" font-size="10.00">memory</text>
</a>
</g>
</g>
<!-- Node1&#45;&gt;Node4 -->
<g id="edge3" class="edge">
<title>Node1&#45;&gt;Node4</title>
<path fill="none" stroke="#63b8ff" d="M112.52,-109.66C110.57,-92.17 106.2,-52.8 103.59,-29.27"/>
<polygon fill="#63b8ff" stroke="#63b8ff" points="107.05,-28.71 102.46,-19.16 100.09,-29.48 107.05,-28.71"/>
</g>
<!-- Node5 -->
<g id="node5" class="node">
<title>Node5</title>
<g id="a_node5"><a xlink:title=" ">
<polygon fill="#e0e0e0" stroke="#999999" points="226,-19 149,-19 149,0 226,0 226,-19"/>
<text text-anchor="middle" x="187.5" y="-7" font-family="Helvetica,sans-Serif" font-size="10.00">Eigen/Dense</text>
</a>
</g>
</g>
<!-- Node1&#45;&gt;Node5 -->
<g id="edge4" class="edge">
<title>Node1&#45;&gt;Node5</title>
<path fill="none" stroke="#63b8ff" d="M119.56,-109.66C131.81,-91.77 159.75,-51 175.72,-27.69"/>
<polygon fill="#63b8ff" stroke="#63b8ff" points="178.8,-29.39 181.57,-19.16 173.03,-25.43 178.8,-29.39"/>
</g>
<!-- Node6 -->
<g id="node6" class="node">
<title>Node6</title>
<g id="a_node6"><a xlink:href="task_8hpp.html" target="_top" xlink:title="Declares the abstract Task interface and its derivatives used in the HQP solver.">
<polygon fill="white" stroke="#666666" points="279,-74 220,-74 220,-55 279,-55 279,-74"/>
<text text-anchor="middle" x="249.5" y="-62" font-family="Helvetica,sans-Serif" font-size="10.00">task.hpp</text>
</a>
</g>
</g>
<!-- Node1&#45;&gt;Node6 -->
<g id="edge5" class="edge">
<title>Node1&#45;&gt;Node6</title>
<path fill="none" stroke="#63b8ff" d="M135.35,-109.98C157.62,-101.3 192.4,-87.75 217.72,-77.88"/>
<polygon fill="#63b8ff" stroke="#63b8ff" points="219.21,-81.06 227.25,-74.17 216.66,-74.54 219.21,-81.06"/>
</g>
<!-- Node6&#45;&gt;Node3 -->
<g id="edge6" class="edge">
<title>Node6&#45;&gt;Node3</title>
<path fill="none" stroke="#63b8ff" d="M219.77,-56.79C184.84,-48.81 124.92,-34.86 63.92,-19.02"/>
<polygon fill="#63b8ff" stroke="#63b8ff" points="64.69,-15.6 54.13,-16.46 62.92,-22.38 64.69,-15.6"/>
</g>
<!-- Node6&#45;&gt;Node4 -->
<g id="edge7" class="edge">
<title>Node6&#45;&gt;Node4</title>
<path fill="none" stroke="#63b8ff" d="M225.72,-54.98C201.27,-46.23 162.97,-32.51 135.35,-22.62"/>
<polygon fill="#63b8ff" stroke="#63b8ff" points="136.31,-19.25 125.71,-19.17 133.95,-25.84 136.31,-19.25"/>
</g>
<!-- Node6&#45;&gt;Node5 -->
<g id="edge12" class="edge">
<title>Node6&#45;&gt;Node5</title>
<path fill="none" stroke="#63b8ff" d="M239.54,-54.98C230.37,-47.15 216.56,-35.34 205.47,-25.86"/>
<polygon fill="#63b8ff" stroke="#63b8ff" points="207.52,-23.01 197.64,-19.17 202.97,-28.33 207.52,-23.01"/>
</g>
<!-- Node7 -->
<g id="node7" class="node">
<title>Node7</title>
<g id="a_node7"><a xlink:title=" ">
<polygon fill="#e0e0e0" stroke="#999999" points="521,-19 476,-19 476,0 521,0 521,-19"/>
<text text-anchor="middle" x="498.5" y="-7" font-family="Helvetica,sans-Serif" font-size="10.00">utility</text>
</a>
</g>
</g>
<!-- Node6&#45;&gt;Node7 -->
<g id="edge8" class="edge">
<title>Node6&#45;&gt;Node7</title>
<path fill="none" stroke="#63b8ff" d="M279.1,-57.99C319.18,-50.4 393.15,-35.98 466.01,-19"/>
<polygon fill="#63b8ff" stroke="#63b8ff" points="466.88,-22.39 475.81,-16.7 465.28,-15.58 466.88,-22.39"/>
</g>
<!-- Node8 -->
<g id="node8" class="node">
<title>Node8</title>
<g id="a_node8"><a xlink:title=" ">
<polygon fill="#e0e0e0" stroke="#999999" points="313,-19 244,-19 244,0 313,0 313,-19"/>
<text text-anchor="middle" x="278.5" y="-7" font-family="Helvetica,sans-Serif" font-size="10.00">type_traits</text>
</a>
</g>
</g>
<!-- Node6&#45;&gt;Node8 -->
<g id="edge9" class="edge">
<title>Node6&#45;&gt;Node8</title>
<path fill="none" stroke="#63b8ff" d="M254.29,-54.75C258.26,-47.49 264.03,-36.95 268.93,-27.98"/>
<polygon fill="#63b8ff" stroke="#63b8ff" points="272.07,-29.54 273.8,-19.09 265.93,-26.18 272.07,-29.54"/>
</g>
<!-- Node9 -->
<g id="node9" class="node">
<title>Node9</title>
<g id="a_node9"><a xlink:title=" ">
<polygon fill="#e0e0e0" stroke="#999999" points="383.5,-19 331.5,-19 331.5,0 383.5,0 383.5,-19"/>
<text text-anchor="middle" x="357.5" y="-7" font-family="Helvetica,sans-Serif" font-size="10.00">cassert</text>
</a>
</g>
</g>
<!-- Node6&#45;&gt;Node9 -->
<g id="edge10" class="edge">
<title>Node6&#45;&gt;Node9</title>
<path fill="none" stroke="#63b8ff" d="M266.85,-54.98C284.07,-46.54 310.7,-33.47 330.65,-23.68"/>
<polygon fill="#63b8ff" stroke="#63b8ff" points="332.4,-26.72 339.83,-19.17 329.31,-20.43 332.4,-26.72"/>
</g>
<!-- Node10 -->
<g id="node10" class="node">
<title>Node10</title>
<g id="a_node10"><a xlink:title=" ">
<polygon fill="#e0e0e0" stroke="#999999" points="457.5,-19 401.5,-19 401.5,0 457.5,0 457.5,-19"/>
<text text-anchor="middle" x="429.5" y="-7" font-family="Helvetica,sans-Serif" font-size="10.00">optional</text>
</a>
</g>
</g>
<!-- Node6&#45;&gt;Node10 -->
<g id="edge11" class="edge">
<title>Node6&#45;&gt;Node10</title>
<path fill="none" stroke="#63b8ff" d="M278.42,-54.98C309.04,-45.97 357.52,-31.69 391.28,-21.75"/>
<polygon fill="#63b8ff" stroke="#63b8ff" points="392.64,-25 401.25,-18.82 390.66,-18.29 392.64,-25"/>
</g>
</g>
</svg>
