<?xml version="1.0" encoding="UTF-8" standalone="no"?>
<!DOCTYPE svg PUBLIC "-//W3C//DTD SVG 1.1//EN"
 "http://www.w3.org/Graphics/SVG/1.1/DTD/svg11.dtd">
<!-- Generated by graphviz version 2.43.0 (0)
 -->
<!-- Title: src/hqp.cpp Pages: 1 -->
<svg width="516pt" height="192pt"
 viewBox="0.00 0.00 515.50 192.00" xmlns="http://www.w3.org/2000/svg" xmlns:xlink="http://www.w3.org/1999/xlink">
<g id="graph0" class="graph" transform="scale(1 1) rotate(0) translate(4 188)">
<title>src/hqp.cpp</title>
<!-- Node1 -->
<g id="node1" class="node">
<title>Node1</title>
<g id="a_node1"><a xlink:title=" ">
<polygon fill="#999999" stroke="#666666" points="380,-184 308,-184 308,-165 380,-165 380,-184"/>
<text text-anchor="middle" x="344" y="-172" font-family="Helvetica,sans-Serif" font-size="10.00">src/hqp.cpp</text>
</a>
</g>
</g>
<!-- Node2 -->
<g id="node2" class="node">
<title>Node2</title>
<g id="a_node2"><a xlink:title=" ">
<polygon fill="#e0e0e0" stroke="#999999" points="298,-129 238,-129 238,-110 298,-110 298,-129"/>
<text text-anchor="middle" x="268" y="-117" font-family="Helvetica,sans-Serif" font-size="10.00">iostream</text>
</a>
</g>
</g>
<!-- Node1&#45;&gt;Node2 -->
<g id="edge1" class="edge">
<title>Node1&#45;&gt;Node2</title>
<path fill="none" stroke="#63b8ff" d="M331.79,-164.98C320.22,-156.92 302.62,-144.65 288.84,-135.03"/>
<polygon fill="#63b8ff" stroke="#63b8ff" points="290.64,-132.02 280.43,-129.17 286.63,-137.76 290.64,-132.02"/>
</g>
<!-- Node3 -->
<g id="node3" class="node">
<title>Node3</title>
<g id="a_node3"><a xlink:href="hqp_8hpp.html" target="_top" xlink:title="Main interface for the Weighted&#45;Hierarchical&#45;QP solver.">
<polygon fill="white" stroke="#666666" points="372,-129 316,-129 316,-110 372,-110 372,-129"/>
<text text-anchor="middle" x="344" y="-117" font-family="Helvetica,sans-Serif" font-size="10.00">hqp.hpp</text>
</a>
</g>
</g>
<!-- Node1&#45;&gt;Node3 -->
<g id="edge2" class="edge">
<title>Node1&#45;&gt;Node3</title>
<path fill="none" stroke="#63b8ff" d="M344,-164.75C344,-157.8 344,-147.85 344,-139.13"/>
<polygon fill="#63b8ff" stroke="#63b8ff" points="347.5,-139.09 344,-129.09 340.5,-139.09 347.5,-139.09"/>
</g>
<!-- Node13 -->
<g id="node13" class="node">
<title>Node13</title>
<g id="a_node13"><a xlink:href="utils_8hpp.html" target="_top" xlink:title="Declares common utility functions used throughout the HQP solver.">
<polygon fill="white" stroke="#666666" points="498.5,-74 439.5,-74 439.5,-55 498.5,-55 498.5,-74"/>
<text text-anchor="middle" x="469" y="-62" font-family="Helvetica,sans-Serif" font-size="10.00">utils.hpp</text>
</a>
</g>
</g>
<!-- Node1&#45;&gt;Node13 -->
<g id="edge15" class="edge">
<title>Node1&#45;&gt;Node13</title>
<path fill="none" stroke="#63b8ff" d="M354.23,-164.66C375.49,-146.3 424.66,-103.81 451.21,-80.87"/>
<polygon fill="#63b8ff" stroke="#63b8ff" points="453.7,-83.34 458.98,-74.16 449.12,-78.05 453.7,-83.34"/>
</g>
<!-- Node4 -->
<g id="node4" class="node">
<title>Node4</title>
<g id="a_node4"><a xlink:title=" ">
<polygon fill="#e0e0e0" stroke="#999999" points="344.5,-74 297.5,-74 297.5,-55 344.5,-55 344.5,-74"/>
<text text-anchor="middle" x="321" y="-62" font-family="Helvetica,sans-Serif" font-size="10.00">vector</text>
</a>
</g>
</g>
<!-- Node3&#45;&gt;Node4 -->
<g id="edge3" class="edge">
<title>Node3&#45;&gt;Node4</title>
<path fill="none" stroke="#63b8ff" d="M340.2,-109.75C337.09,-102.57 332.58,-92.18 328.71,-83.27"/>
<polygon fill="#63b8ff" stroke="#63b8ff" points="331.92,-81.87 324.73,-74.09 325.5,-84.66 331.92,-81.87"/>
</g>
<!-- Node5 -->
<g id="node5" class="node">
<title>Node5</title>
<g id="a_node5"><a xlink:title=" ">
<polygon fill="#e0e0e0" stroke="#999999" points="412.5,-19 371.5,-19 371.5,0 412.5,0 412.5,-19"/>
<text text-anchor="middle" x="392" y="-7" font-family="Helvetica,sans-Serif" font-size="10.00">tuple</text>
</a>
</g>
</g>
<!-- Node3&#45;&gt;Node5 -->
<g id="edge4" class="edge">
<title>Node3&#45;&gt;Node5</title>
<path fill="none" stroke="#63b8ff" d="M347.93,-109.66C355.81,-91.93 373.68,-51.73 384.08,-28.32"/>
<polygon fill="#63b8ff" stroke="#63b8ff" points="387.29,-29.72 388.15,-19.16 380.89,-26.87 387.29,-29.72"/>
</g>
<!-- Node6 -->
<g id="node6" class="node">
<title>Node6</title>
<g id="a_node6"><a xlink:title=" ">
<polygon fill="#e0e0e0" stroke="#999999" points="58,-19 0,-19 0,0 58,0 58,-19"/>
<text text-anchor="middle" x="29" y="-7" font-family="Helvetica,sans-Serif" font-size="10.00">memory</text>
</a>
</g>
</g>
<!-- Node3&#45;&gt;Node6 -->
<g id="edge5" class="edge">
<title>Node3&#45;&gt;Node6</title>
<path fill="none" stroke="#63b8ff" d="M317.77,-109.93C290.72,-101.07 247.35,-86.75 210,-74 158.44,-56.39 98.85,-35.35 62.56,-22.46"/>
<polygon fill="#63b8ff" stroke="#63b8ff" points="63.56,-19.1 52.96,-19.05 61.21,-25.7 63.56,-19.1"/>
</g>
<!-- Node7 -->
<g id="node7" class="node">
<title>Node7</title>
<g id="a_node7"><a xlink:title=" ">
<polygon fill="#e0e0e0" stroke="#999999" points="507.5,-19 430.5,-19 430.5,0 507.5,0 507.5,-19"/>
<text text-anchor="middle" x="469" y="-7" font-family="Helvetica,sans-Serif" font-size="10.00">Eigen/Dense</text>
</a>
</g>
</g>
<!-- Node3&#45;&gt;Node7 -->
<g id="edge6" class="edge">
<title>Node3&#45;&gt;Node7</title>
<path fill="none" stroke="#63b8ff" d="M354.23,-109.66C375.49,-91.3 424.66,-48.81 451.21,-25.87"/>
<polygon fill="#63b8ff" stroke="#63b8ff" points="453.7,-28.34 458.98,-19.16 449.12,-23.05 453.7,-28.34"/>
</g>
<!-- Node8 -->
<g id="node8" class="node">
<title>Node8</title>
<g id="a_node8"><a xlink:href="task_8hpp.html" target="_top" xlink:title="Declares the abstract Task interface and its derivatives used in the HQP solver.">
<polygon fill="white" stroke="#666666" points="278.5,-74 219.5,-74 219.5,-55 278.5,-55 278.5,-74"/>
<text text-anchor="middle" x="249" y="-62" font-family="Helvetica,sans-Serif" font-size="10.00">task.hpp</text>
</a>
</g>
</g>
<!-- Node3&#45;&gt;Node8 -->
<g id="edge7" class="edge">
<title>Node3&#45;&gt;Node8</title>
<path fill="none" stroke="#63b8ff" d="M328.74,-109.98C313.87,-101.69 291.02,-88.94 273.58,-79.22"/>
<polygon fill="#63b8ff" stroke="#63b8ff" points="274.98,-75.99 264.54,-74.17 271.57,-82.1 274.98,-75.99"/>
</g>
<!-- Node8&#45;&gt;Node5 -->
<g id="edge8" class="edge">
<title>Node8&#45;&gt;Node5</title>
<path fill="none" stroke="#63b8ff" d="M271.98,-54.98C296.34,-45.96 334.93,-31.65 361.75,-21.71"/>
<polygon fill="#63b8ff" stroke="#63b8ff" points="363.24,-24.89 371.4,-18.13 360.81,-18.33 363.24,-24.89"/>
</g>
<!-- Node8&#45;&gt;Node6 -->
<g id="edge9" class="edge">
<title>Node8&#45;&gt;Node6</title>
<path fill="none" stroke="#63b8ff" d="M219.33,-56.35C180.24,-46.94 111.39,-30.35 68.09,-19.92"/>
<polygon fill="#63b8ff" stroke="#63b8ff" points="68.74,-16.47 58.2,-17.53 67.1,-23.28 68.74,-16.47"/>
</g>
<!-- Node8&#45;&gt;Node7 -->
<g id="edge14" class="edge">
<title>Node8&#45;&gt;Node7</title>
<path fill="none" stroke="#63b8ff" d="M278.67,-56.35C315.99,-47.36 380.44,-31.83 423.88,-21.37"/>
<polygon fill="#63b8ff" stroke="#63b8ff" points="424.73,-24.77 433.63,-19.02 423.09,-17.96 424.73,-24.77"/>
</g>
<!-- Node9 -->
<g id="node9" class="node">
<title>Node9</title>
<g id="a_node9"><a xlink:title=" ">
<polygon fill="#e0e0e0" stroke="#999999" points="195.5,-19 150.5,-19 150.5,0 195.5,0 195.5,-19"/>
<text text-anchor="middle" x="173" y="-7" font-family="Helvetica,sans-Serif" font-size="10.00">utility</text>
</a>
</g>
</g>
<!-- Node8&#45;&gt;Node9 -->
<g id="edge10" class="edge">
<title>Node8&#45;&gt;Node9</title>
<path fill="none" stroke="#63b8ff" d="M236.79,-54.98C225.22,-46.92 207.62,-34.65 193.84,-25.03"/>
<polygon fill="#63b8ff" stroke="#63b8ff" points="195.64,-22.02 185.43,-19.17 191.63,-27.76 195.64,-22.02"/>
</g>
<!-- Node10 -->
<g id="node10" class="node">
<title>Node10</title>
<g id="a_node10"><a xlink:title=" ">
<polygon fill="#e0e0e0" stroke="#999999" points="282.5,-19 213.5,-19 213.5,0 282.5,0 282.5,-19"/>
<text text-anchor="middle" x="248" y="-7" font-family="Helvetica,sans-Serif" font-size="10.00">type_traits</text>
</a>
</g>
</g>
<!-- Node8&#45;&gt;Node10 -->
<g id="edge11" class="edge">
<title>Node8&#45;&gt;Node10</title>
<path fill="none" stroke="#63b8ff" d="M248.83,-54.75C248.7,-47.8 248.52,-37.85 248.35,-29.13"/>
<polygon fill="#63b8ff" stroke="#63b8ff" points="251.85,-29.02 248.16,-19.09 244.85,-29.15 251.85,-29.02"/>
</g>
<!-- Node11 -->
<g id="node11" class="node">
<title>Node11</title>
<g id="a_node11"><a xlink:title=" ">
<polygon fill="#e0e0e0" stroke="#999999" points="353,-19 301,-19 301,0 353,0 353,-19"/>
<text text-anchor="middle" x="327" y="-7" font-family="Helvetica,sans-Serif" font-size="10.00">cassert</text>
</a>
</g>
</g>
<!-- Node8&#45;&gt;Node11 -->
<g id="edge12" class="edge">
<title>Node8&#45;&gt;Node11</title>
<path fill="none" stroke="#63b8ff" d="M261.53,-54.98C273.4,-46.92 291.46,-34.65 305.61,-25.03"/>
<polygon fill="#63b8ff" stroke="#63b8ff" points="307.94,-27.69 314.24,-19.17 304,-21.9 307.94,-27.69"/>
</g>
<!-- Node12 -->
<g id="node12" class="node">
<title>Node12</title>
<g id="a_node12"><a xlink:title=" ">
<polygon fill="#e0e0e0" stroke="#999999" points="132,-19 76,-19 76,0 132,0 132,-19"/>
<text text-anchor="middle" x="104" y="-7" font-family="Helvetica,sans-Serif" font-size="10.00">optional</text>
</a>
</g>
</g>
<!-- Node8&#45;&gt;Node12 -->
<g id="edge13" class="edge">
<title>Node8&#45;&gt;Node12</title>
<path fill="none" stroke="#63b8ff" d="M225.7,-54.98C201.75,-46.23 164.22,-32.51 137.17,-22.62"/>
<polygon fill="#63b8ff" stroke="#63b8ff" points="138.31,-19.32 127.72,-19.17 135.91,-25.89 138.31,-19.32"/>
</g>
<!-- Node13&#45;&gt;Node7 -->
<g id="edge16" class="edge">
<title>Node13&#45;&gt;Node7</title>
<path fill="none" stroke="#63b8ff" d="M469,-54.75C469,-47.8 469,-37.85 469,-29.13"/>
<polygon fill="#63b8ff" stroke="#63b8ff" points="472.5,-29.09 469,-19.09 465.5,-29.09 472.5,-29.09"/>
</g>
</g>
</svg>
