<?xml version="1.0" encoding="UTF-8" standalone="no"?>
<!DOCTYPE svg PUBLIC "-//W3C//DTD SVG 1.1//EN"
 "http://www.w3.org/Graphics/SVG/1.1/DTD/svg11.dtd">
<!-- Generated by graphviz version 2.43.0 (0)
 -->
<!-- Title: src/hqp.cpp Pages: 1 -->
<svg width="462pt" height="247pt"
 viewBox="0.00 0.00 462.42 247.00" xmlns="http://www.w3.org/2000/svg" xmlns:xlink="http://www.w3.org/1999/xlink">
<g id="graph0" class="graph" transform="scale(1 1) rotate(0) translate(4 243)">
<title>src/hqp.cpp</title>
<!-- Node1 -->
<g id="node1" class="node">
<title>Node1</title>
<g id="a_node1"><a xlink:title=" ">
<polygon fill="#999999" stroke="#666666" points="286.92,-239 214.92,-239 214.92,-220 286.92,-220 286.92,-239"/>
<text text-anchor="middle" x="250.92" y="-227" font-family="Helvetica,sans-Serif" font-size="10.00">src/hqp.cpp</text>
</a>
</g>
</g>
<!-- Node2 -->
<g id="node2" class="node">
<title>Node2</title>
<g id="a_node2"><a xlink:title=" ">
<polygon fill="#e0e0e0" stroke="#999999" points="204.92,-184 144.92,-184 144.92,-165 204.92,-165 204.92,-184"/>
<text text-anchor="middle" x="174.92" y="-172" font-family="Helvetica,sans-Serif" font-size="10.00">iostream</text>
</a>
</g>
</g>
<!-- Node1&#45;&gt;Node2 -->
<g id="edge1" class="edge">
<title>Node1&#45;&gt;Node2</title>
<path fill="none" stroke="#63b8ff" d="M238.7,-219.98C227.14,-211.92 209.54,-199.65 195.75,-190.03"/>
<polygon fill="#63b8ff" stroke="#63b8ff" points="197.55,-187.02 187.35,-184.17 193.55,-192.76 197.55,-187.02"/>
</g>
<!-- Node3 -->
<g id="node3" class="node">
<title>Node3</title>
<g id="a_node3"><a xlink:href="hqp_8hpp.html" target="_top" xlink:title="Main interface for the Weighted&#45;Hierarchical&#45;QP solver.">
<polygon fill="white" stroke="#666666" points="278.92,-184 222.92,-184 222.92,-165 278.92,-165 278.92,-184"/>
<text text-anchor="middle" x="250.92" y="-172" font-family="Helvetica,sans-Serif" font-size="10.00">hqp.hpp</text>
</a>
</g>
</g>
<!-- Node1&#45;&gt;Node3 -->
<g id="edge2" class="edge">
<title>Node1&#45;&gt;Node3</title>
<path fill="none" stroke="#63b8ff" d="M250.92,-219.75C250.92,-212.8 250.92,-202.85 250.92,-194.13"/>
<polygon fill="#63b8ff" stroke="#63b8ff" points="254.42,-194.09 250.92,-184.09 247.42,-194.09 254.42,-194.09"/>
</g>
<!-- Node13 -->
<g id="node13" class="node">
<title>Node13</title>
<g id="a_node13"><a xlink:href="utils_8hpp.html" target="_top" xlink:title="Declares common utility functions used throughout the HQP solver.">
<polygon fill="white" stroke="#666666" points="454.42,-74 395.42,-74 395.42,-55 454.42,-55 454.42,-74"/>
<text text-anchor="middle" x="424.92" y="-62" font-family="Helvetica,sans-Serif" font-size="10.00">utils.hpp</text>
</a>
</g>
</g>
<!-- Node1&#45;&gt;Node13 -->
<g id="edge19" class="edge">
<title>Node1&#45;&gt;Node13</title>
<path fill="none" stroke="#63b8ff" d="M261.59,-219.77C282.13,-202.85 328.36,-164.14 364.92,-129 380.88,-113.65 398.15,-95.15 410.05,-82.09"/>
<polygon fill="#63b8ff" stroke="#63b8ff" points="412.91,-84.15 417.02,-74.38 407.72,-79.45 412.91,-84.15"/>
</g>
<!-- Node4 -->
<g id="node4" class="node">
<title>Node4</title>
<g id="a_node4"><a xlink:title=" ">
<polygon fill="#e0e0e0" stroke="#999999" points="355.42,-129 308.42,-129 308.42,-110 355.42,-110 355.42,-129"/>
<text text-anchor="middle" x="331.92" y="-117" font-family="Helvetica,sans-Serif" font-size="10.00">vector</text>
</a>
</g>
</g>
<!-- Node3&#45;&gt;Node4 -->
<g id="edge3" class="edge">
<title>Node3&#45;&gt;Node4</title>
<path fill="none" stroke="#63b8ff" d="M263.93,-164.98C276.37,-156.84 295.37,-144.41 310.12,-134.76"/>
<polygon fill="#63b8ff" stroke="#63b8ff" points="312.21,-137.57 318.66,-129.17 308.38,-131.72 312.21,-137.57"/>
</g>
<!-- Node5 -->
<g id="node5" class="node">
<title>Node5</title>
<g id="a_node5"><a xlink:title=" ">
<polygon fill="#e0e0e0" stroke="#999999" points="54.42,-74 13.42,-74 13.42,-55 54.42,-55 54.42,-74"/>
<text text-anchor="middle" x="33.92" y="-62" font-family="Helvetica,sans-Serif" font-size="10.00">tuple</text>
</a>
</g>
</g>
<!-- Node3&#45;&gt;Node5 -->
<g id="edge4" class="edge">
<title>Node3&#45;&gt;Node5</title>
<path fill="none" stroke="#63b8ff" d="M233.52,-164.84C195.58,-145.96 105.15,-100.96 60.21,-78.59"/>
<polygon fill="#63b8ff" stroke="#63b8ff" points="61.6,-75.37 51.09,-74.05 58.48,-81.64 61.6,-75.37"/>
</g>
<!-- Node6 -->
<g id="node6" class="node">
<title>Node6</title>
<g id="a_node6"><a xlink:title=" ">
<polygon fill="#e0e0e0" stroke="#999999" points="121.42,-19 44.42,-19 44.42,0 121.42,0 121.42,-19"/>
<text text-anchor="middle" x="82.92" y="-7" font-family="Helvetica,sans-Serif" font-size="10.00">Eigen/Dense</text>
</a>
</g>
</g>
<!-- Node3&#45;&gt;Node6 -->
<g id="edge5" class="edge">
<title>Node3&#45;&gt;Node6</title>
<path fill="none" stroke="#63b8ff" d="M222.9,-166.53C163.6,-151.14 28.82,-112.54 3.92,-74 -10.44,-51.79 19.29,-33.77 46.28,-22.68"/>
<polygon fill="#63b8ff" stroke="#63b8ff" points="47.58,-25.93 55.64,-19.05 45.05,-19.4 47.58,-25.93"/>
</g>
<!-- Node7 -->
<g id="node7" class="node">
<title>Node7</title>
<g id="a_node7"><a xlink:href="task_8hpp.html" target="_top" xlink:title="Declares the abstract Task interface and its derivatives used in the HQP solver.">
<polygon fill="white" stroke="#666666" points="251.42,-129 192.42,-129 192.42,-110 251.42,-110 251.42,-129"/>
<text text-anchor="middle" x="221.92" y="-117" font-family="Helvetica,sans-Serif" font-size="10.00">task.hpp</text>
</a>
</g>
</g>
<!-- Node3&#45;&gt;Node7 -->
<g id="edge6" class="edge">
<title>Node3&#45;&gt;Node7</title>
<path fill="none" stroke="#63b8ff" d="M246.13,-164.75C242.16,-157.49 236.39,-146.95 231.48,-137.98"/>
<polygon fill="#63b8ff" stroke="#63b8ff" points="234.49,-136.18 226.61,-129.09 228.34,-139.54 234.49,-136.18"/>
</g>
<!-- Node3&#45;&gt;Node13 -->
<g id="edge18" class="edge">
<title>Node3&#45;&gt;Node13</title>
<path fill="none" stroke="#63b8ff" d="M255.44,-164.83C262.94,-151.27 279.18,-125.05 299.92,-110 325.43,-91.49 359.38,-80.05 385.46,-73.42"/>
<polygon fill="#63b8ff" stroke="#63b8ff" points="386.49,-76.77 395.39,-71.02 384.85,-69.96 386.49,-76.77"/>
</g>
<!-- Node7&#45;&gt;Node5 -->
<g id="edge7" class="edge">
<title>Node7&#45;&gt;Node5</title>
<path fill="none" stroke="#63b8ff" d="M192.13,-110.1C157.16,-100.25 99.5,-83.99 64.29,-74.06"/>
<polygon fill="#63b8ff" stroke="#63b8ff" points="65.14,-70.67 54.56,-71.32 63.24,-77.4 65.14,-70.67"/>
</g>
<!-- Node7&#45;&gt;Node6 -->
<g id="edge13" class="edge">
<title>Node7&#45;&gt;Node6</title>
<path fill="none" stroke="#63b8ff" d="M192.4,-115.05C165.25,-110.35 125.7,-99.37 101.92,-74 90.49,-61.81 85.91,-43.02 84.09,-29.04"/>
<polygon fill="#63b8ff" stroke="#63b8ff" points="87.57,-28.7 83.14,-19.08 80.6,-29.36 87.57,-28.7"/>
</g>
<!-- Node8 -->
<g id="node8" class="node">
<title>Node8</title>
<g id="a_node8"><a xlink:title=" ">
<polygon fill="#e0e0e0" stroke="#999999" points="424.92,-19 366.92,-19 366.92,0 424.92,0 424.92,-19"/>
<text text-anchor="middle" x="395.92" y="-7" font-family="Helvetica,sans-Serif" font-size="10.00">memory</text>
</a>
</g>
</g>
<!-- Node7&#45;&gt;Node8 -->
<g id="edge8" class="edge">
<title>Node7&#45;&gt;Node8</title>
<path fill="none" stroke="#63b8ff" d="M251.46,-113.16C278.56,-107.14 318.8,-95.3 347.92,-74 364.59,-61.8 378.16,-42.2 386.56,-27.99"/>
<polygon fill="#63b8ff" stroke="#63b8ff" points="389.67,-29.61 391.53,-19.18 383.57,-26.17 389.67,-29.61"/>
</g>
<!-- Node9 -->
<g id="node9" class="node">
<title>Node9</title>
<g id="a_node9"><a xlink:title=" ">
<polygon fill="#e0e0e0" stroke="#999999" points="338.42,-74 293.42,-74 293.42,-55 338.42,-55 338.42,-74"/>
<text text-anchor="middle" x="315.92" y="-62" font-family="Helvetica,sans-Serif" font-size="10.00">utility</text>
</a>
</g>
</g>
<!-- Node7&#45;&gt;Node9 -->
<g id="edge9" class="edge">
<title>Node7&#45;&gt;Node9</title>
<path fill="none" stroke="#63b8ff" d="M237.02,-109.98C251.73,-101.69 274.34,-88.94 291.59,-79.22"/>
<polygon fill="#63b8ff" stroke="#63b8ff" points="293.55,-82.13 300.54,-74.17 290.11,-76.03 293.55,-82.13"/>
</g>
<!-- Node10 -->
<g id="node10" class="node">
<title>Node10</title>
<g id="a_node10"><a xlink:title=" ">
<polygon fill="#e0e0e0" stroke="#999999" points="323.42,-19 254.42,-19 254.42,0 323.42,0 323.42,-19"/>
<text text-anchor="middle" x="288.92" y="-7" font-family="Helvetica,sans-Serif" font-size="10.00">type_traits</text>
</a>
</g>
</g>
<!-- Node7&#45;&gt;Node10 -->
<g id="edge10" class="edge">
<title>Node7&#45;&gt;Node10</title>
<path fill="none" stroke="#63b8ff" d="M227.4,-109.66C238.5,-91.77 263.79,-51 278.25,-27.69"/>
<polygon fill="#63b8ff" stroke="#63b8ff" points="281.25,-29.5 283.54,-19.16 275.3,-25.81 281.25,-29.5"/>
</g>
<!-- Node11 -->
<g id="node11" class="node">
<title>Node11</title>
<g id="a_node11"><a xlink:title=" ">
<polygon fill="#e0e0e0" stroke="#999999" points="162.92,-74 110.92,-74 110.92,-55 162.92,-55 162.92,-74"/>
<text text-anchor="middle" x="136.92" y="-62" font-family="Helvetica,sans-Serif" font-size="10.00">cassert</text>
</a>
</g>
</g>
<!-- Node7&#45;&gt;Node11 -->
<g id="edge11" class="edge">
<title>Node7&#45;&gt;Node11</title>
<path fill="none" stroke="#63b8ff" d="M208.26,-109.98C195.08,-101.77 174.89,-89.18 159.35,-79.49"/>
<polygon fill="#63b8ff" stroke="#63b8ff" points="161.16,-76.49 150.82,-74.17 157.45,-82.43 161.16,-76.49"/>
</g>
<!-- Node12 -->
<g id="node12" class="node">
<title>Node12</title>
<g id="a_node12"><a xlink:title=" ">
<polygon fill="#e0e0e0" stroke="#999999" points="236.92,-74 180.92,-74 180.92,-55 236.92,-55 236.92,-74"/>
<text text-anchor="middle" x="208.92" y="-62" font-family="Helvetica,sans-Serif" font-size="10.00">optional</text>
</a>
</g>
</g>
<!-- Node7&#45;&gt;Node12 -->
<g id="edge12" class="edge">
<title>Node7&#45;&gt;Node12</title>
<path fill="none" stroke="#63b8ff" d="M219.77,-109.75C218.05,-102.72 215.57,-92.62 213.41,-83.84"/>
<polygon fill="#63b8ff" stroke="#63b8ff" points="216.8,-82.97 211.02,-74.09 210,-84.63 216.8,-82.97"/>
</g>
<!-- Node7&#45;&gt;Node13 -->
<g id="edge14" class="edge">
<title>Node7&#45;&gt;Node13</title>
<path fill="none" stroke="#63b8ff" d="M251.43,-110.79C286.84,-101.55 346.32,-86.02 385.59,-75.77"/>
<polygon fill="#63b8ff" stroke="#63b8ff" points="386.57,-79.13 395.36,-73.22 384.8,-72.36 386.57,-79.13"/>
</g>
<!-- Node13&#45;&gt;Node6 -->
<g id="edge17" class="edge">
<title>Node13&#45;&gt;Node6</title>
<path fill="none" stroke="#63b8ff" d="M395.16,-58.89C336.15,-49.74 203.77,-29.23 131.78,-18.07"/>
<polygon fill="#63b8ff" stroke="#63b8ff" points="132.04,-14.57 121.62,-16.5 130.96,-21.49 132.04,-14.57"/>
</g>
<!-- Node13&#45;&gt;Node8 -->
<g id="edge15" class="edge">
<title>Node13&#45;&gt;Node8</title>
<path fill="none" stroke="#63b8ff" d="M420.13,-54.75C416.16,-47.49 410.39,-36.95 405.48,-27.98"/>
<polygon fill="#63b8ff" stroke="#63b8ff" points="408.49,-26.18 400.61,-19.09 402.34,-29.54 408.49,-26.18"/>
</g>
<!-- Node13&#45;&gt;Node10 -->
<g id="edge16" class="edge">
<title>Node13&#45;&gt;Node10</title>
<path fill="none" stroke="#63b8ff" d="M403.06,-54.98C380.79,-46.3 346.01,-32.75 320.69,-22.88"/>
<polygon fill="#63b8ff" stroke="#63b8ff" points="321.75,-19.54 311.16,-19.17 319.21,-26.06 321.75,-19.54"/>
</g>
</g>
</svg>
