<?xml version="1.0" encoding="UTF-8" standalone="no"?>
<!DOCTYPE svg PUBLIC "-//W3C//DTD SVG 1.1//EN"
 "http://www.w3.org/Graphics/SVG/1.1/DTD/svg11.dtd">
<!-- Generated by graphviz version 2.43.0 (0)
 -->
<!-- Title: src/hqp.cpp Pages: 1 -->
<svg width="478pt" height="247pt"
 viewBox="0.00 0.00 478.14 247.00" xmlns="http://www.w3.org/2000/svg" xmlns:xlink="http://www.w3.org/1999/xlink">
<g id="graph0" class="graph" transform="scale(1 1) rotate(0) translate(4 243)">
<title>src/hqp.cpp</title>
<!-- Node1 -->
<g id="node1" class="node">
<title>Node1</title>
<g id="a_node1"><a xlink:title=" ">
<polygon fill="#999999" stroke="#666666" points="146.5,-239 74.5,-239 74.5,-220 146.5,-220 146.5,-239"/>
<text text-anchor="middle" x="110.5" y="-227" font-family="Helvetica,sans-Serif" font-size="10.00">src/hqp.cpp</text>
</a>
</g>
</g>
<!-- Node2 -->
<g id="node2" class="node">
<title>Node2</title>
<g id="a_node2"><a xlink:title=" ">
<polygon fill="#e0e0e0" stroke="#999999" points="82.5,-184 22.5,-184 22.5,-165 82.5,-165 82.5,-184"/>
<text text-anchor="middle" x="52.5" y="-172" font-family="Helvetica,sans-Serif" font-size="10.00">iostream</text>
</a>
</g>
</g>
<!-- Node1&#45;&gt;Node2 -->
<g id="edge1" class="edge">
<title>Node1&#45;&gt;Node2</title>
<path fill="none" stroke="#63b8ff" d="M101.18,-219.98C92.69,-212.23 79.94,-200.58 69.62,-191.14"/>
<polygon fill="#63b8ff" stroke="#63b8ff" points="71.73,-188.33 61.99,-184.17 67.01,-193.5 71.73,-188.33"/>
</g>
<!-- Node3 -->
<g id="node3" class="node">
<title>Node3</title>
<g id="a_node3"><a xlink:href="hqp_8hpp.html" target="_top" xlink:title="Main interface for the Weighted&#45;Hierarchical&#45;QP solver.">
<polygon fill="white" stroke="#666666" points="287.5,-184 231.5,-184 231.5,-165 287.5,-165 287.5,-184"/>
<text text-anchor="middle" x="259.5" y="-172" font-family="Helvetica,sans-Serif" font-size="10.00">hqp.hpp</text>
</a>
</g>
</g>
<!-- Node1&#45;&gt;Node3 -->
<g id="edge2" class="edge">
<title>Node1&#45;&gt;Node3</title>
<path fill="none" stroke="#63b8ff" d="M134.44,-219.98C159.06,-211.23 197.62,-197.51 225.42,-187.62"/>
<polygon fill="#63b8ff" stroke="#63b8ff" points="226.88,-190.82 235.12,-184.17 224.53,-184.22 226.88,-190.82"/>
</g>
<!-- Node13 -->
<g id="node13" class="node">
<title>Node13</title>
<g id="a_node13"><a xlink:href="utils_8hpp.html" target="_top" xlink:title="Declares common utility functions used throughout the HQP solver.">
<polygon fill="white" stroke="#666666" points="113,-74 54,-74 54,-55 113,-55 113,-74"/>
<text text-anchor="middle" x="83.5" y="-62" font-family="Helvetica,sans-Serif" font-size="10.00">utils.hpp</text>
</a>
</g>
</g>
<!-- Node1&#45;&gt;Node13 -->
<g id="edge18" class="edge">
<title>Node1&#45;&gt;Node13</title>
<path fill="none" stroke="#63b8ff" d="M109.05,-219.74C104.82,-194.2 92.43,-119.43 86.6,-84.23"/>
<polygon fill="#63b8ff" stroke="#63b8ff" points="90.05,-83.6 84.96,-74.31 83.14,-84.74 90.05,-83.6"/>
</g>
<!-- Node4 -->
<g id="node4" class="node">
<title>Node4</title>
<g id="a_node4"><a xlink:title=" ">
<polygon fill="#e0e0e0" stroke="#999999" points="212,-129 165,-129 165,-110 212,-110 212,-129"/>
<text text-anchor="middle" x="188.5" y="-117" font-family="Helvetica,sans-Serif" font-size="10.00">vector</text>
</a>
</g>
</g>
<!-- Node3&#45;&gt;Node4 -->
<g id="edge3" class="edge">
<title>Node3&#45;&gt;Node4</title>
<path fill="none" stroke="#63b8ff" d="M248.09,-164.98C237.39,-157 221.16,-144.88 208.34,-135.31"/>
<polygon fill="#63b8ff" stroke="#63b8ff" points="210.22,-132.35 200.11,-129.17 206.03,-137.96 210.22,-132.35"/>
</g>
<!-- Node5 -->
<g id="node5" class="node">
<title>Node5</title>
<g id="a_node5"><a xlink:title=" ">
<polygon fill="#e0e0e0" stroke="#999999" points="457,-74 416,-74 416,-55 457,-55 457,-74"/>
<text text-anchor="middle" x="436.5" y="-62" font-family="Helvetica,sans-Serif" font-size="10.00">tuple</text>
</a>
</g>
</g>
<!-- Node3&#45;&gt;Node5 -->
<g id="edge4" class="edge">
<title>Node3&#45;&gt;Node5</title>
<path fill="none" stroke="#63b8ff" d="M273.69,-164.84C304.24,-146.2 376.49,-102.11 413.61,-79.46"/>
<polygon fill="#63b8ff" stroke="#63b8ff" points="415.53,-82.39 422.25,-74.2 411.89,-76.42 415.53,-82.39"/>
</g>
<!-- Node6 -->
<g id="node6" class="node">
<title>Node6</title>
<g id="a_node6"><a xlink:title=" ">
<polygon fill="#e0e0e0" stroke="#999999" points="426,-19 349,-19 349,0 426,0 426,-19"/>
<text text-anchor="middle" x="387.5" y="-7" font-family="Helvetica,sans-Serif" font-size="10.00">Eigen/Dense</text>
</a>
</g>
</g>
<!-- Node3&#45;&gt;Node6 -->
<g id="edge5" class="edge">
<title>Node3&#45;&gt;Node6</title>
<path fill="none" stroke="#63b8ff" d="M287.72,-169.68C334.74,-161.61 427.8,-137.97 466.5,-74 480.05,-51.61 451.19,-33.8 424.62,-22.81"/>
<polygon fill="#63b8ff" stroke="#63b8ff" points="425.61,-19.44 415.02,-19.07 423.07,-25.96 425.61,-19.44"/>
</g>
<!-- Node7 -->
<g id="node7" class="node">
<title>Node7</title>
<g id="a_node7"><a xlink:href="task_8hpp.html" target="_top" xlink:title="Declares the abstract Task interface and its derivatives used in the HQP solver.">
<polygon fill="white" stroke="#666666" points="289,-129 230,-129 230,-110 289,-110 289,-129"/>
<text text-anchor="middle" x="259.5" y="-117" font-family="Helvetica,sans-Serif" font-size="10.00">task.hpp</text>
</a>
</g>
</g>
<!-- Node3&#45;&gt;Node7 -->
<g id="edge6" class="edge">
<title>Node3&#45;&gt;Node7</title>
<path fill="none" stroke="#63b8ff" d="M259.5,-164.75C259.5,-157.8 259.5,-147.85 259.5,-139.13"/>
<polygon fill="#63b8ff" stroke="#63b8ff" points="263,-139.09 259.5,-129.09 256,-139.09 263,-139.09"/>
</g>
<!-- Node7&#45;&gt;Node5 -->
<g id="edge7" class="edge">
<title>Node7&#45;&gt;Node5</title>
<path fill="none" stroke="#63b8ff" d="M287.94,-109.98C320.35,-100.28 373.12,-84.48 406.26,-74.55"/>
<polygon fill="#63b8ff" stroke="#63b8ff" points="407.3,-77.9 415.87,-71.68 405.29,-71.19 407.3,-77.9"/>
</g>
<!-- Node7&#45;&gt;Node6 -->
<g id="edge13" class="edge">
<title>Node7&#45;&gt;Node6</title>
<path fill="none" stroke="#63b8ff" d="M289,-113.72C313.56,-108.23 347.76,-96.86 368.5,-74 379.62,-61.75 384.24,-43.24 386.16,-29.35"/>
<polygon fill="#63b8ff" stroke="#63b8ff" points="389.68,-29.33 387.21,-19.02 382.71,-28.61 389.68,-29.33"/>
</g>
<!-- Node8 -->
<g id="node8" class="node">
<title>Node8</title>
<g id="a_node8"><a xlink:title=" ">
<polygon fill="#e0e0e0" stroke="#999999" points="153.5,-19 95.5,-19 95.5,0 153.5,0 153.5,-19"/>
<text text-anchor="middle" x="124.5" y="-7" font-family="Helvetica,sans-Serif" font-size="10.00">memory</text>
</a>
</g>
</g>
<!-- Node7&#45;&gt;Node8 -->
<g id="edge8" class="edge">
<title>Node7&#45;&gt;Node8</title>
<path fill="none" stroke="#63b8ff" d="M229.77,-110.32C208.79,-103.37 181.05,-91.66 161.5,-74 147.62,-61.46 137.5,-42.45 131.39,-28.5"/>
<polygon fill="#63b8ff" stroke="#63b8ff" points="134.53,-26.94 127.5,-19.01 128.05,-29.59 134.53,-26.94"/>
</g>
<!-- Node9 -->
<g id="node9" class="node">
<title>Node9</title>
<g id="a_node9"><a xlink:title=" ">
<polygon fill="#e0e0e0" stroke="#999999" points="215,-74 170,-74 170,-55 215,-55 215,-74"/>
<text text-anchor="middle" x="192.5" y="-62" font-family="Helvetica,sans-Serif" font-size="10.00">utility</text>
</a>
</g>
</g>
<!-- Node7&#45;&gt;Node9 -->
<g id="edge9" class="edge">
<title>Node7&#45;&gt;Node9</title>
<path fill="none" stroke="#63b8ff" d="M248.74,-109.98C238.73,-102.07 223.61,-90.11 211.57,-80.58"/>
<polygon fill="#63b8ff" stroke="#63b8ff" points="213.47,-77.63 203.46,-74.17 209.13,-83.12 213.47,-77.63"/>
</g>
<!-- Node10 -->
<g id="node10" class="node">
<title>Node10</title>
<g id="a_node10"><a xlink:title=" ">
<polygon fill="#e0e0e0" stroke="#999999" points="69,-19 0,-19 0,0 69,0 69,-19"/>
<text text-anchor="middle" x="34.5" y="-7" font-family="Helvetica,sans-Serif" font-size="10.00">type_traits</text>
</a>
</g>
</g>
<!-- Node7&#45;&gt;Node10 -->
<g id="edge10" class="edge">
<title>Node7&#45;&gt;Node10</title>
<path fill="none" stroke="#63b8ff" d="M229.64,-111.76C226.89,-111.16 224.14,-110.56 221.5,-110 142.99,-93.24 99.99,-132.01 44.5,-74 33.3,-62.29 31.59,-43.44 32.2,-29.31"/>
<polygon fill="#63b8ff" stroke="#63b8ff" points="35.7,-29.48 33.06,-19.22 28.73,-28.89 35.7,-29.48"/>
</g>
<!-- Node11 -->
<g id="node11" class="node">
<title>Node11</title>
<g id="a_node11"><a xlink:title=" ">
<polygon fill="#e0e0e0" stroke="#999999" points="285.5,-74 233.5,-74 233.5,-55 285.5,-55 285.5,-74"/>
<text text-anchor="middle" x="259.5" y="-62" font-family="Helvetica,sans-Serif" font-size="10.00">cassert</text>
</a>
</g>
</g>
<!-- Node7&#45;&gt;Node11 -->
<g id="edge11" class="edge">
<title>Node7&#45;&gt;Node11</title>
<path fill="none" stroke="#63b8ff" d="M259.5,-109.75C259.5,-102.8 259.5,-92.85 259.5,-84.13"/>
<polygon fill="#63b8ff" stroke="#63b8ff" points="263,-84.09 259.5,-74.09 256,-84.09 263,-84.09"/>
</g>
<!-- Node12 -->
<g id="node12" class="node">
<title>Node12</title>
<g id="a_node12"><a xlink:title=" ">
<polygon fill="#e0e0e0" stroke="#999999" points="359.5,-74 303.5,-74 303.5,-55 359.5,-55 359.5,-74"/>
<text text-anchor="middle" x="331.5" y="-62" font-family="Helvetica,sans-Serif" font-size="10.00">optional</text>
</a>
</g>
</g>
<!-- Node7&#45;&gt;Node12 -->
<g id="edge12" class="edge">
<title>Node7&#45;&gt;Node12</title>
<path fill="none" stroke="#63b8ff" d="M271.07,-109.98C281.92,-102 298.38,-89.88 311.38,-80.31"/>
<polygon fill="#63b8ff" stroke="#63b8ff" points="313.74,-82.92 319.72,-74.17 309.59,-77.28 313.74,-82.92"/>
</g>
<!-- Node7&#45;&gt;Node13 -->
<g id="edge14" class="edge">
<title>Node7&#45;&gt;Node13</title>
<path fill="none" stroke="#63b8ff" d="M231.22,-109.98C201.55,-101.05 154.71,-86.94 121.75,-77.02"/>
<polygon fill="#63b8ff" stroke="#63b8ff" points="122.58,-73.61 112,-74.08 120.57,-80.32 122.58,-73.61"/>
</g>
<!-- Node13&#45;&gt;Node6 -->
<g id="edge17" class="edge">
<title>Node13&#45;&gt;Node6</title>
<path fill="none" stroke="#63b8ff" d="M113.2,-58.32C165.57,-49.19 274.78,-30.15 338.47,-19.05"/>
<polygon fill="#63b8ff" stroke="#63b8ff" points="339.41,-22.44 348.66,-17.27 338.21,-15.54 339.41,-22.44"/>
</g>
<!-- Node13&#45;&gt;Node8 -->
<g id="edge15" class="edge">
<title>Node13&#45;&gt;Node8</title>
<path fill="none" stroke="#63b8ff" d="M90.27,-54.75C96.06,-47.26 104.56,-36.28 111.64,-27.13"/>
<polygon fill="#63b8ff" stroke="#63b8ff" points="114.51,-29.14 117.86,-19.09 108.97,-24.86 114.51,-29.14"/>
</g>
<!-- Node13&#45;&gt;Node10 -->
<g id="edge16" class="edge">
<title>Node13&#45;&gt;Node10</title>
<path fill="none" stroke="#63b8ff" d="M75.41,-54.75C68.34,-47.11 57.91,-35.82 49.35,-26.56"/>
<polygon fill="#63b8ff" stroke="#63b8ff" points="51.8,-24.06 42.44,-19.09 46.66,-28.81 51.8,-24.06"/>
</g>
</g>
</svg>
