<?xml version="1.0" encoding="UTF-8" standalone="no"?>
<!DOCTYPE svg PUBLIC "-//W3C//DTD SVG 1.1//EN"
 "http://www.w3.org/Graphics/SVG/1.1/DTD/svg11.dtd">
<!-- Generated by graphviz version 2.43.0 (0)
 -->
<!-- Title: include/hqp/hqp.hpp Pages: 1 -->
<svg width="504pt" height="137pt"
 viewBox="0.00 0.00 504.00 137.00" xmlns="http://www.w3.org/2000/svg" xmlns:xlink="http://www.w3.org/1999/xlink">
<g id="graph0" class="graph" transform="scale(1 1) rotate(0) translate(4 133)">
<title>include/hqp/hqp.hpp</title>
<!-- Node1 -->
<g id="node1" class="node">
<title>Node1</title>
<g id="a_node1"><a xlink:title="Main interface for the HQP (Hierarchical Quadratic Programming) solver.">
<polygon fill="#999999" stroke="#666666" points="275,-129 160,-129 160,-110 275,-110 275,-129"/>
<text text-anchor="middle" x="217.5" y="-117" font-family="Helvetica,sans-Serif" font-size="10.00">include/hqp/hqp.hpp</text>
</a>
</g>
</g>
<!-- Node2 -->
<g id="node2" class="node">
<title>Node2</title>
<g id="a_node2"><a xlink:title=" ">
<polygon fill="#e0e0e0" stroke="#999999" points="47,-74 0,-74 0,-55 47,-55 47,-74"/>
<text text-anchor="middle" x="23.5" y="-62" font-family="Helvetica,sans-Serif" font-size="10.00">vector</text>
</a>
</g>
</g>
<!-- Node1&#45;&gt;Node2 -->
<g id="edge1" class="edge">
<title>Node1&#45;&gt;Node2</title>
<path fill="none" stroke="#63b8ff" d="M186.33,-109.98C150.89,-100.3 93.25,-84.56 56.9,-74.63"/>
<polygon fill="#63b8ff" stroke="#63b8ff" points="57.82,-71.25 47.25,-71.99 55.98,-78 57.82,-71.25"/>
</g>
<!-- Node3 -->
<g id="node3" class="node">
<title>Node3</title>
<g id="a_node3"><a xlink:title=" ">
<polygon fill="#e0e0e0" stroke="#999999" points="106,-74 65,-74 65,-55 106,-55 106,-74"/>
<text text-anchor="middle" x="85.5" y="-62" font-family="Helvetica,sans-Serif" font-size="10.00">tuple</text>
</a>
</g>
</g>
<!-- Node1&#45;&gt;Node3 -->
<g id="edge2" class="edge">
<title>Node1&#45;&gt;Node3</title>
<path fill="none" stroke="#63b8ff" d="M196.29,-109.98C174.51,-101.24 140.42,-87.55 115.8,-77.67"/>
<polygon fill="#63b8ff" stroke="#63b8ff" points="116.8,-74.3 106.22,-73.82 114.2,-80.79 116.8,-74.3"/>
</g>
<!-- Node4 -->
<g id="node4" class="node">
<title>Node4</title>
<g id="a_node4"><a xlink:title=" ">
<polygon fill="#e0e0e0" stroke="#999999" points="210.5,-74 124.5,-74 124.5,-55 210.5,-55 210.5,-74"/>
<text text-anchor="middle" x="167.5" y="-62" font-family="Helvetica,sans-Serif" font-size="10.00">unordered_set</text>
</a>
</g>
</g>
<!-- Node1&#45;&gt;Node4 -->
<g id="edge3" class="edge">
<title>Node1&#45;&gt;Node4</title>
<path fill="none" stroke="#63b8ff" d="M209.24,-109.75C202.04,-102.11 191.39,-90.82 182.65,-81.56"/>
<polygon fill="#63b8ff" stroke="#63b8ff" points="185.01,-78.96 175.6,-74.09 179.92,-83.76 185.01,-78.96"/>
</g>
<!-- Node5 -->
<g id="node5" class="node">
<title>Node5</title>
<g id="a_node5"><a xlink:title=" ">
<polygon fill="#e0e0e0" stroke="#999999" points="306,-74 229,-74 229,-55 306,-55 306,-74"/>
<text text-anchor="middle" x="267.5" y="-62" font-family="Helvetica,sans-Serif" font-size="10.00">Eigen/Dense</text>
</a>
</g>
</g>
<!-- Node1&#45;&gt;Node5 -->
<g id="edge4" class="edge">
<title>Node1&#45;&gt;Node5</title>
<path fill="none" stroke="#63b8ff" d="M225.76,-109.75C232.96,-102.11 243.61,-90.82 252.35,-81.56"/>
<polygon fill="#63b8ff" stroke="#63b8ff" points="255.08,-83.76 259.4,-74.09 249.99,-78.96 255.08,-83.76"/>
</g>
<!-- Node6 -->
<g id="node6" class="node">
<title>Node6</title>
<g id="a_node6"><a xlink:href="status_8hpp.html" target="_top" xlink:title=" ">
<polygon fill="white" stroke="#666666" points="425,-74 324,-74 324,-55 425,-55 425,-74"/>
<text text-anchor="middle" x="374.5" y="-62" font-family="Helvetica,sans-Serif" font-size="10.00">status/status.hpp</text>
</a>
</g>
</g>
<!-- Node1&#45;&gt;Node6 -->
<g id="edge5" class="edge">
<title>Node1&#45;&gt;Node6</title>
<path fill="none" stroke="#63b8ff" d="M242.72,-109.98C268.86,-101.16 309.9,-87.31 339.23,-77.41"/>
<polygon fill="#63b8ff" stroke="#63b8ff" points="340.72,-80.6 349.08,-74.08 338.48,-73.96 340.72,-80.6"/>
</g>
<!-- Node9 -->
<g id="node9" class="node">
<title>Node9</title>
<g id="a_node9"><a xlink:title=" ">
<polygon fill="#e0e0e0" stroke="#999999" points="496,-74 443,-74 443,-55 496,-55 496,-74"/>
<text text-anchor="middle" x="469.5" y="-62" font-family="Helvetica,sans-Serif" font-size="10.00">hqp.tpp</text>
</a>
</g>
</g>
<!-- Node1&#45;&gt;Node9 -->
<g id="edge8" class="edge">
<title>Node1&#45;&gt;Node9</title>
<path fill="none" stroke="#63b8ff" d="M261.65,-109.93C303.43,-101.71 368.13,-88.71 432.81,-74.32"/>
<polygon fill="#63b8ff" stroke="#63b8ff" points="433.77,-77.69 442.77,-72.1 432.25,-70.86 433.77,-77.69"/>
</g>
<!-- Node7 -->
<g id="node7" class="node">
<title>Node7</title>
<g id="a_node7"><a xlink:title=" ">
<polygon fill="#e0e0e0" stroke="#999999" points="355.5,-19 295.5,-19 295.5,0 355.5,0 355.5,-19"/>
<text text-anchor="middle" x="325.5" y="-7" font-family="Helvetica,sans-Serif" font-size="10.00">iostream</text>
</a>
</g>
</g>
<!-- Node6&#45;&gt;Node7 -->
<g id="edge6" class="edge">
<title>Node6&#45;&gt;Node7</title>
<path fill="none" stroke="#63b8ff" d="M366.41,-54.75C359.34,-47.11 348.91,-35.82 340.35,-26.56"/>
<polygon fill="#63b8ff" stroke="#63b8ff" points="342.8,-24.06 333.44,-19.09 337.66,-28.81 342.8,-24.06"/>
</g>
<!-- Node8 -->
<g id="node8" class="node">
<title>Node8</title>
<g id="a_node8"><a xlink:title=" ">
<polygon fill="#e0e0e0" stroke="#999999" points="471.5,-19 373.5,-19 373.5,0 471.5,0 471.5,-19"/>
<text text-anchor="middle" x="422.5" y="-7" font-family="Helvetica,sans-Serif" font-size="10.00">status/status.tpp</text>
</a>
</g>
</g>
<!-- Node6&#45;&gt;Node8 -->
<g id="edge7" class="edge">
<title>Node6&#45;&gt;Node8</title>
<path fill="none" stroke="#63b8ff" d="M382.43,-54.75C389.35,-47.11 399.57,-35.82 407.95,-26.56"/>
<polygon fill="#63b8ff" stroke="#63b8ff" points="410.6,-28.85 414.72,-19.09 405.41,-24.15 410.6,-28.85"/>
</g>
</g>
</svg>
