<?xml version="1.0" encoding="UTF-8" standalone="no"?>
<!DOCTYPE svg PUBLIC "-//W3C//DTD SVG 1.1//EN"
 "http://www.w3.org/Graphics/SVG/1.1/DTD/svg11.dtd">
<!-- Generated by graphviz version 2.43.0 (0)
 -->
<!-- Title: include/hqp.hpp Pages: 1 -->
<svg width="338pt" height="137pt"
 viewBox="0.00 0.00 338.00 137.00" xmlns="http://www.w3.org/2000/svg" xmlns:xlink="http://www.w3.org/1999/xlink">
<g id="graph0" class="graph" transform="scale(1 1) rotate(0) translate(4 133)">
<title>include/hqp.hpp</title>
<!-- Node1 -->
<g id="node1" class="node">
<title>Node1</title>
<g id="a_node1"><a xlink:title="Main interface for the Weighted&#45;Hierarchical&#45;QP solver.">
<polygon fill="#999999" stroke="#666666" points="156.5,-129 62.5,-129 62.5,-110 156.5,-110 156.5,-129"/>
<text text-anchor="middle" x="109.5" y="-117" font-family="Helvetica,sans-Serif" font-size="10.00">include/hqp.hpp</text>
</a>
</g>
</g>
<!-- Node2 -->
<g id="node2" class="node">
<title>Node2</title>
<g id="a_node2"><a xlink:title=" ">
<polygon fill="#e0e0e0" stroke="#999999" points="47,-74 0,-74 0,-55 47,-55 47,-74"/>
<text text-anchor="middle" x="23.5" y="-62" font-family="Helvetica,sans-Serif" font-size="10.00">vector</text>
</a>
</g>
</g>
<!-- Node1&#45;&gt;Node2 -->
<g id="edge1" class="edge">
<title>Node1&#45;&gt;Node2</title>
<path fill="none" stroke="#63b8ff" d="M95.68,-109.98C82.35,-101.77 61.92,-89.18 46.19,-79.49"/>
<polygon fill="#63b8ff" stroke="#63b8ff" points="47.92,-76.44 37.57,-74.17 44.25,-82.4 47.92,-76.44"/>
</g>
<!-- Node3 -->
<g id="node3" class="node">
<title>Node3</title>
<g id="a_node3"><a xlink:title=" ">
<polygon fill="#e0e0e0" stroke="#999999" points="106,-74 65,-74 65,-55 106,-55 106,-74"/>
<text text-anchor="middle" x="85.5" y="-62" font-family="Helvetica,sans-Serif" font-size="10.00">tuple</text>
</a>
</g>
</g>
<!-- Node1&#45;&gt;Node3 -->
<g id="edge2" class="edge">
<title>Node1&#45;&gt;Node3</title>
<path fill="none" stroke="#63b8ff" d="M105.54,-109.75C102.29,-102.57 97.58,-92.18 93.55,-83.27"/>
<polygon fill="#63b8ff" stroke="#63b8ff" points="96.7,-81.75 89.39,-74.09 90.33,-84.64 96.7,-81.75"/>
</g>
<!-- Node4 -->
<g id="node4" class="node">
<title>Node4</title>
<g id="a_node4"><a xlink:title=" ">
<polygon fill="#e0e0e0" stroke="#999999" points="166,-19 89,-19 89,0 166,0 166,-19"/>
<text text-anchor="middle" x="127.5" y="-7" font-family="Helvetica,sans-Serif" font-size="10.00">Eigen/Dense</text>
</a>
</g>
</g>
<!-- Node1&#45;&gt;Node4 -->
<g id="edge3" class="edge">
<title>Node1&#45;&gt;Node4</title>
<path fill="none" stroke="#63b8ff" d="M110.97,-109.66C113.89,-92.17 120.45,-52.8 124.37,-29.27"/>
<polygon fill="#63b8ff" stroke="#63b8ff" points="127.87,-29.6 126.06,-19.16 120.96,-28.45 127.87,-29.6"/>
</g>
<!-- Node5 -->
<g id="node5" class="node">
<title>Node5</title>
<g id="a_node5"><a xlink:href="utils_8hpp.html" target="_top" xlink:title="Declares common utility functions used throughout the HQP solver.">
<polygon fill="white" stroke="#666666" points="236,-74 177,-74 177,-55 236,-55 236,-74"/>
<text text-anchor="middle" x="206.5" y="-62" font-family="Helvetica,sans-Serif" font-size="10.00">utils.hpp</text>
</a>
</g>
</g>
<!-- Node1&#45;&gt;Node5 -->
<g id="edge4" class="edge">
<title>Node1&#45;&gt;Node5</title>
<path fill="none" stroke="#63b8ff" d="M125.08,-109.98C140.27,-101.69 163.6,-88.94 181.4,-79.22"/>
<polygon fill="#63b8ff" stroke="#63b8ff" points="183.53,-82.04 190.63,-74.17 180.18,-75.89 183.53,-82.04"/>
</g>
<!-- Node5&#45;&gt;Node4 -->
<g id="edge7" class="edge">
<title>Node5&#45;&gt;Node4</title>
<path fill="none" stroke="#63b8ff" d="M193.81,-54.98C181.67,-46.84 163.14,-34.41 148.75,-24.76"/>
<polygon fill="#63b8ff" stroke="#63b8ff" points="150.68,-21.84 140.42,-19.17 146.78,-27.65 150.68,-21.84"/>
</g>
<!-- Node6 -->
<g id="node6" class="node">
<title>Node6</title>
<g id="a_node6"><a xlink:title=" ">
<polygon fill="#e0e0e0" stroke="#999999" points="242.5,-19 184.5,-19 184.5,0 242.5,0 242.5,-19"/>
<text text-anchor="middle" x="213.5" y="-7" font-family="Helvetica,sans-Serif" font-size="10.00">memory</text>
</a>
</g>
</g>
<!-- Node5&#45;&gt;Node6 -->
<g id="edge5" class="edge">
<title>Node5&#45;&gt;Node6</title>
<path fill="none" stroke="#63b8ff" d="M207.66,-54.75C208.57,-47.8 209.89,-37.85 211.04,-29.13"/>
<polygon fill="#63b8ff" stroke="#63b8ff" points="214.53,-29.46 212.37,-19.09 207.59,-28.54 214.53,-29.46"/>
</g>
<!-- Node7 -->
<g id="node7" class="node">
<title>Node7</title>
<g id="a_node7"><a xlink:title=" ">
<polygon fill="#e0e0e0" stroke="#999999" points="330,-19 261,-19 261,0 330,0 330,-19"/>
<text text-anchor="middle" x="295.5" y="-7" font-family="Helvetica,sans-Serif" font-size="10.00">type_traits</text>
</a>
</g>
</g>
<!-- Node5&#45;&gt;Node7 -->
<g id="edge6" class="edge">
<title>Node5&#45;&gt;Node7</title>
<path fill="none" stroke="#63b8ff" d="M220.8,-54.98C234.6,-46.77 255.74,-34.18 272.01,-24.49"/>
<polygon fill="#63b8ff" stroke="#63b8ff" points="274.14,-27.29 280.94,-19.17 270.56,-21.28 274.14,-27.29"/>
</g>
</g>
</svg>
