<?xml version="1.0" encoding="UTF-8" standalone="no"?>
<!DOCTYPE svg PUBLIC "-//W3C//DTD SVG 1.1//EN"
 "http://www.w3.org/Graphics/SVG/1.1/DTD/svg11.dtd">
<!-- Generated by graphviz version 2.43.0 (0)
 -->
<!-- Title: include/hqp.hpp Pages: 1 -->
<svg width="543pt" height="192pt"
 viewBox="0.00 0.00 542.74 192.00" xmlns="http://www.w3.org/2000/svg" xmlns:xlink="http://www.w3.org/1999/xlink">
<g id="graph0" class="graph" transform="scale(1 1) rotate(0) translate(4 188)">
<title>include/hqp.hpp</title>
<!-- Node1 -->
<g id="node1" class="node">
<title>Node1</title>
<g id="a_node1"><a xlink:title="Main interface for the Weighted&#45;Hierarchical&#45;QP solver.">
<polygon fill="#999999" stroke="#666666" points="199.24,-184 105.24,-184 105.24,-165 199.24,-165 199.24,-184"/>
<text text-anchor="middle" x="152.24" y="-172" font-family="Helvetica,sans-Serif" font-size="10.00">include/hqp.hpp</text>
</a>
</g>
</g>
<!-- Node2 -->
<g id="node2" class="node">
<title>Node2</title>
<g id="a_node2"><a xlink:title=" ">
<polygon fill="#e0e0e0" stroke="#999999" points="97.74,-74 56.74,-74 56.74,-55 97.74,-55 97.74,-74"/>
<text text-anchor="middle" x="77.24" y="-62" font-family="Helvetica,sans-Serif" font-size="10.00">tuple</text>
</a>
</g>
</g>
<!-- Node1&#45;&gt;Node2 -->
<g id="edge1" class="edge">
<title>Node1&#45;&gt;Node2</title>
<path fill="none" stroke="#63b8ff" d="M146.1,-164.66C133.63,-146.69 105.12,-105.64 88.97,-82.38"/>
<polygon fill="#63b8ff" stroke="#63b8ff" points="91.83,-80.38 83.26,-74.16 86.08,-84.37 91.83,-80.38"/>
</g>
<!-- Node3 -->
<g id="node3" class="node">
<title>Node3</title>
<g id="a_node3"><a xlink:title=" ">
<polygon fill="#e0e0e0" stroke="#999999" points="236.74,-19 189.74,-19 189.74,0 236.74,0 236.74,-19"/>
<text text-anchor="middle" x="213.24" y="-7" font-family="Helvetica,sans-Serif" font-size="10.00">vector</text>
</a>
</g>
</g>
<!-- Node1&#45;&gt;Node3 -->
<g id="edge2" class="edge">
<title>Node1&#45;&gt;Node3</title>
<path fill="none" stroke="#63b8ff" d="M133.99,-164.95C95.86,-145.93 13.95,-98.4 47.24,-55 51.35,-49.65 132.4,-29.67 179.7,-18.39"/>
<polygon fill="#63b8ff" stroke="#63b8ff" points="180.6,-21.77 189.52,-16.06 178.99,-14.96 180.6,-21.77"/>
</g>
<!-- Node4 -->
<g id="node4" class="node">
<title>Node4</title>
<g id="a_node4"><a xlink:title=" ">
<polygon fill="#e0e0e0" stroke="#999999" points="164.74,-19 87.74,-19 87.74,0 164.74,0 164.74,-19"/>
<text text-anchor="middle" x="126.24" y="-7" font-family="Helvetica,sans-Serif" font-size="10.00">Eigen/Dense</text>
</a>
</g>
</g>
<!-- Node1&#45;&gt;Node4 -->
<g id="edge3" class="edge">
<title>Node1&#45;&gt;Node4</title>
<path fill="none" stroke="#63b8ff" d="M105.02,-171.84C73.76,-167.97 34.84,-157.29 14.24,-129 -5.12,-102.41 -4.23,-82.21 14.24,-55 28.53,-33.94 54.53,-22.85 77.87,-17.01"/>
<polygon fill="#63b8ff" stroke="#63b8ff" points="78.69,-20.41 87.68,-14.81 77.15,-13.58 78.69,-20.41"/>
</g>
<!-- Node5 -->
<g id="node5" class="node">
<title>Node5</title>
<g id="a_node5"><a xlink:href="options_8hpp.html" target="_top" xlink:title=" ">
<polygon fill="white" stroke="#666666" points="370.24,-129 296.24,-129 296.24,-110 370.24,-110 370.24,-129"/>
<text text-anchor="middle" x="333.24" y="-117" font-family="Helvetica,sans-Serif" font-size="10.00">options.hpp</text>
</a>
</g>
</g>
<!-- Node1&#45;&gt;Node5 -->
<g id="edge4" class="edge">
<title>Node1&#45;&gt;Node5</title>
<path fill="none" stroke="#63b8ff" d="M181.32,-164.98C211.84,-156.05 260.01,-141.94 293.91,-132.02"/>
<polygon fill="#63b8ff" stroke="#63b8ff" points="295.32,-135.25 303.93,-129.08 293.35,-128.53 295.32,-135.25"/>
</g>
<!-- Node6 -->
<g id="node6" class="node">
<title>Node6</title>
<g id="a_node6"><a xlink:href="task_8hpp.html" target="_top" xlink:title="Declares the abstract Task interface and its derivatives used in the HQP solver.">
<polygon fill="white" stroke="#666666" points="239.74,-129 180.74,-129 180.74,-110 239.74,-110 239.74,-129"/>
<text text-anchor="middle" x="210.24" y="-117" font-family="Helvetica,sans-Serif" font-size="10.00">task.hpp</text>
</a>
</g>
</g>
<!-- Node1&#45;&gt;Node6 -->
<g id="edge5" class="edge">
<title>Node1&#45;&gt;Node6</title>
<path fill="none" stroke="#63b8ff" d="M161.56,-164.98C170.05,-157.23 182.8,-145.58 193.12,-136.14"/>
<polygon fill="#63b8ff" stroke="#63b8ff" points="195.73,-138.5 200.75,-129.17 191.01,-133.33 195.73,-138.5"/>
</g>
<!-- Node12 -->
<g id="node12" class="node">
<title>Node12</title>
<g id="a_node12"><a xlink:href="utils_8hpp.html" target="_top" xlink:title="Declares common utility functions used throughout the HQP solver.">
<polygon fill="white" stroke="#666666" points="459.74,-74 400.74,-74 400.74,-55 459.74,-55 459.74,-74"/>
<text text-anchor="middle" x="430.24" y="-62" font-family="Helvetica,sans-Serif" font-size="10.00">utils.hpp</text>
</a>
</g>
</g>
<!-- Node1&#45;&gt;Node12 -->
<g id="edge20" class="edge">
<title>Node1&#45;&gt;Node12</title>
<path fill="none" stroke="#63b8ff" d="M171.06,-164.91C190.45,-156.02 221.53,-141.7 248.24,-129 265.66,-120.72 269.32,-117.11 287.24,-110 321.51,-96.41 361.68,-84.22 390.71,-76.06"/>
<polygon fill="#63b8ff" stroke="#63b8ff" points="391.79,-79.39 400.49,-73.34 389.91,-72.64 391.79,-79.39"/>
</g>
<!-- Node6&#45;&gt;Node2 -->
<g id="edge6" class="edge">
<title>Node6&#45;&gt;Node2</title>
<path fill="none" stroke="#63b8ff" d="M188.87,-109.98C166.83,-101.2 132.27,-87.43 107.44,-77.53"/>
<polygon fill="#63b8ff" stroke="#63b8ff" points="108.7,-74.27 98.12,-73.82 106.11,-80.77 108.7,-74.27"/>
</g>
<!-- Node6&#45;&gt;Node4 -->
<g id="edge12" class="edge">
<title>Node6&#45;&gt;Node4</title>
<path fill="none" stroke="#63b8ff" d="M191.37,-110C176.77,-102.5 157.1,-90.24 145.24,-74 135.59,-60.78 130.8,-42.66 128.45,-29.16"/>
<polygon fill="#63b8ff" stroke="#63b8ff" points="131.89,-28.5 126.99,-19.11 124.96,-29.51 131.89,-28.5"/>
</g>
<!-- Node7 -->
<g id="node7" class="node">
<title>Node7</title>
<g id="a_node7"><a xlink:title=" ">
<polygon fill="#e0e0e0" stroke="#999999" points="317.24,-19 259.24,-19 259.24,0 317.24,0 317.24,-19"/>
<text text-anchor="middle" x="288.24" y="-7" font-family="Helvetica,sans-Serif" font-size="10.00">memory</text>
</a>
</g>
</g>
<!-- Node6&#45;&gt;Node7 -->
<g id="edge7" class="edge">
<title>Node6&#45;&gt;Node7</title>
<path fill="none" stroke="#63b8ff" d="M216.63,-109.66C229.6,-91.69 259.25,-50.64 276.05,-27.38"/>
<polygon fill="#63b8ff" stroke="#63b8ff" points="278.97,-29.31 281.99,-19.16 273.3,-25.22 278.97,-29.31"/>
</g>
<!-- Node8 -->
<g id="node8" class="node">
<title>Node8</title>
<g id="a_node8"><a xlink:title=" ">
<polygon fill="#e0e0e0" stroke="#999999" points="311.74,-74 266.74,-74 266.74,-55 311.74,-55 311.74,-74"/>
<text text-anchor="middle" x="289.24" y="-62" font-family="Helvetica,sans-Serif" font-size="10.00">utility</text>
</a>
</g>
</g>
<!-- Node6&#45;&gt;Node8 -->
<g id="edge8" class="edge">
<title>Node6&#45;&gt;Node8</title>
<path fill="none" stroke="#63b8ff" d="M222.94,-109.98C235.07,-101.84 253.6,-89.41 267.99,-79.76"/>
<polygon fill="#63b8ff" stroke="#63b8ff" points="269.96,-82.65 276.32,-74.17 266.06,-76.84 269.96,-82.65"/>
</g>
<!-- Node9 -->
<g id="node9" class="node">
<title>Node9</title>
<g id="a_node9"><a xlink:title=" ">
<polygon fill="#e0e0e0" stroke="#999999" points="534.74,-19 465.74,-19 465.74,0 534.74,0 534.74,-19"/>
<text text-anchor="middle" x="500.24" y="-7" font-family="Helvetica,sans-Serif" font-size="10.00">type_traits</text>
</a>
</g>
</g>
<!-- Node6&#45;&gt;Node9 -->
<g id="edge9" class="edge">
<title>Node6&#45;&gt;Node9</title>
<path fill="none" stroke="#63b8ff" d="M239.86,-114.95C303.91,-107.05 451.04,-87.65 469.24,-74 483.79,-63.09 491.88,-43.53 496.12,-28.99"/>
<polygon fill="#63b8ff" stroke="#63b8ff" points="499.57,-29.63 498.65,-19.08 492.79,-27.9 499.57,-29.63"/>
</g>
<!-- Node10 -->
<g id="node10" class="node">
<title>Node10</title>
<g id="a_node10"><a xlink:title=" ">
<polygon fill="#e0e0e0" stroke="#999999" points="382.24,-74 330.24,-74 330.24,-55 382.24,-55 382.24,-74"/>
<text text-anchor="middle" x="356.24" y="-62" font-family="Helvetica,sans-Serif" font-size="10.00">cassert</text>
</a>
</g>
</g>
<!-- Node6&#45;&gt;Node10 -->
<g id="edge10" class="edge">
<title>Node6&#45;&gt;Node10</title>
<path fill="none" stroke="#63b8ff" d="M233.7,-109.98C257.82,-101.23 295.61,-87.51 322.85,-77.62"/>
<polygon fill="#63b8ff" stroke="#63b8ff" points="324.15,-80.87 332.36,-74.17 321.76,-74.29 324.15,-80.87"/>
</g>
<!-- Node11 -->
<g id="node11" class="node">
<title>Node11</title>
<g id="a_node11"><a xlink:title=" ">
<polygon fill="#e0e0e0" stroke="#999999" points="210.24,-74 154.24,-74 154.24,-55 210.24,-55 210.24,-74"/>
<text text-anchor="middle" x="182.24" y="-62" font-family="Helvetica,sans-Serif" font-size="10.00">optional</text>
</a>
</g>
</g>
<!-- Node6&#45;&gt;Node11 -->
<g id="edge11" class="edge">
<title>Node6&#45;&gt;Node11</title>
<path fill="none" stroke="#63b8ff" d="M205.62,-109.75C201.79,-102.49 196.22,-91.95 191.48,-82.98"/>
<polygon fill="#63b8ff" stroke="#63b8ff" points="194.55,-81.3 186.78,-74.09 188.36,-84.57 194.55,-81.3"/>
</g>
<!-- Node6&#45;&gt;Node12 -->
<g id="edge13" class="edge">
<title>Node6&#45;&gt;Node12</title>
<path fill="none" stroke="#63b8ff" d="M239.91,-111.35C278.89,-101.96 347.47,-85.44 390.79,-75"/>
<polygon fill="#63b8ff" stroke="#63b8ff" points="391.79,-78.36 400.69,-72.62 390.15,-71.56 391.79,-78.36"/>
</g>
<!-- Node12&#45;&gt;Node3 -->
<g id="edge18" class="edge">
<title>Node12&#45;&gt;Node3</title>
<path fill="none" stroke="#63b8ff" d="M400.52,-56.24C360.31,-46.42 288.77,-28.95 246.71,-18.67"/>
<polygon fill="#63b8ff" stroke="#63b8ff" points="247.49,-15.26 236.94,-16.29 245.83,-22.06 247.49,-15.26"/>
</g>
<!-- Node12&#45;&gt;Node4 -->
<g id="edge19" class="edge">
<title>Node12&#45;&gt;Node4</title>
<path fill="none" stroke="#63b8ff" d="M400.46,-56.85C397.35,-56.21 394.24,-55.58 391.24,-55 350.7,-47.18 239.5,-28.9 174.76,-18.36"/>
<polygon fill="#63b8ff" stroke="#63b8ff" points="175.22,-14.89 164.79,-16.74 174.1,-21.8 175.22,-14.89"/>
</g>
<!-- Node12&#45;&gt;Node7 -->
<g id="edge14" class="edge">
<title>Node12&#45;&gt;Node7</title>
<path fill="none" stroke="#63b8ff" d="M407.43,-54.98C384.07,-46.27 347.54,-32.63 321.07,-22.75"/>
<polygon fill="#63b8ff" stroke="#63b8ff" points="322.06,-19.39 311.47,-19.17 319.62,-25.95 322.06,-19.39"/>
</g>
<!-- Node12&#45;&gt;Node9 -->
<g id="edge17" class="edge">
<title>Node12&#45;&gt;Node9</title>
<path fill="none" stroke="#63b8ff" d="M441.49,-54.98C452.04,-47 468.04,-34.88 480.68,-25.31"/>
<polygon fill="#63b8ff" stroke="#63b8ff" points="482.93,-28 488.79,-19.17 478.71,-22.42 482.93,-28"/>
</g>
<!-- Node13 -->
<g id="node13" class="node">
<title>Node13</title>
<g id="a_node13"><a xlink:title=" ">
<polygon fill="#e0e0e0" stroke="#999999" points="385.24,-19 337.24,-19 337.24,0 385.24,0 385.24,-19"/>
<text text-anchor="middle" x="361.24" y="-7" font-family="Helvetica,sans-Serif" font-size="10.00">mutex</text>
</a>
</g>
</g>
<!-- Node12&#45;&gt;Node13 -->
<g id="edge15" class="edge">
<title>Node12&#45;&gt;Node13</title>
<path fill="none" stroke="#63b8ff" d="M419.16,-54.98C408.76,-47 392.98,-34.88 380.52,-25.31"/>
<polygon fill="#63b8ff" stroke="#63b8ff" points="382.59,-22.49 372.53,-19.17 378.33,-28.04 382.59,-22.49"/>
</g>
<!-- Node14 -->
<g id="node14" class="node">
<title>Node14</title>
<g id="a_node14"><a xlink:title=" ">
<polygon fill="#e0e0e0" stroke="#999999" points="447.24,-19 403.24,-19 403.24,0 447.24,0 447.24,-19"/>
<text text-anchor="middle" x="425.24" y="-7" font-family="Helvetica,sans-Serif" font-size="10.00">string</text>
</a>
</g>
</g>
<!-- Node12&#45;&gt;Node14 -->
<g id="edge16" class="edge">
<title>Node12&#45;&gt;Node14</title>
<path fill="none" stroke="#63b8ff" d="M429.42,-54.75C428.76,-47.8 427.82,-37.85 427,-29.13"/>
<polygon fill="#63b8ff" stroke="#63b8ff" points="430.48,-28.72 426.05,-19.09 423.51,-29.37 430.48,-28.72"/>
</g>
</g>
</svg>
