<?xml version="1.0" encoding="UTF-8" standalone="no"?>
<!DOCTYPE svg PUBLIC "-//W3C//DTD SVG 1.1//EN"
 "http://www.w3.org/Graphics/SVG/1.1/DTD/svg11.dtd">
<!-- Generated by graphviz version 2.43.0 (0)
 -->
<!-- Title: Graphical Class Hierarchy Pages: 1 -->
<svg width="353pt" height="360pt"
 viewBox="0.00 0.00 353.00 360.00" xmlns="http://www.w3.org/2000/svg" xmlns:xlink="http://www.w3.org/1999/xlink">
<g id="graph0" class="graph" transform="scale(1 1) rotate(0) translate(4 356)">
<title>Graphical Class Hierarchy</title>
<!-- Node0 -->
<g id="node1" class="node">
<title>Node0</title>
<g id="a_node1"><a xlink:href="classhqp_1_1Task.html" target="_top" xlink:title=" ">
<polygon fill="white" stroke="#666666" points="62,-111 0,-111 0,-92 62,-92 62,-111"/>
<text text-anchor="middle" x="31" y="-99" font-family="Helvetica,sans-Serif" font-size="10.00">hqp::Task</text>
</a>
</g>
</g>
<!-- Node1 -->
<g id="node2" class="node">
<title>Node1</title>
<g id="a_node2"><a xlink:href="classhqp_1_1TaskInterface.html" target="_top" xlink:title=" ">
<polygon fill="white" stroke="#666666" points="230.5,-185 108.5,-185 108.5,-166 230.5,-166 230.5,-185"/>
<text text-anchor="middle" x="169.5" y="-173" font-family="Helvetica,sans-Serif" font-size="10.00">hqp::TaskInterface&lt;&gt;</text>
</a>
</g>
</g>
<!-- Node0&#45;&gt;Node1 -->
<g id="edge1" class="edge">
<title>Node0&#45;&gt;Node1</title>
<path fill="none" stroke="#63b8ff" d="M48.76,-118.53C61.33,-130.42 79.48,-145.83 98,-155.5 106.12,-159.74 115.25,-163.18 124.18,-165.93"/>
<polygon fill="#63b8ff" stroke="#63b8ff" points="50.97,-115.79 41.36,-111.32 46.08,-120.81 50.97,-115.79"/>
</g>
<!-- Node11 -->
<g id="node12" class="node">
<title>Node11</title>
<g id="a_node12"><a xlink:href="classhqp_1_1TaskInterface.html" target="_top" xlink:title=" ">
<polygon fill="white" stroke="#666666" points="241,-146 98,-146 98,-105 241,-105 241,-146"/>
<text text-anchor="start" x="106" y="-134" font-family="Helvetica,sans-Serif" font-size="10.00">hqp::TaskInterface</text>
<text text-anchor="start" x="106" y="-123" font-family="Helvetica,sans-Serif" font-size="10.00">&lt; double, Eigen::VectorXd</text>
<text text-anchor="middle" x="169.5" y="-112" font-family="Helvetica,sans-Serif" font-size="10.00"> const &amp; &gt;</text>
</a>
</g>
</g>
<!-- Node0&#45;&gt;Node11 -->
<g id="edge11" class="edge">
<title>Node0&#45;&gt;Node11</title>
<path fill="none" stroke="#63b8ff" d="M72.17,-108.56C80.27,-109.99 89.01,-111.52 97.8,-113.07"/>
<polygon fill="#63b8ff" stroke="#63b8ff" points="72.75,-105.11 62.29,-106.83 71.54,-112.01 72.75,-105.11"/>
</g>
<!-- Node12 -->
<g id="node13" class="node">
<title>Node12</title>
<g id="a_node13"><a xlink:href="classhqp_1_1SubTasks.html" target="_top" xlink:title=" ">
<polygon fill="white" stroke="#666666" points="212.5,-87 126.5,-87 126.5,-68 212.5,-68 212.5,-87"/>
<text text-anchor="middle" x="169.5" y="-75" font-family="Helvetica,sans-Serif" font-size="10.00">hqp::SubTasks</text>
</a>
</g>
</g>
<!-- Node0&#45;&gt;Node12 -->
<g id="edge12" class="edge">
<title>Node0&#45;&gt;Node12</title>
<path fill="none" stroke="#63b8ff" d="M72.47,-94.38C89.46,-91.4 109.22,-87.92 126.39,-84.9"/>
<polygon fill="#63b8ff" stroke="#63b8ff" points="71.54,-90.99 62.29,-96.17 72.75,-97.89 71.54,-90.99"/>
</g>
<!-- Node13 -->
<g id="node14" class="node">
<title>Node13</title>
<g id="a_node14"><a xlink:href="classhqp_1_1TaskInterface.html" target="_top" xlink:title="Templated interface for tasks with arbitrary arguments.">
<polygon fill="white" stroke="#666666" points="222.5,-45.5 116.5,-45.5 116.5,-15.5 222.5,-15.5 222.5,-45.5"/>
<text text-anchor="start" x="124.5" y="-33.5" font-family="Helvetica,sans-Serif" font-size="10.00">hqp::TaskInterface</text>
<text text-anchor="middle" x="169.5" y="-22.5" font-family="Helvetica,sans-Serif" font-size="10.00">&lt; Args &gt;</text>
</a>
</g>
</g>
<!-- Node0&#45;&gt;Node13 -->
<g id="edge13" class="edge">
<title>Node0&#45;&gt;Node13</title>
<path fill="none" stroke="#63b8ff" d="M54.16,-86.01C66.7,-77.6 82.87,-67.35 98,-59.5 107.63,-54.5 118.33,-49.73 128.42,-45.55"/>
<polygon fill="#63b8ff" stroke="#63b8ff" points="52.03,-83.23 45.74,-91.75 55.97,-89.01 52.03,-83.23"/>
</g>
<!-- Node2 -->
<g id="node3" class="node">
<title>Node2</title>
<g id="a_node3"><a xlink:href="classTask0.html" target="_top" xlink:title=" ">
<polygon fill="white" stroke="#666666" points="333,-352 289,-352 289,-333 333,-333 333,-352"/>
<text text-anchor="middle" x="311" y="-340" font-family="Helvetica,sans-Serif" font-size="10.00">Task0</text>
</a>
</g>
</g>
<!-- Node1&#45;&gt;Node2 -->
<g id="edge2" class="edge">
<title>Node1&#45;&gt;Node2</title>
<path fill="none" stroke="#63b8ff" d="M180.35,-194.49C196.92,-225 232.94,-285.48 277,-324.5 280.62,-327.7 284.9,-330.56 289.16,-333"/>
<polygon fill="#63b8ff" stroke="#63b8ff" points="183.28,-192.54 175.49,-185.36 177.1,-195.83 183.28,-192.54"/>
</g>
<!-- Node3 -->
<g id="node4" class="node">
<title>Node3</title>
<g id="a_node4"><a xlink:href="classTask1.html" target="_top" xlink:title=" ">
<polygon fill="white" stroke="#666666" points="333,-315 289,-315 289,-296 333,-296 333,-315"/>
<text text-anchor="middle" x="311" y="-303" font-family="Helvetica,sans-Serif" font-size="10.00">Task1</text>
</a>
</g>
</g>
<!-- Node1&#45;&gt;Node3 -->
<g id="edge3" class="edge">
<title>Node1&#45;&gt;Node3</title>
<path fill="none" stroke="#63b8ff" d="M184.37,-193.22C203.43,-216.79 239.64,-258.8 277,-287.5 281.04,-290.6 285.68,-293.48 290.18,-295.99"/>
<polygon fill="#63b8ff" stroke="#63b8ff" points="186.91,-190.79 177.93,-185.16 181.44,-195.16 186.91,-190.79"/>
</g>
<!-- Node4 -->
<g id="node5" class="node">
<title>Node4</title>
<g id="a_node5"><a xlink:href="classTask2.html" target="_top" xlink:title=" ">
<polygon fill="white" stroke="#666666" points="333,-278 289,-278 289,-259 333,-259 333,-278"/>
<text text-anchor="middle" x="311" y="-266" font-family="Helvetica,sans-Serif" font-size="10.00">Task2</text>
</a>
</g>
</g>
<!-- Node1&#45;&gt;Node4 -->
<g id="edge4" class="edge">
<title>Node1&#45;&gt;Node4</title>
<path fill="none" stroke="#63b8ff" d="M191.53,-191.39C212.67,-207.1 246.42,-231.48 277,-250.5 281.65,-253.4 286.81,-256.33 291.63,-258.96"/>
<polygon fill="#63b8ff" stroke="#63b8ff" points="193.4,-188.41 183.29,-185.23 189.21,-194.02 193.4,-188.41"/>
</g>
<!-- Node5 -->
<g id="node6" class="node">
<title>Node5</title>
<g id="a_node6"><a xlink:href="classTask3.html" target="_top" xlink:title=" ">
<polygon fill="white" stroke="#666666" points="333,-241 289,-241 289,-222 333,-222 333,-241"/>
<text text-anchor="middle" x="311" y="-229" font-family="Helvetica,sans-Serif" font-size="10.00">Task3</text>
</a>
</g>
</g>
<!-- Node1&#45;&gt;Node5 -->
<g id="edge5" class="edge">
<title>Node1&#45;&gt;Node5</title>
<path fill="none" stroke="#63b8ff" d="M204.04,-188.96C230.32,-199.52 266.09,-213.88 288.62,-222.92"/>
<polygon fill="#63b8ff" stroke="#63b8ff" points="205.06,-185.6 194.48,-185.13 202.46,-192.1 205.06,-185.6"/>
</g>
<!-- Node6 -->
<g id="node7" class="node">
<title>Node6</title>
<g id="a_node7"><a xlink:href="classhqp_1_1Task0.html" target="_top" xlink:title=" ">
<polygon fill="white" stroke="#666666" points="345,-204 277,-204 277,-185 345,-185 345,-204"/>
<text text-anchor="middle" x="311" y="-192" font-family="Helvetica,sans-Serif" font-size="10.00">hqp::Task0</text>
</a>
</g>
</g>
<!-- Node1&#45;&gt;Node6 -->
<g id="edge6" class="edge">
<title>Node1&#45;&gt;Node6</title>
<path fill="none" stroke="#63b8ff" d="M240.9,-185.09C253.44,-186.8 265.94,-188.5 276.8,-189.98"/>
<polygon fill="#63b8ff" stroke="#63b8ff" points="241.26,-181.6 230.88,-183.72 240.31,-188.54 241.26,-181.6"/>
</g>
<!-- Node7 -->
<g id="node8" class="node">
<title>Node7</title>
<g id="a_node8"><a xlink:href="classhqp_1_1Task2.html" target="_top" xlink:title=" ">
<polygon fill="white" stroke="#666666" points="345,-167 277,-167 277,-148 345,-148 345,-167"/>
<text text-anchor="middle" x="311" y="-155" font-family="Helvetica,sans-Serif" font-size="10.00">hqp::Task2</text>
</a>
</g>
</g>
<!-- Node1&#45;&gt;Node7 -->
<g id="edge7" class="edge">
<title>Node1&#45;&gt;Node7</title>
<path fill="none" stroke="#63b8ff" d="M240.9,-166.42C253.44,-164.8 265.94,-163.18 276.8,-161.78"/>
<polygon fill="#63b8ff" stroke="#63b8ff" points="240.35,-162.96 230.88,-167.71 241.24,-169.9 240.35,-162.96"/>
</g>
<!-- Node8 -->
<g id="node9" class="node">
<title>Node8</title>
<g id="a_node9"><a xlink:href="classhqp_1_1Task3.html" target="_top" xlink:title=" ">
<polygon fill="white" stroke="#666666" points="345,-130 277,-130 277,-111 345,-111 345,-130"/>
<text text-anchor="middle" x="311" y="-118" font-family="Helvetica,sans-Serif" font-size="10.00">hqp::Task3</text>
</a>
</g>
</g>
<!-- Node1&#45;&gt;Node8 -->
<g id="edge8" class="edge">
<title>Node1&#45;&gt;Node8</title>
<path fill="none" stroke="#63b8ff" d="M219.04,-163.07C226.47,-160.78 234,-158.24 241,-155.5 259.51,-148.26 279.68,-137.69 293.4,-130.06"/>
<polygon fill="#63b8ff" stroke="#63b8ff" points="217.96,-159.73 209.36,-165.92 219.95,-166.45 217.96,-159.73"/>
</g>
<!-- Node9 -->
<g id="node10" class="node">
<title>Node9</title>
<g id="a_node10"><a xlink:href="classhqp_1_1Task5.html" target="_top" xlink:title=" ">
<polygon fill="white" stroke="#666666" points="345,-93 277,-93 277,-74 345,-74 345,-93"/>
<text text-anchor="middle" x="311" y="-81" font-family="Helvetica,sans-Serif" font-size="10.00">hqp::Task5</text>
</a>
</g>
</g>
<!-- Node1&#45;&gt;Node9 -->
<g id="edge9" class="edge">
<title>Node1&#45;&gt;Node9</title>
<path fill="none" stroke="#63b8ff" d="M230.49,-161.78C234.18,-159.95 237.73,-157.86 241,-155.5 264.09,-138.83 256.13,-121.87 277,-102.5 280.78,-98.99 285.32,-95.86 289.8,-93.19"/>
<polygon fill="#63b8ff" stroke="#63b8ff" points="228.84,-158.68 221.05,-165.87 231.61,-165.11 228.84,-158.68"/>
</g>
<!-- Node10 -->
<g id="node11" class="node">
<title>Node10</title>
<g id="a_node11"><a xlink:href="classhqp_1_1Task6.html" target="_top" xlink:title=" ">
<polygon fill="white" stroke="#666666" points="345,-56 277,-56 277,-37 345,-37 345,-56"/>
<text text-anchor="middle" x="311" y="-44" font-family="Helvetica,sans-Serif" font-size="10.00">hqp::Task6</text>
</a>
</g>
</g>
<!-- Node1&#45;&gt;Node10 -->
<g id="edge10" class="edge">
<title>Node1&#45;&gt;Node10</title>
<path fill="none" stroke="#63b8ff" d="M233.44,-161.17C236.12,-159.49 238.67,-157.6 241,-155.5 273.01,-126.66 248.77,-98.05 277,-65.5 280.21,-61.8 284.31,-58.66 288.54,-56.05"/>
<polygon fill="#63b8ff" stroke="#63b8ff" points="231.66,-158.16 224.45,-165.92 234.92,-164.35 231.66,-158.16"/>
</g>
<!-- Node14 -->
<g id="node15" class="node">
<title>Node14</title>
<g id="a_node15"><a xlink:href="classhqp_1_1Task1.html" target="_top" xlink:title=" ">
<polygon fill="white" stroke="#666666" points="345,-19 277,-19 277,0 345,0 345,-19"/>
<text text-anchor="middle" x="311" y="-7" font-family="Helvetica,sans-Serif" font-size="10.00">hqp::Task1</text>
</a>
</g>
</g>
<!-- Node13&#45;&gt;Node14 -->
<g id="edge14" class="edge">
<title>Node13&#45;&gt;Node14</title>
<path fill="none" stroke="#63b8ff" d="M233.16,-21.07C248.21,-18.8 263.72,-16.47 276.82,-14.5"/>
<polygon fill="#63b8ff" stroke="#63b8ff" points="232.21,-17.67 222.84,-22.62 233.25,-24.59 232.21,-17.67"/>
</g>
</g>
</svg>
