<?xml version="1.0" encoding="UTF-8" standalone="no"?>
<!DOCTYPE svg PUBLIC "-//W3C//DTD SVG 1.1//EN"
 "http://www.w3.org/Graphics/SVG/1.1/DTD/svg11.dtd">
<!-- Generated by graphviz version 2.43.0 (0)
 -->
<!-- Title: Graphical Class Hierarchy Pages: 1 -->
<svg width="344pt" height="246pt"
 viewBox="0.00 0.00 344.00 245.50" xmlns="http://www.w3.org/2000/svg" xmlns:xlink="http://www.w3.org/1999/xlink">
<g id="graph0" class="graph" transform="scale(1 1) rotate(0) translate(4 241.5)">
<title>Graphical Class Hierarchy</title>
<!-- Node0 -->
<g id="node1" class="node">
<title>Node0</title>
<g id="a_node1"><a xlink:href="classhqp_1_1Task.html" target="_top" xlink:title=" ">
<polygon fill="white" stroke="#666666" points="62,-91.5 0,-91.5 0,-72.5 62,-72.5 62,-91.5"/>
<text text-anchor="middle" x="31" y="-79.5" font-family="Helvetica,sans-Serif" font-size="10.00">hqp::Task</text>
</a>
</g>
</g>
<!-- Node1 -->
<g id="node2" class="node">
<title>Node1</title>
<g id="a_node2"><a xlink:href="classhqp_1_1TaskInterface.html" target="_top" xlink:title=" ">
<polygon fill="white" stroke="#666666" points="226,-163.5 104,-163.5 104,-144.5 226,-144.5 226,-163.5"/>
<text text-anchor="middle" x="165" y="-151.5" font-family="Helvetica,sans-Serif" font-size="10.00">hqp::TaskInterface&lt;&gt;</text>
</a>
</g>
</g>
<!-- Node0&#45;&gt;Node1 -->
<g id="edge1" class="edge">
<title>Node0&#45;&gt;Node1</title>
<path fill="none" stroke="#63b8ff" d="M48.73,-99.09C61.28,-111 79.43,-126.43 98,-136 104.55,-139.37 111.79,-142.17 119.01,-144.47"/>
<polygon fill="#63b8ff" stroke="#63b8ff" points="50.94,-96.35 41.34,-91.86 46.04,-101.35 50.94,-96.35"/>
</g>
<!-- Node7 -->
<g id="node8" class="node">
<title>Node7</title>
<g id="a_node8"><a xlink:href="classhqp_1_1TaskInterface.html" target="_top" xlink:title=" ">
<polygon fill="white" stroke="#666666" points="232,-126.5 98,-126.5 98,-85.5 232,-85.5 232,-126.5"/>
<text text-anchor="start" x="106" y="-114.5" font-family="Helvetica,sans-Serif" font-size="10.00">hqp::TaskInterface</text>
<text text-anchor="start" x="106" y="-103.5" font-family="Helvetica,sans-Serif" font-size="10.00">&lt; double const &amp;, Eigen</text>
<text text-anchor="middle" x="165" y="-92.5" font-family="Helvetica,sans-Serif" font-size="10.00">::VectorXd const &amp; &gt;</text>
</a>
</g>
</g>
<!-- Node0&#45;&gt;Node7 -->
<g id="edge7" class="edge">
<title>Node0&#45;&gt;Node7</title>
<path fill="none" stroke="#63b8ff" d="M72.2,-89.31C80.32,-90.79 89.07,-92.38 97.82,-93.97"/>
<polygon fill="#63b8ff" stroke="#63b8ff" points="72.75,-85.85 62.28,-87.51 71.5,-92.74 72.75,-85.85"/>
</g>
<!-- Node8 -->
<g id="node9" class="node">
<title>Node8</title>
<g id="a_node9"><a xlink:href="classhqp_1_1SubTasks.html" target="_top" xlink:title=" ">
<polygon fill="white" stroke="#666666" points="208,-67.5 122,-67.5 122,-48.5 208,-48.5 208,-67.5"/>
<text text-anchor="middle" x="165" y="-55.5" font-family="Helvetica,sans-Serif" font-size="10.00">hqp::SubTasks</text>
</a>
</g>
</g>
<!-- Node0&#45;&gt;Node8 -->
<g id="edge8" class="edge">
<title>Node0&#45;&gt;Node8</title>
<path fill="none" stroke="#63b8ff" d="M72.23,-74.69C87.94,-71.83 105.96,-68.55 121.85,-65.66"/>
<polygon fill="#63b8ff" stroke="#63b8ff" points="71.5,-71.26 62.28,-76.49 72.75,-78.15 71.5,-71.26"/>
</g>
<!-- Node9 -->
<g id="node10" class="node">
<title>Node9</title>
<g id="a_node10"><a xlink:href="classhqp_1_1TaskInterface.html" target="_top" xlink:title=" ">
<polygon fill="white" stroke="#666666" points="218,-30 112,-30 112,0 218,0 218,-30"/>
<text text-anchor="start" x="120" y="-18" font-family="Helvetica,sans-Serif" font-size="10.00">hqp::TaskInterface</text>
<text text-anchor="middle" x="165" y="-7" font-family="Helvetica,sans-Serif" font-size="10.00">&lt; Args &gt;</text>
</a>
</g>
</g>
<!-- Node0&#45;&gt;Node9 -->
<g id="edge9" class="edge">
<title>Node0&#45;&gt;Node9</title>
<path fill="none" stroke="#63b8ff" d="M53.51,-66.19C66.06,-57.43 82.44,-46.77 98,-39 104.44,-35.79 111.41,-32.78 118.33,-30.05"/>
<polygon fill="#63b8ff" stroke="#63b8ff" points="51.23,-63.51 45.11,-72.16 55.29,-69.22 51.23,-63.51"/>
</g>
<!-- Node2 -->
<g id="node3" class="node">
<title>Node2</title>
<g id="a_node3"><a xlink:href="classhqp_1_1Task0.html" target="_top" xlink:title=" ">
<polygon fill="white" stroke="#666666" points="336,-237.5 268,-237.5 268,-218.5 336,-218.5 336,-237.5"/>
<text text-anchor="middle" x="302" y="-225.5" font-family="Helvetica,sans-Serif" font-size="10.00">hqp::Task0</text>
</a>
</g>
</g>
<!-- Node1&#45;&gt;Node2 -->
<g id="edge2" class="edge">
<title>Node1&#45;&gt;Node2</title>
<path fill="none" stroke="#63b8ff" d="M192.11,-168.36C212.72,-179.69 242.18,-195.87 268,-210 273.04,-212.76 278.51,-215.75 283.53,-218.48"/>
<polygon fill="#63b8ff" stroke="#63b8ff" points="193.77,-165.28 183.32,-163.53 190.39,-171.41 193.77,-165.28"/>
</g>
<!-- Node3 -->
<g id="node4" class="node">
<title>Node3</title>
<g id="a_node4"><a xlink:href="classhqp_1_1Task2.html" target="_top" xlink:title=" ">
<polygon fill="white" stroke="#666666" points="336,-200.5 268,-200.5 268,-181.5 336,-181.5 336,-200.5"/>
<text text-anchor="middle" x="302" y="-188.5" font-family="Helvetica,sans-Serif" font-size="10.00">hqp::Task2</text>
</a>
</g>
</g>
<!-- Node1&#45;&gt;Node3 -->
<g id="edge3" class="edge">
<title>Node1&#45;&gt;Node3</title>
<path fill="none" stroke="#63b8ff" d="M210.53,-166.2C229.18,-171.32 250.5,-177.16 267.75,-181.89"/>
<polygon fill="#63b8ff" stroke="#63b8ff" points="211.34,-162.8 200.77,-163.53 209.49,-169.55 211.34,-162.8"/>
</g>
<!-- Node4 -->
<g id="node5" class="node">
<title>Node4</title>
<g id="a_node5"><a xlink:href="classhqp_1_1Task3.html" target="_top" xlink:title=" ">
<polygon fill="white" stroke="#666666" points="336,-163.5 268,-163.5 268,-144.5 336,-144.5 336,-163.5"/>
<text text-anchor="middle" x="302" y="-151.5" font-family="Helvetica,sans-Serif" font-size="10.00">hqp::Task3</text>
</a>
</g>
</g>
<!-- Node1&#45;&gt;Node4 -->
<g id="edge4" class="edge">
<title>Node1&#45;&gt;Node4</title>
<path fill="none" stroke="#63b8ff" d="M236.4,-154C247.3,-154 258.1,-154 267.66,-154"/>
<polygon fill="#63b8ff" stroke="#63b8ff" points="236.39,-150.5 226.39,-154 236.39,-157.5 236.39,-150.5"/>
</g>
<!-- Node5 -->
<g id="node6" class="node">
<title>Node5</title>
<g id="a_node6"><a xlink:href="classhqp_1_1Task5.html" target="_top" xlink:title=" ">
<polygon fill="white" stroke="#666666" points="336,-126.5 268,-126.5 268,-107.5 336,-107.5 336,-126.5"/>
<text text-anchor="middle" x="302" y="-114.5" font-family="Helvetica,sans-Serif" font-size="10.00">hqp::Task5</text>
</a>
</g>
</g>
<!-- Node1&#45;&gt;Node5 -->
<g id="edge5" class="edge">
<title>Node1&#45;&gt;Node5</title>
<path fill="none" stroke="#63b8ff" d="M211.05,-141.73C218.06,-139.81 225.23,-137.86 232,-136 243.62,-132.81 256.35,-129.32 267.66,-126.2"/>
<polygon fill="#63b8ff" stroke="#63b8ff" points="209.67,-138.48 200.94,-144.49 211.51,-145.23 209.67,-138.48"/>
</g>
<!-- Node6 -->
<g id="node7" class="node">
<title>Node6</title>
<g id="a_node7"><a xlink:href="classhqp_1_1Task6.html" target="_top" xlink:title=" ">
<polygon fill="white" stroke="#666666" points="336,-89.5 268,-89.5 268,-70.5 336,-70.5 336,-89.5"/>
<text text-anchor="middle" x="302" y="-77.5" font-family="Helvetica,sans-Serif" font-size="10.00">hqp::Task6</text>
</a>
</g>
</g>
<!-- Node1&#45;&gt;Node6 -->
<g id="edge6" class="edge">
<title>Node1&#45;&gt;Node6</title>
<path fill="none" stroke="#63b8ff" d="M222.99,-140.62C226.11,-139.22 229.14,-137.69 232,-136 251.77,-124.35 249.89,-113.08 268,-99 272.38,-95.59 277.44,-92.37 282.26,-89.59"/>
<polygon fill="#63b8ff" stroke="#63b8ff" points="221.43,-137.47 213.42,-144.39 224,-143.98 221.43,-137.47"/>
</g>
<!-- Node10 -->
<g id="node11" class="node">
<title>Node10</title>
<g id="a_node11"><a xlink:href="classhqp_1_1Task1.html" target="_top" xlink:title=" ">
<polygon fill="white" stroke="#666666" points="336,-24.5 268,-24.5 268,-5.5 336,-5.5 336,-24.5"/>
<text text-anchor="middle" x="302" y="-12.5" font-family="Helvetica,sans-Serif" font-size="10.00">hqp::Task1</text>
</a>
</g>
</g>
<!-- Node9&#45;&gt;Node10 -->
<g id="edge10" class="edge">
<title>Node9&#45;&gt;Node10</title>
<path fill="none" stroke="#63b8ff" d="M228.45,-15C241.97,-15 255.77,-15 267.65,-15"/>
<polygon fill="#63b8ff" stroke="#63b8ff" points="228.19,-11.5 218.19,-15 228.19,-18.5 228.19,-11.5"/>
</g>
</g>
</svg>
