<?xml version="1.0" encoding="UTF-8" standalone="no"?>
<!DOCTYPE svg PUBLIC "-//W3C//DTD SVG 1.1//EN"
 "http://www.w3.org/Graphics/SVG/1.1/DTD/svg11.dtd">
<!-- Generated by graphviz version 2.43.0 (0)
 -->
<!-- Title: Graphical Class Hierarchy Pages: 1 -->
<svg width="353pt" height="246pt"
 viewBox="0.00 0.00 353.00 245.50" xmlns="http://www.w3.org/2000/svg" xmlns:xlink="http://www.w3.org/1999/xlink">
<g id="graph0" class="graph" transform="scale(1 1) rotate(0) translate(4 241.5)">
<title>Graphical Class Hierarchy</title>
<!-- Node0 -->
<g id="node1" class="node">
<title>Node0</title>
<g id="a_node1"><a xlink:href="classhqp_1_1Task.html" target="_top" xlink:title=" ">
<polygon fill="white" stroke="#666666" points="62,-91.5 0,-91.5 0,-72.5 62,-72.5 62,-91.5"/>
<text text-anchor="middle" x="31" y="-79.5" font-family="Helvetica,sans-Serif" font-size="10.00">hqp::Task</text>
</a>
</g>
</g>
<!-- Node1 -->
<g id="node2" class="node">
<title>Node1</title>
<g id="a_node2"><a xlink:href="classhqp_1_1TaskInterface.html" target="_top" xlink:title=" ">
<polygon fill="white" stroke="#666666" points="230.5,-163.5 108.5,-163.5 108.5,-144.5 230.5,-144.5 230.5,-163.5"/>
<text text-anchor="middle" x="169.5" y="-151.5" font-family="Helvetica,sans-Serif" font-size="10.00">hqp::TaskInterface&lt;&gt;</text>
</a>
</g>
</g>
<!-- Node0&#45;&gt;Node1 -->
<g id="edge1" class="edge">
<title>Node0&#45;&gt;Node1</title>
<path fill="none" stroke="#63b8ff" d="M48.69,-99.18C61.21,-111.14 79.36,-126.58 98,-136 104.65,-139.36 111.98,-142.13 119.33,-144.4"/>
<polygon fill="#63b8ff" stroke="#63b8ff" points="50.89,-96.44 41.31,-91.92 45.98,-101.43 50.89,-96.44"/>
</g>
<!-- Node7 -->
<g id="node8" class="node">
<title>Node7</title>
<g id="a_node8"><a xlink:href="classhqp_1_1TaskInterface.html" target="_top" xlink:title=" ">
<polygon fill="white" stroke="#666666" points="241,-126.5 98,-126.5 98,-85.5 241,-85.5 241,-126.5"/>
<text text-anchor="start" x="106" y="-114.5" font-family="Helvetica,sans-Serif" font-size="10.00">hqp::TaskInterface</text>
<text text-anchor="start" x="106" y="-103.5" font-family="Helvetica,sans-Serif" font-size="10.00">&lt; double, Eigen::VectorXd</text>
<text text-anchor="middle" x="169.5" y="-92.5" font-family="Helvetica,sans-Serif" font-size="10.00"> const &amp; &gt;</text>
</a>
</g>
</g>
<!-- Node0&#45;&gt;Node7 -->
<g id="edge7" class="edge">
<title>Node0&#45;&gt;Node7</title>
<path fill="none" stroke="#63b8ff" d="M72.17,-89.06C80.27,-90.49 89.01,-92.02 97.8,-93.57"/>
<polygon fill="#63b8ff" stroke="#63b8ff" points="72.75,-85.61 62.29,-87.33 71.54,-92.51 72.75,-85.61"/>
</g>
<!-- Node8 -->
<g id="node9" class="node">
<title>Node8</title>
<g id="a_node9"><a xlink:href="classhqp_1_1SubTasks.html" target="_top" xlink:title=" ">
<polygon fill="white" stroke="#666666" points="212.5,-67.5 126.5,-67.5 126.5,-48.5 212.5,-48.5 212.5,-67.5"/>
<text text-anchor="middle" x="169.5" y="-55.5" font-family="Helvetica,sans-Serif" font-size="10.00">hqp::SubTasks</text>
</a>
</g>
</g>
<!-- Node0&#45;&gt;Node8 -->
<g id="edge8" class="edge">
<title>Node0&#45;&gt;Node8</title>
<path fill="none" stroke="#63b8ff" d="M72.47,-74.88C89.46,-71.9 109.22,-68.42 126.39,-65.4"/>
<polygon fill="#63b8ff" stroke="#63b8ff" points="71.54,-71.49 62.29,-76.67 72.75,-78.39 71.54,-71.49"/>
</g>
<!-- Node9 -->
<g id="node10" class="node">
<title>Node9</title>
<g id="a_node10"><a xlink:href="classhqp_1_1TaskInterface.html" target="_top" xlink:title=" ">
<polygon fill="white" stroke="#666666" points="222.5,-30 116.5,-30 116.5,0 222.5,0 222.5,-30"/>
<text text-anchor="start" x="124.5" y="-18" font-family="Helvetica,sans-Serif" font-size="10.00">hqp::TaskInterface</text>
<text text-anchor="middle" x="169.5" y="-7" font-family="Helvetica,sans-Serif" font-size="10.00">&lt; Args &gt;</text>
</a>
</g>
</g>
<!-- Node0&#45;&gt;Node9 -->
<g id="edge9" class="edge">
<title>Node0&#45;&gt;Node9</title>
<path fill="none" stroke="#63b8ff" d="M52.97,-66.4C65.57,-57.53 82.17,-46.7 98,-39 104.63,-35.78 111.8,-32.8 118.94,-30.12"/>
<polygon fill="#63b8ff" stroke="#63b8ff" points="50.66,-63.75 44.58,-72.43 54.74,-69.44 50.66,-63.75"/>
</g>
<!-- Node2 -->
<g id="node3" class="node">
<title>Node2</title>
<g id="a_node3"><a xlink:href="classhqp_1_1Task0.html" target="_top" xlink:title=" ">
<polygon fill="white" stroke="#666666" points="345,-237.5 277,-237.5 277,-218.5 345,-218.5 345,-237.5"/>
<text text-anchor="middle" x="311" y="-225.5" font-family="Helvetica,sans-Serif" font-size="10.00">hqp::Task0</text>
</a>
</g>
</g>
<!-- Node1&#45;&gt;Node2 -->
<g id="edge2" class="edge">
<title>Node1&#45;&gt;Node2</title>
<path fill="none" stroke="#63b8ff" d="M197.6,-168.37C225.33,-183.08 267.65,-205.54 291.67,-218.28"/>
<polygon fill="#63b8ff" stroke="#63b8ff" points="198.93,-165.12 188.45,-163.52 195.65,-171.3 198.93,-165.12"/>
</g>
<!-- Node3 -->
<g id="node4" class="node">
<title>Node3</title>
<g id="a_node4"><a xlink:href="classhqp_1_1Task2.html" target="_top" xlink:title=" ">
<polygon fill="white" stroke="#666666" points="345,-200.5 277,-200.5 277,-181.5 345,-181.5 345,-200.5"/>
<text text-anchor="middle" x="311" y="-188.5" font-family="Helvetica,sans-Serif" font-size="10.00">hqp::Task2</text>
</a>
</g>
</g>
<!-- Node1&#45;&gt;Node3 -->
<g id="edge3" class="edge">
<title>Node1&#45;&gt;Node3</title>
<path fill="none" stroke="#63b8ff" d="M216.13,-166.1C235.84,-171.33 258.48,-177.34 276.59,-182.14"/>
<polygon fill="#63b8ff" stroke="#63b8ff" points="216.99,-162.71 206.42,-163.53 215.19,-169.48 216.99,-162.71"/>
</g>
<!-- Node4 -->
<g id="node5" class="node">
<title>Node4</title>
<g id="a_node5"><a xlink:href="classhqp_1_1Task3.html" target="_top" xlink:title=" ">
<polygon fill="white" stroke="#666666" points="345,-163.5 277,-163.5 277,-144.5 345,-144.5 345,-163.5"/>
<text text-anchor="middle" x="311" y="-151.5" font-family="Helvetica,sans-Serif" font-size="10.00">hqp::Task3</text>
</a>
</g>
</g>
<!-- Node1&#45;&gt;Node4 -->
<g id="edge4" class="edge">
<title>Node1&#45;&gt;Node4</title>
<path fill="none" stroke="#63b8ff" d="M240.9,-154C253.44,-154 265.94,-154 276.8,-154"/>
<polygon fill="#63b8ff" stroke="#63b8ff" points="240.88,-150.5 230.88,-154 240.88,-157.5 240.88,-150.5"/>
</g>
<!-- Node5 -->
<g id="node6" class="node">
<title>Node5</title>
<g id="a_node6"><a xlink:href="classhqp_1_1Task5.html" target="_top" xlink:title=" ">
<polygon fill="white" stroke="#666666" points="345,-126.5 277,-126.5 277,-107.5 345,-107.5 345,-126.5"/>
<text text-anchor="middle" x="311" y="-114.5" font-family="Helvetica,sans-Serif" font-size="10.00">hqp::Task5</text>
</a>
</g>
</g>
<!-- Node1&#45;&gt;Node5 -->
<g id="edge5" class="edge">
<title>Node1&#45;&gt;Node5</title>
<path fill="none" stroke="#63b8ff" d="M218.39,-141.9C225.96,-139.95 233.7,-137.94 241,-136 252.65,-132.91 265.38,-129.43 276.69,-126.31"/>
<polygon fill="#63b8ff" stroke="#63b8ff" points="217.4,-138.54 208.59,-144.41 219.14,-145.32 217.4,-138.54"/>
</g>
<!-- Node6 -->
<g id="node7" class="node">
<title>Node6</title>
<g id="a_node7"><a xlink:href="classhqp_1_1Task6.html" target="_top" xlink:title=" ">
<polygon fill="white" stroke="#666666" points="345,-89.5 277,-89.5 277,-70.5 345,-70.5 345,-89.5"/>
<text text-anchor="middle" x="311" y="-77.5" font-family="Helvetica,sans-Serif" font-size="10.00">hqp::Task6</text>
</a>
</g>
</g>
<!-- Node1&#45;&gt;Node6 -->
<g id="edge6" class="edge">
<title>Node1&#45;&gt;Node6</title>
<path fill="none" stroke="#63b8ff" d="M231.42,-140.79C234.74,-139.35 237.96,-137.76 241,-136 260.86,-124.51 258.89,-113.08 277,-99 281.38,-95.59 286.44,-92.37 291.26,-89.59"/>
<polygon fill="#63b8ff" stroke="#63b8ff" points="229.97,-137.6 221.88,-144.45 232.47,-144.14 229.97,-137.6"/>
</g>
<!-- Node10 -->
<g id="node11" class="node">
<title>Node10</title>
<g id="a_node11"><a xlink:href="classhqp_1_1Task1.html" target="_top" xlink:title=" ">
<polygon fill="white" stroke="#666666" points="345,-24.5 277,-24.5 277,-5.5 345,-5.5 345,-24.5"/>
<text text-anchor="middle" x="311" y="-12.5" font-family="Helvetica,sans-Serif" font-size="10.00">hqp::Task1</text>
</a>
</g>
</g>
<!-- Node9&#45;&gt;Node10 -->
<g id="edge10" class="edge">
<title>Node9&#45;&gt;Node10</title>
<path fill="none" stroke="#63b8ff" d="M233.16,-15C248.21,-15 263.72,-15 276.82,-15"/>
<polygon fill="#63b8ff" stroke="#63b8ff" points="232.84,-11.5 222.84,-15 232.84,-18.5 232.84,-11.5"/>
</g>
</g>
</svg>
