<?xml version="1.0" encoding="UTF-8" standalone="no"?>
<!DOCTYPE svg PUBLIC "-//W3C//DTD SVG 1.1//EN"
 "http://www.w3.org/Graphics/SVG/1.1/DTD/svg11.dtd">
<!-- Generated by graphviz version 2.43.0 (0)
 -->
<!-- Title: Graphical Class Hierarchy Pages: 1 -->
<svg width="212pt" height="76pt"
 viewBox="0.00 0.00 212.00 75.50" xmlns="http://www.w3.org/2000/svg" xmlns:xlink="http://www.w3.org/1999/xlink">
<g id="graph0" class="graph" transform="scale(1 1) rotate(0) translate(4 71.5)">
<title>Graphical Class Hierarchy</title>
<!-- Node0 -->
<g id="node1" class="node">
<title>Node0</title>
<g id="a_node1"><a xlink:href="classhqp_1_1Task.html" target="_top" xlink:title=" ">
<polygon fill="white" stroke="#666666" points="62,-45.5 0,-45.5 0,-26.5 62,-26.5 62,-45.5"/>
<text text-anchor="middle" x="31" y="-33.5" font-family="Helvetica,sans-Serif" font-size="10.00">hqp::Task</text>
</a>
</g>
</g>
<!-- Node1 -->
<g id="node2" class="node">
<title>Node1</title>
<g id="a_node2"><a xlink:href="classhqp_1_1SubTasks.html" target="_top" xlink:title=" ">
<polygon fill="white" stroke="#666666" points="194,-67.5 108,-67.5 108,-48.5 194,-48.5 194,-67.5"/>
<text text-anchor="middle" x="151" y="-55.5" font-family="Helvetica,sans-Serif" font-size="10.00">hqp::SubTasks</text>
</a>
</g>
</g>
<!-- Node0&#45;&gt;Node1 -->
<g id="edge1" class="edge">
<title>Node0&#45;&gt;Node1</title>
<path fill="none" stroke="#63b8ff" d="M71.94,-43.45C83.53,-45.61 96.23,-47.98 107.95,-50.16"/>
<polygon fill="#63b8ff" stroke="#63b8ff" points="72.55,-40 62.08,-41.61 71.27,-46.88 72.55,-40"/>
</g>
<!-- Node2 -->
<g id="node3" class="node">
<title>Node2</title>
<g id="a_node3"><a xlink:href="classhqp_1_1TaskInterface.html" target="_top" xlink:title="Templated interface for tasks with arbitrary arguments.">
<polygon fill="white" stroke="#666666" points="204,-30 98,-30 98,0 204,0 204,-30"/>
<text text-anchor="start" x="106" y="-18" font-family="Helvetica,sans-Serif" font-size="10.00">hqp::TaskInterface</text>
<text text-anchor="middle" x="151" y="-7" font-family="Helvetica,sans-Serif" font-size="10.00">&lt; Args &gt;</text>
</a>
</g>
</g>
<!-- Node0&#45;&gt;Node2 -->
<g id="edge2" class="edge">
<title>Node0&#45;&gt;Node2</title>
<path fill="none" stroke="#63b8ff" d="M71.94,-28.89C80.3,-27.4 89.24,-25.81 97.96,-24.26"/>
<polygon fill="#63b8ff" stroke="#63b8ff" points="71.31,-25.45 62.08,-30.65 72.54,-32.34 71.31,-25.45"/>
</g>
</g>
</svg>
