<?xml version="1.0" encoding="UTF-8" standalone="no"?>
<!DOCTYPE svg PUBLIC "-//W3C//DTD SVG 1.1//EN"
 "http://www.w3.org/Graphics/SVG/1.1/DTD/svg11.dtd">
<!-- Generated by graphviz version 2.43.0 (0)
 -->
<!-- Title: Graphical Class Hierarchy Pages: 1 -->
<svg width="389pt" height="49pt"
 viewBox="0.00 0.00 389.00 49.00" xmlns="http://www.w3.org/2000/svg" xmlns:xlink="http://www.w3.org/1999/xlink">
<g id="graph0" class="graph" transform="scale(1 1) rotate(0) translate(4 45)">
<title>Graphical Class Hierarchy</title>
<!-- Node0 -->
<g id="node1" class="node">
<title>Node0</title>
<g id="a_node1"><a xlink:title=" ">
<polygon fill="#e0e0e0" stroke="#999999" points="64,-30 0,-30 0,-11 64,-11 64,-30"/>
<text text-anchor="middle" x="32" y="-18" font-family="Helvetica,sans-Serif" font-size="10.00">Container</text>
</a>
</g>
</g>
<!-- Node1 -->
<g id="node2" class="node">
<title>Node1</title>
<g id="a_node2"><a xlink:href="classhqp_1_1SmartContainer.html" target="_top" xlink:title=" ">
<polygon fill="white" stroke="#666666" points="239,-41 100,-41 100,0 239,0 239,-41"/>
<text text-anchor="start" x="108" y="-29" font-family="Helvetica,sans-Serif" font-size="10.00">hqp::SmartContainer</text>
<text text-anchor="start" x="108" y="-18" font-family="Helvetica,sans-Serif" font-size="10.00">&lt; Container, PtrWrapper,</text>
<text text-anchor="middle" x="169.5" y="-7" font-family="Helvetica,sans-Serif" font-size="10.00"> SmartPtr, T &gt;</text>
</a>
</g>
</g>
<!-- Node0&#45;&gt;Node1 -->
<g id="edge1" class="edge">
<title>Node0&#45;&gt;Node1</title>
<path fill="none" stroke="#63b8ff" d="M74.31,-20.5C82.38,-20.5 91.05,-20.5 99.74,-20.5"/>
<polygon fill="#63b8ff" stroke="#63b8ff" points="74.09,-17 64.09,-20.5 74.09,-24 74.09,-17"/>
</g>
<!-- Node2 -->
<g id="node3" class="node">
<title>Node2</title>
<g id="a_node3"><a xlink:href="classhqp_1_1StackOfTasks.html" target="_top" xlink:title=" ">
<polygon fill="white" stroke="#666666" points="381,-30 275,-30 275,-11 381,-11 381,-30"/>
<text text-anchor="middle" x="328" y="-18" font-family="Helvetica,sans-Serif" font-size="10.00">hqp::StackOfTasks</text>
</a>
</g>
</g>
<!-- Node1&#45;&gt;Node2 -->
<g id="edge2" class="edge">
<title>Node1&#45;&gt;Node2</title>
<path fill="none" stroke="#63b8ff" d="M249.31,-20.5C257.98,-20.5 266.65,-20.5 274.88,-20.5"/>
<polygon fill="#63b8ff" stroke="#63b8ff" points="249.14,-17 239.14,-20.5 249.14,-24 249.14,-17"/>
</g>
</g>
</svg>
