<?xml version="1.0" encoding="UTF-8" standalone="no"?>
<!DOCTYPE svg PUBLIC "-//W3C//DTD SVG 1.1//EN"
 "http://www.w3.org/Graphics/SVG/1.1/DTD/svg11.dtd">
<!-- Generated by graphviz version 2.43.0 (0)
 -->
<!-- Title: tests/library.hpp Pages: 1 -->
<svg width="423pt" height="82pt"
 viewBox="0.00 0.00 422.50 82.00" xmlns="http://www.w3.org/2000/svg" xmlns:xlink="http://www.w3.org/1999/xlink">
<g id="graph0" class="graph" transform="scale(1 1) rotate(0) translate(4 78)">
<title>tests/library.hpp</title>
<!-- Node1 -->
<g id="node1" class="node">
<title>Node1</title>
<g id="a_node1"><a xlink:title="Defines test task classes for the Weighted&#45;Hierarchical&#45;QP solver.">
<polygon fill="#999999" stroke="#666666" points="278,-74 183,-74 183,-55 278,-55 278,-74"/>
<text text-anchor="middle" x="230.5" y="-62" font-family="Helvetica,sans-Serif" font-size="10.00">tests/library.hpp</text>
</a>
</g>
</g>
<!-- Node2 -->
<g id="node2" class="node">
<title>Node2</title>
<g id="a_node2"><a xlink:href="00__basic__select_8cpp.html" target="_top" xlink:title=" ">
<polygon fill="white" stroke="#666666" points="141,-19 0,-19 0,0 141,0 141,-19"/>
<text text-anchor="middle" x="70.5" y="-7" font-family="Helvetica,sans-Serif" font-size="10.00">tests/00_basic_select.cpp</text>
</a>
</g>
</g>
<!-- Node1&#45;&gt;Node2 -->
<g id="edge1" class="edge">
<title>Node1&#45;&gt;Node2</title>
<path fill="none" stroke="#63b8ff" d="M195.17,-51.8C165.31,-41.91 123.23,-27.97 96.41,-19.08"/>
<polygon fill="#63b8ff" stroke="#63b8ff" points="194.2,-55.16 204.79,-54.98 196.4,-48.52 194.2,-55.16"/>
</g>
<!-- Node3 -->
<g id="node3" class="node">
<title>Node3</title>
<g id="a_node3"><a xlink:href="01__metric__swap_8cpp.html" target="_top" xlink:title=" ">
<polygon fill="white" stroke="#666666" points="302,-19 159,-19 159,0 302,0 302,-19"/>
<text text-anchor="middle" x="230.5" y="-7" font-family="Helvetica,sans-Serif" font-size="10.00">tests/01_metric_swap.cpp</text>
</a>
</g>
</g>
<!-- Node1&#45;&gt;Node3 -->
<g id="edge2" class="edge">
<title>Node1&#45;&gt;Node3</title>
<path fill="none" stroke="#63b8ff" d="M230.5,-44.66C230.5,-35.93 230.5,-25.99 230.5,-19.09"/>
<polygon fill="#63b8ff" stroke="#63b8ff" points="227,-44.75 230.5,-54.75 234,-44.75 227,-44.75"/>
</g>
<!-- Node4 -->
<g id="node4" class="node">
<title>Node4</title>
<g id="a_node4"><a xlink:href="library_8cpp.html" target="_top" xlink:title=" ">
<polygon fill="white" stroke="#666666" points="414.5,-19 320.5,-19 320.5,0 414.5,0 414.5,-19"/>
<text text-anchor="middle" x="367.5" y="-7" font-family="Helvetica,sans-Serif" font-size="10.00">tests/library.cpp</text>
</a>
</g>
</g>
<!-- Node1&#45;&gt;Node4 -->
<g id="edge3" class="edge">
<title>Node1&#45;&gt;Node4</title>
<path fill="none" stroke="#63b8ff" d="M262.06,-51.29C287.45,-41.47 322.5,-27.91 345.09,-19.17"/>
<polygon fill="#63b8ff" stroke="#63b8ff" points="260.58,-48.11 252.51,-54.98 263.1,-54.64 260.58,-48.11"/>
</g>
</g>
</svg>
