<?xml version="1.0" encoding="UTF-8" standalone="no"?>
<!DOCTYPE svg PUBLIC "-//W3C//DTD SVG 1.1//EN"
 "http://www.w3.org/Graphics/SVG/1.1/DTD/svg11.dtd">
<!-- Generated by graphviz version 2.43.0 (0)
 -->
<!-- Title: tests/library.hpp Pages: 1 -->
<svg width="472pt" height="192pt"
 viewBox="0.00 0.00 471.88 192.00" xmlns="http://www.w3.org/2000/svg" xmlns:xlink="http://www.w3.org/1999/xlink">
<g id="graph0" class="graph" transform="scale(1 1) rotate(0) translate(4 188)">
<title>tests/library.hpp</title>
<!-- Node1 -->
<g id="node1" class="node">
<title>Node1</title>
<g id="a_node1"><a xlink:title="Defines test task classes for the Weighted&#45;Hierarchical&#45;QP solver.">
<polygon fill="#999999" stroke="#666666" points="139.38,-184 44.38,-184 44.38,-165 139.38,-165 139.38,-184"/>
<text text-anchor="middle" x="91.88" y="-172" font-family="Helvetica,sans-Serif" font-size="10.00">tests/library.hpp</text>
</a>
</g>
</g>
<!-- Node2 -->
<g id="node2" class="node">
<title>Node2</title>
<g id="a_node2"><a xlink:title=" ">
<polygon fill="#e0e0e0" stroke="#999999" points="120.38,-19 43.38,-19 43.38,0 120.38,0 120.38,-19"/>
<text text-anchor="middle" x="81.88" y="-7" font-family="Helvetica,sans-Serif" font-size="10.00">Eigen/Dense</text>
</a>
</g>
</g>
<!-- Node1&#45;&gt;Node2 -->
<g id="edge1" class="edge">
<title>Node1&#45;&gt;Node2</title>
<path fill="none" stroke="#63b8ff" d="M79.67,-164.78C59.14,-149.28 18.43,-114.7 2.88,-74 -0.13,-66.11 -1.38,-62.29 2.88,-55 11.57,-40.14 27.24,-29.86 42.35,-22.95"/>
<polygon fill="#63b8ff" stroke="#63b8ff" points="43.74,-26.17 51.61,-19.08 41.04,-19.71 43.74,-26.17"/>
</g>
<!-- Node3 -->
<g id="node3" class="node">
<title>Node3</title>
<g id="a_node3"><a xlink:href="task_8hpp.html" target="_top" xlink:title="Declares the abstract Task interface and its derivatives used in the HQP solver.">
<polygon fill="white" stroke="#666666" points="229.38,-129 170.38,-129 170.38,-110 229.38,-110 229.38,-129"/>
<text text-anchor="middle" x="199.88" y="-117" font-family="Helvetica,sans-Serif" font-size="10.00">task.hpp</text>
</a>
</g>
</g>
<!-- Node1&#45;&gt;Node3 -->
<g id="edge2" class="edge">
<title>Node1&#45;&gt;Node3</title>
<path fill="none" stroke="#63b8ff" d="M109.24,-164.98C126.45,-156.54 153.08,-143.47 173.03,-133.68"/>
<polygon fill="#63b8ff" stroke="#63b8ff" points="174.78,-136.72 182.22,-129.17 171.7,-130.43 174.78,-136.72"/>
</g>
<!-- Node3&#45;&gt;Node2 -->
<g id="edge9" class="edge">
<title>Node3&#45;&gt;Node2</title>
<path fill="none" stroke="#63b8ff" d="M170.34,-112.25C148.26,-106.1 118.89,-94.55 100.88,-74 90.1,-61.69 85.43,-43.47 83.42,-29.7"/>
<polygon fill="#63b8ff" stroke="#63b8ff" points="86.86,-28.95 82.27,-19.4 79.9,-29.73 86.86,-28.95"/>
</g>
<!-- Node4 -->
<g id="node4" class="node">
<title>Node4</title>
<g id="a_node4"><a xlink:title=" ">
<polygon fill="#e0e0e0" stroke="#999999" points="53.38,-74 12.38,-74 12.38,-55 53.38,-55 53.38,-74"/>
<text text-anchor="middle" x="32.88" y="-62" font-family="Helvetica,sans-Serif" font-size="10.00">tuple</text>
</a>
</g>
</g>
<!-- Node3&#45;&gt;Node4 -->
<g id="edge3" class="edge">
<title>Node3&#45;&gt;Node4</title>
<path fill="none" stroke="#63b8ff" d="M173.05,-109.98C143.1,-100.48 94.73,-85.13 63.37,-75.18"/>
<polygon fill="#63b8ff" stroke="#63b8ff" points="64.42,-71.84 53.83,-72.15 62.31,-78.51 64.42,-71.84"/>
</g>
<!-- Node5 -->
<g id="node5" class="node">
<title>Node5</title>
<g id="a_node5"><a xlink:title=" ">
<polygon fill="#e0e0e0" stroke="#999999" points="463.88,-19 405.88,-19 405.88,0 463.88,0 463.88,-19"/>
<text text-anchor="middle" x="434.88" y="-7" font-family="Helvetica,sans-Serif" font-size="10.00">memory</text>
</a>
</g>
</g>
<!-- Node3&#45;&gt;Node5 -->
<g id="edge4" class="edge">
<title>Node3&#45;&gt;Node5</title>
<path fill="none" stroke="#63b8ff" d="M229.64,-116.74C284.48,-112.87 398.32,-101.62 424.88,-74 436.12,-62.32 437.82,-43.46 437.2,-29.33"/>
<polygon fill="#63b8ff" stroke="#63b8ff" points="440.67,-28.9 436.33,-19.23 433.7,-29.49 440.67,-28.9"/>
</g>
<!-- Node6 -->
<g id="node6" class="node">
<title>Node6</title>
<g id="a_node6"><a xlink:title=" ">
<polygon fill="#e0e0e0" stroke="#999999" points="155.38,-74 110.38,-74 110.38,-55 155.38,-55 155.38,-74"/>
<text text-anchor="middle" x="132.88" y="-62" font-family="Helvetica,sans-Serif" font-size="10.00">utility</text>
</a>
</g>
</g>
<!-- Node3&#45;&gt;Node6 -->
<g id="edge5" class="edge">
<title>Node3&#45;&gt;Node6</title>
<path fill="none" stroke="#63b8ff" d="M189.12,-109.98C179.12,-102.07 164,-90.11 151.95,-80.58"/>
<polygon fill="#63b8ff" stroke="#63b8ff" points="153.86,-77.63 143.84,-74.17 149.52,-83.12 153.86,-77.63"/>
</g>
<!-- Node7 -->
<g id="node7" class="node">
<title>Node7</title>
<g id="a_node7"><a xlink:title=" ">
<polygon fill="#e0e0e0" stroke="#999999" points="370.38,-19 301.38,-19 301.38,0 370.38,0 370.38,-19"/>
<text text-anchor="middle" x="335.88" y="-7" font-family="Helvetica,sans-Serif" font-size="10.00">type_traits</text>
</a>
</g>
</g>
<!-- Node3&#45;&gt;Node7 -->
<g id="edge6" class="edge">
<title>Node3&#45;&gt;Node7</title>
<path fill="none" stroke="#63b8ff" d="M229.72,-112.88C253.83,-106.95 287.19,-95.38 308.88,-74 321.27,-61.79 328.29,-43.01 332.05,-29.03"/>
<polygon fill="#63b8ff" stroke="#63b8ff" points="335.51,-29.61 334.4,-19.07 328.7,-28 335.51,-29.61"/>
</g>
<!-- Node8 -->
<g id="node8" class="node">
<title>Node8</title>
<g id="a_node8"><a xlink:title=" ">
<polygon fill="#e0e0e0" stroke="#999999" points="225.88,-74 173.88,-74 173.88,-55 225.88,-55 225.88,-74"/>
<text text-anchor="middle" x="199.88" y="-62" font-family="Helvetica,sans-Serif" font-size="10.00">cassert</text>
</a>
</g>
</g>
<!-- Node3&#45;&gt;Node8 -->
<g id="edge7" class="edge">
<title>Node3&#45;&gt;Node8</title>
<path fill="none" stroke="#63b8ff" d="M199.88,-109.75C199.88,-102.8 199.88,-92.85 199.88,-84.13"/>
<polygon fill="#63b8ff" stroke="#63b8ff" points="203.38,-84.09 199.88,-74.09 196.38,-84.09 203.38,-84.09"/>
</g>
<!-- Node9 -->
<g id="node9" class="node">
<title>Node9</title>
<g id="a_node9"><a xlink:title=" ">
<polygon fill="#e0e0e0" stroke="#999999" points="299.88,-74 243.88,-74 243.88,-55 299.88,-55 299.88,-74"/>
<text text-anchor="middle" x="271.88" y="-62" font-family="Helvetica,sans-Serif" font-size="10.00">optional</text>
</a>
</g>
</g>
<!-- Node3&#45;&gt;Node9 -->
<g id="edge8" class="edge">
<title>Node3&#45;&gt;Node9</title>
<path fill="none" stroke="#63b8ff" d="M211.45,-109.98C222.3,-102 238.76,-89.88 251.77,-80.31"/>
<polygon fill="#63b8ff" stroke="#63b8ff" points="254.13,-82.92 260.11,-74.17 249.98,-77.28 254.13,-82.92"/>
</g>
<!-- Node10 -->
<g id="node10" class="node">
<title>Node10</title>
<g id="a_node10"><a xlink:href="utils_8hpp.html" target="_top" xlink:title="Declares common utility functions used throughout the HQP solver.">
<polygon fill="white" stroke="#666666" points="415.38,-74 356.38,-74 356.38,-55 415.38,-55 415.38,-74"/>
<text text-anchor="middle" x="385.88" y="-62" font-family="Helvetica,sans-Serif" font-size="10.00">utils.hpp</text>
</a>
</g>
</g>
<!-- Node3&#45;&gt;Node10 -->
<g id="edge10" class="edge">
<title>Node3&#45;&gt;Node10</title>
<path fill="none" stroke="#63b8ff" d="M229.77,-109.98C261.45,-100.96 311.64,-86.65 346.53,-76.71"/>
<polygon fill="#63b8ff" stroke="#63b8ff" points="347.72,-80.01 356.38,-73.91 345.8,-73.28 347.72,-80.01"/>
</g>
<!-- Node10&#45;&gt;Node2 -->
<g id="edge13" class="edge">
<title>Node10&#45;&gt;Node2</title>
<path fill="none" stroke="#63b8ff" d="M356.18,-58.32C303.82,-49.19 194.61,-30.15 130.92,-19.05"/>
<polygon fill="#63b8ff" stroke="#63b8ff" points="131.17,-15.54 120.72,-17.27 129.97,-22.44 131.17,-15.54"/>
</g>
<!-- Node10&#45;&gt;Node5 -->
<g id="edge11" class="edge">
<title>Node10&#45;&gt;Node5</title>
<path fill="none" stroke="#63b8ff" d="M393.98,-54.75C401.04,-47.11 411.47,-35.82 420.03,-26.56"/>
<polygon fill="#63b8ff" stroke="#63b8ff" points="422.72,-28.81 426.94,-19.09 417.58,-24.06 422.72,-28.81"/>
</g>
<!-- Node10&#45;&gt;Node7 -->
<g id="edge12" class="edge">
<title>Node10&#45;&gt;Node7</title>
<path fill="none" stroke="#63b8ff" d="M377.63,-54.75C370.42,-47.11 359.77,-35.82 351.04,-26.56"/>
<polygon fill="#63b8ff" stroke="#63b8ff" points="353.39,-23.96 343.99,-19.09 348.3,-28.76 353.39,-23.96"/>
</g>
</g>
</svg>
