<?xml version="1.0" encoding="UTF-8" standalone="no"?>
<!DOCTYPE svg PUBLIC "-//W3C//DTD SVG 1.1//EN"
 "http://www.w3.org/Graphics/SVG/1.1/DTD/svg11.dtd">
<!-- Generated by graphviz version 2.43.0 (0)
 -->
<!-- Title: tests/library.cpp Pages: 1 -->
<svg width="530pt" height="247pt"
 viewBox="0.00 0.00 530.38 247.00" xmlns="http://www.w3.org/2000/svg" xmlns:xlink="http://www.w3.org/1999/xlink">
<g id="graph0" class="graph" transform="scale(1 1) rotate(0) translate(4 243)">
<title>tests/library.cpp</title>
<!-- Node1 -->
<g id="node1" class="node">
<title>Node1</title>
<g id="a_node1"><a xlink:title="Implements the run() functions for various test tasks.">
<polygon fill="#999999" stroke="#666666" points="138.88,-239 44.88,-239 44.88,-220 138.88,-220 138.88,-239"/>
<text text-anchor="middle" x="91.88" y="-227" font-family="Helvetica,sans-Serif" font-size="10.00">tests/library.cpp</text>
</a>
</g>
</g>
<!-- Node2 -->
<g id="node2" class="node">
<title>Node2</title>
<g id="a_node2"><a xlink:href="library_8hpp.html" target="_top" xlink:title="Defines test task classes for the Weighted&#45;Hierarchical&#45;QP solver.">
<polygon fill="white" stroke="#666666" points="125.88,-184 57.88,-184 57.88,-165 125.88,-165 125.88,-184"/>
<text text-anchor="middle" x="91.88" y="-172" font-family="Helvetica,sans-Serif" font-size="10.00">library.hpp</text>
</a>
</g>
</g>
<!-- Node1&#45;&gt;Node2 -->
<g id="edge1" class="edge">
<title>Node1&#45;&gt;Node2</title>
<path fill="none" stroke="#63b8ff" d="M91.88,-219.75C91.88,-212.8 91.88,-202.85 91.88,-194.13"/>
<polygon fill="#63b8ff" stroke="#63b8ff" points="95.38,-194.09 91.88,-184.09 88.38,-194.09 95.38,-194.09"/>
</g>
<!-- Node3 -->
<g id="node3" class="node">
<title>Node3</title>
<g id="a_node3"><a xlink:title=" ">
<polygon fill="#e0e0e0" stroke="#999999" points="120.38,-19 43.38,-19 43.38,0 120.38,0 120.38,-19"/>
<text text-anchor="middle" x="81.88" y="-7" font-family="Helvetica,sans-Serif" font-size="10.00">Eigen/Dense</text>
</a>
</g>
</g>
<!-- Node2&#45;&gt;Node3 -->
<g id="edge2" class="edge">
<title>Node2&#45;&gt;Node3</title>
<path fill="none" stroke="#63b8ff" d="M79.67,-164.78C59.14,-149.28 18.43,-114.7 2.88,-74 -0.13,-66.11 -1.38,-62.29 2.88,-55 11.57,-40.14 27.24,-29.86 42.35,-22.95"/>
<polygon fill="#63b8ff" stroke="#63b8ff" points="43.74,-26.17 51.61,-19.08 41.04,-19.71 43.74,-26.17"/>
</g>
<!-- Node4 -->
<g id="node4" class="node">
<title>Node4</title>
<g id="a_node4"><a xlink:href="task_8hpp.html" target="_top" xlink:title="Declares the abstract Task interface and its derivatives used in the HQP solver.">
<polygon fill="white" stroke="#666666" points="229.38,-129 170.38,-129 170.38,-110 229.38,-110 229.38,-129"/>
<text text-anchor="middle" x="199.88" y="-117" font-family="Helvetica,sans-Serif" font-size="10.00">task.hpp</text>
</a>
</g>
</g>
<!-- Node2&#45;&gt;Node4 -->
<g id="edge3" class="edge">
<title>Node2&#45;&gt;Node4</title>
<path fill="none" stroke="#63b8ff" d="M109.24,-164.98C126.45,-156.54 153.08,-143.47 173.03,-133.68"/>
<polygon fill="#63b8ff" stroke="#63b8ff" points="174.78,-136.72 182.22,-129.17 171.7,-130.43 174.78,-136.72"/>
</g>
<!-- Node4&#45;&gt;Node3 -->
<g id="edge10" class="edge">
<title>Node4&#45;&gt;Node3</title>
<path fill="none" stroke="#63b8ff" d="M170.34,-112.25C148.26,-106.1 118.89,-94.55 100.88,-74 90.1,-61.69 85.43,-43.47 83.42,-29.7"/>
<polygon fill="#63b8ff" stroke="#63b8ff" points="86.86,-28.95 82.27,-19.4 79.9,-29.73 86.86,-28.95"/>
</g>
<!-- Node5 -->
<g id="node5" class="node">
<title>Node5</title>
<g id="a_node5"><a xlink:title=" ">
<polygon fill="#e0e0e0" stroke="#999999" points="53.38,-74 12.38,-74 12.38,-55 53.38,-55 53.38,-74"/>
<text text-anchor="middle" x="32.88" y="-62" font-family="Helvetica,sans-Serif" font-size="10.00">tuple</text>
</a>
</g>
</g>
<!-- Node4&#45;&gt;Node5 -->
<g id="edge4" class="edge">
<title>Node4&#45;&gt;Node5</title>
<path fill="none" stroke="#63b8ff" d="M173.05,-109.98C143.1,-100.48 94.73,-85.13 63.37,-75.18"/>
<polygon fill="#63b8ff" stroke="#63b8ff" points="64.42,-71.84 53.83,-72.15 62.31,-78.51 64.42,-71.84"/>
</g>
<!-- Node6 -->
<g id="node6" class="node">
<title>Node6</title>
<g id="a_node6"><a xlink:title=" ">
<polygon fill="#e0e0e0" stroke="#999999" points="434.88,-19 376.88,-19 376.88,0 434.88,0 434.88,-19"/>
<text text-anchor="middle" x="405.88" y="-7" font-family="Helvetica,sans-Serif" font-size="10.00">memory</text>
</a>
</g>
</g>
<!-- Node4&#45;&gt;Node6 -->
<g id="edge5" class="edge">
<title>Node4&#45;&gt;Node6</title>
<path fill="none" stroke="#63b8ff" d="M229.5,-115.07C276.3,-109.07 364.38,-95.25 386.88,-74 399.03,-62.53 403.51,-43.64 405.11,-29.45"/>
<polygon fill="#63b8ff" stroke="#63b8ff" points="408.62,-29.53 405.87,-19.29 401.64,-29 408.62,-29.53"/>
</g>
<!-- Node7 -->
<g id="node7" class="node">
<title>Node7</title>
<g id="a_node7"><a xlink:title=" ">
<polygon fill="#e0e0e0" stroke="#999999" points="155.38,-74 110.38,-74 110.38,-55 155.38,-55 155.38,-74"/>
<text text-anchor="middle" x="132.88" y="-62" font-family="Helvetica,sans-Serif" font-size="10.00">utility</text>
</a>
</g>
</g>
<!-- Node4&#45;&gt;Node7 -->
<g id="edge6" class="edge">
<title>Node4&#45;&gt;Node7</title>
<path fill="none" stroke="#63b8ff" d="M189.12,-109.98C179.12,-102.07 164,-90.11 151.95,-80.58"/>
<polygon fill="#63b8ff" stroke="#63b8ff" points="153.86,-77.63 143.84,-74.17 149.52,-83.12 153.86,-77.63"/>
</g>
<!-- Node8 -->
<g id="node8" class="node">
<title>Node8</title>
<g id="a_node8"><a xlink:title=" ">
<polygon fill="#e0e0e0" stroke="#999999" points="522.38,-19 453.38,-19 453.38,0 522.38,0 522.38,-19"/>
<text text-anchor="middle" x="487.88" y="-7" font-family="Helvetica,sans-Serif" font-size="10.00">type_traits</text>
</a>
</g>
</g>
<!-- Node4&#45;&gt;Node8 -->
<g id="edge7" class="edge">
<title>Node4&#45;&gt;Node8</title>
<path fill="none" stroke="#63b8ff" d="M229.51,-116.25C270.74,-112.21 347.01,-101.42 405.88,-74 431.46,-62.09 456.45,-40.97 471.98,-26.38"/>
<polygon fill="#63b8ff" stroke="#63b8ff" points="474.43,-28.88 479.2,-19.42 469.57,-23.84 474.43,-28.88"/>
</g>
<!-- Node9 -->
<g id="node9" class="node">
<title>Node9</title>
<g id="a_node9"><a xlink:title=" ">
<polygon fill="#e0e0e0" stroke="#999999" points="225.88,-74 173.88,-74 173.88,-55 225.88,-55 225.88,-74"/>
<text text-anchor="middle" x="199.88" y="-62" font-family="Helvetica,sans-Serif" font-size="10.00">cassert</text>
</a>
</g>
</g>
<!-- Node4&#45;&gt;Node9 -->
<g id="edge8" class="edge">
<title>Node4&#45;&gt;Node9</title>
<path fill="none" stroke="#63b8ff" d="M199.88,-109.75C199.88,-102.8 199.88,-92.85 199.88,-84.13"/>
<polygon fill="#63b8ff" stroke="#63b8ff" points="203.38,-84.09 199.88,-74.09 196.38,-84.09 203.38,-84.09"/>
</g>
<!-- Node10 -->
<g id="node10" class="node">
<title>Node10</title>
<g id="a_node10"><a xlink:title=" ">
<polygon fill="#e0e0e0" stroke="#999999" points="299.88,-74 243.88,-74 243.88,-55 299.88,-55 299.88,-74"/>
<text text-anchor="middle" x="271.88" y="-62" font-family="Helvetica,sans-Serif" font-size="10.00">optional</text>
</a>
</g>
</g>
<!-- Node4&#45;&gt;Node10 -->
<g id="edge9" class="edge">
<title>Node4&#45;&gt;Node10</title>
<path fill="none" stroke="#63b8ff" d="M211.45,-109.98C222.3,-102 238.76,-89.88 251.77,-80.31"/>
<polygon fill="#63b8ff" stroke="#63b8ff" points="254.13,-82.92 260.11,-74.17 249.98,-77.28 254.13,-82.92"/>
</g>
<!-- Node11 -->
<g id="node11" class="node">
<title>Node11</title>
<g id="a_node11"><a xlink:href="utils_8hpp.html" target="_top" xlink:title="Declares common utility functions used throughout the HQP solver.">
<polygon fill="white" stroke="#666666" points="377.38,-74 318.38,-74 318.38,-55 377.38,-55 377.38,-74"/>
<text text-anchor="middle" x="347.88" y="-62" font-family="Helvetica,sans-Serif" font-size="10.00">utils.hpp</text>
</a>
</g>
</g>
<!-- Node4&#45;&gt;Node11 -->
<g id="edge11" class="edge">
<title>Node4&#45;&gt;Node11</title>
<path fill="none" stroke="#63b8ff" d="M223.66,-109.98C248.11,-101.23 286.42,-87.51 314.03,-77.62"/>
<polygon fill="#63b8ff" stroke="#63b8ff" points="315.44,-80.84 323.67,-74.17 313.08,-74.25 315.44,-80.84"/>
</g>
<!-- Node11&#45;&gt;Node3 -->
<g id="edge17" class="edge">
<title>Node11&#45;&gt;Node3</title>
<path fill="none" stroke="#63b8ff" d="M318.09,-56.94C314.98,-56.27 311.87,-55.62 308.88,-55 247.46,-42.29 176.49,-28.52 130.49,-19.72"/>
<polygon fill="#63b8ff" stroke="#63b8ff" points="130.97,-16.25 120.49,-17.81 129.66,-23.13 130.97,-16.25"/>
</g>
<!-- Node11&#45;&gt;Node6 -->
<g id="edge12" class="edge">
<title>Node11&#45;&gt;Node6</title>
<path fill="none" stroke="#63b8ff" d="M357.2,-54.98C365.69,-47.23 378.44,-35.58 388.77,-26.14"/>
<polygon fill="#63b8ff" stroke="#63b8ff" points="391.37,-28.5 396.4,-19.17 386.65,-23.33 391.37,-28.5"/>
</g>
<!-- Node11&#45;&gt;Node8 -->
<g id="edge15" class="edge">
<title>Node11&#45;&gt;Node8</title>
<path fill="none" stroke="#63b8ff" d="M370.38,-54.98C393.41,-46.27 429.42,-32.63 455.52,-22.75"/>
<polygon fill="#63b8ff" stroke="#63b8ff" points="456.87,-25.98 464.98,-19.17 454.39,-19.44 456.87,-25.98"/>
</g>
<!-- Node12 -->
<g id="node12" class="node">
<title>Node12</title>
<g id="a_node12"><a xlink:title=" ">
<polygon fill="#e0e0e0" stroke="#999999" points="230.88,-19 182.88,-19 182.88,0 230.88,0 230.88,-19"/>
<text text-anchor="middle" x="206.88" y="-7" font-family="Helvetica,sans-Serif" font-size="10.00">mutex</text>
</a>
</g>
</g>
<!-- Node11&#45;&gt;Node12 -->
<g id="edge13" class="edge">
<title>Node11&#45;&gt;Node12</title>
<path fill="none" stroke="#63b8ff" d="M325.23,-54.98C302.04,-46.27 265.76,-32.63 239.48,-22.75"/>
<polygon fill="#63b8ff" stroke="#63b8ff" points="240.54,-19.41 229.95,-19.17 238.08,-25.97 240.54,-19.41"/>
</g>
<!-- Node13 -->
<g id="node13" class="node">
<title>Node13</title>
<g id="a_node13"><a xlink:title=" ">
<polygon fill="#e0e0e0" stroke="#999999" points="292.88,-19 248.88,-19 248.88,0 292.88,0 292.88,-19"/>
<text text-anchor="middle" x="270.88" y="-7" font-family="Helvetica,sans-Serif" font-size="10.00">string</text>
</a>
</g>
</g>
<!-- Node11&#45;&gt;Node13 -->
<g id="edge14" class="edge">
<title>Node11&#45;&gt;Node13</title>
<path fill="none" stroke="#63b8ff" d="M335.51,-54.98C323.8,-46.92 305.96,-34.65 292,-25.03"/>
<polygon fill="#63b8ff" stroke="#63b8ff" points="293.7,-21.96 283.48,-19.17 289.73,-27.72 293.7,-21.96"/>
</g>
<!-- Node14 -->
<g id="node14" class="node">
<title>Node14</title>
<g id="a_node14"><a xlink:title=" ">
<polygon fill="#e0e0e0" stroke="#999999" points="358.38,-19 311.38,-19 311.38,0 358.38,0 358.38,-19"/>
<text text-anchor="middle" x="334.88" y="-7" font-family="Helvetica,sans-Serif" font-size="10.00">vector</text>
</a>
</g>
</g>
<!-- Node11&#45;&gt;Node14 -->
<g id="edge16" class="edge">
<title>Node11&#45;&gt;Node14</title>
<path fill="none" stroke="#63b8ff" d="M345.74,-54.75C344.01,-47.72 341.54,-37.62 339.38,-28.84"/>
<polygon fill="#63b8ff" stroke="#63b8ff" points="342.77,-27.97 336.99,-19.09 335.97,-29.63 342.77,-27.97"/>
</g>
</g>
</svg>
