<?xml version="1.0" encoding="UTF-8" standalone="no"?>
<!DOCTYPE svg PUBLIC "-//W3C//DTD SVG 1.1//EN"
 "http://www.w3.org/Graphics/SVG/1.1/DTD/svg11.dtd">
<!-- Generated by graphviz version 2.43.0 (0)
 -->
<!-- Title: tests/library.hpp Pages: 1 -->
<svg width="516pt" height="137pt"
 viewBox="0.00 0.00 515.50 137.00" xmlns="http://www.w3.org/2000/svg" xmlns:xlink="http://www.w3.org/1999/xlink">
<g id="graph0" class="graph" transform="scale(1 1) rotate(0) translate(4 133)">
<title>tests/library.hpp</title>
<!-- Node1 -->
<g id="node1" class="node">
<title>Node1</title>
<g id="a_node1"><a xlink:title="Defines test task classes for the Weighted&#45;Hierarchical&#45;QP solver.">
<polygon fill="#999999" stroke="#666666" points="194,-129 99,-129 99,-110 194,-110 194,-129"/>
<text text-anchor="middle" x="146.5" y="-117" font-family="Helvetica,sans-Serif" font-size="10.00">tests/library.hpp</text>
</a>
</g>
</g>
<!-- Node2 -->
<g id="node2" class="node">
<title>Node2</title>
<g id="a_node2"><a xlink:title=" ">
<polygon fill="#e0e0e0" stroke="#999999" points="77,-19 0,-19 0,0 77,0 77,-19"/>
<text text-anchor="middle" x="38.5" y="-7" font-family="Helvetica,sans-Serif" font-size="10.00">Eigen/Dense</text>
</a>
</g>
</g>
<!-- Node1&#45;&gt;Node2 -->
<g id="edge1" class="edge">
<title>Node1&#45;&gt;Node2</title>
<path fill="none" stroke="#63b8ff" d="M137.66,-109.66C119.46,-91.46 77.55,-49.55 54.47,-26.47"/>
<polygon fill="#63b8ff" stroke="#63b8ff" points="56.7,-23.75 47.16,-19.16 51.75,-28.7 56.7,-23.75"/>
</g>
<!-- Node3 -->
<g id="node3" class="node">
<title>Node3</title>
<g id="a_node3"><a xlink:href="task_8hpp.html" target="_top" xlink:title="Declares the abstract Task interface and its derivatives used in the HQP solver.">
<polygon fill="white" stroke="#666666" points="248,-74 189,-74 189,-55 248,-55 248,-74"/>
<text text-anchor="middle" x="218.5" y="-62" font-family="Helvetica,sans-Serif" font-size="10.00">task.hpp</text>
</a>
</g>
</g>
<!-- Node1&#45;&gt;Node3 -->
<g id="edge2" class="edge">
<title>Node1&#45;&gt;Node3</title>
<path fill="none" stroke="#63b8ff" d="M158.07,-109.98C168.92,-102 185.38,-89.88 198.38,-80.31"/>
<polygon fill="#63b8ff" stroke="#63b8ff" points="200.74,-82.92 206.72,-74.17 196.59,-77.28 200.74,-82.92"/>
</g>
<!-- Node3&#45;&gt;Node2 -->
<g id="edge9" class="edge">
<title>Node3&#45;&gt;Node2</title>
<path fill="none" stroke="#63b8ff" d="M189.58,-54.98C159.23,-46.05 111.33,-31.94 77.62,-22.02"/>
<polygon fill="#63b8ff" stroke="#63b8ff" points="78.23,-18.55 67.65,-19.08 76.25,-25.26 78.23,-18.55"/>
</g>
<!-- Node4 -->
<g id="node4" class="node">
<title>Node4</title>
<g id="a_node4"><a xlink:title=" ">
<polygon fill="#e0e0e0" stroke="#999999" points="136,-19 95,-19 95,0 136,0 136,-19"/>
<text text-anchor="middle" x="115.5" y="-7" font-family="Helvetica,sans-Serif" font-size="10.00">tuple</text>
</a>
</g>
</g>
<!-- Node3&#45;&gt;Node4 -->
<g id="edge3" class="edge">
<title>Node3&#45;&gt;Node4</title>
<path fill="none" stroke="#63b8ff" d="M201.95,-54.98C185.61,-46.57 160.37,-33.59 141.37,-23.81"/>
<polygon fill="#63b8ff" stroke="#63b8ff" points="142.84,-20.63 132.35,-19.17 139.64,-26.86 142.84,-20.63"/>
</g>
<!-- Node5 -->
<g id="node5" class="node">
<title>Node5</title>
<g id="a_node5"><a xlink:title=" ">
<polygon fill="#e0e0e0" stroke="#999999" points="212.5,-19 154.5,-19 154.5,0 212.5,0 212.5,-19"/>
<text text-anchor="middle" x="183.5" y="-7" font-family="Helvetica,sans-Serif" font-size="10.00">memory</text>
</a>
</g>
</g>
<!-- Node3&#45;&gt;Node5 -->
<g id="edge4" class="edge">
<title>Node3&#45;&gt;Node5</title>
<path fill="none" stroke="#63b8ff" d="M212.72,-54.75C207.88,-47.42 200.82,-36.73 194.86,-27.7"/>
<polygon fill="#63b8ff" stroke="#63b8ff" points="197.6,-25.5 189.17,-19.09 191.76,-29.36 197.6,-25.5"/>
</g>
<!-- Node6 -->
<g id="node6" class="node">
<title>Node6</title>
<g id="a_node6"><a xlink:title=" ">
<polygon fill="#e0e0e0" stroke="#999999" points="276,-19 231,-19 231,0 276,0 276,-19"/>
<text text-anchor="middle" x="253.5" y="-7" font-family="Helvetica,sans-Serif" font-size="10.00">utility</text>
</a>
</g>
</g>
<!-- Node3&#45;&gt;Node6 -->
<g id="edge5" class="edge">
<title>Node3&#45;&gt;Node6</title>
<path fill="none" stroke="#63b8ff" d="M224.28,-54.75C229.12,-47.42 236.18,-36.73 242.14,-27.7"/>
<polygon fill="#63b8ff" stroke="#63b8ff" points="245.24,-29.36 247.83,-19.09 239.4,-25.5 245.24,-29.36"/>
</g>
<!-- Node7 -->
<g id="node7" class="node">
<title>Node7</title>
<g id="a_node7"><a xlink:title=" ">
<polygon fill="#e0e0e0" stroke="#999999" points="363,-19 294,-19 294,0 363,0 363,-19"/>
<text text-anchor="middle" x="328.5" y="-7" font-family="Helvetica,sans-Serif" font-size="10.00">type_traits</text>
</a>
</g>
</g>
<!-- Node3&#45;&gt;Node7 -->
<g id="edge6" class="edge">
<title>Node3&#45;&gt;Node7</title>
<path fill="none" stroke="#63b8ff" d="M236.17,-54.98C253.79,-46.5 281.08,-33.35 301.43,-23.54"/>
<polygon fill="#63b8ff" stroke="#63b8ff" points="303.02,-26.66 310.51,-19.17 299.98,-20.36 303.02,-26.66"/>
</g>
<!-- Node8 -->
<g id="node8" class="node">
<title>Node8</title>
<g id="a_node8"><a xlink:title=" ">
<polygon fill="#e0e0e0" stroke="#999999" points="433.5,-19 381.5,-19 381.5,0 433.5,0 433.5,-19"/>
<text text-anchor="middle" x="407.5" y="-7" font-family="Helvetica,sans-Serif" font-size="10.00">cassert</text>
</a>
</g>
</g>
<!-- Node3&#45;&gt;Node8 -->
<g id="edge7" class="edge">
<title>Node3&#45;&gt;Node8</title>
<path fill="none" stroke="#63b8ff" d="M248.03,-55.22C281.29,-45.89 335.37,-30.73 371.18,-20.68"/>
<polygon fill="#63b8ff" stroke="#63b8ff" points="372.54,-23.94 381.22,-17.87 370.65,-17.2 372.54,-23.94"/>
</g>
<!-- Node9 -->
<g id="node9" class="node">
<title>Node9</title>
<g id="a_node9"><a xlink:title=" ">
<polygon fill="#e0e0e0" stroke="#999999" points="507.5,-19 451.5,-19 451.5,0 507.5,0 507.5,-19"/>
<text text-anchor="middle" x="479.5" y="-7" font-family="Helvetica,sans-Serif" font-size="10.00">optional</text>
</a>
</g>
</g>
<!-- Node3&#45;&gt;Node9 -->
<g id="edge8" class="edge">
<title>Node3&#45;&gt;Node9</title>
<path fill="none" stroke="#63b8ff" d="M248.27,-57.88C289.39,-50.05 366.14,-35.21 441.15,-19.24"/>
<polygon fill="#63b8ff" stroke="#63b8ff" points="442.19,-22.6 451.24,-17.08 440.73,-15.75 442.19,-22.6"/>
</g>
</g>
</svg>
