<?xml version="1.0" encoding="UTF-8" standalone="no"?>
<!DOCTYPE svg PUBLIC "-//W3C//DTD SVG 1.1//EN"
 "http://www.w3.org/Graphics/SVG/1.1/DTD/svg11.dtd">
<!-- Generated by graphviz version 2.43.0 (0)
 -->
<!-- Title: hqp::find Pages: 1 -->
<svg width="740pt" height="193pt"
 viewBox="0.00 0.00 740.00 193.34" xmlns="http://www.w3.org/2000/svg" xmlns:xlink="http://www.w3.org/1999/xlink">
<g id="graph0" class="graph" transform="scale(1 1) rotate(0) translate(4 189.34)">
<title>hqp::find</title>
<!-- Node1 -->
<g id="node1" class="node">
<title>Node1</title>
<g id="a_node1"><a xlink:title=" ">
<polygon fill="#999999" stroke="#666666" points="732,-110.5 673,-110.5 673,-91.5 732,-91.5 732,-110.5"/>
<text text-anchor="middle" x="702.5" y="-98.5" font-family="Helvetica,sans-Serif" font-size="10.00">hqp::find</text>
</a>
</g>
</g>
<!-- Node2 -->
<g id="node2" class="node">
<title>Node2</title>
<g id="a_node2"><a xlink:href="classhqp_1_1HierarchicalQP.html#a7234e6ffbcaa28f908a0d728e4506ca3" target="_top" xlink:title="Updates dual variables.">
<polygon fill="white" stroke="#666666" points="637,-164 524,-164 524,-134 637,-134 637,-164"/>
<text text-anchor="start" x="532" y="-152" font-family="Helvetica,sans-Serif" font-size="10.00">hqp::HierarchicalQP</text>
<text text-anchor="middle" x="580.5" y="-141" font-family="Helvetica,sans-Serif" font-size="10.00">::dual_update</text>
</a>
</g>
</g>
<!-- Node1&#45;&gt;Node2 -->
<g id="edge1" class="edge">
<title>Node1&#45;&gt;Node2</title>
<path fill="none" stroke="#63b8ff" d="M667.99,-114.4C652.81,-120.48 634.8,-127.68 619.16,-133.94"/>
<polygon fill="#63b8ff" stroke="#63b8ff" points="669.52,-117.56 677.5,-110.6 666.92,-111.06 669.52,-117.56"/>
</g>
<!-- Node3 -->
<g id="node3" class="node">
<title>Node3</title>
<g id="a_node3"><a xlink:href="classhqp_1_1HierarchicalQP.html#aaf6df9e4aa247e25e1ff253bd6501028" target="_top" xlink:title="Handles inequality constrained tasks.">
<polygon fill="white" stroke="#666666" points="488,-161 375,-161 375,-131 488,-131 488,-161"/>
<text text-anchor="start" x="383" y="-149" font-family="Helvetica,sans-Serif" font-size="10.00">hqp::HierarchicalQP</text>
<text text-anchor="middle" x="431.5" y="-138" font-family="Helvetica,sans-Serif" font-size="10.00">::inequality_hqp</text>
</a>
</g>
</g>
<!-- Node1&#45;&gt;Node3 -->
<g id="edge9" class="edge">
<title>Node1&#45;&gt;Node3</title>
<path fill="none" stroke="#63b8ff" d="M691.33,-119.34C680.46,-136.83 661.43,-162.08 637,-173 580.92,-198.05 508.2,-177.42 466.3,-161.07"/>
<polygon fill="#63b8ff" stroke="#63b8ff" points="694.44,-120.95 696.51,-110.56 688.41,-117.39 694.44,-120.95"/>
</g>
<!-- Node4 -->
<g id="node4" class="node">
<title>Node4</title>
<g id="a_node4"><a xlink:href="classhqp_1_1HierarchicalQP.html#adac78a9cc96e9d4f311b9ef72acd7ebd" target="_top" xlink:title="Solves the overall HQP by combining tasks.">
<polygon fill="white" stroke="#666666" points="339,-116 226,-116 226,-86 339,-86 339,-116"/>
<text text-anchor="start" x="234" y="-104" font-family="Helvetica,sans-Serif" font-size="10.00">hqp::HierarchicalQP</text>
<text text-anchor="middle" x="282.5" y="-93" font-family="Helvetica,sans-Serif" font-size="10.00">::solve</text>
</a>
</g>
</g>
<!-- Node1&#45;&gt;Node4 -->
<g id="edge11" class="edge">
<title>Node1&#45;&gt;Node4</title>
<path fill="none" stroke="#63b8ff" d="M672.03,-87.52C661.25,-83.27 648.79,-79.12 637,-77 532.87,-58.26 409.09,-75.53 339.07,-88.89"/>
<polygon fill="#63b8ff" stroke="#63b8ff" points="670.82,-90.81 681.4,-91.41 673.5,-84.34 670.82,-90.81"/>
</g>
<!-- Node7 -->
<g id="node7" class="node">
<title>Node7</title>
<g id="a_node7"><a xlink:href="classhqp_1_1HierarchicalQP.html#add4448ad1c21585e607457463016a027" target="_top" xlink:title="Handles equality constraint resolution.">
<polygon fill="white" stroke="#666666" points="637,-116 524,-116 524,-86 637,-86 637,-116"/>
<text text-anchor="start" x="532" y="-104" font-family="Helvetica,sans-Serif" font-size="10.00">hqp::HierarchicalQP</text>
<text text-anchor="middle" x="580.5" y="-93" font-family="Helvetica,sans-Serif" font-size="10.00">::equality_hqp</text>
</a>
</g>
</g>
<!-- Node1&#45;&gt;Node7 -->
<g id="edge6" class="edge">
<title>Node1&#45;&gt;Node7</title>
<path fill="none" stroke="#63b8ff" d="M662.54,-101C654.48,-101 645.83,-101 637.29,-101"/>
<polygon fill="#63b8ff" stroke="#63b8ff" points="662.76,-104.5 672.76,-101 662.76,-97.5 662.76,-104.5"/>
</g>
<!-- Node8 -->
<g id="node8" class="node">
<title>Node8</title>
<g id="a_node8"><a xlink:href="classhqp_1_1HierarchicalQP.html#aae5aaeddac67302f310f34bfa3eb66c4" target="_top" xlink:title="Outputs the active set details to the console.">
<polygon fill="white" stroke="#666666" points="637,-30 524,-30 524,0 637,0 637,-30"/>
<text text-anchor="start" x="532" y="-18" font-family="Helvetica,sans-Serif" font-size="10.00">hqp::HierarchicalQP</text>
<text text-anchor="middle" x="580.5" y="-7" font-family="Helvetica,sans-Serif" font-size="10.00">::print_active_set</text>
</a>
</g>
</g>
<!-- Node1&#45;&gt;Node8 -->
<g id="edge10" class="edge">
<title>Node1&#45;&gt;Node8</title>
<path fill="none" stroke="#63b8ff" d="M684.68,-84.08C672.19,-72.04 654.37,-55.95 637,-44 629.75,-39.01 621.53,-34.27 613.68,-30.13"/>
<polygon fill="#63b8ff" stroke="#63b8ff" points="682.47,-86.82 692.06,-91.32 687.37,-81.82 682.47,-86.82"/>
</g>
<!-- Node2&#45;&gt;Node3 -->
<g id="edge2" class="edge">
<title>Node2&#45;&gt;Node3</title>
<path fill="none" stroke="#63b8ff" d="M513.92,-147.66C505.32,-147.49 496.57,-147.31 488.15,-147.14"/>
<polygon fill="#63b8ff" stroke="#63b8ff" points="513.86,-151.16 523.93,-147.87 514,-144.16 513.86,-151.16"/>
</g>
<!-- Node3&#45;&gt;Node4 -->
<g id="edge3" class="edge">
<title>Node3&#45;&gt;Node4</title>
<path fill="none" stroke="#63b8ff" d="M371.46,-127.93C358.61,-123.99 345.15,-119.87 332.73,-116.07"/>
<polygon fill="#63b8ff" stroke="#63b8ff" points="370.56,-131.31 381.14,-130.89 372.6,-124.62 370.56,-131.31"/>
</g>
<!-- Node5 -->
<g id="node5" class="node">
<title>Node5</title>
<g id="a_node5"><a xlink:href="classhqp_1_1HierarchicalQP.html#afd188fe690d31e139bdb9ed95b8acf01" target="_top" xlink:title="Computes and retrieves the primal solution.">
<polygon fill="white" stroke="#666666" points="190,-116 77,-116 77,-86 190,-86 190,-116"/>
<text text-anchor="start" x="85" y="-104" font-family="Helvetica,sans-Serif" font-size="10.00">hqp::HierarchicalQP</text>
<text text-anchor="middle" x="133.5" y="-93" font-family="Helvetica,sans-Serif" font-size="10.00">::get_primal</text>
</a>
</g>
</g>
<!-- Node4&#45;&gt;Node5 -->
<g id="edge4" class="edge">
<title>Node4&#45;&gt;Node5</title>
<path fill="none" stroke="#63b8ff" d="M215.92,-101C207.32,-101 198.57,-101 190.15,-101"/>
<polygon fill="#63b8ff" stroke="#63b8ff" points="215.93,-104.5 225.93,-101 215.93,-97.5 215.93,-104.5"/>
</g>
<!-- Node6 -->
<g id="node6" class="node">
<title>Node6</title>
<g id="a_node6"><a xlink:href="00__basic__select_8cpp.html#ae66f6b31b5ad750f1fe042a706a4e3d4" target="_top" xlink:title=" ">
<polygon fill="white" stroke="#666666" points="41,-110.5 0,-110.5 0,-91.5 41,-91.5 41,-110.5"/>
<text text-anchor="middle" x="20.5" y="-98.5" font-family="Helvetica,sans-Serif" font-size="10.00">main</text>
</a>
</g>
</g>
<!-- Node5&#45;&gt;Node6 -->
<g id="edge5" class="edge">
<title>Node5&#45;&gt;Node6</title>
<path fill="none" stroke="#63b8ff" d="M66.58,-101C57.37,-101 48.56,-101 41.21,-101"/>
<polygon fill="#63b8ff" stroke="#63b8ff" points="66.67,-104.5 76.67,-101 66.67,-97.5 66.67,-104.5"/>
</g>
<!-- Node7&#45;&gt;Node3 -->
<g id="edge7" class="edge">
<title>Node7&#45;&gt;Node3</title>
<path fill="none" stroke="#63b8ff" d="M520.46,-119.07C507.61,-123.01 494.15,-127.13 481.73,-130.93"/>
<polygon fill="#63b8ff" stroke="#63b8ff" points="521.6,-122.38 530.14,-116.11 519.56,-115.69 521.6,-122.38"/>
</g>
<!-- Node7&#45;&gt;Node4 -->
<g id="edge8" class="edge">
<title>Node7&#45;&gt;Node4</title>
<path fill="none" stroke="#63b8ff" d="M513.62,-101C461.22,-101 388.71,-101 339.18,-101"/>
<polygon fill="#63b8ff" stroke="#63b8ff" points="513.82,-104.5 523.82,-101 513.82,-97.5 513.82,-104.5"/>
</g>
</g>
</svg>
