<?xml version="1.0" encoding="UTF-8" standalone="no"?>
<!DOCTYPE svg PUBLIC "-//W3C//DTD SVG 1.1//EN"
 "http://www.w3.org/Graphics/SVG/1.1/DTD/svg11.dtd">
<!-- Generated by graphviz version 2.43.0 (0)
 -->
<!-- Title: hqp::find Pages: 1 -->
<svg width="740pt" height="193pt"
 viewBox="0.00 0.00 740.00 193.12" xmlns="http://www.w3.org/2000/svg" xmlns:xlink="http://www.w3.org/1999/xlink">
<g id="graph0" class="graph" transform="scale(1 1) rotate(0) translate(4 189.12)">
<title>hqp::find</title>
<!-- Node1 -->
<g id="node1" class="node">
<title>Node1</title>
<g id="a_node1"><a xlink:title=" ">
<polygon fill="#999999" stroke="#666666" points="732,-110.5 673,-110.5 673,-91.5 732,-91.5 732,-110.5"/>
<text text-anchor="middle" x="702.5" y="-98.5" font-family="Helvetica,sans-Serif" font-size="10.00">hqp::find</text>
</a>
</g>
</g>
<!-- Node2 -->
<g id="node2" class="node">
<title>Node2</title>
<g id="a_node2"><a xlink:href="classhqp_1_1HierarchicalQP.html#a292d98f5d69d3666a895d6a95e5dc6b9" target="_top" xlink:title="Updates dual variables.">
<polygon fill="white" stroke="#666666" points="637,-164 524,-164 524,-134 637,-134 637,-164"/>
<text text-anchor="start" x="532" y="-152" font-family="Helvetica,sans-Serif" font-size="10.00">hqp::HierarchicalQP</text>
<text text-anchor="middle" x="580.5" y="-141" font-family="Helvetica,sans-Serif" font-size="10.00">::dual_update</text>
</a>
</g>
</g>
<!-- Node1&#45;&gt;Node2 -->
<g id="edge1" class="edge">
<title>Node1&#45;&gt;Node2</title>
<path fill="none" stroke="#63b8ff" d="M667.99,-114.4C652.81,-120.48 634.8,-127.68 619.16,-133.94"/>
<polygon fill="#63b8ff" stroke="#63b8ff" points="669.52,-117.56 677.5,-110.6 666.92,-111.06 669.52,-117.56"/>
</g>
<!-- Node3 -->
<g id="node3" class="node">
<title>Node3</title>
<g id="a_node3"><a xlink:href="classhqp_1_1HierarchicalQP.html#aaf6df9e4aa247e25e1ff253bd6501028" target="_top" xlink:title="Handles inequality constrained tasks.">
<polygon fill="white" stroke="#666666" points="488,-159 375,-159 375,-129 488,-129 488,-159"/>
<text text-anchor="start" x="383" y="-147" font-family="Helvetica,sans-Serif" font-size="10.00">hqp::HierarchicalQP</text>
<text text-anchor="middle" x="431.5" y="-136" font-family="Helvetica,sans-Serif" font-size="10.00">::inequality_hqp</text>
</a>
</g>
</g>
<!-- Node1&#45;&gt;Node3 -->
<g id="edge9" class="edge">
<title>Node1&#45;&gt;Node3</title>
<path fill="none" stroke="#63b8ff" d="M691.33,-119.34C680.46,-136.83 661.43,-162.08 637,-173 580.2,-198.38 506.46,-176.04 464.83,-159"/>
<polygon fill="#63b8ff" stroke="#63b8ff" points="694.44,-120.95 696.51,-110.56 688.41,-117.39 694.44,-120.95"/>
</g>
<!-- Node4 -->
<g id="node4" class="node">
<title>Node4</title>
<g id="a_node4"><a xlink:href="classhqp_1_1HierarchicalQP.html#adac78a9cc96e9d4f311b9ef72acd7ebd" target="_top" xlink:title="Solves the overall HQP by combining tasks.">
<polygon fill="white" stroke="#666666" points="339,-94 226,-94 226,-64 339,-64 339,-94"/>
<text text-anchor="start" x="234" y="-82" font-family="Helvetica,sans-Serif" font-size="10.00">hqp::HierarchicalQP</text>
<text text-anchor="middle" x="282.5" y="-71" font-family="Helvetica,sans-Serif" font-size="10.00">::solve</text>
</a>
</g>
</g>
<!-- Node1&#45;&gt;Node4 -->
<g id="edge12" class="edge">
<title>Node1&#45;&gt;Node4</title>
<path fill="none" stroke="#63b8ff" d="M672.03,-87.52C661.25,-83.27 648.79,-79.12 637,-77 533.11,-58.3 409.25,-65.63 339.15,-72.45"/>
<polygon fill="#63b8ff" stroke="#63b8ff" points="670.82,-90.81 681.4,-91.41 673.5,-84.34 670.82,-90.81"/>
</g>
<!-- Node7 -->
<g id="node7" class="node">
<title>Node7</title>
<g id="a_node7"><a xlink:href="classhqp_1_1HierarchicalQP.html#add4448ad1c21585e607457463016a027" target="_top" xlink:title="Handles equality constraint resolution.">
<polygon fill="white" stroke="#666666" points="637,-116 524,-116 524,-86 637,-86 637,-116"/>
<text text-anchor="start" x="532" y="-104" font-family="Helvetica,sans-Serif" font-size="10.00">hqp::HierarchicalQP</text>
<text text-anchor="middle" x="580.5" y="-93" font-family="Helvetica,sans-Serif" font-size="10.00">::equality_hqp</text>
</a>
</g>
</g>
<!-- Node1&#45;&gt;Node7 -->
<g id="edge6" class="edge">
<title>Node1&#45;&gt;Node7</title>
<path fill="none" stroke="#63b8ff" d="M662.54,-101C654.48,-101 645.83,-101 637.29,-101"/>
<polygon fill="#63b8ff" stroke="#63b8ff" points="662.76,-104.5 672.76,-101 662.76,-97.5 662.76,-104.5"/>
</g>
<!-- Node8 -->
<g id="node8" class="node">
<title>Node8</title>
<g id="a_node8"><a xlink:href="classhqp_1_1HierarchicalQP.html#af25299ca77e16f5f9cb02cad264224a9" target="_top" xlink:title="Outputs the active set details to the console.">
<polygon fill="white" stroke="#666666" points="488,-30 375,-30 375,0 488,0 488,-30"/>
<text text-anchor="start" x="383" y="-18" font-family="Helvetica,sans-Serif" font-size="10.00">hqp::HierarchicalQP</text>
<text text-anchor="middle" x="431.5" y="-7" font-family="Helvetica,sans-Serif" font-size="10.00">::print_active_set</text>
</a>
</g>
</g>
<!-- Node1&#45;&gt;Node8 -->
<g id="edge10" class="edge">
<title>Node1&#45;&gt;Node8</title>
<path fill="none" stroke="#63b8ff" d="M687.33,-83.91C675.35,-70.73 657,-53.23 637,-44 589.95,-22.29 530.86,-15.85 488.31,-14.36"/>
<polygon fill="#63b8ff" stroke="#63b8ff" points="684.7,-86.23 693.91,-91.45 689.97,-81.62 684.7,-86.23"/>
</g>
<!-- Node2&#45;&gt;Node3 -->
<g id="edge2" class="edge">
<title>Node2&#45;&gt;Node3</title>
<path fill="none" stroke="#63b8ff" d="M513.92,-146.77C505.32,-146.48 496.57,-146.18 488.15,-145.89"/>
<polygon fill="#63b8ff" stroke="#63b8ff" points="513.81,-150.27 523.93,-147.11 514.05,-143.27 513.81,-150.27"/>
</g>
<!-- Node3&#45;&gt;Node4 -->
<g id="edge3" class="edge">
<title>Node3&#45;&gt;Node4</title>
<path fill="none" stroke="#63b8ff" d="M387.2,-124.85C365.01,-115.04 338.38,-103.27 317.66,-94.11"/>
<polygon fill="#63b8ff" stroke="#63b8ff" points="385.84,-128.08 396.41,-128.92 388.68,-121.68 385.84,-128.08"/>
</g>
<!-- Node5 -->
<g id="node5" class="node">
<title>Node5</title>
<g id="a_node5"><a xlink:href="classhqp_1_1HierarchicalQP.html#afd188fe690d31e139bdb9ed95b8acf01" target="_top" xlink:title="Computes and retrieves the primal solution.">
<polygon fill="white" stroke="#666666" points="190,-94 77,-94 77,-64 190,-64 190,-94"/>
<text text-anchor="start" x="85" y="-82" font-family="Helvetica,sans-Serif" font-size="10.00">hqp::HierarchicalQP</text>
<text text-anchor="middle" x="133.5" y="-71" font-family="Helvetica,sans-Serif" font-size="10.00">::get_primal</text>
</a>
</g>
</g>
<!-- Node4&#45;&gt;Node5 -->
<g id="edge4" class="edge">
<title>Node4&#45;&gt;Node5</title>
<path fill="none" stroke="#63b8ff" d="M215.92,-79C207.32,-79 198.57,-79 190.15,-79"/>
<polygon fill="#63b8ff" stroke="#63b8ff" points="215.93,-82.5 225.93,-79 215.93,-75.5 215.93,-82.5"/>
</g>
<!-- Node6 -->
<g id="node6" class="node">
<title>Node6</title>
<g id="a_node6"><a xlink:href="00__basic__select_8cpp.html#ae66f6b31b5ad750f1fe042a706a4e3d4" target="_top" xlink:title=" ">
<polygon fill="white" stroke="#666666" points="41,-88.5 0,-88.5 0,-69.5 41,-69.5 41,-88.5"/>
<text text-anchor="middle" x="20.5" y="-76.5" font-family="Helvetica,sans-Serif" font-size="10.00">main</text>
</a>
</g>
</g>
<!-- Node5&#45;&gt;Node6 -->
<g id="edge5" class="edge">
<title>Node5&#45;&gt;Node6</title>
<path fill="none" stroke="#63b8ff" d="M66.58,-79C57.37,-79 48.56,-79 41.21,-79"/>
<polygon fill="#63b8ff" stroke="#63b8ff" points="66.67,-82.5 76.67,-79 66.67,-75.5 66.67,-82.5"/>
</g>
<!-- Node7&#45;&gt;Node3 -->
<g id="edge7" class="edge">
<title>Node7&#45;&gt;Node3</title>
<path fill="none" stroke="#63b8ff" d="M518.25,-118.92C506.9,-122.24 495.16,-125.67 484.13,-128.9"/>
<polygon fill="#63b8ff" stroke="#63b8ff" points="519.47,-122.21 528.09,-116.04 517.51,-115.49 519.47,-122.21"/>
</g>
<!-- Node7&#45;&gt;Node4 -->
<g id="edge8" class="edge">
<title>Node7&#45;&gt;Node4</title>
<path fill="none" stroke="#63b8ff" d="M513.62,-96.1C461.22,-92.21 388.71,-86.82 339.18,-83.14"/>
<polygon fill="#63b8ff" stroke="#63b8ff" points="513.59,-99.61 523.82,-96.86 514.11,-92.63 513.59,-99.61"/>
</g>
<!-- Node8&#45;&gt;Node4 -->
<g id="edge11" class="edge">
<title>Node8&#45;&gt;Node4</title>
<path fill="none" stroke="#63b8ff" d="M386.6,-34.11C364.66,-43.67 338.49,-55.06 318,-63.98"/>
<polygon fill="#63b8ff" stroke="#63b8ff" points="388.26,-37.21 396.04,-30.01 385.47,-30.79 388.26,-37.21"/>
</g>
</g>
</svg>
