<?xml version="1.0" encoding="UTF-8" standalone="no"?>
<!DOCTYPE svg PUBLIC "-//W3C//DTD SVG 1.1//EN"
 "http://www.w3.org/Graphics/SVG/1.1/DTD/svg11.dtd">
<!-- Generated by graphviz version 2.43.0 (0)
 -->
<!-- Title: hqp::find Pages: 1 -->
<svg width="740pt" height="172pt"
 viewBox="0.00 0.00 740.00 172.00" xmlns="http://www.w3.org/2000/svg" xmlns:xlink="http://www.w3.org/1999/xlink">
<g id="graph0" class="graph" transform="scale(1 1) rotate(0) translate(4 168)">
<title>hqp::find</title>
<!-- Node1 -->
<g id="node1" class="node">
<title>Node1</title>
<g id="a_node1"><a xlink:title=" ">
<polygon fill="#999999" stroke="#666666" points="732,-93.5 673,-93.5 673,-74.5 732,-74.5 732,-93.5"/>
<text text-anchor="middle" x="702.5" y="-81.5" font-family="Helvetica,sans-Serif" font-size="10.00">hqp::find</text>
</a>
</g>
</g>
<!-- Node2 -->
<g id="node2" class="node">
<title>Node2</title>
<g id="a_node2"><a xlink:href="classhqp_1_1HierarchicalQP.html#a7234e6ffbcaa28f908a0d728e4506ca3" target="_top" xlink:title="Updates dual variables.">
<polygon fill="white" stroke="#666666" points="637,-164 524,-164 524,-134 637,-134 637,-164"/>
<text text-anchor="start" x="532" y="-152" font-family="Helvetica,sans-Serif" font-size="10.00">hqp::HierarchicalQP</text>
<text text-anchor="middle" x="580.5" y="-141" font-family="Helvetica,sans-Serif" font-size="10.00">::dual_update</text>
</a>
</g>
</g>
<!-- Node1&#45;&gt;Node2 -->
<g id="edge1" class="edge">
<title>Node1&#45;&gt;Node2</title>
<path fill="none" stroke="#63b8ff" d="M675.74,-98.59C663.97,-105.2 649.82,-113.07 637,-120 628.49,-124.6 619.19,-129.5 610.67,-133.95"/>
<polygon fill="#63b8ff" stroke="#63b8ff" points="677.6,-101.56 684.6,-93.6 674.16,-95.46 677.6,-101.56"/>
</g>
<!-- Node3 -->
<g id="node3" class="node">
<title>Node3</title>
<g id="a_node3"><a xlink:href="classhqp_1_1HierarchicalQP.html#aaf6df9e4aa247e25e1ff253bd6501028" target="_top" xlink:title="Handles inequality constrained tasks.">
<polygon fill="white" stroke="#666666" points="488,-121 375,-121 375,-91 488,-91 488,-121"/>
<text text-anchor="start" x="383" y="-109" font-family="Helvetica,sans-Serif" font-size="10.00">hqp::HierarchicalQP</text>
<text text-anchor="middle" x="431.5" y="-98" font-family="Helvetica,sans-Serif" font-size="10.00">::inequality_hqp</text>
</a>
</g>
</g>
<!-- Node1&#45;&gt;Node3 -->
<g id="edge9" class="edge">
<title>Node1&#45;&gt;Node3</title>
<path fill="none" stroke="#63b8ff" d="M662.86,-87.16C617.07,-90.91 540.43,-97.17 488.23,-101.44"/>
<polygon fill="#63b8ff" stroke="#63b8ff" points="663.29,-90.64 672.97,-86.33 662.71,-83.66 663.29,-90.64"/>
</g>
<!-- Node7 -->
<g id="node7" class="node">
<title>Node7</title>
<g id="a_node7"><a xlink:href="classhqp_1_1HierarchicalQP.html#add4448ad1c21585e607457463016a027" target="_top" xlink:title="Handles equality constraint resolution.">
<polygon fill="white" stroke="#666666" points="637,-78 524,-78 524,-48 637,-48 637,-78"/>
<text text-anchor="start" x="532" y="-66" font-family="Helvetica,sans-Serif" font-size="10.00">hqp::HierarchicalQP</text>
<text text-anchor="middle" x="580.5" y="-55" font-family="Helvetica,sans-Serif" font-size="10.00">::equality_hqp</text>
</a>
</g>
</g>
<!-- Node1&#45;&gt;Node7 -->
<g id="edge6" class="edge">
<title>Node1&#45;&gt;Node7</title>
<path fill="none" stroke="#63b8ff" d="M662.82,-77.23C654.67,-75.81 645.92,-74.27 637.29,-72.76"/>
<polygon fill="#63b8ff" stroke="#63b8ff" points="662.3,-80.69 672.76,-78.97 663.51,-73.8 662.3,-80.69"/>
</g>
<!-- Node8 -->
<g id="node8" class="node">
<title>Node8</title>
<g id="a_node8"><a xlink:href="classhqp_1_1HierarchicalQP.html#aae5aaeddac67302f310f34bfa3eb66c4" target="_top" xlink:title="Outputs the active set details to the console.">
<polygon fill="white" stroke="#666666" points="637,-30 524,-30 524,0 637,0 637,-30"/>
<text text-anchor="start" x="532" y="-18" font-family="Helvetica,sans-Serif" font-size="10.00">hqp::HierarchicalQP</text>
<text text-anchor="middle" x="580.5" y="-7" font-family="Helvetica,sans-Serif" font-size="10.00">::print_active_set</text>
</a>
</g>
</g>
<!-- Node1&#45;&gt;Node8 -->
<g id="edge10" class="edge">
<title>Node1&#45;&gt;Node8</title>
<path fill="none" stroke="#63b8ff" d="M680.91,-68.04C668.58,-58.89 652.35,-47.56 637,-39 631.41,-35.88 625.33,-32.89 619.31,-30.13"/>
<polygon fill="#63b8ff" stroke="#63b8ff" points="679.05,-71.02 689.14,-74.25 683.27,-65.43 679.05,-71.02"/>
</g>
<!-- Node2&#45;&gt;Node3 -->
<g id="edge2" class="edge">
<title>Node2&#45;&gt;Node3</title>
<path fill="none" stroke="#63b8ff" d="M518.25,-131.08C506.9,-127.76 495.16,-124.33 484.13,-121.1"/>
<polygon fill="#63b8ff" stroke="#63b8ff" points="517.51,-134.51 528.09,-133.96 519.47,-127.79 517.51,-134.51"/>
</g>
<!-- Node4 -->
<g id="node4" class="node">
<title>Node4</title>
<g id="a_node4"><a xlink:href="classhqp_1_1HierarchicalQP.html#adac78a9cc96e9d4f311b9ef72acd7ebd" target="_top" xlink:title="Solves the overall HQP by combining tasks.">
<polygon fill="white" stroke="#666666" points="339,-99 226,-99 226,-69 339,-69 339,-99"/>
<text text-anchor="start" x="234" y="-87" font-family="Helvetica,sans-Serif" font-size="10.00">hqp::HierarchicalQP</text>
<text text-anchor="middle" x="282.5" y="-76" font-family="Helvetica,sans-Serif" font-size="10.00">::solve</text>
</a>
</g>
</g>
<!-- Node3&#45;&gt;Node4 -->
<g id="edge3" class="edge">
<title>Node3&#45;&gt;Node4</title>
<path fill="none" stroke="#63b8ff" d="M364.92,-96.19C356.32,-94.9 347.57,-93.59 339.15,-92.33"/>
<polygon fill="#63b8ff" stroke="#63b8ff" points="364.52,-99.66 374.93,-97.68 365.55,-92.74 364.52,-99.66"/>
</g>
<!-- Node5 -->
<g id="node5" class="node">
<title>Node5</title>
<g id="a_node5"><a xlink:href="classhqp_1_1HierarchicalQP.html#afd188fe690d31e139bdb9ed95b8acf01" target="_top" xlink:title="Computes and retrieves the primal solution.">
<polygon fill="white" stroke="#666666" points="190,-99 77,-99 77,-69 190,-69 190,-99"/>
<text text-anchor="start" x="85" y="-87" font-family="Helvetica,sans-Serif" font-size="10.00">hqp::HierarchicalQP</text>
<text text-anchor="middle" x="133.5" y="-76" font-family="Helvetica,sans-Serif" font-size="10.00">::get_primal</text>
</a>
</g>
</g>
<!-- Node4&#45;&gt;Node5 -->
<g id="edge4" class="edge">
<title>Node4&#45;&gt;Node5</title>
<path fill="none" stroke="#63b8ff" d="M215.92,-84C207.32,-84 198.57,-84 190.15,-84"/>
<polygon fill="#63b8ff" stroke="#63b8ff" points="215.93,-87.5 225.93,-84 215.93,-80.5 215.93,-87.5"/>
</g>
<!-- Node6 -->
<g id="node6" class="node">
<title>Node6</title>
<g id="a_node6"><a xlink:href="00__basic__select_8cpp.html#ae66f6b31b5ad750f1fe042a706a4e3d4" target="_top" xlink:title=" ">
<polygon fill="white" stroke="#666666" points="41,-93.5 0,-93.5 0,-74.5 41,-74.5 41,-93.5"/>
<text text-anchor="middle" x="20.5" y="-81.5" font-family="Helvetica,sans-Serif" font-size="10.00">main</text>
</a>
</g>
</g>
<!-- Node5&#45;&gt;Node6 -->
<g id="edge5" class="edge">
<title>Node5&#45;&gt;Node6</title>
<path fill="none" stroke="#63b8ff" d="M66.58,-84C57.37,-84 48.56,-84 41.21,-84"/>
<polygon fill="#63b8ff" stroke="#63b8ff" points="66.67,-87.5 76.67,-84 66.67,-80.5 66.67,-87.5"/>
</g>
<!-- Node7&#45;&gt;Node3 -->
<g id="edge7" class="edge">
<title>Node7&#45;&gt;Node3</title>
<path fill="none" stroke="#63b8ff" d="M518.25,-80.92C506.9,-84.24 495.16,-87.67 484.13,-90.9"/>
<polygon fill="#63b8ff" stroke="#63b8ff" points="519.47,-84.21 528.09,-78.04 517.51,-77.49 519.47,-84.21"/>
</g>
<!-- Node7&#45;&gt;Node4 -->
<g id="edge8" class="edge">
<title>Node7&#45;&gt;Node4</title>
<path fill="none" stroke="#63b8ff" d="M513.62,-67.67C461.22,-71.39 388.71,-76.54 339.18,-80.05"/>
<polygon fill="#63b8ff" stroke="#63b8ff" points="514.1,-71.15 523.82,-66.95 513.6,-64.17 514.1,-71.15"/>
</g>
</g>
</svg>
