<?xml version="1.0" encoding="UTF-8" standalone="no"?>
<!DOCTYPE svg PUBLIC "-//W3C//DTD SVG 1.1//EN"
 "http://www.w3.org/Graphics/SVG/1.1/DTD/svg11.dtd">
<!-- Generated by graphviz version 2.43.0 (0)
 -->
<!-- Title: include/task.hpp Pages: 1 -->
<svg width="513pt" height="137pt"
 viewBox="0.00 0.00 513.00 137.00" xmlns="http://www.w3.org/2000/svg" xmlns:xlink="http://www.w3.org/1999/xlink">
<g id="graph0" class="graph" transform="scale(1 1) rotate(0) translate(4 133)">
<title>include/task.hpp</title>
<!-- Node1 -->
<g id="node1" class="node">
<title>Node1</title>
<g id="a_node1"><a xlink:title="Declares the abstract Task interface and its derivatives used in the HQP solver.">
<polygon fill="#999999" stroke="#666666" points="357.5,-129 260.5,-129 260.5,-110 357.5,-110 357.5,-129"/>
<text text-anchor="middle" x="309" y="-117" font-family="Helvetica,sans-Serif" font-size="10.00">include/task.hpp</text>
</a>
</g>
</g>
<!-- Node2 -->
<g id="node2" class="node">
<title>Node2</title>
<g id="a_node2"><a xlink:href="hqp_8hpp.html" target="_top" xlink:title="Main interface for the Weighted&#45;Hierarchical&#45;QP solver.">
<polygon fill="white" stroke="#666666" points="231,-74 137,-74 137,-55 231,-55 231,-74"/>
<text text-anchor="middle" x="184" y="-62" font-family="Helvetica,sans-Serif" font-size="10.00">include/hqp.hpp</text>
</a>
</g>
</g>
<!-- Node1&#45;&gt;Node2 -->
<g id="edge1" class="edge">
<title>Node1&#45;&gt;Node2</title>
<path fill="none" stroke="#63b8ff" d="M279.59,-106.03C256.47,-96.23 224.87,-82.83 204.45,-74.17"/>
<polygon fill="#63b8ff" stroke="#63b8ff" points="278.34,-109.3 288.92,-109.98 281.08,-102.86 278.34,-109.3"/>
</g>
<!-- Node6 -->
<g id="node6" class="node">
<title>Node6</title>
<g id="a_node6"><a xlink:href="task_8cpp.html" target="_top" xlink:title="Implements the methods declared in task.hpp.">
<polygon fill="white" stroke="#666666" points="449.5,-74 374.5,-74 374.5,-55 449.5,-55 449.5,-74"/>
<text text-anchor="middle" x="412" y="-62" font-family="Helvetica,sans-Serif" font-size="10.00">src/task.cpp</text>
</a>
</g>
</g>
<!-- Node1&#45;&gt;Node6 -->
<g id="edge5" class="edge">
<title>Node1&#45;&gt;Node6</title>
<path fill="none" stroke="#63b8ff" d="M334.52,-105.37C353.44,-95.63 378.7,-82.64 395.15,-74.17"/>
<polygon fill="#63b8ff" stroke="#63b8ff" points="332.84,-102.3 325.55,-109.98 336.04,-108.52 332.84,-102.3"/>
</g>
<!-- Node7 -->
<g id="node7" class="node">
<title>Node7</title>
<g id="a_node7"><a xlink:href="library_8hpp.html" target="_top" xlink:title="Defines test task classes for the Weighted&#45;Hierarchical&#45;QP solver.">
<polygon fill="white" stroke="#666666" points="356.5,-74 261.5,-74 261.5,-55 356.5,-55 356.5,-74"/>
<text text-anchor="middle" x="309" y="-62" font-family="Helvetica,sans-Serif" font-size="10.00">tests/library.hpp</text>
</a>
</g>
</g>
<!-- Node1&#45;&gt;Node7 -->
<g id="edge6" class="edge">
<title>Node1&#45;&gt;Node7</title>
<path fill="none" stroke="#63b8ff" d="M309,-99.66C309,-90.93 309,-80.99 309,-74.09"/>
<polygon fill="#63b8ff" stroke="#63b8ff" points="305.5,-99.75 309,-109.75 312.5,-99.75 305.5,-99.75"/>
</g>
<!-- Node3 -->
<g id="node3" class="node">
<title>Node3</title>
<g id="a_node3"><a xlink:href="hqp_8cpp.html" target="_top" xlink:title=" ">
<polygon fill="white" stroke="#666666" points="72,-19 0,-19 0,0 72,0 72,-19"/>
<text text-anchor="middle" x="36" y="-7" font-family="Helvetica,sans-Serif" font-size="10.00">src/hqp.cpp</text>
</a>
</g>
</g>
<!-- Node2&#45;&gt;Node3 -->
<g id="edge2" class="edge">
<title>Node2&#45;&gt;Node3</title>
<path fill="none" stroke="#63b8ff" d="M150.63,-51.55C123.15,-41.71 84.83,-27.98 60.21,-19.17"/>
<polygon fill="#63b8ff" stroke="#63b8ff" points="149.63,-54.91 160.22,-54.98 151.99,-48.32 149.63,-54.91"/>
</g>
<!-- Node4 -->
<g id="node4" class="node">
<title>Node4</title>
<g id="a_node4"><a xlink:href="00__basic__select_8cpp.html" target="_top" xlink:title=" ">
<polygon fill="white" stroke="#666666" points="231.5,-19 90.5,-19 90.5,0 231.5,0 231.5,-19"/>
<text text-anchor="middle" x="161" y="-7" font-family="Helvetica,sans-Serif" font-size="10.00">tests/00_basic_select.cpp</text>
</a>
</g>
</g>
<!-- Node2&#45;&gt;Node4 -->
<g id="edge3" class="edge">
<title>Node2&#45;&gt;Node4</title>
<path fill="none" stroke="#63b8ff" d="M176.2,-45.53C172.32,-36.6 167.82,-26.22 164.73,-19.09"/>
<polygon fill="#63b8ff" stroke="#63b8ff" points="173.01,-46.97 180.2,-54.75 179.43,-44.18 173.01,-46.97"/>
</g>
<!-- Node5 -->
<g id="node5" class="node">
<title>Node5</title>
<g id="a_node5"><a xlink:href="01__metric__swap_8cpp.html" target="_top" xlink:title=" ">
<polygon fill="white" stroke="#666666" points="392.5,-19 249.5,-19 249.5,0 392.5,0 392.5,-19"/>
<text text-anchor="middle" x="321" y="-7" font-family="Helvetica,sans-Serif" font-size="10.00">tests/01_metric_swap.cpp</text>
</a>
</g>
</g>
<!-- Node2&#45;&gt;Node5 -->
<g id="edge4" class="edge">
<title>Node2&#45;&gt;Node5</title>
<path fill="none" stroke="#63b8ff" d="M215.56,-51.29C240.95,-41.47 276,-27.91 298.59,-19.17"/>
<polygon fill="#63b8ff" stroke="#63b8ff" points="214.08,-48.11 206.01,-54.98 216.6,-54.64 214.08,-48.11"/>
</g>
<!-- Node7&#45;&gt;Node4 -->
<g id="edge7" class="edge">
<title>Node7&#45;&gt;Node4</title>
<path fill="none" stroke="#63b8ff" d="M275.63,-51.55C248.15,-41.71 209.83,-27.98 185.21,-19.17"/>
<polygon fill="#63b8ff" stroke="#63b8ff" points="274.63,-54.91 285.22,-54.98 276.99,-48.32 274.63,-54.91"/>
</g>
<!-- Node7&#45;&gt;Node5 -->
<g id="edge8" class="edge">
<title>Node7&#45;&gt;Node5</title>
<path fill="none" stroke="#63b8ff" d="M313.2,-44.95C315.19,-36.15 317.48,-26.06 319.06,-19.09"/>
<polygon fill="#63b8ff" stroke="#63b8ff" points="309.78,-44.22 310.98,-54.75 316.6,-45.77 309.78,-44.22"/>
</g>
<!-- Node8 -->
<g id="node8" class="node">
<title>Node8</title>
<g id="a_node8"><a xlink:href="library_8cpp.html" target="_top" xlink:title="Implements the run() functions for various test tasks.">
<polygon fill="white" stroke="#666666" points="505,-19 411,-19 411,0 505,0 505,-19"/>
<text text-anchor="middle" x="458" y="-7" font-family="Helvetica,sans-Serif" font-size="10.00">tests/library.cpp</text>
</a>
</g>
</g>
<!-- Node7&#45;&gt;Node8 -->
<g id="edge9" class="edge">
<title>Node7&#45;&gt;Node8</title>
<path fill="none" stroke="#63b8ff" d="M342.59,-51.55C370.26,-41.71 408.84,-27.98 433.62,-19.17"/>
<polygon fill="#63b8ff" stroke="#63b8ff" points="341.19,-48.34 332.94,-54.98 343.53,-54.93 341.19,-48.34"/>
</g>
</g>
</svg>
