<?xml version="1.0" encoding="UTF-8" standalone="no"?>
<!DOCTYPE svg PUBLIC "-//W3C//DTD SVG 1.1//EN"
 "http://www.w3.org/Graphics/SVG/1.1/DTD/svg11.dtd">
<!-- Generated by graphviz version 2.43.0 (0)
 -->
<!-- Title: src/task.cpp Pages: 1 -->
<svg width="452pt" height="192pt"
 viewBox="0.00 0.00 452.00 192.00" xmlns="http://www.w3.org/2000/svg" xmlns:xlink="http://www.w3.org/1999/xlink">
<g id="graph0" class="graph" transform="scale(1 1) rotate(0) translate(4 188)">
<title>src/task.cpp</title>
<!-- Node1 -->
<g id="node1" class="node">
<title>Node1</title>
<g id="a_node1"><a xlink:title="Implements the methods declared in task.hpp.">
<polygon fill="#999999" stroke="#666666" points="215.5,-184 140.5,-184 140.5,-165 215.5,-165 215.5,-184"/>
<text text-anchor="middle" x="178" y="-172" font-family="Helvetica,sans-Serif" font-size="10.00">src/task.cpp</text>
</a>
</g>
</g>
<!-- Node2 -->
<g id="node2" class="node">
<title>Node2</title>
<g id="a_node2"><a xlink:href="task_8hpp.html" target="_top" xlink:title="Declares the abstract Task interface and its derivatives used in the HQP solver.">
<polygon fill="white" stroke="#666666" points="207.5,-129 148.5,-129 148.5,-110 207.5,-110 207.5,-129"/>
<text text-anchor="middle" x="178" y="-117" font-family="Helvetica,sans-Serif" font-size="10.00">task.hpp</text>
</a>
</g>
</g>
<!-- Node1&#45;&gt;Node2 -->
<g id="edge1" class="edge">
<title>Node1&#45;&gt;Node2</title>
<path fill="none" stroke="#63b8ff" d="M178,-164.75C178,-157.8 178,-147.85 178,-139.13"/>
<polygon fill="#63b8ff" stroke="#63b8ff" points="181.5,-139.09 178,-129.09 174.5,-139.09 181.5,-139.09"/>
</g>
<!-- Node3 -->
<g id="node3" class="node">
<title>Node3</title>
<g id="a_node3"><a xlink:title=" ">
<polygon fill="#e0e0e0" stroke="#999999" points="44.5,-74 3.5,-74 3.5,-55 44.5,-55 44.5,-74"/>
<text text-anchor="middle" x="24" y="-62" font-family="Helvetica,sans-Serif" font-size="10.00">tuple</text>
</a>
</g>
</g>
<!-- Node2&#45;&gt;Node3 -->
<g id="edge2" class="edge">
<title>Node2&#45;&gt;Node3</title>
<path fill="none" stroke="#63b8ff" d="M153.26,-109.98C126.33,-100.72 83.27,-85.9 54.33,-75.94"/>
<polygon fill="#63b8ff" stroke="#63b8ff" points="55.33,-72.58 44.73,-72.63 53.05,-79.2 55.33,-72.58"/>
</g>
<!-- Node4 -->
<g id="node4" class="node">
<title>Node4</title>
<g id="a_node4"><a xlink:title=" ">
<polygon fill="#e0e0e0" stroke="#999999" points="58,-19 0,-19 0,0 58,0 58,-19"/>
<text text-anchor="middle" x="29" y="-7" font-family="Helvetica,sans-Serif" font-size="10.00">memory</text>
</a>
</g>
</g>
<!-- Node2&#45;&gt;Node4 -->
<g id="edge3" class="edge">
<title>Node2&#45;&gt;Node4</title>
<path fill="none" stroke="#63b8ff" d="M166.06,-109.84C140.67,-91.44 81.06,-48.23 49.47,-25.34"/>
<polygon fill="#63b8ff" stroke="#63b8ff" points="51.15,-22.23 41,-19.2 47.04,-27.9 51.15,-22.23"/>
</g>
<!-- Node5 -->
<g id="node5" class="node">
<title>Node5</title>
<g id="a_node5"><a xlink:title=" ">
<polygon fill="#e0e0e0" stroke="#999999" points="299.5,-74 254.5,-74 254.5,-55 299.5,-55 299.5,-74"/>
<text text-anchor="middle" x="277" y="-62" font-family="Helvetica,sans-Serif" font-size="10.00">utility</text>
</a>
</g>
</g>
<!-- Node2&#45;&gt;Node5 -->
<g id="edge4" class="edge">
<title>Node2&#45;&gt;Node5</title>
<path fill="none" stroke="#63b8ff" d="M193.91,-109.98C209.55,-101.61 233.66,-88.7 251.88,-78.95"/>
<polygon fill="#63b8ff" stroke="#63b8ff" points="253.64,-81.98 260.8,-74.17 250.34,-75.8 253.64,-81.98"/>
</g>
<!-- Node6 -->
<g id="node6" class="node">
<title>Node6</title>
<g id="a_node6"><a xlink:title=" ">
<polygon fill="#e0e0e0" stroke="#999999" points="145.5,-19 76.5,-19 76.5,0 145.5,0 145.5,-19"/>
<text text-anchor="middle" x="111" y="-7" font-family="Helvetica,sans-Serif" font-size="10.00">type_traits</text>
</a>
</g>
</g>
<!-- Node2&#45;&gt;Node6 -->
<g id="edge5" class="edge">
<title>Node2&#45;&gt;Node6</title>
<path fill="none" stroke="#63b8ff" d="M172.52,-109.66C161.42,-91.77 136.13,-51 121.67,-27.69"/>
<polygon fill="#63b8ff" stroke="#63b8ff" points="124.62,-25.81 116.37,-19.16 118.67,-29.5 124.62,-25.81"/>
</g>
<!-- Node7 -->
<g id="node7" class="node">
<title>Node7</title>
<g id="a_node7"><a xlink:title=" ">
<polygon fill="#e0e0e0" stroke="#999999" points="370,-74 318,-74 318,-55 370,-55 370,-74"/>
<text text-anchor="middle" x="344" y="-62" font-family="Helvetica,sans-Serif" font-size="10.00">cassert</text>
</a>
</g>
</g>
<!-- Node2&#45;&gt;Node7 -->
<g id="edge6" class="edge">
<title>Node2&#45;&gt;Node7</title>
<path fill="none" stroke="#63b8ff" d="M204.67,-109.98C232.79,-101.01 277.24,-86.82 308.35,-76.88"/>
<polygon fill="#63b8ff" stroke="#63b8ff" points="309.48,-80.2 317.94,-73.82 307.35,-73.53 309.48,-80.2"/>
</g>
<!-- Node8 -->
<g id="node8" class="node">
<title>Node8</title>
<g id="a_node8"><a xlink:title=" ">
<polygon fill="#e0e0e0" stroke="#999999" points="444,-74 388,-74 388,-55 444,-55 444,-74"/>
<text text-anchor="middle" x="416" y="-62" font-family="Helvetica,sans-Serif" font-size="10.00">optional</text>
</a>
</g>
</g>
<!-- Node2&#45;&gt;Node8 -->
<g id="edge7" class="edge">
<title>Node2&#45;&gt;Node8</title>
<path fill="none" stroke="#63b8ff" d="M207.65,-112.01C245.03,-103.82 311.55,-89.18 377.93,-74.23"/>
<polygon fill="#63b8ff" stroke="#63b8ff" points="378.74,-77.63 387.72,-72.02 377.2,-70.81 378.74,-77.63"/>
</g>
<!-- Node9 -->
<g id="node9" class="node">
<title>Node9</title>
<g id="a_node9"><a xlink:title=" ">
<polygon fill="#e0e0e0" stroke="#999999" points="240.5,-19 163.5,-19 163.5,0 240.5,0 240.5,-19"/>
<text text-anchor="middle" x="202" y="-7" font-family="Helvetica,sans-Serif" font-size="10.00">Eigen/Dense</text>
</a>
</g>
</g>
<!-- Node2&#45;&gt;Node9 -->
<g id="edge8" class="edge">
<title>Node2&#45;&gt;Node9</title>
<path fill="none" stroke="#63b8ff" d="M174.27,-109.65C169.56,-97.17 162.78,-73.82 169,-55 172.46,-44.54 179.43,-34.53 186.08,-26.66"/>
<polygon fill="#63b8ff" stroke="#63b8ff" points="188.86,-28.8 192.98,-19.04 183.67,-24.1 188.86,-28.8"/>
</g>
<!-- Node10 -->
<g id="node10" class="node">
<title>Node10</title>
<g id="a_node10"><a xlink:href="utils_8hpp.html" target="_top" xlink:title="Declares common utility functions used throughout the HQP solver.">
<polygon fill="white" stroke="#666666" points="236.5,-74 177.5,-74 177.5,-55 236.5,-55 236.5,-74"/>
<text text-anchor="middle" x="207" y="-62" font-family="Helvetica,sans-Serif" font-size="10.00">utils.hpp</text>
</a>
</g>
</g>
<!-- Node2&#45;&gt;Node10 -->
<g id="edge9" class="edge">
<title>Node2&#45;&gt;Node10</title>
<path fill="none" stroke="#63b8ff" d="M182.79,-109.75C186.76,-102.49 192.53,-91.95 197.43,-82.98"/>
<polygon fill="#63b8ff" stroke="#63b8ff" points="200.57,-84.54 202.3,-74.09 194.43,-81.18 200.57,-84.54"/>
</g>
<!-- Node10&#45;&gt;Node4 -->
<g id="edge10" class="edge">
<title>Node10&#45;&gt;Node4</title>
<path fill="none" stroke="#63b8ff" d="M178.4,-54.98C148.39,-46.05 101.02,-31.94 67.68,-22.02"/>
<polygon fill="#63b8ff" stroke="#63b8ff" points="68.41,-18.58 57.82,-19.08 66.41,-25.29 68.41,-18.58"/>
</g>
<!-- Node10&#45;&gt;Node6 -->
<g id="edge13" class="edge">
<title>Node10&#45;&gt;Node6</title>
<path fill="none" stroke="#63b8ff" d="M191.58,-54.98C176.55,-46.69 153.46,-33.94 135.84,-24.22"/>
<polygon fill="#63b8ff" stroke="#63b8ff" points="137.15,-20.94 126.7,-19.17 133.77,-27.07 137.15,-20.94"/>
</g>
<!-- Node10&#45;&gt;Node9 -->
<g id="edge15" class="edge">
<title>Node10&#45;&gt;Node9</title>
<path fill="none" stroke="#63b8ff" d="M206.17,-54.75C205.52,-47.8 204.58,-37.85 203.76,-29.13"/>
<polygon fill="#63b8ff" stroke="#63b8ff" points="207.23,-28.72 202.81,-19.09 200.27,-29.37 207.23,-28.72"/>
</g>
<!-- Node11 -->
<g id="node11" class="node">
<title>Node11</title>
<g id="a_node11"><a xlink:title=" ">
<polygon fill="#e0e0e0" stroke="#999999" points="307,-19 259,-19 259,0 307,0 307,-19"/>
<text text-anchor="middle" x="283" y="-7" font-family="Helvetica,sans-Serif" font-size="10.00">mutex</text>
</a>
</g>
</g>
<!-- Node10&#45;&gt;Node11 -->
<g id="edge11" class="edge">
<title>Node10&#45;&gt;Node11</title>
<path fill="none" stroke="#63b8ff" d="M219.21,-54.98C230.78,-46.92 248.38,-34.65 262.16,-25.03"/>
<polygon fill="#63b8ff" stroke="#63b8ff" points="264.37,-27.76 270.57,-19.17 260.36,-22.02 264.37,-27.76"/>
</g>
<!-- Node12 -->
<g id="node12" class="node">
<title>Node12</title>
<g id="a_node12"><a xlink:title=" ">
<polygon fill="#e0e0e0" stroke="#999999" points="369,-19 325,-19 325,0 369,0 369,-19"/>
<text text-anchor="middle" x="347" y="-7" font-family="Helvetica,sans-Serif" font-size="10.00">string</text>
</a>
</g>
</g>
<!-- Node10&#45;&gt;Node12 -->
<g id="edge12" class="edge">
<title>Node10&#45;&gt;Node12</title>
<path fill="none" stroke="#63b8ff" d="M229.49,-54.98C252.66,-46.21 288.97,-32.47 315.1,-22.58"/>
<polygon fill="#63b8ff" stroke="#63b8ff" points="316.45,-25.81 324.56,-18.99 313.97,-19.26 316.45,-25.81"/>
</g>
<!-- Node13 -->
<g id="node13" class="node">
<title>Node13</title>
<g id="a_node13"><a xlink:title=" ">
<polygon fill="#e0e0e0" stroke="#999999" points="434.5,-19 387.5,-19 387.5,0 434.5,0 434.5,-19"/>
<text text-anchor="middle" x="411" y="-7" font-family="Helvetica,sans-Serif" font-size="10.00">vector</text>
</a>
</g>
</g>
<!-- Node10&#45;&gt;Node13 -->
<g id="edge14" class="edge">
<title>Node10&#45;&gt;Node13</title>
<path fill="none" stroke="#63b8ff" d="M236.66,-55.79C274.09,-46.07 338.3,-29.39 377.48,-19.21"/>
<polygon fill="#63b8ff" stroke="#63b8ff" points="378.54,-22.55 387.34,-16.65 376.78,-15.77 378.54,-22.55"/>
</g>
</g>
</svg>
