<?xml version="1.0" encoding="UTF-8" standalone="no"?>
<!DOCTYPE svg PUBLIC "-//W3C//DTD SVG 1.1//EN"
 "http://www.w3.org/Graphics/SVG/1.1/DTD/svg11.dtd">
<!-- Generated by graphviz version 2.43.0 (0)
 -->
<!-- Title: include/task.hpp Pages: 1 -->
<svg width="310pt" height="137pt"
 viewBox="0.00 0.00 310.00 137.00" xmlns="http://www.w3.org/2000/svg" xmlns:xlink="http://www.w3.org/1999/xlink">
<g id="graph0" class="graph" transform="scale(1 1) rotate(0) translate(4 133)">
<title>include/task.hpp</title>
<!-- Node1 -->
<g id="node1" class="node">
<title>Node1</title>
<g id="a_node1"><a xlink:title="Declares the abstract Task interface and its derivatives used in the HQP solver.">
<polygon fill="#999999" stroke="#666666" points="198.5,-129 101.5,-129 101.5,-110 198.5,-110 198.5,-129"/>
<text text-anchor="middle" x="150" y="-117" font-family="Helvetica,sans-Serif" font-size="10.00">include/task.hpp</text>
</a>
</g>
</g>
<!-- Node2 -->
<g id="node2" class="node">
<title>Node2</title>
<g id="a_node2"><a xlink:href="hqp_8hpp.html" target="_top" xlink:title="Main interface for the Weighted&#45;Hierarchical&#45;QP solver.">
<polygon fill="white" stroke="#666666" points="94,-74 0,-74 0,-55 94,-55 94,-74"/>
<text text-anchor="middle" x="47" y="-62" font-family="Helvetica,sans-Serif" font-size="10.00">include/hqp.hpp</text>
</a>
</g>
</g>
<!-- Node1&#45;&gt;Node2 -->
<g id="edge1" class="edge">
<title>Node1&#45;&gt;Node2</title>
<path fill="none" stroke="#63b8ff" d="M124.48,-105.37C105.56,-95.63 80.3,-82.64 63.85,-74.17"/>
<polygon fill="#63b8ff" stroke="#63b8ff" points="122.96,-108.52 133.45,-109.98 126.16,-102.3 122.96,-108.52"/>
</g>
<!-- Node5 -->
<g id="node5" class="node">
<title>Node5</title>
<g id="a_node5"><a xlink:href="task_8cpp.html" target="_top" xlink:title="Implements the methods declared in task.hpp.">
<polygon fill="white" stroke="#666666" points="187.5,-74 112.5,-74 112.5,-55 187.5,-55 187.5,-74"/>
<text text-anchor="middle" x="150" y="-62" font-family="Helvetica,sans-Serif" font-size="10.00">src/task.cpp</text>
</a>
</g>
</g>
<!-- Node1&#45;&gt;Node5 -->
<g id="edge4" class="edge">
<title>Node1&#45;&gt;Node5</title>
<path fill="none" stroke="#63b8ff" d="M150,-99.66C150,-90.93 150,-80.99 150,-74.09"/>
<polygon fill="#63b8ff" stroke="#63b8ff" points="146.5,-99.75 150,-109.75 153.5,-99.75 146.5,-99.75"/>
</g>
<!-- Node6 -->
<g id="node6" class="node">
<title>Node6</title>
<g id="a_node6"><a xlink:href="library_8hpp.html" target="_top" xlink:title="Defines test task classes for the Weighted&#45;Hierarchical&#45;QP solver.">
<polygon fill="white" stroke="#666666" points="300.5,-74 205.5,-74 205.5,-55 300.5,-55 300.5,-74"/>
<text text-anchor="middle" x="253" y="-62" font-family="Helvetica,sans-Serif" font-size="10.00">tests/library.hpp</text>
</a>
</g>
</g>
<!-- Node1&#45;&gt;Node6 -->
<g id="edge5" class="edge">
<title>Node1&#45;&gt;Node6</title>
<path fill="none" stroke="#63b8ff" d="M175.52,-105.37C194.44,-95.63 219.7,-82.64 236.15,-74.17"/>
<polygon fill="#63b8ff" stroke="#63b8ff" points="173.84,-102.3 166.55,-109.98 177.04,-108.52 173.84,-102.3"/>
</g>
<!-- Node3 -->
<g id="node3" class="node">
<title>Node3</title>
<g id="a_node3"><a xlink:href="hqp_8cpp.html" target="_top" xlink:title=" ">
<polygon fill="white" stroke="#666666" points="82,-19 10,-19 10,0 82,0 82,-19"/>
<text text-anchor="middle" x="46" y="-7" font-family="Helvetica,sans-Serif" font-size="10.00">src/hqp.cpp</text>
</a>
</g>
</g>
<!-- Node2&#45;&gt;Node3 -->
<g id="edge2" class="edge">
<title>Node2&#45;&gt;Node3</title>
<path fill="none" stroke="#63b8ff" d="M46.64,-44.66C46.48,-35.93 46.29,-25.99 46.16,-19.09"/>
<polygon fill="#63b8ff" stroke="#63b8ff" points="43.15,-44.82 46.83,-54.75 50.15,-44.68 43.15,-44.82"/>
</g>
<!-- Node4 -->
<g id="node4" class="node">
<title>Node4</title>
<g id="a_node4"><a xlink:href="test0_8cpp.html" target="_top" xlink:title="Test driver for validating the Hierarchical&#45;QP solver functionality.">
<polygon fill="white" stroke="#666666" points="189.5,-19 100.5,-19 100.5,0 189.5,0 189.5,-19"/>
<text text-anchor="middle" x="145" y="-7" font-family="Helvetica,sans-Serif" font-size="10.00">tests/test0.cpp</text>
</a>
</g>
</g>
<!-- Node2&#45;&gt;Node4 -->
<g id="edge3" class="edge">
<title>Node2&#45;&gt;Node4</title>
<path fill="none" stroke="#63b8ff" d="M72.03,-49.97C89.94,-40.28 113.53,-27.52 128.97,-19.17"/>
<polygon fill="#63b8ff" stroke="#63b8ff" points="69.88,-47.15 62.75,-54.98 73.21,-53.31 69.88,-47.15"/>
</g>
<!-- Node6&#45;&gt;Node4 -->
<g id="edge7" class="edge">
<title>Node6&#45;&gt;Node4</title>
<path fill="none" stroke="#63b8ff" d="M226.51,-50.5C206.64,-40.75 180,-27.68 162.67,-19.17"/>
<polygon fill="#63b8ff" stroke="#63b8ff" points="225.13,-53.72 235.65,-54.98 228.21,-47.44 225.13,-53.72"/>
</g>
<!-- Node7 -->
<g id="node7" class="node">
<title>Node7</title>
<g id="a_node7"><a xlink:href="library_8cpp.html" target="_top" xlink:title="Implements the run() functions for various test tasks.">
<polygon fill="white" stroke="#666666" points="302,-19 208,-19 208,0 302,0 302,-19"/>
<text text-anchor="middle" x="255" y="-7" font-family="Helvetica,sans-Serif" font-size="10.00">tests/library.cpp</text>
</a>
</g>
</g>
<!-- Node6&#45;&gt;Node7 -->
<g id="edge6" class="edge">
<title>Node6&#45;&gt;Node7</title>
<path fill="none" stroke="#63b8ff" d="M253.71,-44.66C254.04,-35.93 254.42,-25.99 254.68,-19.09"/>
<polygon fill="#63b8ff" stroke="#63b8ff" points="250.21,-44.62 253.33,-54.75 257.2,-44.89 250.21,-44.62"/>
</g>
</g>
</svg>
