<?xml version="1.0" encoding="UTF-8" standalone="no"?>
<!DOCTYPE svg PUBLIC "-//W3C//DTD SVG 1.1//EN"
 "http://www.w3.org/Graphics/SVG/1.1/DTD/svg11.dtd">
<!-- Generated by graphviz version 2.43.0 (0)
 -->
<!-- Title: include/task.hpp Pages: 1 -->
<svg width="1023pt" height="137pt"
 viewBox="0.00 0.00 1023.00 137.00" xmlns="http://www.w3.org/2000/svg" xmlns:xlink="http://www.w3.org/1999/xlink">
<g id="graph0" class="graph" transform="scale(1 1) rotate(0) translate(4 133)">
<title>include/task.hpp</title>
<!-- Node1 -->
<g id="node1" class="node">
<title>Node1</title>
<g id="a_node1"><a xlink:title="Declares the abstract Task interface and its derivatives used in the HQP solver.">
<polygon fill="#999999" stroke="#666666" points="709.5,-129 612.5,-129 612.5,-110 709.5,-110 709.5,-129"/>
<text text-anchor="middle" x="661" y="-117" font-family="Helvetica,sans-Serif" font-size="10.00">include/task.hpp</text>
</a>
</g>
</g>
<!-- Node2 -->
<g id="node2" class="node">
<title>Node2</title>
<g id="a_node2"><a xlink:href="hqp_8hpp.html" target="_top" xlink:title="Main interface for the Weighted&#45;Hierarchical&#45;QP solver.">
<polygon fill="white" stroke="#666666" points="614,-74 520,-74 520,-55 614,-55 614,-74"/>
<text text-anchor="middle" x="567" y="-62" font-family="Helvetica,sans-Serif" font-size="10.00">include/hqp.hpp</text>
</a>
</g>
</g>
<!-- Node1&#45;&gt;Node2 -->
<g id="edge1" class="edge">
<title>Node1&#45;&gt;Node2</title>
<path fill="none" stroke="#63b8ff" d="M637,-104.97C619.81,-95.28 597.19,-82.52 582.38,-74.17"/>
<polygon fill="#63b8ff" stroke="#63b8ff" points="635.47,-108.12 645.9,-109.98 638.91,-102.02 635.47,-108.12"/>
</g>
<!-- Node6 -->
<g id="node6" class="node">
<title>Node6</title>
<g id="a_node6"><a xlink:href="02__compare__solvers_8cpp.html" target="_top" xlink:title=" ">
<polygon fill="white" stroke="#666666" points="687,-19 523,-19 523,0 687,0 687,-19"/>
<text text-anchor="middle" x="605" y="-7" font-family="Helvetica,sans-Serif" font-size="10.00">tests/02_compare_solvers.cpp</text>
</a>
</g>
</g>
<!-- Node1&#45;&gt;Node6 -->
<g id="edge9" class="edge">
<title>Node1&#45;&gt;Node6</title>
<path fill="none" stroke="#63b8ff" d="M651.8,-100.76C639.63,-77.28 618.64,-36.81 609.49,-19.16"/>
<polygon fill="#63b8ff" stroke="#63b8ff" points="648.71,-102.4 656.42,-109.66 654.92,-99.17 648.71,-102.4"/>
</g>
<!-- Node7 -->
<g id="node7" class="node">
<title>Node7</title>
<g id="a_node7"><a xlink:href="03__set__stack_8cpp.html" target="_top" xlink:title=" ">
<polygon fill="white" stroke="#666666" points="833,-19 705,-19 705,0 833,0 833,-19"/>
<text text-anchor="middle" x="769" y="-7" font-family="Helvetica,sans-Serif" font-size="10.00">tests/03_set_stack.cpp</text>
</a>
</g>
</g>
<!-- Node1&#45;&gt;Node7 -->
<g id="edge10" class="edge">
<title>Node1&#45;&gt;Node7</title>
<path fill="none" stroke="#63b8ff" d="M670.33,-101.16C678.16,-87.61 690.25,-68.82 704,-55 718.76,-40.17 739.09,-27.17 753.07,-19.11"/>
<polygon fill="#63b8ff" stroke="#63b8ff" points="667.24,-99.52 665.42,-109.96 673.35,-102.93 667.24,-99.52"/>
</g>
<!-- Node8 -->
<g id="node8" class="node">
<title>Node8</title>
<g id="a_node8"><a xlink:href="04__random__problem_8cpp.html" target="_top" xlink:title=" ">
<polygon fill="white" stroke="#666666" points="1015,-19 851,-19 851,0 1015,0 1015,-19"/>
<text text-anchor="middle" x="933" y="-7" font-family="Helvetica,sans-Serif" font-size="10.00">tests/04_random_problem.cpp</text>
</a>
</g>
</g>
<!-- Node1&#45;&gt;Node8 -->
<g id="edge11" class="edge">
<title>Node1&#45;&gt;Node8</title>
<path fill="none" stroke="#63b8ff" d="M676.17,-102.25C690.68,-87.7 713.86,-66.87 738,-55 775.86,-36.38 821.71,-25.41 859.43,-19.03"/>
<polygon fill="#63b8ff" stroke="#63b8ff" points="673.5,-99.98 669.06,-109.59 678.53,-104.85 673.5,-99.98"/>
</g>
<!-- Node9 -->
<g id="node9" class="node">
<title>Node9</title>
<g id="a_node9"><a xlink:href="task_8cpp.html" target="_top" xlink:title="Implements the methods declared in task.hpp.">
<polygon fill="white" stroke="#666666" points="821.5,-74 746.5,-74 746.5,-55 821.5,-55 821.5,-74"/>
<text text-anchor="middle" x="784" y="-62" font-family="Helvetica,sans-Serif" font-size="10.00">src/task.cpp</text>
</a>
</g>
</g>
<!-- Node1&#45;&gt;Node9 -->
<g id="edge8" class="edge">
<title>Node1&#45;&gt;Node9</title>
<path fill="none" stroke="#63b8ff" d="M690.25,-105.9C712.97,-96.11 743.87,-82.79 763.88,-74.17"/>
<polygon fill="#63b8ff" stroke="#63b8ff" points="688.56,-102.81 680.76,-109.98 691.33,-109.24 688.56,-102.81"/>
</g>
<!-- Node10 -->
<g id="node10" class="node">
<title>Node10</title>
<g id="a_node10"><a xlink:href="library_8hpp.html" target="_top" xlink:title="Defines test task classes for the Weighted&#45;Hierarchical&#45;QP solver.">
<polygon fill="white" stroke="#666666" points="311.5,-74 216.5,-74 216.5,-55 311.5,-55 311.5,-74"/>
<text text-anchor="middle" x="264" y="-62" font-family="Helvetica,sans-Serif" font-size="10.00">tests/library.hpp</text>
</a>
</g>
</g>
<!-- Node1&#45;&gt;Node10 -->
<g id="edge12" class="edge">
<title>Node1&#45;&gt;Node10</title>
<path fill="none" stroke="#63b8ff" d="M602.05,-110.63C523.01,-100.08 384.26,-81.55 311.53,-71.85"/>
<polygon fill="#63b8ff" stroke="#63b8ff" points="601.94,-114.15 612.32,-112 602.87,-107.21 601.94,-114.15"/>
</g>
<!-- Node3 -->
<g id="node3" class="node">
<title>Node3</title>
<g id="a_node3"><a xlink:href="hqp_8cpp.html" target="_top" xlink:title=" ">
<polygon fill="white" stroke="#666666" points="505,-19 433,-19 433,0 505,0 505,-19"/>
<text text-anchor="middle" x="469" y="-7" font-family="Helvetica,sans-Serif" font-size="10.00">src/hqp.cpp</text>
</a>
</g>
</g>
<!-- Node2&#45;&gt;Node3 -->
<g id="edge2" class="edge">
<title>Node2&#45;&gt;Node3</title>
<path fill="none" stroke="#63b8ff" d="M541.97,-49.97C524.06,-40.28 500.47,-27.52 485.03,-19.17"/>
<polygon fill="#63b8ff" stroke="#63b8ff" points="540.79,-53.31 551.25,-54.98 544.12,-47.15 540.79,-53.31"/>
</g>
<!-- Node4 -->
<g id="node4" class="node">
<title>Node4</title>
<g id="a_node4"><a xlink:href="00__basic__select_8cpp.html" target="_top" xlink:title=" ">
<polygon fill="white" stroke="#666666" points="414.5,-19 273.5,-19 273.5,0 414.5,0 414.5,-19"/>
<text text-anchor="middle" x="344" y="-7" font-family="Helvetica,sans-Serif" font-size="10.00">tests/00_basic_select.cpp</text>
</a>
</g>
</g>
<!-- Node2&#45;&gt;Node4 -->
<g id="edge3" class="edge">
<title>Node2&#45;&gt;Node4</title>
<path fill="none" stroke="#63b8ff" d="M521.25,-52.63C479.48,-42.7 418.55,-28.22 380.11,-19.08"/>
<polygon fill="#63b8ff" stroke="#63b8ff" points="520.63,-56.08 531.17,-54.98 522.25,-49.27 520.63,-56.08"/>
</g>
<!-- Node5 -->
<g id="node5" class="node">
<title>Node5</title>
<g id="a_node5"><a xlink:href="01__metric__swap_8cpp.html" target="_top" xlink:title=" ">
<polygon fill="white" stroke="#666666" points="255.5,-19 112.5,-19 112.5,0 255.5,0 255.5,-19"/>
<text text-anchor="middle" x="184" y="-7" font-family="Helvetica,sans-Serif" font-size="10.00">tests/01_metric_swap.cpp</text>
</a>
</g>
</g>
<!-- Node2&#45;&gt;Node5 -->
<g id="edge4" class="edge">
<title>Node2&#45;&gt;Node5</title>
<path fill="none" stroke="#63b8ff" d="M509.55,-55.55C438.56,-45.73 318.26,-29.08 245.46,-19.01"/>
<polygon fill="#63b8ff" stroke="#63b8ff" points="509.27,-59.04 519.65,-56.95 510.23,-52.11 509.27,-59.04"/>
</g>
<!-- Node2&#45;&gt;Node6 -->
<g id="edge5" class="edge">
<title>Node2&#45;&gt;Node6</title>
<path fill="none" stroke="#63b8ff" d="M579.27,-46.39C585.81,-37.27 593.57,-26.45 598.84,-19.09"/>
<polygon fill="#63b8ff" stroke="#63b8ff" points="576.26,-44.58 573.27,-54.75 581.95,-48.66 576.26,-44.58"/>
</g>
<!-- Node2&#45;&gt;Node7 -->
<g id="edge6" class="edge">
<title>Node2&#45;&gt;Node7</title>
<path fill="none" stroke="#63b8ff" d="M609.16,-52.44C646.98,-42.52 701.69,-28.16 736.29,-19.08"/>
<polygon fill="#63b8ff" stroke="#63b8ff" points="608.24,-49.06 599.45,-54.98 610.02,-55.83 608.24,-49.06"/>
</g>
<!-- Node2&#45;&gt;Node8 -->
<g id="edge7" class="edge">
<title>Node2&#45;&gt;Node8</title>
<path fill="none" stroke="#63b8ff" d="M624.22,-55.21C692.35,-45.35 805.52,-28.96 874.29,-19"/>
<polygon fill="#63b8ff" stroke="#63b8ff" points="623.49,-51.78 614.1,-56.68 624.5,-58.71 623.49,-51.78"/>
</g>
<!-- Node10&#45;&gt;Node4 -->
<g id="edge13" class="edge">
<title>Node10&#45;&gt;Node4</title>
<path fill="none" stroke="#63b8ff" d="M285.25,-49.42C299.76,-39.81 318.54,-27.37 330.91,-19.17"/>
<polygon fill="#63b8ff" stroke="#63b8ff" points="283.26,-46.54 276.85,-54.98 287.12,-52.38 283.26,-46.54"/>
</g>
<!-- Node10&#45;&gt;Node5 -->
<g id="edge14" class="edge">
<title>Node10&#45;&gt;Node5</title>
<path fill="none" stroke="#63b8ff" d="M242.75,-49.42C228.24,-39.81 209.46,-27.37 197.09,-19.17"/>
<polygon fill="#63b8ff" stroke="#63b8ff" points="240.88,-52.38 251.15,-54.98 244.74,-46.54 240.88,-52.38"/>
</g>
<!-- Node11 -->
<g id="node11" class="node">
<title>Node11</title>
<g id="a_node11"><a xlink:href="library_8cpp.html" target="_top" xlink:title="Implements the run() functions for various test tasks.">
<polygon fill="white" stroke="#666666" points="94,-19 0,-19 0,0 94,0 94,-19"/>
<text text-anchor="middle" x="47" y="-7" font-family="Helvetica,sans-Serif" font-size="10.00">tests/library.cpp</text>
</a>
</g>
</g>
<!-- Node10&#45;&gt;Node11 -->
<g id="edge15" class="edge">
<title>Node10&#45;&gt;Node11</title>
<path fill="none" stroke="#63b8ff" d="M219.23,-52.56C178.58,-42.64 119.47,-28.2 82.14,-19.08"/>
<polygon fill="#63b8ff" stroke="#63b8ff" points="218.59,-56.01 229.14,-54.98 220.25,-49.21 218.59,-56.01"/>
</g>
</g>
</svg>
