<?xml version="1.0" encoding="UTF-8" standalone="no"?>
<!DOCTYPE svg PUBLIC "-//W3C//DTD SVG 1.1//EN"
 "http://www.w3.org/Graphics/SVG/1.1/DTD/svg11.dtd">
<!-- Generated by graphviz version 2.43.0 (0)
 -->
<!-- Title: include/task.hpp Pages: 1 -->
<svg width="933pt" height="137pt"
 viewBox="0.00 0.00 933.00 137.00" xmlns="http://www.w3.org/2000/svg" xmlns:xlink="http://www.w3.org/1999/xlink">
<g id="graph0" class="graph" transform="scale(1 1) rotate(0) translate(4 133)">
<title>include/task.hpp</title>
<!-- Node1 -->
<g id="node1" class="node">
<title>Node1</title>
<g id="a_node1"><a xlink:title="Declares the abstract Task interface and its derivatives used in the HQP solver.">
<polygon fill="#999999" stroke="#666666" points="638.5,-129 541.5,-129 541.5,-110 638.5,-110 638.5,-129"/>
<text text-anchor="middle" x="590" y="-117" font-family="Helvetica,sans-Serif" font-size="10.00">include/task.hpp</text>
</a>
</g>
</g>
<!-- Node2 -->
<g id="node2" class="node">
<title>Node2</title>
<g id="a_node2"><a xlink:href="hqp_8hpp.html" target="_top" xlink:title="Main interface for the Weighted&#45;Hierarchical&#45;QP solver.">
<polygon fill="white" stroke="#666666" points="637,-74 543,-74 543,-55 637,-55 637,-74"/>
<text text-anchor="middle" x="590" y="-62" font-family="Helvetica,sans-Serif" font-size="10.00">include/hqp.hpp</text>
</a>
</g>
</g>
<!-- Node1&#45;&gt;Node2 -->
<g id="edge1" class="edge">
<title>Node1&#45;&gt;Node2</title>
<path fill="none" stroke="#63b8ff" d="M590,-99.66C590,-90.93 590,-80.99 590,-74.09"/>
<polygon fill="#63b8ff" stroke="#63b8ff" points="586.5,-99.75 590,-109.75 593.5,-99.75 586.5,-99.75"/>
</g>
<!-- Node5 -->
<g id="node5" class="node">
<title>Node5</title>
<g id="a_node5"><a xlink:href="02__compare__solvers_8cpp.html" target="_top" xlink:title=" ">
<polygon fill="white" stroke="#666666" points="597,-19 433,-19 433,0 597,0 597,-19"/>
<text text-anchor="middle" x="515" y="-7" font-family="Helvetica,sans-Serif" font-size="10.00">tests/02_compare_solvers.cpp</text>
</a>
</g>
</g>
<!-- Node1&#45;&gt;Node5 -->
<g id="edge7" class="edge">
<title>Node1&#45;&gt;Node5</title>
<path fill="none" stroke="#63b8ff" d="M565.99,-104.3C554.83,-96.6 542.24,-86.17 534,-74 522.26,-56.66 517.61,-31.88 515.9,-19"/>
<polygon fill="#63b8ff" stroke="#63b8ff" points="564.23,-107.33 574.52,-109.86 568.06,-101.47 564.23,-107.33"/>
</g>
<!-- Node6 -->
<g id="node6" class="node">
<title>Node6</title>
<g id="a_node6"><a xlink:href="03__set__stack_8cpp.html" target="_top" xlink:title=" ">
<polygon fill="white" stroke="#666666" points="743,-19 615,-19 615,0 743,0 743,-19"/>
<text text-anchor="middle" x="679" y="-7" font-family="Helvetica,sans-Serif" font-size="10.00">tests/03_set_stack.cpp</text>
</a>
</g>
</g>
<!-- Node1&#45;&gt;Node6 -->
<g id="edge8" class="edge">
<title>Node1&#45;&gt;Node6</title>
<path fill="none" stroke="#63b8ff" d="M612.18,-104.2C623.3,-96.26 636.4,-85.64 646,-74 660.22,-56.74 670.76,-32.36 675.76,-19.4"/>
<polygon fill="#63b8ff" stroke="#63b8ff" points="610.05,-101.42 603.79,-109.96 614.02,-107.19 610.05,-101.42"/>
</g>
<!-- Node7 -->
<g id="node7" class="node">
<title>Node7</title>
<g id="a_node7"><a xlink:href="04__random__problem_8cpp.html" target="_top" xlink:title=" ">
<polygon fill="white" stroke="#666666" points="925,-19 761,-19 761,0 925,0 925,-19"/>
<text text-anchor="middle" x="843" y="-7" font-family="Helvetica,sans-Serif" font-size="10.00">tests/04_random_problem.cpp</text>
</a>
</g>
</g>
<!-- Node1&#45;&gt;Node7 -->
<g id="edge9" class="edge">
<title>Node1&#45;&gt;Node7</title>
<path fill="none" stroke="#63b8ff" d="M619.65,-105.84C671.79,-83.58 778.6,-37.99 822.98,-19.05"/>
<polygon fill="#63b8ff" stroke="#63b8ff" points="618.1,-102.7 610.28,-109.84 620.85,-109.14 618.1,-102.7"/>
</g>
<!-- Node8 -->
<g id="node8" class="node">
<title>Node8</title>
<g id="a_node8"><a xlink:href="library_8hpp.html" target="_top" xlink:title="Defines test task classes for the Weighted&#45;Hierarchical&#45;QP solver.">
<polygon fill="white" stroke="#666666" points="310.5,-74 215.5,-74 215.5,-55 310.5,-55 310.5,-74"/>
<text text-anchor="middle" x="263" y="-62" font-family="Helvetica,sans-Serif" font-size="10.00">tests/library.hpp</text>
</a>
</g>
</g>
<!-- Node1&#45;&gt;Node8 -->
<g id="edge10" class="edge">
<title>Node1&#45;&gt;Node8</title>
<path fill="none" stroke="#63b8ff" d="M531.2,-108.97C468.06,-98.74 368.95,-82.67 310.54,-73.21"/>
<polygon fill="#63b8ff" stroke="#63b8ff" points="530.97,-112.48 541.4,-110.62 532.09,-105.57 530.97,-112.48"/>
</g>
<!-- Node3 -->
<g id="node3" class="node">
<title>Node3</title>
<g id="a_node3"><a xlink:href="00__basic__select_8cpp.html" target="_top" xlink:title=" ">
<polygon fill="white" stroke="#666666" points="253.5,-19 112.5,-19 112.5,0 253.5,0 253.5,-19"/>
<text text-anchor="middle" x="183" y="-7" font-family="Helvetica,sans-Serif" font-size="10.00">tests/00_basic_select.cpp</text>
</a>
</g>
</g>
<!-- Node2&#45;&gt;Node3 -->
<g id="edge2" class="edge">
<title>Node2&#45;&gt;Node3</title>
<path fill="none" stroke="#63b8ff" d="M532.74,-56.04C457.89,-46.3 327.1,-29.26 248.42,-19.02"/>
<polygon fill="#63b8ff" stroke="#63b8ff" points="532.55,-59.55 542.91,-57.37 533.45,-52.61 532.55,-59.55"/>
</g>
<!-- Node4 -->
<g id="node4" class="node">
<title>Node4</title>
<g id="a_node4"><a xlink:href="01__metric__swap_8cpp.html" target="_top" xlink:title=" ">
<polygon fill="white" stroke="#666666" points="414.5,-19 271.5,-19 271.5,0 414.5,0 414.5,-19"/>
<text text-anchor="middle" x="343" y="-7" font-family="Helvetica,sans-Serif" font-size="10.00">tests/01_metric_swap.cpp</text>
</a>
</g>
</g>
<!-- Node2&#45;&gt;Node4 -->
<g id="edge3" class="edge">
<title>Node2&#45;&gt;Node4</title>
<path fill="none" stroke="#63b8ff" d="M540.5,-52.88C494.2,-42.94 425.93,-28.3 383,-19.08"/>
<polygon fill="#63b8ff" stroke="#63b8ff" points="539.8,-56.31 550.32,-54.98 541.27,-49.46 539.8,-56.31"/>
</g>
<!-- Node2&#45;&gt;Node5 -->
<g id="edge4" class="edge">
<title>Node2&#45;&gt;Node5</title>
<path fill="none" stroke="#63b8ff" d="M569.69,-49.15C556.14,-39.57 538.76,-27.29 527.27,-19.17"/>
<polygon fill="#63b8ff" stroke="#63b8ff" points="567.76,-52.07 577.95,-54.98 571.8,-46.36 567.76,-52.07"/>
</g>
<!-- Node2&#45;&gt;Node6 -->
<g id="edge5" class="edge">
<title>Node2&#45;&gt;Node6</title>
<path fill="none" stroke="#63b8ff" d="M613.18,-49.7C629.39,-40.04 650.55,-27.44 664.44,-19.17"/>
<polygon fill="#63b8ff" stroke="#63b8ff" points="611.1,-46.86 604.3,-54.98 614.68,-52.88 611.1,-46.86"/>
</g>
<!-- Node2&#45;&gt;Node7 -->
<g id="edge6" class="edge">
<title>Node2&#45;&gt;Node7</title>
<path fill="none" stroke="#63b8ff" d="M640.7,-52.88C688.12,-42.94 758.05,-28.3 802.03,-19.08"/>
<polygon fill="#63b8ff" stroke="#63b8ff" points="639.72,-49.51 630.65,-54.98 641.15,-56.36 639.72,-49.51"/>
</g>
<!-- Node8&#45;&gt;Node3 -->
<g id="edge11" class="edge">
<title>Node8&#45;&gt;Node3</title>
<path fill="none" stroke="#63b8ff" d="M241.75,-49.42C227.24,-39.81 208.46,-27.37 196.09,-19.17"/>
<polygon fill="#63b8ff" stroke="#63b8ff" points="239.88,-52.38 250.15,-54.98 243.74,-46.54 239.88,-52.38"/>
</g>
<!-- Node8&#45;&gt;Node4 -->
<g id="edge12" class="edge">
<title>Node8&#45;&gt;Node4</title>
<path fill="none" stroke="#63b8ff" d="M284.25,-49.42C298.76,-39.81 317.54,-27.37 329.91,-19.17"/>
<polygon fill="#63b8ff" stroke="#63b8ff" points="282.26,-46.54 275.85,-54.98 286.12,-52.38 282.26,-46.54"/>
</g>
<!-- Node9 -->
<g id="node9" class="node">
<title>Node9</title>
<g id="a_node9"><a xlink:href="library_8cpp.html" target="_top" xlink:title=" ">
<polygon fill="white" stroke="#666666" points="94,-19 0,-19 0,0 94,0 94,-19"/>
<text text-anchor="middle" x="47" y="-7" font-family="Helvetica,sans-Serif" font-size="10.00">tests/library.cpp</text>
</a>
</g>
</g>
<!-- Node8&#45;&gt;Node9 -->
<g id="edge13" class="edge">
<title>Node8&#45;&gt;Node9</title>
<path fill="none" stroke="#63b8ff" d="M218.43,-52.56C177.98,-42.64 119.13,-28.2 81.98,-19.08"/>
<polygon fill="#63b8ff" stroke="#63b8ff" points="217.75,-56 228.3,-54.98 219.42,-49.2 217.75,-56"/>
</g>
</g>
</svg>
