<?xml version="1.0" encoding="UTF-8" standalone="no"?>
<!DOCTYPE svg PUBLIC "-//W3C//DTD SVG 1.1//EN"
 "http://www.w3.org/Graphics/SVG/1.1/DTD/svg11.dtd">
<!-- Generated by graphviz version 2.43.0 (0)
 -->
<!-- Title: include/task.hpp Pages: 1 -->
<svg width="450pt" height="137pt"
 viewBox="0.00 0.00 449.50 137.00" xmlns="http://www.w3.org/2000/svg" xmlns:xlink="http://www.w3.org/1999/xlink">
<g id="graph0" class="graph" transform="scale(1 1) rotate(0) translate(4 133)">
<title>include/task.hpp</title>
<!-- Node1 -->
<g id="node1" class="node">
<title>Node1</title>
<g id="a_node1"><a xlink:title="Declares the abstract Task interface and its derivatives used in the HQP solver.">
<polygon fill="#999999" stroke="#666666" points="253,-129 156,-129 156,-110 253,-110 253,-129"/>
<text text-anchor="middle" x="204.5" y="-117" font-family="Helvetica,sans-Serif" font-size="10.00">include/task.hpp</text>
</a>
</g>
</g>
<!-- Node2 -->
<g id="node2" class="node">
<title>Node2</title>
<g id="a_node2"><a xlink:title=" ">
<polygon fill="#e0e0e0" stroke="#999999" points="41,-74 0,-74 0,-55 41,-55 41,-74"/>
<text text-anchor="middle" x="20.5" y="-62" font-family="Helvetica,sans-Serif" font-size="10.00">tuple</text>
</a>
</g>
</g>
<!-- Node1&#45;&gt;Node2 -->
<g id="edge1" class="edge">
<title>Node1&#45;&gt;Node2</title>
<path fill="none" stroke="#63b8ff" d="M174.94,-109.98C140.97,-100.2 85.49,-84.22 51.09,-74.31"/>
<polygon fill="#63b8ff" stroke="#63b8ff" points="51.72,-70.85 41.14,-71.45 49.78,-77.58 51.72,-70.85"/>
</g>
<!-- Node3 -->
<g id="node3" class="node">
<title>Node3</title>
<g id="a_node3"><a xlink:title=" ">
<polygon fill="#e0e0e0" stroke="#999999" points="88.5,-19 30.5,-19 30.5,0 88.5,0 88.5,-19"/>
<text text-anchor="middle" x="59.5" y="-7" font-family="Helvetica,sans-Serif" font-size="10.00">memory</text>
</a>
</g>
</g>
<!-- Node1&#45;&gt;Node3 -->
<g id="edge2" class="edge">
<title>Node1&#45;&gt;Node3</title>
<path fill="none" stroke="#63b8ff" d="M159.9,-109.97C136.27,-103.51 108.15,-92.46 88.5,-74 75.68,-61.95 68.07,-43.14 63.89,-29.12"/>
<polygon fill="#63b8ff" stroke="#63b8ff" points="67.18,-27.89 61.24,-19.12 60.42,-29.68 67.18,-27.89"/>
</g>
<!-- Node4 -->
<g id="node4" class="node">
<title>Node4</title>
<g id="a_node4"><a xlink:title=" ">
<polygon fill="#e0e0e0" stroke="#999999" points="297,-74 252,-74 252,-55 297,-55 297,-74"/>
<text text-anchor="middle" x="274.5" y="-62" font-family="Helvetica,sans-Serif" font-size="10.00">utility</text>
</a>
</g>
</g>
<!-- Node1&#45;&gt;Node4 -->
<g id="edge3" class="edge">
<title>Node1&#45;&gt;Node4</title>
<path fill="none" stroke="#63b8ff" d="M215.75,-109.98C226.3,-102 242.3,-89.88 254.94,-80.31"/>
<polygon fill="#63b8ff" stroke="#63b8ff" points="257.19,-83 263.05,-74.17 252.96,-77.42 257.19,-83"/>
</g>
<!-- Node5 -->
<g id="node5" class="node">
<title>Node5</title>
<g id="a_node5"><a xlink:title=" ">
<polygon fill="#e0e0e0" stroke="#999999" points="176,-19 107,-19 107,0 176,0 176,-19"/>
<text text-anchor="middle" x="141.5" y="-7" font-family="Helvetica,sans-Serif" font-size="10.00">type_traits</text>
</a>
</g>
</g>
<!-- Node1&#45;&gt;Node5 -->
<g id="edge4" class="edge">
<title>Node1&#45;&gt;Node5</title>
<path fill="none" stroke="#63b8ff" d="M199.34,-109.66C188.96,-91.85 165.34,-51.37 151.71,-28.01"/>
<polygon fill="#63b8ff" stroke="#63b8ff" points="154.61,-26.03 146.55,-19.16 148.57,-29.56 154.61,-26.03"/>
</g>
<!-- Node6 -->
<g id="node6" class="node">
<title>Node6</title>
<g id="a_node6"><a xlink:title=" ">
<polygon fill="#e0e0e0" stroke="#999999" points="367.5,-74 315.5,-74 315.5,-55 367.5,-55 367.5,-74"/>
<text text-anchor="middle" x="341.5" y="-62" font-family="Helvetica,sans-Serif" font-size="10.00">cassert</text>
</a>
</g>
</g>
<!-- Node1&#45;&gt;Node6 -->
<g id="edge5" class="edge">
<title>Node1&#45;&gt;Node6</title>
<path fill="none" stroke="#63b8ff" d="M226.51,-109.98C248.95,-101.3 283.98,-87.75 309.49,-77.88"/>
<polygon fill="#63b8ff" stroke="#63b8ff" points="311.02,-81.04 319.09,-74.17 308.5,-74.51 311.02,-81.04"/>
</g>
<!-- Node7 -->
<g id="node7" class="node">
<title>Node7</title>
<g id="a_node7"><a xlink:title=" ">
<polygon fill="#e0e0e0" stroke="#999999" points="441.5,-74 385.5,-74 385.5,-55 441.5,-55 441.5,-74"/>
<text text-anchor="middle" x="413.5" y="-62" font-family="Helvetica,sans-Serif" font-size="10.00">optional</text>
</a>
</g>
</g>
<!-- Node1&#45;&gt;Node7 -->
<g id="edge6" class="edge">
<title>Node1&#45;&gt;Node7</title>
<path fill="none" stroke="#63b8ff" d="M238.08,-109.98C275.66,-100.46 336.4,-85.05 375.64,-75.1"/>
<polygon fill="#63b8ff" stroke="#63b8ff" points="376.53,-78.49 385.36,-72.63 374.81,-71.7 376.53,-78.49"/>
</g>
<!-- Node8 -->
<g id="node8" class="node">
<title>Node8</title>
<g id="a_node8"><a xlink:title=" ">
<polygon fill="#e0e0e0" stroke="#999999" points="271,-19 194,-19 194,0 271,0 271,-19"/>
<text text-anchor="middle" x="232.5" y="-7" font-family="Helvetica,sans-Serif" font-size="10.00">Eigen/Dense</text>
</a>
</g>
</g>
<!-- Node1&#45;&gt;Node8 -->
<g id="edge7" class="edge">
<title>Node1&#45;&gt;Node8</title>
<path fill="none" stroke="#63b8ff" d="M206.79,-109.66C211.35,-92.09 221.62,-52.45 227.72,-28.95"/>
<polygon fill="#63b8ff" stroke="#63b8ff" points="231.13,-29.72 230.26,-19.16 224.36,-27.96 231.13,-29.72"/>
</g>
<!-- Node9 -->
<g id="node9" class="node">
<title>Node9</title>
<g id="a_node9"><a xlink:href="utils_8hpp.html" target="_top" xlink:title="Declares common utility functions used throughout the HQP solver.">
<polygon fill="white" stroke="#666666" points="157,-74 98,-74 98,-55 157,-55 157,-74"/>
<text text-anchor="middle" x="127.5" y="-62" font-family="Helvetica,sans-Serif" font-size="10.00">utils.hpp</text>
</a>
</g>
</g>
<!-- Node1&#45;&gt;Node9 -->
<g id="edge8" class="edge">
<title>Node1&#45;&gt;Node9</title>
<path fill="none" stroke="#63b8ff" d="M192.13,-109.98C180.41,-101.92 162.58,-89.65 148.61,-80.03"/>
<polygon fill="#63b8ff" stroke="#63b8ff" points="150.32,-76.96 140.1,-74.17 146.35,-82.72 150.32,-76.96"/>
</g>
<!-- Node9&#45;&gt;Node3 -->
<g id="edge9" class="edge">
<title>Node9&#45;&gt;Node3</title>
<path fill="none" stroke="#63b8ff" d="M116.57,-54.98C106.42,-47.07 91.08,-35.11 78.85,-25.58"/>
<polygon fill="#63b8ff" stroke="#63b8ff" points="80.66,-22.56 70.62,-19.17 76.36,-28.08 80.66,-22.56"/>
</g>
<!-- Node9&#45;&gt;Node5 -->
<g id="edge10" class="edge">
<title>Node9&#45;&gt;Node5</title>
<path fill="none" stroke="#63b8ff" d="M129.81,-54.75C131.67,-47.72 134.34,-37.62 136.65,-28.84"/>
<polygon fill="#63b8ff" stroke="#63b8ff" points="140.06,-29.65 139.23,-19.09 133.29,-27.86 140.06,-29.65"/>
</g>
<!-- Node9&#45;&gt;Node8 -->
<g id="edge11" class="edge">
<title>Node9&#45;&gt;Node8</title>
<path fill="none" stroke="#63b8ff" d="M144.37,-54.98C161.11,-46.54 187,-33.47 206.39,-23.68"/>
<polygon fill="#63b8ff" stroke="#63b8ff" points="207.97,-26.8 215.32,-19.17 204.82,-20.55 207.97,-26.8"/>
</g>
</g>
</svg>
