<?xml version="1.0" encoding="UTF-8" standalone="no"?>
<!DOCTYPE svg PUBLIC "-//W3C//DTD SVG 1.1//EN"
 "http://www.w3.org/Graphics/SVG/1.1/DTD/svg11.dtd">
<!-- Generated by graphviz version 2.43.0 (0)
 -->
<!-- Title: include/task.hpp Pages: 1 -->
<svg width="695pt" height="137pt"
 viewBox="0.00 0.00 695.00 137.00" xmlns="http://www.w3.org/2000/svg" xmlns:xlink="http://www.w3.org/1999/xlink">
<g id="graph0" class="graph" transform="scale(1 1) rotate(0) translate(4 133)">
<title>include/task.hpp</title>
<!-- Node1 -->
<g id="node1" class="node">
<title>Node1</title>
<g id="a_node1"><a xlink:title="Declares the abstract Task interface and its derivatives used in the HQP solver.">
<polygon fill="#999999" stroke="#666666" points="337.5,-129 240.5,-129 240.5,-110 337.5,-110 337.5,-129"/>
<text text-anchor="middle" x="289" y="-117" font-family="Helvetica,sans-Serif" font-size="10.00">include/task.hpp</text>
</a>
</g>
</g>
<!-- Node2 -->
<g id="node2" class="node">
<title>Node2</title>
<g id="a_node2"><a xlink:href="hqp_8hpp.html" target="_top" xlink:title="Main interface for the Weighted&#45;Hierarchical&#45;QP solver.">
<polygon fill="white" stroke="#666666" points="285,-74 191,-74 191,-55 285,-55 285,-74"/>
<text text-anchor="middle" x="238" y="-62" font-family="Helvetica,sans-Serif" font-size="10.00">include/hqp.hpp</text>
</a>
</g>
</g>
<!-- Node1&#45;&gt;Node2 -->
<g id="edge1" class="edge">
<title>Node1&#45;&gt;Node2</title>
<path fill="none" stroke="#63b8ff" d="M273.62,-102.52C264.63,-93.18 253.64,-81.75 246.26,-74.09"/>
<polygon fill="#63b8ff" stroke="#63b8ff" points="271.12,-104.97 280.58,-109.75 276.17,-100.12 271.12,-104.97"/>
</g>
<!-- Node6 -->
<g id="node6" class="node">
<title>Node6</title>
<g id="a_node6"><a xlink:href="02__compare__solvers_8cpp.html" target="_top" xlink:title=" ">
<polygon fill="white" stroke="#666666" points="164,-19 0,-19 0,0 164,0 164,-19"/>
<text text-anchor="middle" x="82" y="-7" font-family="Helvetica,sans-Serif" font-size="10.00">tests/02_compare_solvers.cpp</text>
</a>
</g>
</g>
<!-- Node1&#45;&gt;Node6 -->
<g id="edge7" class="edge">
<title>Node1&#45;&gt;Node6</title>
<path fill="none" stroke="#63b8ff" d="M255.46,-106.26C234.03,-98.02 205.88,-86.43 182,-74 148.8,-56.72 112.26,-31.91 93.91,-19.02"/>
<polygon fill="#63b8ff" stroke="#63b8ff" points="254.5,-109.64 265.09,-109.91 256.98,-103.09 254.5,-109.64"/>
</g>
<!-- Node7 -->
<g id="node7" class="node">
<title>Node7</title>
<g id="a_node7"><a xlink:href="task_8cpp.html" target="_top" xlink:title="Implements the methods declared in task.hpp.">
<polygon fill="white" stroke="#666666" points="378.5,-74 303.5,-74 303.5,-55 378.5,-55 378.5,-74"/>
<text text-anchor="middle" x="341" y="-62" font-family="Helvetica,sans-Serif" font-size="10.00">src/task.cpp</text>
</a>
</g>
</g>
<!-- Node1&#45;&gt;Node7 -->
<g id="edge6" class="edge">
<title>Node1&#45;&gt;Node7</title>
<path fill="none" stroke="#63b8ff" d="M304.68,-102.52C313.84,-93.18 325.05,-81.75 332.57,-74.09"/>
<polygon fill="#63b8ff" stroke="#63b8ff" points="302.09,-100.16 297.59,-109.75 307.09,-105.06 302.09,-100.16"/>
</g>
<!-- Node8 -->
<g id="node8" class="node">
<title>Node8</title>
<g id="a_node8"><a xlink:href="library_8hpp.html" target="_top" xlink:title="Defines test task classes for the Weighted&#45;Hierarchical&#45;QP solver.">
<polygon fill="white" stroke="#666666" points="531.5,-74 436.5,-74 436.5,-55 531.5,-55 531.5,-74"/>
<text text-anchor="middle" x="484" y="-62" font-family="Helvetica,sans-Serif" font-size="10.00">tests/library.hpp</text>
</a>
</g>
</g>
<!-- Node1&#45;&gt;Node8 -->
<g id="edge8" class="edge">
<title>Node1&#45;&gt;Node8</title>
<path fill="none" stroke="#63b8ff" d="M330.17,-107.31C366.66,-97.39 419.17,-83.12 452.42,-74.08"/>
<polygon fill="#63b8ff" stroke="#63b8ff" points="329.06,-103.98 320.33,-109.98 330.9,-110.74 329.06,-103.98"/>
</g>
<!-- Node3 -->
<g id="node3" class="node">
<title>Node3</title>
<g id="a_node3"><a xlink:href="hqp_8cpp.html" target="_top" xlink:title=" ">
<polygon fill="white" stroke="#666666" points="254,-19 182,-19 182,0 254,0 254,-19"/>
<text text-anchor="middle" x="218" y="-7" font-family="Helvetica,sans-Serif" font-size="10.00">src/hqp.cpp</text>
</a>
</g>
</g>
<!-- Node2&#45;&gt;Node3 -->
<g id="edge2" class="edge">
<title>Node2&#45;&gt;Node3</title>
<path fill="none" stroke="#63b8ff" d="M231.11,-45.24C227.76,-36.37 223.9,-26.14 221.24,-19.09"/>
<polygon fill="#63b8ff" stroke="#63b8ff" points="227.89,-46.63 234.7,-54.75 234.44,-44.16 227.89,-46.63"/>
</g>
<!-- Node4 -->
<g id="node4" class="node">
<title>Node4</title>
<g id="a_node4"><a xlink:href="00__basic__select_8cpp.html" target="_top" xlink:title=" ">
<polygon fill="white" stroke="#666666" points="574.5,-19 433.5,-19 433.5,0 574.5,0 574.5,-19"/>
<text text-anchor="middle" x="504" y="-7" font-family="Helvetica,sans-Serif" font-size="10.00">tests/00_basic_select.cpp</text>
</a>
</g>
</g>
<!-- Node2&#45;&gt;Node4 -->
<g id="edge3" class="edge">
<title>Node2&#45;&gt;Node4</title>
<path fill="none" stroke="#63b8ff" d="M290.68,-53C340.55,-43.07 414.49,-28.33 460.93,-19.08"/>
<polygon fill="#63b8ff" stroke="#63b8ff" points="289.86,-49.6 280.74,-54.98 291.23,-56.46 289.86,-49.6"/>
</g>
<!-- Node5 -->
<g id="node5" class="node">
<title>Node5</title>
<g id="a_node5"><a xlink:href="01__metric__swap_8cpp.html" target="_top" xlink:title=" ">
<polygon fill="white" stroke="#666666" points="415.5,-19 272.5,-19 272.5,0 415.5,0 415.5,-19"/>
<text text-anchor="middle" x="344" y="-7" font-family="Helvetica,sans-Serif" font-size="10.00">tests/01_metric_swap.cpp</text>
</a>
</g>
</g>
<!-- Node2&#45;&gt;Node5 -->
<g id="edge4" class="edge">
<title>Node2&#45;&gt;Node5</title>
<path fill="none" stroke="#63b8ff" d="M264,-50.5C283.5,-40.75 309.65,-27.68 326.66,-19.17"/>
<polygon fill="#63b8ff" stroke="#63b8ff" points="262.41,-47.38 255.03,-54.98 265.54,-53.64 262.41,-47.38"/>
</g>
<!-- Node2&#45;&gt;Node6 -->
<g id="edge5" class="edge">
<title>Node2&#45;&gt;Node6</title>
<path fill="none" stroke="#63b8ff" d="M203.18,-51.67C174.09,-41.79 133.3,-27.93 107.26,-19.08"/>
<polygon fill="#63b8ff" stroke="#63b8ff" points="202.34,-55.08 212.94,-54.98 204.59,-48.45 202.34,-55.08"/>
</g>
<!-- Node8&#45;&gt;Node4 -->
<g id="edge9" class="edge">
<title>Node8&#45;&gt;Node4</title>
<path fill="none" stroke="#63b8ff" d="M490.89,-45.24C494.24,-36.37 498.1,-26.14 500.76,-19.09"/>
<polygon fill="#63b8ff" stroke="#63b8ff" points="487.56,-44.16 487.3,-54.75 494.11,-46.63 487.56,-44.16"/>
</g>
<!-- Node8&#45;&gt;Node5 -->
<g id="edge10" class="edge">
<title>Node8&#45;&gt;Node5</title>
<path fill="none" stroke="#63b8ff" d="M452.09,-51.42C426.12,-41.59 390.08,-27.95 366.9,-19.17"/>
<polygon fill="#63b8ff" stroke="#63b8ff" points="450.92,-54.72 461.51,-54.98 453.39,-48.17 450.92,-54.72"/>
</g>
<!-- Node9 -->
<g id="node9" class="node">
<title>Node9</title>
<g id="a_node9"><a xlink:href="library_8cpp.html" target="_top" xlink:title="Implements the run() functions for various test tasks.">
<polygon fill="white" stroke="#666666" points="687,-19 593,-19 593,0 687,0 687,-19"/>
<text text-anchor="middle" x="640" y="-7" font-family="Helvetica,sans-Serif" font-size="10.00">tests/library.cpp</text>
</a>
</g>
</g>
<!-- Node8&#45;&gt;Node9 -->
<g id="edge11" class="edge">
<title>Node8&#45;&gt;Node9</title>
<path fill="none" stroke="#63b8ff" d="M518.82,-51.67C547.91,-41.79 588.7,-27.93 614.74,-19.08"/>
<polygon fill="#63b8ff" stroke="#63b8ff" points="517.41,-48.45 509.06,-54.98 519.66,-55.08 517.41,-48.45"/>
</g>
</g>
</svg>
