<?xml version="1.0" encoding="UTF-8" standalone="no"?>
<!DOCTYPE svg PUBLIC "-//W3C//DTD SVG 1.1//EN"
 "http://www.w3.org/Graphics/SVG/1.1/DTD/svg11.dtd">
<!-- Generated by graphviz version 2.43.0 (0)
 -->
<!-- Title: src/utils.cpp Pages: 1 -->
<svg width="552pt" height="137pt"
 viewBox="0.00 0.00 551.50 137.00" xmlns="http://www.w3.org/2000/svg" xmlns:xlink="http://www.w3.org/1999/xlink">
<g id="graph0" class="graph" transform="scale(1 1) rotate(0) translate(4 133)">
<title>src/utils.cpp</title>
<!-- Node1 -->
<g id="node1" class="node">
<title>Node1</title>
<g id="a_node1"><a xlink:title=" ">
<polygon fill="#999999" stroke="#666666" points="195.5,-129 120.5,-129 120.5,-110 195.5,-110 195.5,-129"/>
<text text-anchor="middle" x="158" y="-117" font-family="Helvetica,sans-Serif" font-size="10.00">src/utils.cpp</text>
</a>
</g>
</g>
<!-- Node2 -->
<g id="node2" class="node">
<title>Node2</title>
<g id="a_node2"><a xlink:title=" ">
<polygon fill="#e0e0e0" stroke="#999999" points="50,-74 0,-74 0,-55 50,-55 50,-74"/>
<text text-anchor="middle" x="25" y="-62" font-family="Helvetica,sans-Serif" font-size="10.00">chrono</text>
</a>
</g>
</g>
<!-- Node1&#45;&gt;Node2 -->
<g id="edge1" class="edge">
<title>Node1&#45;&gt;Node2</title>
<path fill="none" stroke="#63b8ff" d="M136.63,-109.98C114.85,-101.3 80.84,-87.75 56.08,-77.88"/>
<polygon fill="#63b8ff" stroke="#63b8ff" points="57.34,-74.62 46.76,-74.17 54.75,-81.12 57.34,-74.62"/>
</g>
<!-- Node3 -->
<g id="node3" class="node">
<title>Node3</title>
<g id="a_node3"><a xlink:title=" ">
<polygon fill="#e0e0e0" stroke="#999999" points="112,-74 68,-74 68,-55 112,-55 112,-74"/>
<text text-anchor="middle" x="90" y="-62" font-family="Helvetica,sans-Serif" font-size="10.00">ctime</text>
</a>
</g>
</g>
<!-- Node1&#45;&gt;Node3 -->
<g id="edge2" class="edge">
<title>Node1&#45;&gt;Node3</title>
<path fill="none" stroke="#63b8ff" d="M147.07,-109.98C136.92,-102.07 121.58,-90.11 109.35,-80.58"/>
<polygon fill="#63b8ff" stroke="#63b8ff" points="111.16,-77.56 101.12,-74.17 106.86,-83.08 111.16,-77.56"/>
</g>
<!-- Node4 -->
<g id="node4" class="node">
<title>Node4</title>
<g id="a_node4"><a xlink:title=" ">
<polygon fill="#e0e0e0" stroke="#999999" points="185.5,-74 130.5,-74 130.5,-55 185.5,-55 185.5,-74"/>
<text text-anchor="middle" x="158" y="-62" font-family="Helvetica,sans-Serif" font-size="10.00">fstream</text>
</a>
</g>
</g>
<!-- Node1&#45;&gt;Node4 -->
<g id="edge3" class="edge">
<title>Node1&#45;&gt;Node4</title>
<path fill="none" stroke="#63b8ff" d="M158,-109.75C158,-102.8 158,-92.85 158,-84.13"/>
<polygon fill="#63b8ff" stroke="#63b8ff" points="161.5,-84.09 158,-74.09 154.5,-84.09 161.5,-84.09"/>
</g>
<!-- Node5 -->
<g id="node5" class="node">
<title>Node5</title>
<g id="a_node5"><a xlink:title=" ">
<polygon fill="#e0e0e0" stroke="#999999" points="264,-74 204,-74 204,-55 264,-55 264,-74"/>
<text text-anchor="middle" x="234" y="-62" font-family="Helvetica,sans-Serif" font-size="10.00">iostream</text>
</a>
</g>
</g>
<!-- Node1&#45;&gt;Node5 -->
<g id="edge4" class="edge">
<title>Node1&#45;&gt;Node5</title>
<path fill="none" stroke="#63b8ff" d="M170.21,-109.98C181.78,-101.92 199.38,-89.65 213.16,-80.03"/>
<polygon fill="#63b8ff" stroke="#63b8ff" points="215.37,-82.76 221.57,-74.17 211.36,-77.02 215.37,-82.76"/>
</g>
<!-- Node6 -->
<g id="node6" class="node">
<title>Node6</title>
<g id="a_node6"><a xlink:href="utils_8hpp.html" target="_top" xlink:title="Declares common utility functions used throughout the HQP solver.">
<polygon fill="white" stroke="#666666" points="341.5,-74 282.5,-74 282.5,-55 341.5,-55 341.5,-74"/>
<text text-anchor="middle" x="312" y="-62" font-family="Helvetica,sans-Serif" font-size="10.00">utils.hpp</text>
</a>
</g>
</g>
<!-- Node1&#45;&gt;Node6 -->
<g id="edge5" class="edge">
<title>Node1&#45;&gt;Node6</title>
<path fill="none" stroke="#63b8ff" d="M182.74,-109.98C208.37,-101.16 248.63,-87.31 277.41,-77.41"/>
<polygon fill="#63b8ff" stroke="#63b8ff" points="278.75,-80.65 287.06,-74.08 276.47,-74.03 278.75,-80.65"/>
</g>
<!-- Node7 -->
<g id="node7" class="node">
<title>Node7</title>
<g id="a_node7"><a xlink:title=" ">
<polygon fill="#e0e0e0" stroke="#999999" points="168,-19 110,-19 110,0 168,0 168,-19"/>
<text text-anchor="middle" x="139" y="-7" font-family="Helvetica,sans-Serif" font-size="10.00">memory</text>
</a>
</g>
</g>
<!-- Node6&#45;&gt;Node7 -->
<g id="edge6" class="edge">
<title>Node6&#45;&gt;Node7</title>
<path fill="none" stroke="#63b8ff" d="M284.2,-54.98C255.03,-46.05 209,-31.94 176.6,-22.02"/>
<polygon fill="#63b8ff" stroke="#63b8ff" points="177.6,-18.66 167.01,-19.08 175.55,-25.36 177.6,-18.66"/>
</g>
<!-- Node8 -->
<g id="node8" class="node">
<title>Node8</title>
<g id="a_node8"><a xlink:title=" ">
<polygon fill="#e0e0e0" stroke="#999999" points="234,-19 186,-19 186,0 234,0 234,-19"/>
<text text-anchor="middle" x="210" y="-7" font-family="Helvetica,sans-Serif" font-size="10.00">mutex</text>
</a>
</g>
</g>
<!-- Node6&#45;&gt;Node8 -->
<g id="edge7" class="edge">
<title>Node6&#45;&gt;Node8</title>
<path fill="none" stroke="#63b8ff" d="M295.61,-54.98C279.43,-46.57 254.43,-33.59 235.62,-23.81"/>
<polygon fill="#63b8ff" stroke="#63b8ff" points="237.17,-20.68 226.69,-19.17 233.95,-26.89 237.17,-20.68"/>
</g>
<!-- Node9 -->
<g id="node9" class="node">
<title>Node9</title>
<g id="a_node9"><a xlink:title=" ">
<polygon fill="#e0e0e0" stroke="#999999" points="296,-19 252,-19 252,0 296,0 296,-19"/>
<text text-anchor="middle" x="274" y="-7" font-family="Helvetica,sans-Serif" font-size="10.00">string</text>
</a>
</g>
</g>
<!-- Node6&#45;&gt;Node9 -->
<g id="edge8" class="edge">
<title>Node6&#45;&gt;Node9</title>
<path fill="none" stroke="#63b8ff" d="M305.73,-54.75C300.41,-47.34 292.64,-36.5 286.12,-27.41"/>
<polygon fill="#63b8ff" stroke="#63b8ff" points="288.83,-25.18 280.16,-19.09 283.14,-29.26 288.83,-25.18"/>
</g>
<!-- Node10 -->
<g id="node10" class="node">
<title>Node10</title>
<g id="a_node10"><a xlink:title=" ">
<polygon fill="#e0e0e0" stroke="#999999" points="383.5,-19 314.5,-19 314.5,0 383.5,0 383.5,-19"/>
<text text-anchor="middle" x="349" y="-7" font-family="Helvetica,sans-Serif" font-size="10.00">type_traits</text>
</a>
</g>
</g>
<!-- Node6&#45;&gt;Node10 -->
<g id="edge9" class="edge">
<title>Node6&#45;&gt;Node10</title>
<path fill="none" stroke="#63b8ff" d="M318.11,-54.75C323.28,-47.34 330.85,-36.5 337.19,-27.41"/>
<polygon fill="#63b8ff" stroke="#63b8ff" points="340.15,-29.29 343,-19.09 334.41,-25.29 340.15,-29.29"/>
</g>
<!-- Node11 -->
<g id="node11" class="node">
<title>Node11</title>
<g id="a_node11"><a xlink:title=" ">
<polygon fill="#e0e0e0" stroke="#999999" points="448.5,-19 401.5,-19 401.5,0 448.5,0 448.5,-19"/>
<text text-anchor="middle" x="425" y="-7" font-family="Helvetica,sans-Serif" font-size="10.00">vector</text>
</a>
</g>
</g>
<!-- Node6&#45;&gt;Node11 -->
<g id="edge10" class="edge">
<title>Node6&#45;&gt;Node11</title>
<path fill="none" stroke="#63b8ff" d="M330.16,-54.98C348.25,-46.5 376.28,-33.35 397.19,-23.54"/>
<polygon fill="#63b8ff" stroke="#63b8ff" points="398.95,-26.59 406.51,-19.17 395.97,-20.25 398.95,-26.59"/>
</g>
<!-- Node12 -->
<g id="node12" class="node">
<title>Node12</title>
<g id="a_node12"><a xlink:title=" ">
<polygon fill="#e0e0e0" stroke="#999999" points="543.5,-19 466.5,-19 466.5,0 543.5,0 543.5,-19"/>
<text text-anchor="middle" x="505" y="-7" font-family="Helvetica,sans-Serif" font-size="10.00">Eigen/Dense</text>
</a>
</g>
</g>
<!-- Node6&#45;&gt;Node12 -->
<g id="edge11" class="edge">
<title>Node6&#45;&gt;Node12</title>
<path fill="none" stroke="#63b8ff" d="M341.73,-55.33C374.5,-46.34 427.4,-31.81 464.07,-21.74"/>
<polygon fill="#63b8ff" stroke="#63b8ff" points="465.24,-25.05 473.95,-19.03 463.38,-18.3 465.24,-25.05"/>
</g>
</g>
</svg>
