<?xml version="1.0" encoding="UTF-8" standalone="no"?>
<!DOCTYPE svg PUBLIC "-//W3C//DTD SVG 1.1//EN"
 "http://www.w3.org/Graphics/SVG/1.1/DTD/svg11.dtd">
<!-- Generated by graphviz version 2.43.0 (0)
 -->
<!-- Title: include/utils.hpp Pages: 1 -->
<svg width="440pt" height="192pt"
 viewBox="0.00 0.00 440.00 192.00" xmlns="http://www.w3.org/2000/svg" xmlns:xlink="http://www.w3.org/1999/xlink">
<g id="graph0" class="graph" transform="scale(1 1) rotate(0) translate(4 188)">
<title>include/utils.hpp</title>
<!-- Node1 -->
<g id="node1" class="node">
<title>Node1</title>
<g id="a_node1"><a xlink:title="Declares common utility functions used throughout the HQP solver.">
<polygon fill="#999999" stroke="#666666" points="377,-184 280,-184 280,-165 377,-165 377,-184"/>
<text text-anchor="middle" x="328.5" y="-172" font-family="Helvetica,sans-Serif" font-size="10.00">include/utils.hpp</text>
</a>
</g>
</g>
<!-- Node2 -->
<g id="node2" class="node">
<title>Node2</title>
<g id="a_node2"><a xlink:href="task_8hpp.html" target="_top" xlink:title="Declares the abstract Task interface and its derivatives used in the HQP solver.">
<polygon fill="white" stroke="#666666" points="245,-129 148,-129 148,-110 245,-110 245,-129"/>
<text text-anchor="middle" x="196.5" y="-117" font-family="Helvetica,sans-Serif" font-size="10.00">include/task.hpp</text>
</a>
</g>
</g>
<!-- Node1&#45;&gt;Node2 -->
<g id="edge1" class="edge">
<title>Node1&#45;&gt;Node2</title>
<path fill="none" stroke="#63b8ff" d="M297.77,-161.16C273.33,-151.35 239.76,-137.87 218.09,-129.17"/>
<polygon fill="#63b8ff" stroke="#63b8ff" points="296.71,-164.51 307.29,-164.98 299.32,-158.01 296.71,-164.51"/>
</g>
<!-- Node4 -->
<g id="node4" class="node">
<title>Node4</title>
<g id="a_node4"><a xlink:href="hqp_8cpp.html" target="_top" xlink:title=" ">
<polygon fill="white" stroke="#666666" points="364.5,-19 292.5,-19 292.5,0 364.5,0 364.5,-19"/>
<text text-anchor="middle" x="328.5" y="-7" font-family="Helvetica,sans-Serif" font-size="10.00">src/hqp.cpp</text>
</a>
</g>
</g>
<!-- Node1&#45;&gt;Node4 -->
<g id="edge9" class="edge">
<title>Node1&#45;&gt;Node4</title>
<path fill="none" stroke="#63b8ff" d="M328.5,-154.37C328.5,-119.03 328.5,-44.79 328.5,-19.31"/>
<polygon fill="#63b8ff" stroke="#63b8ff" points="325,-154.74 328.5,-164.74 332,-154.74 325,-154.74"/>
</g>
<!-- Node9 -->
<g id="node9" class="node">
<title>Node9</title>
<g id="a_node9"><a xlink:href="utils_8cpp.html" target="_top" xlink:title=" ">
<polygon fill="white" stroke="#666666" points="432,-129 357,-129 357,-110 432,-110 432,-129"/>
<text text-anchor="middle" x="394.5" y="-117" font-family="Helvetica,sans-Serif" font-size="10.00">src/utils.cpp</text>
</a>
</g>
</g>
<!-- Node1&#45;&gt;Node9 -->
<g id="edge10" class="edge">
<title>Node1&#45;&gt;Node9</title>
<path fill="none" stroke="#63b8ff" d="M347.05,-158.6C358.88,-149.11 373.79,-137.13 383.7,-129.17"/>
<polygon fill="#63b8ff" stroke="#63b8ff" points="344.71,-155.99 339.1,-164.98 349.09,-161.45 344.71,-155.99"/>
</g>
<!-- Node3 -->
<g id="node3" class="node">
<title>Node3</title>
<g id="a_node3"><a xlink:href="hqp_8hpp.html" target="_top" xlink:title="Main interface for the Weighted&#45;Hierarchical&#45;QP solver.">
<polygon fill="white" stroke="#666666" points="300.5,-74 206.5,-74 206.5,-55 300.5,-55 300.5,-74"/>
<text text-anchor="middle" x="253.5" y="-62" font-family="Helvetica,sans-Serif" font-size="10.00">include/hqp.hpp</text>
</a>
</g>
</g>
<!-- Node2&#45;&gt;Node3 -->
<g id="edge2" class="edge">
<title>Node2&#45;&gt;Node3</title>
<path fill="none" stroke="#63b8ff" d="M213.12,-103.04C223.23,-93.64 235.78,-81.98 244.18,-74.17"/>
<polygon fill="#63b8ff" stroke="#63b8ff" points="210.6,-100.61 205.66,-109.98 215.36,-105.74 210.6,-100.61"/>
</g>
<!-- Node6 -->
<g id="node6" class="node">
<title>Node6</title>
<g id="a_node6"><a xlink:href="task_8cpp.html" target="_top" xlink:title="Implements the methods declared in task.hpp.">
<polygon fill="white" stroke="#666666" points="75,-74 0,-74 0,-55 75,-55 75,-74"/>
<text text-anchor="middle" x="37.5" y="-62" font-family="Helvetica,sans-Serif" font-size="10.00">src/task.cpp</text>
</a>
</g>
</g>
<!-- Node2&#45;&gt;Node6 -->
<g id="edge5" class="edge">
<title>Node2&#45;&gt;Node6</title>
<path fill="none" stroke="#63b8ff" d="M161.4,-106.8C131.72,-96.91 89.9,-82.97 63.25,-74.08"/>
<polygon fill="#63b8ff" stroke="#63b8ff" points="160.36,-110.14 170.95,-109.98 162.57,-103.5 160.36,-110.14"/>
</g>
<!-- Node7 -->
<g id="node7" class="node">
<title>Node7</title>
<g id="a_node7"><a xlink:href="library_8hpp.html" target="_top" xlink:title="Defines test task classes for the Weighted&#45;Hierarchical&#45;QP solver.">
<polygon fill="white" stroke="#666666" points="188,-74 93,-74 93,-55 188,-55 188,-74"/>
<text text-anchor="middle" x="140.5" y="-62" font-family="Helvetica,sans-Serif" font-size="10.00">tests/library.hpp</text>
</a>
</g>
</g>
<!-- Node2&#45;&gt;Node7 -->
<g id="edge6" class="edge">
<title>Node2&#45;&gt;Node7</title>
<path fill="none" stroke="#63b8ff" d="M180.17,-103.04C170.24,-93.64 157.91,-81.98 149.66,-74.17"/>
<polygon fill="#63b8ff" stroke="#63b8ff" points="177.83,-105.65 187.5,-109.98 182.65,-100.57 177.83,-105.65"/>
</g>
<!-- Node3&#45;&gt;Node4 -->
<g id="edge3" class="edge">
<title>Node3&#45;&gt;Node4</title>
<path fill="none" stroke="#63b8ff" d="M273.81,-49.15C287.36,-39.57 304.74,-27.29 316.23,-19.17"/>
<polygon fill="#63b8ff" stroke="#63b8ff" points="271.7,-46.36 265.55,-54.98 275.74,-52.07 271.7,-46.36"/>
</g>
<!-- Node5 -->
<g id="node5" class="node">
<title>Node5</title>
<g id="a_node5"><a xlink:href="test0_8cpp.html" target="_top" xlink:title="Test driver for validating the Hierarchical&#45;QP solver functionality.">
<polygon fill="white" stroke="#666666" points="274,-19 185,-19 185,0 274,0 274,-19"/>
<text text-anchor="middle" x="229.5" y="-7" font-family="Helvetica,sans-Serif" font-size="10.00">tests/test0.cpp</text>
</a>
</g>
</g>
<!-- Node3&#45;&gt;Node5 -->
<g id="edge4" class="edge">
<title>Node3&#45;&gt;Node5</title>
<path fill="none" stroke="#63b8ff" d="M245.36,-45.53C241.32,-36.6 236.62,-26.22 233.39,-19.09"/>
<polygon fill="#63b8ff" stroke="#63b8ff" points="242.22,-47.08 249.54,-54.75 248.6,-44.19 242.22,-47.08"/>
</g>
<!-- Node7&#45;&gt;Node5 -->
<g id="edge8" class="edge">
<title>Node7&#45;&gt;Node5</title>
<path fill="none" stroke="#63b8ff" d="M163.68,-49.7C179.89,-40.04 201.05,-27.44 214.94,-19.17"/>
<polygon fill="#63b8ff" stroke="#63b8ff" points="161.6,-46.86 154.8,-54.98 165.18,-52.88 161.6,-46.86"/>
</g>
<!-- Node8 -->
<g id="node8" class="node">
<title>Node8</title>
<g id="a_node8"><a xlink:href="library_8cpp.html" target="_top" xlink:title="Implements the run() functions for various test tasks.">
<polygon fill="white" stroke="#666666" points="166.5,-19 72.5,-19 72.5,0 166.5,0 166.5,-19"/>
<text text-anchor="middle" x="119.5" y="-7" font-family="Helvetica,sans-Serif" font-size="10.00">tests/library.cpp</text>
</a>
</g>
</g>
<!-- Node7&#45;&gt;Node8 -->
<g id="edge7" class="edge">
<title>Node7&#45;&gt;Node8</title>
<path fill="none" stroke="#63b8ff" d="M133.26,-45.24C129.75,-36.37 125.7,-26.14 122.9,-19.09"/>
<polygon fill="#63b8ff" stroke="#63b8ff" points="130.09,-46.74 137.03,-54.75 136.6,-44.16 130.09,-46.74"/>
</g>
</g>
</svg>
