<?xml version="1.0" encoding="UTF-8" standalone="no"?>
<!DOCTYPE svg PUBLIC "-//W3C//DTD SVG 1.1//EN"
 "http://www.w3.org/Graphics/SVG/1.1/DTD/svg11.dtd">
<!-- Generated by graphviz version 2.43.0 (0)
 -->
<!-- Title: include/utils.hpp Pages: 1 -->
<svg width="1023pt" height="192pt"
 viewBox="0.00 0.00 1023.00 192.00" xmlns="http://www.w3.org/2000/svg" xmlns:xlink="http://www.w3.org/1999/xlink">
<g id="graph0" class="graph" transform="scale(1 1) rotate(0) translate(4 188)">
<title>include/utils.hpp</title>
<!-- Node1 -->
<g id="node1" class="node">
<title>Node1</title>
<g id="a_node1"><a xlink:title="Declares common utility functions used throughout the HQP solver.">
<polygon fill="#999999" stroke="#666666" points="528.5,-184 431.5,-184 431.5,-165 528.5,-165 528.5,-184"/>
<text text-anchor="middle" x="480" y="-172" font-family="Helvetica,sans-Serif" font-size="10.00">include/utils.hpp</text>
</a>
</g>
</g>
<!-- Node2 -->
<g id="node2" class="node">
<title>Node2</title>
<g id="a_node2"><a xlink:href="hqp_8hpp.html" target="_top" xlink:title="Main interface for the Weighted&#45;Hierarchical&#45;QP solver.">
<polygon fill="white" stroke="#666666" points="483,-74 389,-74 389,-55 483,-55 483,-74"/>
<text text-anchor="middle" x="436" y="-62" font-family="Helvetica,sans-Serif" font-size="10.00">include/hqp.hpp</text>
</a>
</g>
</g>
<!-- Node1&#45;&gt;Node2 -->
<g id="edge1" class="edge">
<title>Node1&#45;&gt;Node2</title>
<path fill="none" stroke="#63b8ff" d="M472.51,-155.12C462.91,-131.56 446.66,-91.66 439.53,-74.16"/>
<polygon fill="#63b8ff" stroke="#63b8ff" points="469.38,-156.72 476.4,-164.66 475.87,-154.08 469.38,-156.72"/>
</g>
<!-- Node3 -->
<g id="node3" class="node">
<title>Node3</title>
<g id="a_node3"><a xlink:href="hqp_8cpp.html" target="_top" xlink:title=" ">
<polygon fill="white" stroke="#666666" points="72,-19 0,-19 0,0 72,0 72,-19"/>
<text text-anchor="middle" x="36" y="-7" font-family="Helvetica,sans-Serif" font-size="10.00">src/hqp.cpp</text>
</a>
</g>
</g>
<!-- Node1&#45;&gt;Node3 -->
<g id="edge18" class="edge">
<title>Node1&#45;&gt;Node3</title>
<path fill="none" stroke="#63b8ff" d="M447.29,-161.49C361.76,-130.09 133.05,-46.13 59.28,-19.05"/>
<polygon fill="#63b8ff" stroke="#63b8ff" points="446.16,-164.81 456.75,-164.97 448.57,-158.23 446.16,-164.81"/>
</g>
<!-- Node9 -->
<g id="node9" class="node">
<title>Node9</title>
<g id="a_node9"><a xlink:href="task_8hpp.html" target="_top" xlink:title="Declares the abstract Task interface and its derivatives used in the HQP solver.">
<polygon fill="white" stroke="#666666" points="580.5,-129 483.5,-129 483.5,-110 580.5,-110 580.5,-129"/>
<text text-anchor="middle" x="532" y="-117" font-family="Helvetica,sans-Serif" font-size="10.00">include/task.hpp</text>
</a>
</g>
</g>
<!-- Node1&#45;&gt;Node9 -->
<g id="edge8" class="edge">
<title>Node1&#45;&gt;Node9</title>
<path fill="none" stroke="#63b8ff" d="M495.68,-157.52C504.84,-148.18 516.05,-136.75 523.57,-129.09"/>
<polygon fill="#63b8ff" stroke="#63b8ff" points="493.09,-155.16 488.59,-164.75 498.09,-160.06 493.09,-155.16"/>
</g>
<!-- Node13 -->
<g id="node13" class="node">
<title>Node13</title>
<g id="a_node13"><a xlink:href="utils_8cpp.html" target="_top" xlink:title=" ">
<polygon fill="white" stroke="#666666" points="673.5,-129 598.5,-129 598.5,-110 673.5,-110 673.5,-129"/>
<text text-anchor="middle" x="636" y="-117" font-family="Helvetica,sans-Serif" font-size="10.00">src/utils.cpp</text>
</a>
</g>
</g>
<!-- Node1&#45;&gt;Node13 -->
<g id="edge19" class="edge">
<title>Node1&#45;&gt;Node13</title>
<path fill="none" stroke="#63b8ff" d="M514.82,-161.67C543.91,-151.79 584.7,-137.93 610.74,-129.08"/>
<polygon fill="#63b8ff" stroke="#63b8ff" points="513.41,-158.45 505.06,-164.98 515.66,-165.08 513.41,-158.45"/>
</g>
<!-- Node2&#45;&gt;Node3 -->
<g id="edge2" class="edge">
<title>Node2&#45;&gt;Node3</title>
<path fill="none" stroke="#63b8ff" d="M378.8,-57.43C308.51,-49.73 185.69,-35.43 81,-19 78.17,-18.56 75.25,-18.07 72.32,-17.56"/>
<polygon fill="#63b8ff" stroke="#63b8ff" points="378.46,-60.92 388.78,-58.52 379.22,-53.96 378.46,-60.92"/>
</g>
<!-- Node4 -->
<g id="node4" class="node">
<title>Node4</title>
<g id="a_node4"><a xlink:href="00__basic__select_8cpp.html" target="_top" xlink:title=" ">
<polygon fill="white" stroke="#666666" points="343.5,-19 202.5,-19 202.5,0 343.5,0 343.5,-19"/>
<text text-anchor="middle" x="273" y="-7" font-family="Helvetica,sans-Serif" font-size="10.00">tests/00_basic_select.cpp</text>
</a>
</g>
</g>
<!-- Node2&#45;&gt;Node4 -->
<g id="edge3" class="edge">
<title>Node2&#45;&gt;Node4</title>
<path fill="none" stroke="#63b8ff" d="M400.01,-51.8C369.59,-41.91 326.72,-27.97 299.39,-19.08"/>
<polygon fill="#63b8ff" stroke="#63b8ff" points="399.22,-55.22 409.81,-54.98 401.38,-48.56 399.22,-55.22"/>
</g>
<!-- Node5 -->
<g id="node5" class="node">
<title>Node5</title>
<g id="a_node5"><a xlink:href="01__metric__swap_8cpp.html" target="_top" xlink:title=" ">
<polygon fill="white" stroke="#666666" points="504.5,-19 361.5,-19 361.5,0 504.5,0 504.5,-19"/>
<text text-anchor="middle" x="433" y="-7" font-family="Helvetica,sans-Serif" font-size="10.00">tests/01_metric_swap.cpp</text>
</a>
</g>
</g>
<!-- Node2&#45;&gt;Node5 -->
<g id="edge4" class="edge">
<title>Node2&#45;&gt;Node5</title>
<path fill="none" stroke="#63b8ff" d="M434.93,-44.66C434.44,-35.93 433.88,-25.99 433.49,-19.09"/>
<polygon fill="#63b8ff" stroke="#63b8ff" points="431.44,-44.96 435.5,-54.75 438.43,-44.57 431.44,-44.96"/>
</g>
<!-- Node6 -->
<g id="node6" class="node">
<title>Node6</title>
<g id="a_node6"><a xlink:href="02__compare__solvers_8cpp.html" target="_top" xlink:title=" ">
<polygon fill="white" stroke="#666666" points="687,-19 523,-19 523,0 687,0 687,-19"/>
<text text-anchor="middle" x="605" y="-7" font-family="Helvetica,sans-Serif" font-size="10.00">tests/02_compare_solvers.cpp</text>
</a>
</g>
</g>
<!-- Node2&#45;&gt;Node6 -->
<g id="edge5" class="edge">
<title>Node2&#45;&gt;Node6</title>
<path fill="none" stroke="#63b8ff" d="M472.9,-51.93C504.47,-42.03 549.18,-28.01 577.63,-19.08"/>
<polygon fill="#63b8ff" stroke="#63b8ff" points="471.65,-48.65 463.15,-54.98 473.74,-55.33 471.65,-48.65"/>
</g>
<!-- Node7 -->
<g id="node7" class="node">
<title>Node7</title>
<g id="a_node7"><a xlink:href="03__set__stack_8cpp.html" target="_top" xlink:title=" ">
<polygon fill="white" stroke="#666666" points="833,-19 705,-19 705,0 833,0 833,-19"/>
<text text-anchor="middle" x="769" y="-7" font-family="Helvetica,sans-Serif" font-size="10.00">tests/03_set_stack.cpp</text>
</a>
</g>
</g>
<!-- Node2&#45;&gt;Node7 -->
<g id="edge6" class="edge">
<title>Node2&#45;&gt;Node7</title>
<path fill="none" stroke="#63b8ff" d="M493.06,-54.42C555.37,-44.5 654.41,-28.74 715.35,-19.04"/>
<polygon fill="#63b8ff" stroke="#63b8ff" points="492.33,-50.99 483,-56.02 493.43,-57.9 492.33,-50.99"/>
</g>
<!-- Node8 -->
<g id="node8" class="node">
<title>Node8</title>
<g id="a_node8"><a xlink:href="04__random__problem_8cpp.html" target="_top" xlink:title=" ">
<polygon fill="white" stroke="#666666" points="1015,-19 851,-19 851,0 1015,0 1015,-19"/>
<text text-anchor="middle" x="933" y="-7" font-family="Helvetica,sans-Serif" font-size="10.00">tests/04_random_problem.cpp</text>
</a>
</g>
</g>
<!-- Node2&#45;&gt;Node8 -->
<g id="edge7" class="edge">
<title>Node2&#45;&gt;Node8</title>
<path fill="none" stroke="#63b8ff" d="M493.44,-54.89C574.92,-44.98 747.59,-28.17 850.86,-18.29"/>
<polygon fill="#63b8ff" stroke="#63b8ff" points="492.52,-51.48 483.03,-56.19 493.39,-58.43 492.52,-51.48"/>
</g>
<!-- Node9&#45;&gt;Node2 -->
<g id="edge9" class="edge">
<title>Node9&#45;&gt;Node2</title>
<path fill="none" stroke="#63b8ff" d="M507.48,-104.97C489.94,-95.28 466.83,-82.52 451.7,-74.17"/>
<polygon fill="#63b8ff" stroke="#63b8ff" points="506.13,-108.22 516.58,-109.98 509.51,-102.09 506.13,-108.22"/>
</g>
<!-- Node9&#45;&gt;Node6 -->
<g id="edge11" class="edge">
<title>Node9&#45;&gt;Node6</title>
<path fill="none" stroke="#63b8ff" d="M554.54,-104.07C565.1,-96.3 577.08,-85.87 585,-74 596.55,-56.7 601.75,-32.33 603.81,-19.39"/>
<polygon fill="#63b8ff" stroke="#63b8ff" points="552.31,-101.36 546.11,-109.95 556.32,-107.1 552.31,-101.36"/>
</g>
<!-- Node9&#45;&gt;Node7 -->
<g id="edge12" class="edge">
<title>Node9&#45;&gt;Node7</title>
<path fill="none" stroke="#63b8ff" d="M560.38,-105.57C609.45,-83.21 708.85,-37.91 750.24,-19.05"/>
<polygon fill="#63b8ff" stroke="#63b8ff" points="558.64,-102.51 550.99,-109.84 561.55,-108.88 558.64,-102.51"/>
</g>
<!-- Node9&#45;&gt;Node8 -->
<g id="edge13" class="edge">
<title>Node9&#45;&gt;Node8</title>
<path fill="none" stroke="#63b8ff" d="M573.58,-107.3C654,-85.64 829.25,-38.44 901.2,-19.07"/>
<polygon fill="#63b8ff" stroke="#63b8ff" points="572.55,-103.95 563.8,-109.94 574.37,-110.71 572.55,-103.95"/>
</g>
<!-- Node10 -->
<g id="node10" class="node">
<title>Node10</title>
<g id="a_node10"><a xlink:href="task_8cpp.html" target="_top" xlink:title="Implements the methods declared in task.hpp.">
<polygon fill="white" stroke="#666666" points="576.5,-74 501.5,-74 501.5,-55 576.5,-55 576.5,-74"/>
<text text-anchor="middle" x="539" y="-62" font-family="Helvetica,sans-Serif" font-size="10.00">src/task.cpp</text>
</a>
</g>
</g>
<!-- Node9&#45;&gt;Node10 -->
<g id="edge10" class="edge">
<title>Node9&#45;&gt;Node10</title>
<path fill="none" stroke="#63b8ff" d="M534.49,-99.66C535.64,-90.93 536.95,-80.99 537.87,-74.09"/>
<polygon fill="#63b8ff" stroke="#63b8ff" points="531,-99.38 533.16,-109.75 537.94,-100.29 531,-99.38"/>
</g>
<!-- Node11 -->
<g id="node11" class="node">
<title>Node11</title>
<g id="a_node11"><a xlink:href="library_8hpp.html" target="_top" xlink:title="Defines test task classes for the Weighted&#45;Hierarchical&#45;QP solver.">
<polygon fill="white" stroke="#666666" points="345.5,-74 250.5,-74 250.5,-55 345.5,-55 345.5,-74"/>
<text text-anchor="middle" x="298" y="-62" font-family="Helvetica,sans-Serif" font-size="10.00">tests/library.hpp</text>
</a>
</g>
</g>
<!-- Node9&#45;&gt;Node11 -->
<g id="edge14" class="edge">
<title>Node9&#45;&gt;Node11</title>
<path fill="none" stroke="#63b8ff" d="M484.55,-107.75C440.7,-97.82 376.4,-83.26 335.89,-74.08"/>
<polygon fill="#63b8ff" stroke="#63b8ff" points="483.88,-111.19 494.4,-109.98 485.42,-104.36 483.88,-111.19"/>
</g>
<!-- Node11&#45;&gt;Node4 -->
<g id="edge15" class="edge">
<title>Node11&#45;&gt;Node4</title>
<path fill="none" stroke="#63b8ff" d="M289.52,-45.53C285.31,-36.6 280.41,-26.22 277.05,-19.09"/>
<polygon fill="#63b8ff" stroke="#63b8ff" points="286.44,-47.2 293.87,-54.75 292.77,-44.21 286.44,-47.2"/>
</g>
<!-- Node11&#45;&gt;Node5 -->
<g id="edge16" class="edge">
<title>Node11&#45;&gt;Node5</title>
<path fill="none" stroke="#63b8ff" d="M329.1,-51.29C354.12,-41.47 388.66,-27.91 410.92,-19.17"/>
<polygon fill="#63b8ff" stroke="#63b8ff" points="327.72,-48.07 319.69,-54.98 330.28,-54.59 327.72,-48.07"/>
</g>
<!-- Node12 -->
<g id="node12" class="node">
<title>Node12</title>
<g id="a_node12"><a xlink:href="library_8cpp.html" target="_top" xlink:title="Implements the run() functions for various test tasks.">
<polygon fill="white" stroke="#666666" points="184,-19 90,-19 90,0 184,0 184,-19"/>
<text text-anchor="middle" x="137" y="-7" font-family="Helvetica,sans-Serif" font-size="10.00">tests/library.cpp</text>
</a>
</g>
</g>
<!-- Node11&#45;&gt;Node12 -->
<g id="edge17" class="edge">
<title>Node11&#45;&gt;Node12</title>
<path fill="none" stroke="#63b8ff" d="M262.45,-51.8C232.41,-41.91 190.06,-27.97 163.07,-19.08"/>
<polygon fill="#63b8ff" stroke="#63b8ff" points="261.54,-55.18 272.13,-54.98 263.73,-48.53 261.54,-55.18"/>
</g>
</g>
</svg>
