<?xml version="1.0" encoding="UTF-8" standalone="no"?>
<!DOCTYPE svg PUBLIC "-//W3C//DTD SVG 1.1//EN"
 "http://www.w3.org/Graphics/SVG/1.1/DTD/svg11.dtd">
<!-- Generated by graphviz version 2.43.0 (0)
 -->
<!-- Title: include/utils.hpp Pages: 1 -->
<svg width="933pt" height="192pt"
 viewBox="0.00 0.00 933.00 192.00" xmlns="http://www.w3.org/2000/svg" xmlns:xlink="http://www.w3.org/1999/xlink">
<g id="graph0" class="graph" transform="scale(1 1) rotate(0) translate(4 188)">
<title>include/utils.hpp</title>
<!-- Node1 -->
<g id="node1" class="node">
<title>Node1</title>
<g id="a_node1"><a xlink:title="Declares common utility functions used throughout the HQP solver.">
<polygon fill="#999999" stroke="#666666" points="437.5,-184 340.5,-184 340.5,-165 437.5,-165 437.5,-184"/>
<text text-anchor="middle" x="389" y="-172" font-family="Helvetica,sans-Serif" font-size="10.00">include/utils.hpp</text>
</a>
</g>
</g>
<!-- Node2 -->
<g id="node2" class="node">
<title>Node2</title>
<g id="a_node2"><a xlink:href="hqp_8hpp.html" target="_top" xlink:title="Main interface for the Weighted&#45;Hierarchical&#45;QP solver.">
<polygon fill="white" stroke="#666666" points="475,-74 381,-74 381,-55 475,-55 475,-74"/>
<text text-anchor="middle" x="428" y="-62" font-family="Helvetica,sans-Serif" font-size="10.00">include/hqp.hpp</text>
</a>
</g>
</g>
<!-- Node1&#45;&gt;Node2 -->
<g id="edge1" class="edge">
<title>Node1&#45;&gt;Node2</title>
<path fill="none" stroke="#63b8ff" d="M397.67,-155.65C401.41,-147.6 405.67,-137.93 409,-129 416.15,-109.81 422.54,-86.6 425.77,-74.25"/>
<polygon fill="#63b8ff" stroke="#63b8ff" points="394.46,-154.24 393.33,-164.78 400.79,-157.25 394.46,-154.24"/>
</g>
<!-- Node8 -->
<g id="node8" class="node">
<title>Node8</title>
<g id="a_node8"><a xlink:href="task_8hpp.html" target="_top" xlink:title="Declares the abstract Task interface and its derivatives used in the HQP solver.">
<polygon fill="white" stroke="#666666" points="399.5,-129 302.5,-129 302.5,-110 399.5,-110 399.5,-129"/>
<text text-anchor="middle" x="351" y="-117" font-family="Helvetica,sans-Serif" font-size="10.00">include/task.hpp</text>
</a>
</g>
</g>
<!-- Node1&#45;&gt;Node8 -->
<g id="edge7" class="edge">
<title>Node1&#45;&gt;Node8</title>
<path fill="none" stroke="#63b8ff" d="M376.73,-156.39C370.19,-147.27 362.43,-136.45 357.16,-129.09"/>
<polygon fill="#63b8ff" stroke="#63b8ff" points="374.05,-158.66 382.73,-164.75 379.74,-154.58 374.05,-158.66"/>
</g>
<!-- Node3 -->
<g id="node3" class="node">
<title>Node3</title>
<g id="a_node3"><a xlink:href="00__basic__select_8cpp.html" target="_top" xlink:title=" ">
<polygon fill="white" stroke="#666666" points="812.5,-19 671.5,-19 671.5,0 812.5,0 812.5,-19"/>
<text text-anchor="middle" x="742" y="-7" font-family="Helvetica,sans-Serif" font-size="10.00">tests/00_basic_select.cpp</text>
</a>
</g>
</g>
<!-- Node2&#45;&gt;Node3 -->
<g id="edge2" class="edge">
<title>Node2&#45;&gt;Node3</title>
<path fill="none" stroke="#63b8ff" d="M484.9,-53.9C543.85,-43.95 635.09,-28.54 691.55,-19.02"/>
<polygon fill="#63b8ff" stroke="#63b8ff" points="484.29,-50.45 475.01,-55.57 485.45,-57.35 484.29,-50.45"/>
</g>
<!-- Node4 -->
<g id="node4" class="node">
<title>Node4</title>
<g id="a_node4"><a xlink:href="01__metric__swap_8cpp.html" target="_top" xlink:title=" ">
<polygon fill="white" stroke="#666666" points="653.5,-19 510.5,-19 510.5,0 653.5,0 653.5,-19"/>
<text text-anchor="middle" x="582" y="-7" font-family="Helvetica,sans-Serif" font-size="10.00">tests/01_metric_swap.cpp</text>
</a>
</g>
</g>
<!-- Node2&#45;&gt;Node4 -->
<g id="edge3" class="edge">
<title>Node2&#45;&gt;Node4</title>
<path fill="none" stroke="#63b8ff" d="M462.38,-51.67C491.09,-41.79 531.36,-27.93 557.06,-19.08"/>
<polygon fill="#63b8ff" stroke="#63b8ff" points="461.06,-48.42 452.74,-54.98 463.34,-55.04 461.06,-48.42"/>
</g>
<!-- Node5 -->
<g id="node5" class="node">
<title>Node5</title>
<g id="a_node5"><a xlink:href="02__compare__solvers_8cpp.html" target="_top" xlink:title=" ">
<polygon fill="white" stroke="#666666" points="346,-19 182,-19 182,0 346,0 346,-19"/>
<text text-anchor="middle" x="264" y="-7" font-family="Helvetica,sans-Serif" font-size="10.00">tests/02_compare_solvers.cpp</text>
</a>
</g>
</g>
<!-- Node2&#45;&gt;Node5 -->
<g id="edge4" class="edge">
<title>Node2&#45;&gt;Node5</title>
<path fill="none" stroke="#63b8ff" d="M391.79,-51.8C361.18,-41.91 318.05,-27.97 290.56,-19.08"/>
<polygon fill="#63b8ff" stroke="#63b8ff" points="391.06,-55.24 401.65,-54.98 393.21,-48.58 391.06,-55.24"/>
</g>
<!-- Node6 -->
<g id="node6" class="node">
<title>Node6</title>
<g id="a_node6"><a xlink:href="03__set__stack_8cpp.html" target="_top" xlink:title=" ">
<polygon fill="white" stroke="#666666" points="492,-19 364,-19 364,0 492,0 492,-19"/>
<text text-anchor="middle" x="428" y="-7" font-family="Helvetica,sans-Serif" font-size="10.00">tests/03_set_stack.cpp</text>
</a>
</g>
</g>
<!-- Node2&#45;&gt;Node6 -->
<g id="edge5" class="edge">
<title>Node2&#45;&gt;Node6</title>
<path fill="none" stroke="#63b8ff" d="M428,-44.66C428,-35.93 428,-25.99 428,-19.09"/>
<polygon fill="#63b8ff" stroke="#63b8ff" points="424.5,-44.75 428,-54.75 431.5,-44.75 424.5,-44.75"/>
</g>
<!-- Node7 -->
<g id="node7" class="node">
<title>Node7</title>
<g id="a_node7"><a xlink:href="04__random__problem_8cpp.html" target="_top" xlink:title=" ">
<polygon fill="white" stroke="#666666" points="164,-19 0,-19 0,0 164,0 164,-19"/>
<text text-anchor="middle" x="82" y="-7" font-family="Helvetica,sans-Serif" font-size="10.00">tests/04_random_problem.cpp</text>
</a>
</g>
</g>
<!-- Node2&#45;&gt;Node7 -->
<g id="edge6" class="edge">
<title>Node2&#45;&gt;Node7</title>
<path fill="none" stroke="#63b8ff" d="M370.95,-54.76C306.28,-44.85 201.53,-28.81 137.5,-19"/>
<polygon fill="#63b8ff" stroke="#63b8ff" points="370.56,-58.24 380.98,-56.3 371.62,-51.32 370.56,-58.24"/>
</g>
<!-- Node8&#45;&gt;Node2 -->
<g id="edge8" class="edge">
<title>Node8&#45;&gt;Node2</title>
<path fill="none" stroke="#63b8ff" d="M371.85,-104.15C385.76,-94.57 403.61,-82.29 415.4,-74.17"/>
<polygon fill="#63b8ff" stroke="#63b8ff" points="369.62,-101.43 363.37,-109.98 373.59,-107.2 369.62,-101.43"/>
</g>
<!-- Node8&#45;&gt;Node5 -->
<g id="edge9" class="edge">
<title>Node8&#45;&gt;Node5</title>
<path fill="none" stroke="#63b8ff" d="M337.46,-101.69C318.67,-78.37 285.39,-37.05 270.97,-19.16"/>
<polygon fill="#63b8ff" stroke="#63b8ff" points="334.88,-104.07 343.88,-109.66 340.33,-99.68 334.88,-104.07"/>
</g>
<!-- Node8&#45;&gt;Node6 -->
<g id="edge10" class="edge">
<title>Node8&#45;&gt;Node6</title>
<path fill="none" stroke="#63b8ff" d="M354.16,-100.03C357.12,-86.63 362.55,-68.54 372,-55 382.73,-39.62 400.29,-26.9 412.88,-19.06"/>
<polygon fill="#63b8ff" stroke="#63b8ff" points="350.7,-99.51 352.22,-109.99 357.57,-100.85 350.7,-99.51"/>
</g>
<!-- Node8&#45;&gt;Node7 -->
<g id="edge11" class="edge">
<title>Node8&#45;&gt;Node7</title>
<path fill="none" stroke="#63b8ff" d="M319.82,-105.98C264.51,-83.77 150.57,-38.03 103.29,-19.05"/>
<polygon fill="#63b8ff" stroke="#63b8ff" points="318.86,-109.37 329.44,-109.84 321.47,-102.87 318.86,-109.37"/>
</g>
<!-- Node9 -->
<g id="node9" class="node">
<title>Node9</title>
<g id="a_node9"><a xlink:href="library_8hpp.html" target="_top" xlink:title="Defines test task classes for the Weighted&#45;Hierarchical&#45;QP solver.">
<polygon fill="white" stroke="#666666" points="709.5,-74 614.5,-74 614.5,-55 709.5,-55 709.5,-74"/>
<text text-anchor="middle" x="662" y="-62" font-family="Helvetica,sans-Serif" font-size="10.00">tests/library.hpp</text>
</a>
</g>
</g>
<!-- Node8&#45;&gt;Node9 -->
<g id="edge12" class="edge">
<title>Node8&#45;&gt;Node9</title>
<path fill="none" stroke="#63b8ff" d="M409.55,-108.52C468.78,-98.43 559.23,-83.01 614.26,-73.64"/>
<polygon fill="#63b8ff" stroke="#63b8ff" points="408.86,-105.09 399.59,-110.22 410.04,-111.99 408.86,-105.09"/>
</g>
<!-- Node9&#45;&gt;Node3 -->
<g id="edge13" class="edge">
<title>Node9&#45;&gt;Node3</title>
<path fill="none" stroke="#63b8ff" d="M683.25,-49.42C697.76,-39.81 716.54,-27.37 728.91,-19.17"/>
<polygon fill="#63b8ff" stroke="#63b8ff" points="681.26,-46.54 674.85,-54.98 685.12,-52.38 681.26,-46.54"/>
</g>
<!-- Node9&#45;&gt;Node4 -->
<g id="edge14" class="edge">
<title>Node9&#45;&gt;Node4</title>
<path fill="none" stroke="#63b8ff" d="M640.75,-49.42C626.24,-39.81 607.46,-27.37 595.09,-19.17"/>
<polygon fill="#63b8ff" stroke="#63b8ff" points="638.88,-52.38 649.15,-54.98 642.74,-46.54 638.88,-52.38"/>
</g>
<!-- Node10 -->
<g id="node10" class="node">
<title>Node10</title>
<g id="a_node10"><a xlink:href="library_8cpp.html" target="_top" xlink:title=" ">
<polygon fill="white" stroke="#666666" points="925,-19 831,-19 831,0 925,0 925,-19"/>
<text text-anchor="middle" x="878" y="-7" font-family="Helvetica,sans-Serif" font-size="10.00">tests/library.cpp</text>
</a>
</g>
</g>
<!-- Node9&#45;&gt;Node10 -->
<g id="edge15" class="edge">
<title>Node9&#45;&gt;Node10</title>
<path fill="none" stroke="#63b8ff" d="M706.57,-52.56C747.02,-42.64 805.87,-28.2 843.02,-19.08"/>
<polygon fill="#63b8ff" stroke="#63b8ff" points="705.58,-49.2 696.7,-54.98 707.25,-56 705.58,-49.2"/>
</g>
</g>
</svg>
