<?xml version="1.0" encoding="UTF-8" standalone="no"?>
<!DOCTYPE svg PUBLIC "-//W3C//DTD SVG 1.1//EN"
 "http://www.w3.org/Graphics/SVG/1.1/DTD/svg11.dtd">
<!-- Generated by graphviz version 2.43.0 (0)
 -->
<!-- Title: include/utils.hpp Pages: 1 -->
<svg width="513pt" height="192pt"
 viewBox="0.00 0.00 513.00 192.00" xmlns="http://www.w3.org/2000/svg" xmlns:xlink="http://www.w3.org/1999/xlink">
<g id="graph0" class="graph" transform="scale(1 1) rotate(0) translate(4 188)">
<title>include/utils.hpp</title>
<!-- Node1 -->
<g id="node1" class="node">
<title>Node1</title>
<g id="a_node1"><a xlink:title="Declares common utility functions used throughout the HQP solver.">
<polygon fill="#999999" stroke="#666666" points="247.5,-184 150.5,-184 150.5,-165 247.5,-165 247.5,-184"/>
<text text-anchor="middle" x="199" y="-172" font-family="Helvetica,sans-Serif" font-size="10.00">include/utils.hpp</text>
</a>
</g>
</g>
<!-- Node2 -->
<g id="node2" class="node">
<title>Node2</title>
<g id="a_node2"><a xlink:href="hqp_8hpp.html" target="_top" xlink:title="Main interface for the Weighted&#45;Hierarchical&#45;QP solver.">
<polygon fill="white" stroke="#666666" points="208,-74 114,-74 114,-55 208,-55 208,-74"/>
<text text-anchor="middle" x="161" y="-62" font-family="Helvetica,sans-Serif" font-size="10.00">include/hqp.hpp</text>
</a>
</g>
</g>
<!-- Node1&#45;&gt;Node2 -->
<g id="edge1" class="edge">
<title>Node1&#45;&gt;Node2</title>
<path fill="none" stroke="#63b8ff" d="M191.25,-155.28C187.94,-147.27 184.13,-137.73 181,-129 174.05,-109.64 167.09,-86.5 163.5,-74.2"/>
<polygon fill="#63b8ff" stroke="#63b8ff" points="188.11,-156.85 195.21,-164.71 194.57,-154.14 188.11,-156.85"/>
</g>
<!-- Node3 -->
<g id="node3" class="node">
<title>Node3</title>
<g id="a_node3"><a xlink:href="hqp_8cpp.html" target="_top" xlink:title=" ">
<polygon fill="white" stroke="#666666" points="72,-19 0,-19 0,0 72,0 72,-19"/>
<text text-anchor="middle" x="36" y="-7" font-family="Helvetica,sans-Serif" font-size="10.00">src/hqp.cpp</text>
</a>
</g>
</g>
<!-- Node1&#45;&gt;Node3 -->
<g id="edge12" class="edge">
<title>Node1&#45;&gt;Node3</title>
<path fill="none" stroke="#63b8ff" d="M182.99,-157.49C149.09,-123.59 71.07,-45.57 44.81,-19.31"/>
<polygon fill="#63b8ff" stroke="#63b8ff" points="180.69,-160.14 190.24,-164.74 185.64,-155.19 180.69,-160.14"/>
</g>
<!-- Node6 -->
<g id="node6" class="node">
<title>Node6</title>
<g id="a_node6"><a xlink:href="task_8hpp.html" target="_top" xlink:title="Declares the abstract Task interface and its derivatives used in the HQP solver.">
<polygon fill="white" stroke="#666666" points="286.5,-129 189.5,-129 189.5,-110 286.5,-110 286.5,-129"/>
<text text-anchor="middle" x="238" y="-117" font-family="Helvetica,sans-Serif" font-size="10.00">include/task.hpp</text>
</a>
</g>
</g>
<!-- Node1&#45;&gt;Node6 -->
<g id="edge5" class="edge">
<title>Node1&#45;&gt;Node6</title>
<path fill="none" stroke="#63b8ff" d="M211.38,-156.67C218.14,-147.5 226.21,-136.52 231.68,-129.09"/>
<polygon fill="#63b8ff" stroke="#63b8ff" points="208.55,-154.62 205.44,-164.75 214.19,-158.77 208.55,-154.62"/>
</g>
<!-- Node10 -->
<g id="node10" class="node">
<title>Node10</title>
<g id="a_node10"><a xlink:href="utils_8cpp.html" target="_top" xlink:title=" ">
<polygon fill="white" stroke="#666666" points="379.5,-129 304.5,-129 304.5,-110 379.5,-110 379.5,-129"/>
<text text-anchor="middle" x="342" y="-117" font-family="Helvetica,sans-Serif" font-size="10.00">src/utils.cpp</text>
</a>
</g>
</g>
<!-- Node1&#45;&gt;Node10 -->
<g id="edge13" class="edge">
<title>Node1&#45;&gt;Node10</title>
<path fill="none" stroke="#63b8ff" d="M231.59,-161.42C258.12,-151.59 294.93,-137.95 318.61,-129.17"/>
<polygon fill="#63b8ff" stroke="#63b8ff" points="230.14,-158.23 221.98,-164.98 232.57,-164.79 230.14,-158.23"/>
</g>
<!-- Node2&#45;&gt;Node3 -->
<g id="edge2" class="edge">
<title>Node2&#45;&gt;Node3</title>
<path fill="none" stroke="#63b8ff" d="M131.59,-51.03C108.47,-41.23 76.87,-27.83 56.45,-19.17"/>
<polygon fill="#63b8ff" stroke="#63b8ff" points="130.34,-54.3 140.92,-54.98 133.08,-47.86 130.34,-54.3"/>
</g>
<!-- Node4 -->
<g id="node4" class="node">
<title>Node4</title>
<g id="a_node4"><a xlink:href="00__basic__select_8cpp.html" target="_top" xlink:title=" ">
<polygon fill="white" stroke="#666666" points="231.5,-19 90.5,-19 90.5,0 231.5,0 231.5,-19"/>
<text text-anchor="middle" x="161" y="-7" font-family="Helvetica,sans-Serif" font-size="10.00">tests/00_basic_select.cpp</text>
</a>
</g>
</g>
<!-- Node2&#45;&gt;Node4 -->
<g id="edge3" class="edge">
<title>Node2&#45;&gt;Node4</title>
<path fill="none" stroke="#63b8ff" d="M161,-44.66C161,-35.93 161,-25.99 161,-19.09"/>
<polygon fill="#63b8ff" stroke="#63b8ff" points="157.5,-44.75 161,-54.75 164.5,-44.75 157.5,-44.75"/>
</g>
<!-- Node5 -->
<g id="node5" class="node">
<title>Node5</title>
<g id="a_node5"><a xlink:href="01__metric__swap_8cpp.html" target="_top" xlink:title=" ">
<polygon fill="white" stroke="#666666" points="392.5,-19 249.5,-19 249.5,0 392.5,0 392.5,-19"/>
<text text-anchor="middle" x="321" y="-7" font-family="Helvetica,sans-Serif" font-size="10.00">tests/01_metric_swap.cpp</text>
</a>
</g>
</g>
<!-- Node2&#45;&gt;Node5 -->
<g id="edge4" class="edge">
<title>Node2&#45;&gt;Node5</title>
<path fill="none" stroke="#63b8ff" d="M196.33,-51.8C226.19,-41.91 268.27,-27.97 295.09,-19.08"/>
<polygon fill="#63b8ff" stroke="#63b8ff" points="195.1,-48.52 186.71,-54.98 197.3,-55.16 195.1,-48.52"/>
</g>
<!-- Node6&#45;&gt;Node2 -->
<g id="edge6" class="edge">
<title>Node6&#45;&gt;Node2</title>
<path fill="none" stroke="#63b8ff" d="M217.15,-104.15C203.24,-94.57 185.39,-82.29 173.6,-74.17"/>
<polygon fill="#63b8ff" stroke="#63b8ff" points="215.41,-107.2 225.63,-109.98 219.38,-101.43 215.41,-107.2"/>
</g>
<!-- Node7 -->
<g id="node7" class="node">
<title>Node7</title>
<g id="a_node7"><a xlink:href="task_8cpp.html" target="_top" xlink:title="Implements the methods declared in task.hpp.">
<polygon fill="white" stroke="#666666" points="414.5,-74 339.5,-74 339.5,-55 414.5,-55 414.5,-74"/>
<text text-anchor="middle" x="377" y="-62" font-family="Helvetica,sans-Serif" font-size="10.00">src/task.cpp</text>
</a>
</g>
</g>
<!-- Node6&#45;&gt;Node7 -->
<g id="edge7" class="edge">
<title>Node6&#45;&gt;Node7</title>
<path fill="none" stroke="#63b8ff" d="M269.68,-106.42C295.47,-96.59 331.24,-82.95 354.26,-74.17"/>
<polygon fill="#63b8ff" stroke="#63b8ff" points="268.43,-103.15 260.33,-109.98 270.92,-109.69 268.43,-103.15"/>
</g>
<!-- Node8 -->
<g id="node8" class="node">
<title>Node8</title>
<g id="a_node8"><a xlink:href="library_8hpp.html" target="_top" xlink:title="Defines test task classes for the Weighted&#45;Hierarchical&#45;QP solver.">
<polygon fill="white" stroke="#666666" points="321.5,-74 226.5,-74 226.5,-55 321.5,-55 321.5,-74"/>
<text text-anchor="middle" x="274" y="-62" font-family="Helvetica,sans-Serif" font-size="10.00">tests/library.hpp</text>
</a>
</g>
</g>
<!-- Node6&#45;&gt;Node8 -->
<g id="edge8" class="edge">
<title>Node6&#45;&gt;Node8</title>
<path fill="none" stroke="#63b8ff" d="M249.62,-101.39C255.82,-92.27 263.17,-81.45 268.17,-74.09"/>
<polygon fill="#63b8ff" stroke="#63b8ff" points="246.67,-99.51 243.94,-109.75 252.46,-103.44 246.67,-99.51"/>
</g>
<!-- Node8&#45;&gt;Node4 -->
<g id="edge9" class="edge">
<title>Node8&#45;&gt;Node4</title>
<path fill="none" stroke="#63b8ff" d="M246.57,-50.63C225.75,-40.87 197.7,-27.71 179.49,-19.17"/>
<polygon fill="#63b8ff" stroke="#63b8ff" points="245.3,-53.91 255.84,-54.98 248.28,-47.57 245.3,-53.91"/>
</g>
<!-- Node8&#45;&gt;Node5 -->
<g id="edge10" class="edge">
<title>Node8&#45;&gt;Node5</title>
<path fill="none" stroke="#63b8ff" d="M288.42,-47.24C296.66,-37.95 306.65,-26.68 313.38,-19.09"/>
<polygon fill="#63b8ff" stroke="#63b8ff" points="285.78,-44.94 281.76,-54.75 291.01,-49.59 285.78,-44.94"/>
</g>
<!-- Node9 -->
<g id="node9" class="node">
<title>Node9</title>
<g id="a_node9"><a xlink:href="library_8cpp.html" target="_top" xlink:title="Implements the run() functions for various test tasks.">
<polygon fill="white" stroke="#666666" points="505,-19 411,-19 411,0 505,0 505,-19"/>
<text text-anchor="middle" x="458" y="-7" font-family="Helvetica,sans-Serif" font-size="10.00">tests/library.cpp</text>
</a>
</g>
</g>
<!-- Node8&#45;&gt;Node9 -->
<g id="edge11" class="edge">
<title>Node8&#45;&gt;Node9</title>
<path fill="none" stroke="#63b8ff" d="M313.29,-52.18C347.7,-42.27 396.96,-28.08 428.21,-19.08"/>
<polygon fill="#63b8ff" stroke="#63b8ff" points="312.2,-48.85 303.56,-54.98 314.14,-55.58 312.2,-48.85"/>
</g>
</g>
</svg>
