<?xml version="1.0" encoding="UTF-8" standalone="no"?>
<!DOCTYPE svg PUBLIC "-//W3C//DTD SVG 1.1//EN"
 "http://www.w3.org/Graphics/SVG/1.1/DTD/svg11.dtd">
<!-- Generated by graphviz version 2.43.0 (0)
 -->
<!-- Title: src/utils.cpp Pages: 1 -->
<svg width="686pt" height="137pt"
 viewBox="0.00 0.00 686.00 137.00" xmlns="http://www.w3.org/2000/svg" xmlns:xlink="http://www.w3.org/1999/xlink">
<g id="graph0" class="graph" transform="scale(1 1) rotate(0) translate(4 133)">
<title>src/utils.cpp</title>
<!-- Node1 -->
<g id="node1" class="node">
<title>Node1</title>
<g id="a_node1"><a xlink:title=" ">
<polygon fill="#999999" stroke="#666666" points="271.5,-129 196.5,-129 196.5,-110 271.5,-110 271.5,-129"/>
<text text-anchor="middle" x="234" y="-117" font-family="Helvetica,sans-Serif" font-size="10.00">src/utils.cpp</text>
</a>
</g>
</g>
<!-- Node2 -->
<g id="node2" class="node">
<title>Node2</title>
<g id="a_node2"><a xlink:title=" ">
<polygon fill="#e0e0e0" stroke="#999999" points="50,-74 0,-74 0,-55 50,-55 50,-74"/>
<text text-anchor="middle" x="25" y="-62" font-family="Helvetica,sans-Serif" font-size="10.00">chrono</text>
</a>
</g>
</g>
<!-- Node1&#45;&gt;Node2 -->
<g id="edge1" class="edge">
<title>Node1&#45;&gt;Node2</title>
<path fill="none" stroke="#63b8ff" d="M200.42,-109.98C161.97,-100.23 99.27,-84.33 60.16,-74.42"/>
<polygon fill="#63b8ff" stroke="#63b8ff" points="60.83,-70.98 50.28,-71.91 59.11,-77.76 60.83,-70.98"/>
</g>
<!-- Node3 -->
<g id="node3" class="node">
<title>Node3</title>
<g id="a_node3"><a xlink:title=" ">
<polygon fill="#e0e0e0" stroke="#999999" points="112,-74 68,-74 68,-55 112,-55 112,-74"/>
<text text-anchor="middle" x="90" y="-62" font-family="Helvetica,sans-Serif" font-size="10.00">ctime</text>
</a>
</g>
</g>
<!-- Node1&#45;&gt;Node3 -->
<g id="edge2" class="edge">
<title>Node1&#45;&gt;Node3</title>
<path fill="none" stroke="#63b8ff" d="M210.86,-109.98C186.75,-101.11 148.8,-87.14 121.87,-77.23"/>
<polygon fill="#63b8ff" stroke="#63b8ff" points="122.73,-73.82 112.13,-73.65 120.31,-80.38 122.73,-73.82"/>
</g>
<!-- Node4 -->
<g id="node4" class="node">
<title>Node4</title>
<g id="a_node4"><a xlink:title=" ">
<polygon fill="#e0e0e0" stroke="#999999" points="185.5,-74 130.5,-74 130.5,-55 185.5,-55 185.5,-74"/>
<text text-anchor="middle" x="158" y="-62" font-family="Helvetica,sans-Serif" font-size="10.00">fstream</text>
</a>
</g>
</g>
<!-- Node1&#45;&gt;Node4 -->
<g id="edge3" class="edge">
<title>Node1&#45;&gt;Node4</title>
<path fill="none" stroke="#63b8ff" d="M221.79,-109.98C210.22,-101.92 192.62,-89.65 178.84,-80.03"/>
<polygon fill="#63b8ff" stroke="#63b8ff" points="180.64,-77.02 170.43,-74.17 176.63,-82.76 180.64,-77.02"/>
</g>
<!-- Node5 -->
<g id="node5" class="node">
<title>Node5</title>
<g id="a_node5"><a xlink:title=" ">
<polygon fill="#e0e0e0" stroke="#999999" points="264,-74 204,-74 204,-55 264,-55 264,-74"/>
<text text-anchor="middle" x="234" y="-62" font-family="Helvetica,sans-Serif" font-size="10.00">iostream</text>
</a>
</g>
</g>
<!-- Node1&#45;&gt;Node5 -->
<g id="edge4" class="edge">
<title>Node1&#45;&gt;Node5</title>
<path fill="none" stroke="#63b8ff" d="M234,-109.75C234,-102.8 234,-92.85 234,-84.13"/>
<polygon fill="#63b8ff" stroke="#63b8ff" points="237.5,-84.09 234,-74.09 230.5,-84.09 237.5,-84.09"/>
</g>
<!-- Node6 -->
<g id="node6" class="node">
<title>Node6</title>
<g id="a_node6"><a xlink:title=" ">
<polygon fill="#e0e0e0" stroke="#999999" points="288,-19 244,-19 244,0 288,0 288,-19"/>
<text text-anchor="middle" x="266" y="-7" font-family="Helvetica,sans-Serif" font-size="10.00">string</text>
</a>
</g>
</g>
<!-- Node1&#45;&gt;Node6 -->
<g id="edge5" class="edge">
<title>Node1&#45;&gt;Node6</title>
<path fill="none" stroke="#63b8ff" d="M244.99,-109.99C254.45,-101.9 267.43,-88.81 273,-74 278.49,-59.4 275.84,-41.68 272.33,-28.67"/>
<polygon fill="#63b8ff" stroke="#63b8ff" points="275.64,-27.54 269.34,-19.03 268.96,-29.61 275.64,-27.54"/>
</g>
<!-- Node7 -->
<g id="node7" class="node">
<title>Node7</title>
<g id="a_node7"><a xlink:title=" ">
<polygon fill="#e0e0e0" stroke="#999999" points="353.5,-19 306.5,-19 306.5,0 353.5,0 353.5,-19"/>
<text text-anchor="middle" x="330" y="-7" font-family="Helvetica,sans-Serif" font-size="10.00">vector</text>
</a>
</g>
</g>
<!-- Node1&#45;&gt;Node7 -->
<g id="edge6" class="edge">
<title>Node1&#45;&gt;Node7</title>
<path fill="none" stroke="#63b8ff" d="M246.76,-109.96C258.57,-101.66 276.19,-88.25 289,-74 301.58,-60 312.93,-41.75 320.49,-28.41"/>
<polygon fill="#63b8ff" stroke="#63b8ff" points="323.73,-29.77 325.48,-19.32 317.6,-26.4 323.73,-29.77"/>
</g>
<!-- Node8 -->
<g id="node8" class="node">
<title>Node8</title>
<g id="a_node8"><a xlink:href="utils_8hpp.html" target="_top" xlink:title="Declares common utility functions used throughout the HQP solver.">
<polygon fill="white" stroke="#666666" points="435.5,-74 376.5,-74 376.5,-55 435.5,-55 435.5,-74"/>
<text text-anchor="middle" x="406" y="-62" font-family="Helvetica,sans-Serif" font-size="10.00">utils.hpp</text>
</a>
</g>
</g>
<!-- Node1&#45;&gt;Node8 -->
<g id="edge7" class="edge">
<title>Node1&#45;&gt;Node8</title>
<path fill="none" stroke="#63b8ff" d="M261.63,-109.98C290.51,-101.09 336.01,-87.07 368.2,-77.15"/>
<polygon fill="#63b8ff" stroke="#63b8ff" points="369.62,-80.37 378.15,-74.08 367.56,-73.68 369.62,-80.37"/>
</g>
<!-- Node8&#45;&gt;Node6 -->
<g id="edge10" class="edge">
<title>Node8&#45;&gt;Node6</title>
<path fill="none" stroke="#63b8ff" d="M383.51,-54.98C360.34,-46.21 324.03,-32.47 297.9,-22.58"/>
<polygon fill="#63b8ff" stroke="#63b8ff" points="299.03,-19.26 288.44,-18.99 296.55,-25.81 299.03,-19.26"/>
</g>
<!-- Node8&#45;&gt;Node7 -->
<g id="edge12" class="edge">
<title>Node8&#45;&gt;Node7</title>
<path fill="none" stroke="#63b8ff" d="M393.79,-54.98C382.22,-46.92 364.62,-34.65 350.84,-25.03"/>
<polygon fill="#63b8ff" stroke="#63b8ff" points="352.64,-22.02 342.43,-19.17 348.63,-27.76 352.64,-22.02"/>
</g>
<!-- Node9 -->
<g id="node9" class="node">
<title>Node9</title>
<g id="a_node9"><a xlink:title=" ">
<polygon fill="#e0e0e0" stroke="#999999" points="612,-19 554,-19 554,0 612,0 612,-19"/>
<text text-anchor="middle" x="583" y="-7" font-family="Helvetica,sans-Serif" font-size="10.00">memory</text>
</a>
</g>
</g>
<!-- Node8&#45;&gt;Node9 -->
<g id="edge8" class="edge">
<title>Node8&#45;&gt;Node9</title>
<path fill="none" stroke="#63b8ff" d="M434.44,-54.98C464.28,-46.05 511.38,-31.94 544.53,-22.02"/>
<polygon fill="#63b8ff" stroke="#63b8ff" points="545.76,-25.3 554.34,-19.08 543.76,-18.6 545.76,-25.3"/>
</g>
<!-- Node10 -->
<g id="node10" class="node">
<title>Node10</title>
<g id="a_node10"><a xlink:title=" ">
<polygon fill="#e0e0e0" stroke="#999999" points="678,-19 630,-19 630,0 678,0 678,-19"/>
<text text-anchor="middle" x="654" y="-7" font-family="Helvetica,sans-Serif" font-size="10.00">mutex</text>
</a>
</g>
</g>
<!-- Node8&#45;&gt;Node10 -->
<g id="edge9" class="edge">
<title>Node8&#45;&gt;Node10</title>
<path fill="none" stroke="#63b8ff" d="M435.66,-57.83C475.35,-50.14 548.17,-35.67 619.79,-19.19"/>
<polygon fill="#63b8ff" stroke="#63b8ff" points="620.93,-22.52 629.88,-16.85 619.35,-15.7 620.93,-22.52"/>
</g>
<!-- Node11 -->
<g id="node11" class="node">
<title>Node11</title>
<g id="a_node11"><a xlink:title=" ">
<polygon fill="#e0e0e0" stroke="#999999" points="440.5,-19 371.5,-19 371.5,0 440.5,0 440.5,-19"/>
<text text-anchor="middle" x="406" y="-7" font-family="Helvetica,sans-Serif" font-size="10.00">type_traits</text>
</a>
</g>
</g>
<!-- Node8&#45;&gt;Node11 -->
<g id="edge11" class="edge">
<title>Node8&#45;&gt;Node11</title>
<path fill="none" stroke="#63b8ff" d="M406,-54.75C406,-47.8 406,-37.85 406,-29.13"/>
<polygon fill="#63b8ff" stroke="#63b8ff" points="409.5,-29.09 406,-19.09 402.5,-29.09 409.5,-29.09"/>
</g>
<!-- Node12 -->
<g id="node12" class="node">
<title>Node12</title>
<g id="a_node12"><a xlink:title=" ">
<polygon fill="#e0e0e0" stroke="#999999" points="535.5,-19 458.5,-19 458.5,0 535.5,0 535.5,-19"/>
<text text-anchor="middle" x="497" y="-7" font-family="Helvetica,sans-Serif" font-size="10.00">Eigen/Dense</text>
</a>
</g>
</g>
<!-- Node8&#45;&gt;Node12 -->
<g id="edge13" class="edge">
<title>Node8&#45;&gt;Node12</title>
<path fill="none" stroke="#63b8ff" d="M420.62,-54.98C434.86,-46.69 456.75,-33.94 473.45,-24.22"/>
<polygon fill="#63b8ff" stroke="#63b8ff" points="475.23,-27.23 482.11,-19.17 471.71,-21.18 475.23,-27.23"/>
</g>
</g>
</svg>
