<?xml version="1.0" encoding="UTF-8" standalone="no"?>
<!DOCTYPE svg PUBLIC "-//W3C//DTD SVG 1.1//EN"
 "http://www.w3.org/Graphics/SVG/1.1/DTD/svg11.dtd">
<!-- Generated by graphviz version 2.43.0 (0)
 -->
<!-- Title: include/utils.hpp Pages: 1 -->
<svg width="442pt" height="82pt"
 viewBox="0.00 0.00 441.50 82.00" xmlns="http://www.w3.org/2000/svg" xmlns:xlink="http://www.w3.org/1999/xlink">
<g id="graph0" class="graph" transform="scale(1 1) rotate(0) translate(4 78)">
<title>include/utils.hpp</title>
<!-- Node1 -->
<g id="node1" class="node">
<title>Node1</title>
<g id="a_node1"><a xlink:title="Declares common utility functions used throughout the HQP solver.">
<polygon fill="#999999" stroke="#666666" points="249.5,-74 152.5,-74 152.5,-55 249.5,-55 249.5,-74"/>
<text text-anchor="middle" x="201" y="-62" font-family="Helvetica,sans-Serif" font-size="10.00">include/utils.hpp</text>
</a>
</g>
</g>
<!-- Node2 -->
<g id="node2" class="node">
<title>Node2</title>
<g id="a_node2"><a xlink:title=" ">
<polygon fill="#e0e0e0" stroke="#999999" points="58,-19 0,-19 0,0 58,0 58,-19"/>
<text text-anchor="middle" x="29" y="-7" font-family="Helvetica,sans-Serif" font-size="10.00">memory</text>
</a>
</g>
</g>
<!-- Node1&#45;&gt;Node2 -->
<g id="edge1" class="edge">
<title>Node1&#45;&gt;Node2</title>
<path fill="none" stroke="#63b8ff" d="M173.37,-54.98C144.49,-46.09 98.99,-32.07 66.8,-22.15"/>
<polygon fill="#63b8ff" stroke="#63b8ff" points="67.44,-18.68 56.85,-19.08 65.38,-25.37 67.44,-18.68"/>
</g>
<!-- Node3 -->
<g id="node3" class="node">
<title>Node3</title>
<g id="a_node3"><a xlink:title=" ">
<polygon fill="#e0e0e0" stroke="#999999" points="124,-19 76,-19 76,0 124,0 124,-19"/>
<text text-anchor="middle" x="100" y="-7" font-family="Helvetica,sans-Serif" font-size="10.00">mutex</text>
</a>
</g>
</g>
<!-- Node1&#45;&gt;Node3 -->
<g id="edge2" class="edge">
<title>Node1&#45;&gt;Node3</title>
<path fill="none" stroke="#63b8ff" d="M184.77,-54.98C168.82,-46.61 144.22,-33.7 125.62,-23.95"/>
<polygon fill="#63b8ff" stroke="#63b8ff" points="127,-20.72 116.52,-19.17 123.75,-26.92 127,-20.72"/>
</g>
<!-- Node4 -->
<g id="node4" class="node">
<title>Node4</title>
<g id="a_node4"><a xlink:title=" ">
<polygon fill="#e0e0e0" stroke="#999999" points="186,-19 142,-19 142,0 186,0 186,-19"/>
<text text-anchor="middle" x="164" y="-7" font-family="Helvetica,sans-Serif" font-size="10.00">string</text>
</a>
</g>
</g>
<!-- Node1&#45;&gt;Node4 -->
<g id="edge3" class="edge">
<title>Node1&#45;&gt;Node4</title>
<path fill="none" stroke="#63b8ff" d="M194.89,-54.75C189.72,-47.34 182.15,-36.5 175.81,-27.41"/>
<polygon fill="#63b8ff" stroke="#63b8ff" points="178.59,-25.29 170,-19.09 172.85,-29.29 178.59,-25.29"/>
</g>
<!-- Node5 -->
<g id="node5" class="node">
<title>Node5</title>
<g id="a_node5"><a xlink:title=" ">
<polygon fill="#e0e0e0" stroke="#999999" points="273.5,-19 204.5,-19 204.5,0 273.5,0 273.5,-19"/>
<text text-anchor="middle" x="239" y="-7" font-family="Helvetica,sans-Serif" font-size="10.00">type_traits</text>
</a>
</g>
</g>
<!-- Node1&#45;&gt;Node5 -->
<g id="edge4" class="edge">
<title>Node1&#45;&gt;Node5</title>
<path fill="none" stroke="#63b8ff" d="M207.27,-54.75C212.59,-47.34 220.36,-36.5 226.88,-27.41"/>
<polygon fill="#63b8ff" stroke="#63b8ff" points="229.86,-29.26 232.84,-19.09 224.17,-25.18 229.86,-29.26"/>
</g>
<!-- Node6 -->
<g id="node6" class="node">
<title>Node6</title>
<g id="a_node6"><a xlink:title=" ">
<polygon fill="#e0e0e0" stroke="#999999" points="338.5,-19 291.5,-19 291.5,0 338.5,0 338.5,-19"/>
<text text-anchor="middle" x="315" y="-7" font-family="Helvetica,sans-Serif" font-size="10.00">vector</text>
</a>
</g>
</g>
<!-- Node1&#45;&gt;Node6 -->
<g id="edge5" class="edge">
<title>Node1&#45;&gt;Node6</title>
<path fill="none" stroke="#63b8ff" d="M219.32,-54.98C237.66,-46.46 266.11,-33.23 287.23,-23.41"/>
<polygon fill="#63b8ff" stroke="#63b8ff" points="288.76,-26.56 296.35,-19.17 285.81,-20.21 288.76,-26.56"/>
</g>
<!-- Node7 -->
<g id="node7" class="node">
<title>Node7</title>
<g id="a_node7"><a xlink:title=" ">
<polygon fill="#e0e0e0" stroke="#999999" points="433.5,-19 356.5,-19 356.5,0 433.5,0 433.5,-19"/>
<text text-anchor="middle" x="395" y="-7" font-family="Helvetica,sans-Serif" font-size="10.00">Eigen/Dense</text>
</a>
</g>
</g>
<!-- Node1&#45;&gt;Node7 -->
<g id="edge6" class="edge">
<title>Node1&#45;&gt;Node7</title>
<path fill="none" stroke="#63b8ff" d="M232.17,-54.98C265.16,-45.97 317.4,-31.7 353.77,-21.76"/>
<polygon fill="#63b8ff" stroke="#63b8ff" points="354.86,-25.09 363.59,-19.08 353.02,-18.34 354.86,-25.09"/>
</g>
</g>
</svg>
