<?xml version="1.0" encoding="UTF-8" standalone="no"?>
<!DOCTYPE svg PUBLIC "-//W3C//DTD SVG 1.1//EN"
 "http://www.w3.org/Graphics/SVG/1.1/DTD/svg11.dtd">
<!-- Generated by graphviz version 2.43.0 (0)
 -->
<!-- Title: include/utils.hpp Pages: 1 -->
<svg width="355pt" height="192pt"
 viewBox="0.00 0.00 354.50 192.00" xmlns="http://www.w3.org/2000/svg" xmlns:xlink="http://www.w3.org/1999/xlink">
<g id="graph0" class="graph" transform="scale(1 1) rotate(0) translate(4 188)">
<title>include/utils.hpp</title>
<!-- Node1 -->
<g id="node1" class="node">
<title>Node1</title>
<g id="a_node1"><a xlink:title="Declares common utility functions used throughout the HQP solver.">
<polygon fill="#999999" stroke="#666666" points="179.5,-184 82.5,-184 82.5,-165 179.5,-165 179.5,-184"/>
<text text-anchor="middle" x="131" y="-172" font-family="Helvetica,sans-Serif" font-size="10.00">include/utils.hpp</text>
</a>
</g>
</g>
<!-- Node2 -->
<g id="node2" class="node">
<title>Node2</title>
<g id="a_node2"><a xlink:href="hqp_8hpp.html" target="_top" xlink:title="Main interface for the Weighted&#45;Hierarchical&#45;QP solver.">
<polygon fill="white" stroke="#666666" points="140,-74 46,-74 46,-55 140,-55 140,-74"/>
<text text-anchor="middle" x="93" y="-62" font-family="Helvetica,sans-Serif" font-size="10.00">include/hqp.hpp</text>
</a>
</g>
</g>
<!-- Node1&#45;&gt;Node2 -->
<g id="edge1" class="edge">
<title>Node1&#45;&gt;Node2</title>
<path fill="none" stroke="#63b8ff" d="M123.25,-155.28C119.94,-147.27 116.13,-137.73 113,-129 106.05,-109.64 99.09,-86.5 95.5,-74.2"/>
<polygon fill="#63b8ff" stroke="#63b8ff" points="120.11,-156.85 127.21,-164.71 126.57,-154.14 120.11,-156.85"/>
</g>
<!-- Node3 -->
<g id="node3" class="node">
<title>Node3</title>
<g id="a_node3"><a xlink:href="hqp_8cpp.html" target="_top" xlink:title=" ">
<polygon fill="white" stroke="#666666" points="72,-19 0,-19 0,0 72,0 72,-19"/>
<text text-anchor="middle" x="36" y="-7" font-family="Helvetica,sans-Serif" font-size="10.00">src/hqp.cpp</text>
</a>
</g>
</g>
<!-- Node1&#45;&gt;Node3 -->
<g id="edge10" class="edge">
<title>Node1&#45;&gt;Node3</title>
<path fill="none" stroke="#63b8ff" d="M110.12,-159.02C87.27,-141.79 51.93,-110.7 37,-74 29.52,-55.62 32.07,-31.69 34.23,-19.11"/>
<polygon fill="#63b8ff" stroke="#63b8ff" points="108.05,-161.85 118.19,-164.93 112.19,-156.2 108.05,-161.85"/>
</g>
<!-- Node5 -->
<g id="node5" class="node">
<title>Node5</title>
<g id="a_node5"><a xlink:href="task_8hpp.html" target="_top" xlink:title="Declares the abstract Task interface and its derivatives used in the HQP solver.">
<polygon fill="white" stroke="#666666" points="218.5,-129 121.5,-129 121.5,-110 218.5,-110 218.5,-129"/>
<text text-anchor="middle" x="170" y="-117" font-family="Helvetica,sans-Serif" font-size="10.00">include/task.hpp</text>
</a>
</g>
</g>
<!-- Node1&#45;&gt;Node5 -->
<g id="edge4" class="edge">
<title>Node1&#45;&gt;Node5</title>
<path fill="none" stroke="#63b8ff" d="M143.38,-156.67C150.14,-147.5 158.21,-136.52 163.68,-129.09"/>
<polygon fill="#63b8ff" stroke="#63b8ff" points="140.55,-154.62 137.44,-164.75 146.19,-158.77 140.55,-154.62"/>
</g>
<!-- Node9 -->
<g id="node9" class="node">
<title>Node9</title>
<g id="a_node9"><a xlink:href="utils_8cpp.html" target="_top" xlink:title=" ">
<polygon fill="white" stroke="#666666" points="311.5,-129 236.5,-129 236.5,-110 311.5,-110 311.5,-129"/>
<text text-anchor="middle" x="274" y="-117" font-family="Helvetica,sans-Serif" font-size="10.00">src/utils.cpp</text>
</a>
</g>
</g>
<!-- Node1&#45;&gt;Node9 -->
<g id="edge11" class="edge">
<title>Node1&#45;&gt;Node9</title>
<path fill="none" stroke="#63b8ff" d="M163.59,-161.42C190.12,-151.59 226.93,-137.95 250.61,-129.17"/>
<polygon fill="#63b8ff" stroke="#63b8ff" points="162.14,-158.23 153.98,-164.98 164.57,-164.79 162.14,-158.23"/>
</g>
<!-- Node2&#45;&gt;Node3 -->
<g id="edge2" class="edge">
<title>Node2&#45;&gt;Node3</title>
<path fill="none" stroke="#63b8ff" d="M76.38,-48.04C66.27,-38.64 53.72,-26.98 45.32,-19.17"/>
<polygon fill="#63b8ff" stroke="#63b8ff" points="74.14,-50.74 83.84,-54.98 78.9,-45.61 74.14,-50.74"/>
</g>
<!-- Node4 -->
<g id="node4" class="node">
<title>Node4</title>
<g id="a_node4"><a xlink:href="test0_8cpp.html" target="_top" xlink:title="Test driver for validating the Hierarchical&#45;QP solver functionality.">
<polygon fill="white" stroke="#666666" points="215.5,-19 126.5,-19 126.5,0 215.5,0 215.5,-19"/>
<text text-anchor="middle" x="171" y="-7" font-family="Helvetica,sans-Serif" font-size="10.00">tests/test0.cpp</text>
</a>
</g>
</g>
<!-- Node2&#45;&gt;Node4 -->
<g id="edge3" class="edge">
<title>Node2&#45;&gt;Node4</title>
<path fill="none" stroke="#63b8ff" d="M114.12,-49.15C128.21,-39.57 146.29,-27.29 158.24,-19.17"/>
<polygon fill="#63b8ff" stroke="#63b8ff" points="111.84,-46.47 105.53,-54.98 115.77,-52.26 111.84,-46.47"/>
</g>
<!-- Node5&#45;&gt;Node2 -->
<g id="edge5" class="edge">
<title>Node5&#45;&gt;Node2</title>
<path fill="none" stroke="#63b8ff" d="M149.15,-104.15C135.24,-94.57 117.39,-82.29 105.6,-74.17"/>
<polygon fill="#63b8ff" stroke="#63b8ff" points="147.41,-107.2 157.63,-109.98 151.38,-101.43 147.41,-107.2"/>
</g>
<!-- Node6 -->
<g id="node6" class="node">
<title>Node6</title>
<g id="a_node6"><a xlink:href="task_8cpp.html" target="_top" xlink:title="Implements the methods declared in task.hpp.">
<polygon fill="white" stroke="#666666" points="233.5,-74 158.5,-74 158.5,-55 233.5,-55 233.5,-74"/>
<text text-anchor="middle" x="196" y="-62" font-family="Helvetica,sans-Serif" font-size="10.00">src/task.cpp</text>
</a>
</g>
</g>
<!-- Node5&#45;&gt;Node6 -->
<g id="edge6" class="edge">
<title>Node5&#45;&gt;Node6</title>
<path fill="none" stroke="#63b8ff" d="M178.82,-100.53C183.2,-91.6 188.29,-81.22 191.79,-74.09"/>
<polygon fill="#63b8ff" stroke="#63b8ff" points="175.56,-99.23 174.29,-109.75 181.84,-102.31 175.56,-99.23"/>
</g>
<!-- Node7 -->
<g id="node7" class="node">
<title>Node7</title>
<g id="a_node7"><a xlink:href="library_8hpp.html" target="_top" xlink:title="Defines test task classes for the Weighted&#45;Hierarchical&#45;QP solver.">
<polygon fill="white" stroke="#666666" points="346.5,-74 251.5,-74 251.5,-55 346.5,-55 346.5,-74"/>
<text text-anchor="middle" x="299" y="-62" font-family="Helvetica,sans-Serif" font-size="10.00">tests/library.hpp</text>
</a>
</g>
</g>
<!-- Node5&#45;&gt;Node7 -->
<g id="edge7" class="edge">
<title>Node5&#45;&gt;Node7</title>
<path fill="none" stroke="#63b8ff" d="M200.04,-106.16C223.92,-96.35 256.72,-82.87 277.9,-74.17"/>
<polygon fill="#63b8ff" stroke="#63b8ff" points="198.65,-102.95 190.73,-109.98 201.31,-109.42 198.65,-102.95"/>
</g>
<!-- Node7&#45;&gt;Node4 -->
<g id="edge9" class="edge">
<title>Node7&#45;&gt;Node4</title>
<path fill="none" stroke="#63b8ff" d="M268.88,-51.03C245.21,-41.23 212.85,-27.83 191.94,-19.17"/>
<polygon fill="#63b8ff" stroke="#63b8ff" points="267.86,-54.39 278.43,-54.98 270.53,-47.93 267.86,-54.39"/>
</g>
<!-- Node8 -->
<g id="node8" class="node">
<title>Node8</title>
<g id="a_node8"><a xlink:href="library_8cpp.html" target="_top" xlink:title="Implements the run() functions for various test tasks.">
<polygon fill="white" stroke="#666666" points="346,-19 252,-19 252,0 346,0 346,-19"/>
<text text-anchor="middle" x="299" y="-7" font-family="Helvetica,sans-Serif" font-size="10.00">tests/library.cpp</text>
</a>
</g>
</g>
<!-- Node7&#45;&gt;Node8 -->
<g id="edge8" class="edge">
<title>Node7&#45;&gt;Node8</title>
<path fill="none" stroke="#63b8ff" d="M299,-44.66C299,-35.93 299,-25.99 299,-19.09"/>
<polygon fill="#63b8ff" stroke="#63b8ff" points="295.5,-44.75 299,-54.75 302.5,-44.75 295.5,-44.75"/>
</g>
</g>
</svg>
