<?xml version="1.0" encoding="UTF-8" standalone="no"?>
<!DOCTYPE svg PUBLIC "-//W3C//DTD SVG 1.1//EN"
 "http://www.w3.org/Graphics/SVG/1.1/DTD/svg11.dtd">
<!-- Generated by graphviz version 2.43.0 (0)
 -->
<!-- Title: include/utils.hpp Pages: 1 -->
<svg width="695pt" height="192pt"
 viewBox="0.00 0.00 695.00 192.00" xmlns="http://www.w3.org/2000/svg" xmlns:xlink="http://www.w3.org/1999/xlink">
<g id="graph0" class="graph" transform="scale(1 1) rotate(0) translate(4 188)">
<title>include/utils.hpp</title>
<!-- Node1 -->
<g id="node1" class="node">
<title>Node1</title>
<g id="a_node1"><a xlink:title="Declares common utility functions used throughout the HQP solver.">
<polygon fill="#999999" stroke="#666666" points="286.5,-184 189.5,-184 189.5,-165 286.5,-165 286.5,-184"/>
<text text-anchor="middle" x="238" y="-172" font-family="Helvetica,sans-Serif" font-size="10.00">include/utils.hpp</text>
</a>
</g>
</g>
<!-- Node2 -->
<g id="node2" class="node">
<title>Node2</title>
<g id="a_node2"><a xlink:href="task_8hpp.html" target="_top" xlink:title="Declares the abstract Task interface and its derivatives used in the HQP solver.">
<polygon fill="white" stroke="#666666" points="286.5,-129 189.5,-129 189.5,-110 286.5,-110 286.5,-129"/>
<text text-anchor="middle" x="238" y="-117" font-family="Helvetica,sans-Serif" font-size="10.00">include/task.hpp</text>
</a>
</g>
</g>
<!-- Node1&#45;&gt;Node2 -->
<g id="edge1" class="edge">
<title>Node1&#45;&gt;Node2</title>
<path fill="none" stroke="#63b8ff" d="M238,-154.66C238,-145.93 238,-135.99 238,-129.09"/>
<polygon fill="#63b8ff" stroke="#63b8ff" points="234.5,-154.75 238,-164.75 241.5,-154.75 234.5,-154.75"/>
</g>
<!-- Node4 -->
<g id="node4" class="node">
<title>Node4</title>
<g id="a_node4"><a xlink:href="hqp_8cpp.html" target="_top" xlink:title=" ">
<polygon fill="white" stroke="#666666" points="72,-19 0,-19 0,0 72,0 72,-19"/>
<text text-anchor="middle" x="36" y="-7" font-family="Helvetica,sans-Serif" font-size="10.00">src/hqp.cpp</text>
</a>
</g>
</g>
<!-- Node1&#45;&gt;Node4 -->
<g id="edge13" class="edge">
<title>Node1&#45;&gt;Node4</title>
<path fill="none" stroke="#63b8ff" d="M218.07,-158.48C206.82,-149.93 192.54,-138.97 180,-129 129.31,-88.71 69.93,-39.05 46.38,-19.25"/>
<polygon fill="#63b8ff" stroke="#63b8ff" points="216.27,-161.5 226.36,-164.75 220.5,-155.92 216.27,-161.5"/>
</g>
<!-- Node11 -->
<g id="node11" class="node">
<title>Node11</title>
<g id="a_node11"><a xlink:href="utils_8cpp.html" target="_top" xlink:title=" ">
<polygon fill="white" stroke="#666666" points="379.5,-129 304.5,-129 304.5,-110 379.5,-110 379.5,-129"/>
<text text-anchor="middle" x="342" y="-117" font-family="Helvetica,sans-Serif" font-size="10.00">src/utils.cpp</text>
</a>
</g>
</g>
<!-- Node1&#45;&gt;Node11 -->
<g id="edge14" class="edge">
<title>Node1&#45;&gt;Node11</title>
<path fill="none" stroke="#63b8ff" d="M263.77,-160.37C282.87,-150.63 308.37,-137.64 324.99,-129.17"/>
<polygon fill="#63b8ff" stroke="#63b8ff" points="262.03,-157.33 254.71,-164.98 265.21,-163.56 262.03,-157.33"/>
</g>
<!-- Node3 -->
<g id="node3" class="node">
<title>Node3</title>
<g id="a_node3"><a xlink:href="hqp_8hpp.html" target="_top" xlink:title="Main interface for the Weighted&#45;Hierarchical&#45;QP solver.">
<polygon fill="white" stroke="#666666" points="388,-74 294,-74 294,-55 388,-55 388,-74"/>
<text text-anchor="middle" x="341" y="-62" font-family="Helvetica,sans-Serif" font-size="10.00">include/hqp.hpp</text>
</a>
</g>
</g>
<!-- Node2&#45;&gt;Node3 -->
<g id="edge2" class="edge">
<title>Node2&#45;&gt;Node3</title>
<path fill="none" stroke="#63b8ff" d="M263.52,-105.37C282.44,-95.63 307.7,-82.64 324.15,-74.17"/>
<polygon fill="#63b8ff" stroke="#63b8ff" points="261.84,-102.3 254.55,-109.98 265.04,-108.52 261.84,-102.3"/>
</g>
<!-- Node7 -->
<g id="node7" class="node">
<title>Node7</title>
<g id="a_node7"><a xlink:href="02__compare__solvers_8cpp.html" target="_top" xlink:title=" ">
<polygon fill="white" stroke="#666666" points="254,-19 90,-19 90,0 254,0 254,-19"/>
<text text-anchor="middle" x="172" y="-7" font-family="Helvetica,sans-Serif" font-size="10.00">tests/02_compare_solvers.cpp</text>
</a>
</g>
</g>
<!-- Node2&#45;&gt;Node7 -->
<g id="edge8" class="edge">
<title>Node2&#45;&gt;Node7</title>
<path fill="none" stroke="#63b8ff" d="M217.79,-103.47C208.46,-95.61 197.94,-85.28 191,-74 180.14,-56.36 175.16,-32.13 173.16,-19.3"/>
<polygon fill="#63b8ff" stroke="#63b8ff" points="215.89,-106.44 225.88,-109.95 220.26,-100.97 215.89,-106.44"/>
</g>
<!-- Node8 -->
<g id="node8" class="node">
<title>Node8</title>
<g id="a_node8"><a xlink:href="task_8cpp.html" target="_top" xlink:title="Implements the methods declared in task.hpp.">
<polygon fill="white" stroke="#666666" points="275.5,-74 200.5,-74 200.5,-55 275.5,-55 275.5,-74"/>
<text text-anchor="middle" x="238" y="-62" font-family="Helvetica,sans-Serif" font-size="10.00">src/task.cpp</text>
</a>
</g>
</g>
<!-- Node2&#45;&gt;Node8 -->
<g id="edge7" class="edge">
<title>Node2&#45;&gt;Node8</title>
<path fill="none" stroke="#63b8ff" d="M238,-99.66C238,-90.93 238,-80.99 238,-74.09"/>
<polygon fill="#63b8ff" stroke="#63b8ff" points="234.5,-99.75 238,-109.75 241.5,-99.75 234.5,-99.75"/>
</g>
<!-- Node9 -->
<g id="node9" class="node">
<title>Node9</title>
<g id="a_node9"><a xlink:href="library_8hpp.html" target="_top" xlink:title="Defines test task classes for the Weighted&#45;Hierarchical&#45;QP solver.">
<polygon fill="white" stroke="#666666" points="526.5,-74 431.5,-74 431.5,-55 526.5,-55 526.5,-74"/>
<text text-anchor="middle" x="479" y="-62" font-family="Helvetica,sans-Serif" font-size="10.00">tests/library.hpp</text>
</a>
</g>
</g>
<!-- Node2&#45;&gt;Node9 -->
<g id="edge9" class="edge">
<title>Node2&#45;&gt;Node9</title>
<path fill="none" stroke="#63b8ff" d="M286.58,-107.82C331.75,-97.88 398.17,-83.28 439.98,-74.08"/>
<polygon fill="#63b8ff" stroke="#63b8ff" points="285.74,-104.42 276.72,-109.98 287.24,-111.26 285.74,-104.42"/>
</g>
<!-- Node3&#45;&gt;Node4 -->
<g id="edge3" class="edge">
<title>Node3&#45;&gt;Node4</title>
<path fill="none" stroke="#63b8ff" d="M283.83,-54C231.11,-45.18 150.72,-31.55 81,-19 78.18,-18.49 75.27,-17.96 72.34,-17.42"/>
<polygon fill="#63b8ff" stroke="#63b8ff" points="283.55,-57.51 293.99,-55.7 284.7,-50.6 283.55,-57.51"/>
</g>
<!-- Node5 -->
<g id="node5" class="node">
<title>Node5</title>
<g id="a_node5"><a xlink:href="00__basic__select_8cpp.html" target="_top" xlink:title=" ">
<polygon fill="white" stroke="#666666" points="574.5,-19 433.5,-19 433.5,0 574.5,0 574.5,-19"/>
<text text-anchor="middle" x="504" y="-7" font-family="Helvetica,sans-Serif" font-size="10.00">tests/00_basic_select.cpp</text>
</a>
</g>
</g>
<!-- Node3&#45;&gt;Node5 -->
<g id="edge4" class="edge">
<title>Node3&#45;&gt;Node5</title>
<path fill="none" stroke="#63b8ff" d="M376.99,-51.8C407.41,-41.91 450.28,-27.97 477.61,-19.08"/>
<polygon fill="#63b8ff" stroke="#63b8ff" points="375.62,-48.56 367.19,-54.98 377.78,-55.22 375.62,-48.56"/>
</g>
<!-- Node6 -->
<g id="node6" class="node">
<title>Node6</title>
<g id="a_node6"><a xlink:href="01__metric__swap_8cpp.html" target="_top" xlink:title=" ">
<polygon fill="white" stroke="#666666" points="415.5,-19 272.5,-19 272.5,0 415.5,0 415.5,-19"/>
<text text-anchor="middle" x="344" y="-7" font-family="Helvetica,sans-Serif" font-size="10.00">tests/01_metric_swap.cpp</text>
</a>
</g>
</g>
<!-- Node3&#45;&gt;Node6 -->
<g id="edge5" class="edge">
<title>Node3&#45;&gt;Node6</title>
<path fill="none" stroke="#63b8ff" d="M342.07,-44.66C342.56,-35.93 343.12,-25.99 343.51,-19.09"/>
<polygon fill="#63b8ff" stroke="#63b8ff" points="338.57,-44.57 341.5,-54.75 345.56,-44.96 338.57,-44.57"/>
</g>
<!-- Node3&#45;&gt;Node7 -->
<g id="edge6" class="edge">
<title>Node3&#45;&gt;Node7</title>
<path fill="none" stroke="#63b8ff" d="M304.1,-51.93C272.53,-42.03 227.82,-28.01 199.37,-19.08"/>
<polygon fill="#63b8ff" stroke="#63b8ff" points="303.26,-55.33 313.85,-54.98 305.35,-48.65 303.26,-55.33"/>
</g>
<!-- Node9&#45;&gt;Node5 -->
<g id="edge10" class="edge">
<title>Node9&#45;&gt;Node5</title>
<path fill="none" stroke="#63b8ff" d="M487.48,-45.53C491.69,-36.6 496.59,-26.22 499.95,-19.09"/>
<polygon fill="#63b8ff" stroke="#63b8ff" points="484.23,-44.21 483.13,-54.75 490.56,-47.2 484.23,-44.21"/>
</g>
<!-- Node9&#45;&gt;Node6 -->
<g id="edge11" class="edge">
<title>Node9&#45;&gt;Node6</title>
<path fill="none" stroke="#63b8ff" d="M447.9,-51.29C422.88,-41.47 388.34,-27.91 366.08,-19.17"/>
<polygon fill="#63b8ff" stroke="#63b8ff" points="446.72,-54.59 457.31,-54.98 449.28,-48.07 446.72,-54.59"/>
</g>
<!-- Node10 -->
<g id="node10" class="node">
<title>Node10</title>
<g id="a_node10"><a xlink:href="library_8cpp.html" target="_top" xlink:title="Implements the run() functions for various test tasks.">
<polygon fill="white" stroke="#666666" points="687,-19 593,-19 593,0 687,0 687,-19"/>
<text text-anchor="middle" x="640" y="-7" font-family="Helvetica,sans-Serif" font-size="10.00">tests/library.cpp</text>
</a>
</g>
</g>
<!-- Node9&#45;&gt;Node10 -->
<g id="edge12" class="edge">
<title>Node9&#45;&gt;Node10</title>
<path fill="none" stroke="#63b8ff" d="M514.55,-51.8C544.59,-41.91 586.94,-27.97 613.93,-19.08"/>
<polygon fill="#63b8ff" stroke="#63b8ff" points="513.27,-48.53 504.87,-54.98 515.46,-55.18 513.27,-48.53"/>
</g>
</g>
</svg>
