<?xml version="1.0" encoding="UTF-8" standalone="no"?>
<!DOCTYPE svg PUBLIC "-//W3C//DTD SVG 1.1//EN"
 "http://www.w3.org/Graphics/SVG/1.1/DTD/svg11.dtd">
<!-- Generated by graphviz version 2.43.0 (0)
 -->
<!-- Title: hqp::find Pages: 1 -->
<svg width="740pt" height="210pt"
 viewBox="0.00 0.00 740.00 210.00" xmlns="http://www.w3.org/2000/svg" xmlns:xlink="http://www.w3.org/1999/xlink">
<g id="graph0" class="graph" transform="scale(1 1) rotate(0) translate(4 206)">
<title>hqp::find</title>
<!-- Node1 -->
<g id="Node000001" class="node">
<title>Node1</title>
<g id="a_Node000001"><a xlink:title=" ">
<polygon fill="#999999" stroke="#666666" points="732,-105.5 673,-105.5 673,-86.5 732,-86.5 732,-105.5"/>
<text text-anchor="middle" x="702.5" y="-93.5" font-family="Helvetica,sans-Serif" font-size="10.00">hqp::find</text>
</a>
</g>
</g>
<!-- Node2 -->
<g id="Node000002" class="node">
<title>Node2</title>
<g id="a_Node000002"><a xlink:href="classhqp_1_1HierarchicalQP.html#a292d98f5d69d3666a895d6a95e5dc6b9" target="_top" xlink:title="Updates dual variables.">
<polygon fill="white" stroke="#666666" points="637,-154 524,-154 524,-124 637,-124 637,-154"/>
<text text-anchor="start" x="532" y="-142" font-family="Helvetica,sans-Serif" font-size="10.00">hqp::HierarchicalQP</text>
<text text-anchor="middle" x="580.5" y="-131" font-family="Helvetica,sans-Serif" font-size="10.00">::dual_update</text>
</a>
</g>
</g>
<!-- Node1&#45;&gt;Node2 -->
<g id="edge1_Node000001_Node000002" class="edge">
<title>Node1&#45;&gt;Node2</title>
<g id="a_edge1_Node000001_Node000002"><a xlink:title=" ">
<path fill="none" stroke="#63b8ff" d="M665.24,-108.99C652.12,-113.69 637.19,-119.04 623.61,-123.91"/>
<polygon fill="#63b8ff" stroke="#63b8ff" points="666.63,-112.21 674.87,-105.54 664.27,-105.62 666.63,-112.21"/>
</a>
</g>
</g>
<!-- Node3 -->
<g id="Node000003" class="node">
<title>Node3</title>
<g id="a_Node000003"><a xlink:href="classhqp_1_1HierarchicalQP.html#aaf6df9e4aa247e25e1ff253bd6501028" target="_top" xlink:title="Handles inequality constrained tasks.">
<polygon fill="white" stroke="#666666" points="488,-135 375,-135 375,-105 488,-105 488,-135"/>
<text text-anchor="start" x="383" y="-123" font-family="Helvetica,sans-Serif" font-size="10.00">hqp::HierarchicalQP</text>
<text text-anchor="middle" x="431.5" y="-112" font-family="Helvetica,sans-Serif" font-size="10.00">::inequality_hqp</text>
</a>
</g>
</g>
<!-- Node1&#45;&gt;Node3 -->
<g id="edge9_Node000001_Node000003" class="edge">
<title>Node1&#45;&gt;Node3</title>
<g id="a_edge9_Node000001_Node000003"><a xlink:title=" ">
<path fill="none" stroke="#63b8ff" d="M662.86,-99.45C617.07,-103.53 540.43,-110.37 488.23,-115.03"/>
<polygon fill="#63b8ff" stroke="#63b8ff" points="663.32,-102.92 672.97,-98.55 662.7,-95.95 663.32,-102.92"/>
</a>
</g>
</g>
<!-- Node4 -->
<g id="Node000004" class="node">
<title>Node4</title>
<g id="a_Node000004"><a xlink:href="classhqp_1_1HierarchicalQP.html#adac78a9cc96e9d4f311b9ef72acd7ebd" target="_top" xlink:title="Solves the overall HQP by combining tasks.">
<polygon fill="white" stroke="#666666" points="339,-110 226,-110 226,-80 339,-80 339,-110"/>
<text text-anchor="start" x="234" y="-98" font-family="Helvetica,sans-Serif" font-size="10.00">hqp::HierarchicalQP</text>
<text text-anchor="middle" x="282.5" y="-87" font-family="Helvetica,sans-Serif" font-size="10.00">::solve</text>
</a>
</g>
</g>
<!-- Node1&#45;&gt;Node4 -->
<g id="edge12_Node000001_Node000004" class="edge">
<title>Node1&#45;&gt;Node4</title>
<g id="a_edge12_Node000001_Node000004"><a xlink:title=" ">
<path fill="none" stroke="#63b8ff" d="M662.43,-95.91C587.86,-95.73 425.06,-95.34 339.14,-95.13"/>
<polygon fill="#63b8ff" stroke="#63b8ff" points="662.76,-99.41 672.77,-95.93 662.78,-92.41 662.76,-99.41"/>
</a>
</g>
</g>
<!-- Node7 -->
<g id="Node000007" class="node">
<title>Node7</title>
<g id="a_Node000007"><a xlink:href="classhqp_1_1HierarchicalQP.html#add4448ad1c21585e607457463016a027" target="_top" xlink:title="Handles equality constraint resolution.">
<polygon fill="white" stroke="#666666" points="637,-202 524,-202 524,-172 637,-172 637,-202"/>
<text text-anchor="start" x="532" y="-190" font-family="Helvetica,sans-Serif" font-size="10.00">hqp::HierarchicalQP</text>
<text text-anchor="middle" x="580.5" y="-179" font-family="Helvetica,sans-Serif" font-size="10.00">::equality_hqp</text>
</a>
</g>
</g>
<!-- Node1&#45;&gt;Node7 -->
<g id="edge6_Node000001_Node000007" class="edge">
<title>Node1&#45;&gt;Node7</title>
<g id="a_edge6_Node000001_Node000007"><a xlink:title=" ">
<path fill="none" stroke="#63b8ff" d="M687.83,-113.71C675.74,-128.44 656.96,-149.16 637,-163 632.26,-166.29 626.99,-169.27 621.64,-171.93"/>
<polygon fill="#63b8ff" stroke="#63b8ff" points="690.62,-115.83 694.14,-105.83 685.16,-111.45 690.62,-115.83"/>
</a>
</g>
</g>
<!-- Node8 -->
<g id="Node000008" class="node">
<title>Node8</title>
<g id="a_Node000008"><a xlink:href="classhqp_1_1HierarchicalQP.html#aae5aaeddac67302f310f34bfa3eb66c4" target="_top" xlink:title="Outputs the active set details to the console.">
<polygon fill="white" stroke="#666666" points="488,-30 375,-30 375,0 488,0 488,-30"/>
<text text-anchor="start" x="383" y="-18" font-family="Helvetica,sans-Serif" font-size="10.00">hqp::HierarchicalQP</text>
<text text-anchor="middle" x="431.5" y="-7" font-family="Helvetica,sans-Serif" font-size="10.00">::print_active_set</text>
</a>
</g>
</g>
<!-- Node1&#45;&gt;Node8 -->
<g id="edge10_Node000001_Node000008" class="edge">
<title>Node1&#45;&gt;Node8</title>
<g id="a_edge10_Node000001_Node000008"><a xlink:title=" ">
<path fill="none" stroke="#63b8ff" d="M685.85,-79.27C673.71,-67.4 655.83,-52.18 637,-44 589.47,-23.36 530.44,-16.78 488.04,-14.97"/>
<polygon fill="#63b8ff" stroke="#63b8ff" points="683.44,-81.81 692.95,-86.48 688.43,-76.9 683.44,-81.81"/>
</a>
</g>
</g>
<!-- Node2&#45;&gt;Node3 -->
<g id="edge2_Node000002_Node000003" class="edge">
<title>Node2&#45;&gt;Node3</title>
<g id="a_edge2_Node000002_Node000003"><a xlink:title=" ">
<path fill="none" stroke="#63b8ff" d="M513.92,-130.52C505.32,-129.41 496.57,-128.28 488.15,-127.19"/>
<polygon fill="#63b8ff" stroke="#63b8ff" points="513.56,-134.01 523.93,-131.82 514.46,-127.06 513.56,-134.01"/>
</a>
</g>
</g>
<!-- Node3&#45;&gt;Node4 -->
<g id="edge3_Node000003_Node000004" class="edge">
<title>Node3&#45;&gt;Node4</title>
<g id="a_edge3_Node000003_Node000004"><a xlink:title=" ">
<path fill="none" stroke="#63b8ff" d="M364.92,-108.85C356.32,-107.38 347.57,-105.9 339.15,-104.46"/>
<polygon fill="#63b8ff" stroke="#63b8ff" points="364.48,-112.32 374.93,-110.55 365.65,-105.42 364.48,-112.32"/>
</a>
</g>
</g>
<!-- Node5 -->
<g id="Node000005" class="node">
<title>Node5</title>
<g id="a_Node000005"><a xlink:href="classhqp_1_1HierarchicalQP.html#afd188fe690d31e139bdb9ed95b8acf01" target="_top" xlink:title="Computes and retrieves the primal solution.">
<polygon fill="white" stroke="#666666" points="190,-105 77,-105 77,-75 190,-75 190,-105"/>
<text text-anchor="start" x="85" y="-93" font-family="Helvetica,sans-Serif" font-size="10.00">hqp::HierarchicalQP</text>
<text text-anchor="middle" x="133.5" y="-82" font-family="Helvetica,sans-Serif" font-size="10.00">::get_primal</text>
</a>
</g>
</g>
<!-- Node4&#45;&gt;Node5 -->
<g id="edge4_Node000004_Node000005" class="edge">
<title>Node4&#45;&gt;Node5</title>
<g id="a_edge4_Node000004_Node000005"><a xlink:title=" ">
<path fill="none" stroke="#63b8ff" d="M215.92,-92.77C207.32,-92.48 198.57,-92.18 190.15,-91.89"/>
<polygon fill="#63b8ff" stroke="#63b8ff" points="215.81,-96.27 225.93,-93.11 216.05,-89.27 215.81,-96.27"/>
</a>
</g>
</g>
<!-- Node6 -->
<g id="Node000006" class="node">
<title>Node6</title>
<g id="a_Node000006"><a xlink:href="test0_8cpp.html#ae66f6b31b5ad750f1fe042a706a4e3d4" target="_top" xlink:title=" ">
<polygon fill="white" stroke="#666666" points="41,-66.5 0,-66.5 0,-47.5 41,-47.5 41,-66.5"/>
<text text-anchor="middle" x="20.5" y="-54.5" font-family="Helvetica,sans-Serif" font-size="10.00">main</text>
</a>
</g>
</g>
<!-- Node5&#45;&gt;Node6 -->
<g id="edge5_Node000005_Node000006" class="edge">
<title>Node5&#45;&gt;Node6</title>
<g id="a_edge5_Node000005_Node000006"><a xlink:title=" ">
<path fill="none" stroke="#63b8ff" d="M72.06,-72.03C60.91,-68.72 50.04,-65.48 41.25,-62.87"/>
<polygon fill="#63b8ff" stroke="#63b8ff" points="71.29,-75.45 81.87,-74.95 73.28,-68.74 71.29,-75.45"/>
</a>
</g>
</g>
<!-- Node7&#45;&gt;Node3 -->
<g id="edge7_Node000007_Node000003" class="edge">
<title>Node7&#45;&gt;Node3</title>
<g id="a_edge7_Node000007_Node000003"><a xlink:title=" ">
<path fill="none" stroke="#63b8ff" d="M534.97,-167.89C531.25,-166.25 527.56,-164.61 524,-163 504,-153.98 481.72,-143.52 464.15,-135.17"/>
<polygon fill="#63b8ff" stroke="#63b8ff" points="533.63,-171.12 544.2,-171.93 536.44,-164.71 533.63,-171.12"/>
</a>
</g>
</g>
<!-- Node7&#45;&gt;Node4 -->
<g id="edge8_Node000007_Node000004" class="edge">
<title>Node7&#45;&gt;Node4</title>
<g id="a_edge8_Node000007_Node000004"><a xlink:title=" ">
<path fill="none" stroke="#63b8ff" d="M513.55,-178.02C472.82,-171.29 419.94,-160.38 375,-144 350.79,-135.18 325.08,-120.92 307.09,-110.06"/>
<polygon fill="#63b8ff" stroke="#63b8ff" points="513.2,-181.51 523.63,-179.64 514.32,-174.6 513.2,-181.51"/>
</a>
</g>
</g>
<!-- Node8&#45;&gt;Node6 -->
<g id="edge11_Node000008_Node000006" class="edge">
<title>Node8&#45;&gt;Node6</title>
<g id="a_edge11_Node000008_Node000006"><a xlink:title=" ">
<path fill="none" stroke="#63b8ff" d="M364.83,-21.74C269.69,-31.51 98.61,-49.08 41.02,-55"/>
<polygon fill="#63b8ff" stroke="#63b8ff" points="365.32,-25.21 374.91,-20.71 364.61,-18.25 365.32,-25.21"/>
</a>
</g>
</g>
</g>
</svg>
